<svg width="44" height="44" viewBox="0 0 44 44" fill="none" xmlns="http://www.w3.org/2000/svg">
<g opacity="0.98">
<mask id="path-1-outside-1" maskUnits="userSpaceOnUse" x="0" y="38.3939" width="44" height="6" fill="black">
<rect fill="white" y="38.3939" width="44" height="6"/>
<path d="M2.60907 41.4316C2.36197 41.6135 2 41.9351 2 41.9728C2 42.024 2.03851 41.9998 2.23233 41.8269C3.21874 40.9467 4.29139 40.5765 5.48245 40.7051C5.91712 40.7521 6.2889 40.8348 6.81181 41.0011C7.9443 41.3611 8.18278 41.4136 8.68523 41.414C9.09519 41.4143 9.26395 41.3852 10.1496 41.1619C10.7978 40.9985 10.8634 40.9902 11.5007 40.9903C11.9865 40.9904 12.1299 40.9975 12.5411 41.0418C13.4035 41.1346 13.8362 41.1493 14.34 41.1029C14.8909 41.0522 15.1788 40.9889 15.8428 40.7726C16.6367 40.514 16.8337 40.4694 17.1812 40.4694C17.6663 40.4694 17.9683 40.5859 18.7978 41.0926C19.2713 41.3819 19.3374 41.4195 19.563 41.5273C20.0892 41.7789 20.629 41.8383 21.1964 41.707C21.5611 41.6226 21.939 41.4605 22.4144 41.1847C23.2771 40.6842 23.5996 40.5699 24.0136 40.6178C24.1897 40.6382 24.2254 40.649 24.3999 40.7351C24.6049 40.8363 24.8547 41.0122 25.1846 41.2879C25.5555 41.5978 25.7979 41.7664 26.0321 41.8776L26.2501 41.9811H26.4568C26.6574 41.9811 26.6692 41.9788 26.8561 41.9042C27.0991 41.8071 27.3283 41.6525 27.8381 41.2415C28.3302 40.8447 28.5889 40.6838 28.862 40.6044C29.2421 40.4939 29.5237 40.5067 30.2636 40.668C30.9532 40.8184 31.1824 40.837 31.9903 40.8078C32.9684 40.7726 33.2863 40.8244 34.3069 41.1859C35.3183 41.5441 35.6216 41.6093 36.2747 41.6089C36.5701 41.6086 36.6904 41.6004 36.8816 41.5673C37.3369 41.4885 37.6525 41.3865 38.3699 41.086C38.8777 40.8734 39.1131 40.7871 39.3741 40.7179C40.3492 40.4594 41.0661 40.7613 41.7565 41.7212C41.8668 41.8746 41.9659 42 41.9769 42C42.0234 42 41.9855 41.9296 41.798 41.668C41.1986 40.8314 40.5569 40.4809 39.7787 40.565C39.4125 40.6046 39.0613 40.7159 38.3193 41.0273C37.359 41.4304 36.9562 41.531 36.2891 41.5345C35.6466 41.5379 35.3246 41.4693 34.323 41.1153C33.2911 40.7507 32.9548 40.6969 31.9542 40.7362C31.2272 40.7647 30.9413 40.7405 30.267 40.5933C29.524 40.4312 29.2428 40.4186 28.8547 40.5303C28.6903 40.5775 28.6125 40.6124 28.44 40.7161C28.2256 40.845 28.091 40.945 27.6698 41.2885C27.3231 41.5712 27.0588 41.7447 26.8425 41.8315C26.6665 41.9021 26.6495 41.9054 26.4599 41.9054L26.2614 41.9055L26.0553 41.809C25.8294 41.7033 25.6115 41.552 25.2278 41.2344C24.8596 40.9296 24.6468 40.7793 24.4287 40.6699C24.2392 40.5749 24.2115 40.5663 24.0225 40.5439C23.8407 40.5222 23.8007 40.5233 23.6351 40.554C23.3262 40.6113 23.0662 40.7278 22.4302 41.0935C21.5664 41.5904 21.0038 41.7524 20.3727 41.6861C19.9597 41.6427 19.6041 41.4998 19.0145 41.1402C17.9723 40.5047 17.7001 40.3939 17.1805 40.3939C16.8283 40.3939 16.617 40.4425 15.7777 40.7165C14.6793 41.0752 14.0166 41.1262 12.5338 40.9662C12.1315 40.9228 11.9833 40.9155 11.5006 40.915C10.8633 40.9145 10.7988 40.9227 10.1496 41.0865C9.2697 41.3085 9.09794 41.3383 8.69434 41.3385C8.26861 41.3388 7.95932 41.2829 7.38245 41.1016C6.45089 40.8087 6.30287 40.7673 5.93026 40.6948C5.82298 40.674 5.61815 40.6447 5.4751 40.6297C4.43368 40.5209 3.48569 40.7861 2.60907 41.4316Z"/>
</mask>
<path d="M2.60907 41.4316C2.36197 41.6135 2 41.9351 2 41.9728C2 42.024 2.03851 41.9998 2.23233 41.8269C3.21874 40.9467 4.29139 40.5765 5.48245 40.7051C5.91712 40.7521 6.2889 40.8348 6.81181 41.0011C7.9443 41.3611 8.18278 41.4136 8.68523 41.414C9.09519 41.4143 9.26395 41.3852 10.1496 41.1619C10.7978 40.9985 10.8634 40.9902 11.5007 40.9903C11.9865 40.9904 12.1299 40.9975 12.5411 41.0418C13.4035 41.1346 13.8362 41.1493 14.34 41.1029C14.8909 41.0522 15.1788 40.9889 15.8428 40.7726C16.6367 40.514 16.8337 40.4694 17.1812 40.4694C17.6663 40.4694 17.9683 40.5859 18.7978 41.0926C19.2713 41.3819 19.3374 41.4195 19.563 41.5273C20.0892 41.7789 20.629 41.8383 21.1964 41.707C21.5611 41.6226 21.939 41.4605 22.4144 41.1847C23.2771 40.6842 23.5996 40.5699 24.0136 40.6178C24.1897 40.6382 24.2254 40.649 24.3999 40.7351C24.6049 40.8363 24.8547 41.0122 25.1846 41.2879C25.5555 41.5978 25.7979 41.7664 26.0321 41.8776L26.2501 41.9811H26.4568C26.6574 41.9811 26.6692 41.9788 26.8561 41.9042C27.0991 41.8071 27.3283 41.6525 27.8381 41.2415C28.3302 40.8447 28.5889 40.6838 28.862 40.6044C29.2421 40.4939 29.5237 40.5067 30.2636 40.668C30.9532 40.8184 31.1824 40.837 31.9903 40.8078C32.9684 40.7726 33.2863 40.8244 34.3069 41.1859C35.3183 41.5441 35.6216 41.6093 36.2747 41.6089C36.5701 41.6086 36.6904 41.6004 36.8816 41.5673C37.3369 41.4885 37.6525 41.3865 38.3699 41.086C38.8777 40.8734 39.1131 40.7871 39.3741 40.7179C40.3492 40.4594 41.0661 40.7613 41.7565 41.7212C41.8668 41.8746 41.9659 42 41.9769 42C42.0234 42 41.9855 41.9296 41.798 41.668C41.1986 40.8314 40.5569 40.4809 39.7787 40.565C39.4125 40.6046 39.0613 40.7159 38.3193 41.0273C37.359 41.4304 36.9562 41.531 36.2891 41.5345C35.6466 41.5379 35.3246 41.4693 34.323 41.1153C33.2911 40.7507 32.9548 40.6969 31.9542 40.7362C31.2272 40.7647 30.9413 40.7405 30.267 40.5933C29.524 40.4312 29.2428 40.4186 28.8547 40.5303C28.6903 40.5775 28.6125 40.6124 28.44 40.7161C28.2256 40.845 28.091 40.945 27.6698 41.2885C27.3231 41.5712 27.0588 41.7447 26.8425 41.8315C26.6665 41.9021 26.6495 41.9054 26.4599 41.9054L26.2614 41.9055L26.0553 41.809C25.8294 41.7033 25.6115 41.552 25.2278 41.2344C24.8596 40.9296 24.6468 40.7793 24.4287 40.6699C24.2392 40.5749 24.2115 40.5663 24.0225 40.5439C23.8407 40.5222 23.8007 40.5233 23.6351 40.554C23.3262 40.6113 23.0662 40.7278 22.4302 41.0935C21.5664 41.5904 21.0038 41.7524 20.3727 41.6861C19.9597 41.6427 19.6041 41.4998 19.0145 41.1402C17.9723 40.5047 17.7001 40.3939 17.1805 40.3939C16.8283 40.3939 16.617 40.4425 15.7777 40.7165C14.6793 41.0752 14.0166 41.1262 12.5338 40.9662C12.1315 40.9228 11.9833 40.9155 11.5006 40.915C10.8633 40.9145 10.7988 40.9227 10.1496 41.0865C9.2697 41.3085 9.09794 41.3383 8.69434 41.3385C8.26861 41.3388 7.95932 41.2829 7.38245 41.1016C6.45089 40.8087 6.30287 40.7673 5.93026 40.6948C5.82298 40.674 5.61815 40.6447 5.4751 40.6297C4.43368 40.5209 3.48569 40.7861 2.60907 41.4316Z" fill="black"/>
<path d="M2.60907 41.4316L3.79485 43.0421L3.79487 43.0421L2.60907 41.4316ZM5.4751 40.6297L5.68295 38.6405L5.68294 38.6405L5.4751 40.6297ZM5.93026 40.6948L5.54842 42.658L5.54847 42.658L5.93026 40.6948ZM7.38245 41.1016L6.78267 43.0095L6.78269 43.0095L7.38245 41.1016ZM8.69434 41.3385L8.6933 39.3385L8.69297 39.3385L8.69434 41.3385ZM10.1496 41.0865L9.66029 39.1473L9.66029 39.1473L10.1496 41.0865ZM11.5006 40.915L11.5024 38.915L11.5024 38.915L11.5006 40.915ZM12.5338 40.9662L12.3192 42.9547L12.3192 42.9547L12.5338 40.9662ZM15.7777 40.7165L15.1569 38.8153L15.1568 38.8154L15.7777 40.7165ZM19.0145 41.1402L20.0558 39.4327L20.0557 39.4326L19.0145 41.1402ZM20.3727 41.6861L20.1637 43.6751L20.1637 43.6752L20.3727 41.6861ZM22.4302 41.0935L21.4331 39.3598L21.433 39.3598L22.4302 41.0935ZM23.6351 40.554L23.2703 38.5875L23.2703 38.5876L23.6351 40.554ZM24.0225 40.5439L23.7863 42.5299L23.7863 42.5299L24.0225 40.5439ZM24.4287 40.6699L25.325 38.882L25.325 38.882L24.4287 40.6699ZM25.2278 41.2344L26.5031 39.6937L26.5031 39.6937L25.2278 41.2344ZM26.0553 41.809L26.9031 39.9976L26.903 39.9976L26.0553 41.809ZM26.2614 41.9055L25.4136 43.7169L25.8169 43.9057L26.2621 43.9055L26.2614 41.9055ZM26.4599 41.9054L26.4606 43.9054L26.4606 43.9054L26.4599 41.9054ZM26.8425 41.8315L26.0979 39.9753L26.0978 39.9753L26.8425 41.8315ZM27.6698 41.2885L26.4058 39.7386L26.4058 39.7386L27.6698 41.2885ZM28.44 40.7161L29.4703 42.4303L29.4703 42.4303L28.44 40.7161ZM28.8547 40.5303L29.4075 42.4523L29.4075 42.4523L28.8547 40.5303ZM30.267 40.5933L30.6934 38.6393L30.6934 38.6393L30.267 40.5933ZM31.9542 40.7362L32.0326 42.7346L32.0326 42.7346L31.9542 40.7362ZM34.323 41.1153L34.9894 39.2296L34.9893 39.2296L34.323 41.1153ZM36.2891 41.5345L36.2786 39.5346L36.2786 39.5346L36.2891 41.5345ZM38.3193 41.0273L37.5453 39.1832L37.5452 39.1832L38.3193 41.0273ZM39.7787 40.565L39.5637 38.5766L39.5637 38.5766L39.7787 40.565ZM41.798 41.668L43.4238 40.5031L43.4238 40.5031L41.798 41.668ZM41.7565 41.7212L43.3802 40.5535L43.3802 40.5534L41.7565 41.7212ZM39.3741 40.7179L38.8617 38.7846L38.8617 38.7846L39.3741 40.7179ZM38.3699 41.086L37.5973 39.2413L37.5973 39.2413L38.3699 41.086ZM36.8816 41.5673L36.5406 39.5966L36.5406 39.5966L36.8816 41.5673ZM36.2747 41.6089L36.2759 43.6089L36.2761 43.6089L36.2747 41.6089ZM34.3069 41.1859L33.6392 43.0712L33.6392 43.0712L34.3069 41.1859ZM31.9903 40.8078L32.0624 42.8065L32.0624 42.8065L31.9903 40.8078ZM30.2636 40.668L30.6898 38.714L30.6898 38.714L30.2636 40.668ZM28.862 40.6044L28.3037 38.6839L28.3037 38.6839L28.862 40.6044ZM27.8381 41.2415L29.0933 42.7986L29.0933 42.7985L27.8381 41.2415ZM26.8561 41.9042L26.1144 40.0468L26.1143 40.0468L26.8561 41.9042ZM26.2501 41.9811L25.3925 43.7878L25.7995 43.9811H26.2501V41.9811ZM26.0321 41.8776L25.1744 43.6844L25.1745 43.6844L26.0321 41.8776ZM25.1846 41.2879L26.4669 39.753L26.4668 39.753L25.1846 41.2879ZM24.3999 40.7351L23.5148 42.5286L23.5149 42.5287L24.3999 40.7351ZM24.0136 40.6178L23.7836 42.6045L23.7836 42.6045L24.0136 40.6178ZM22.4144 41.1847L23.4181 42.9147L23.4181 42.9146L22.4144 41.1847ZM21.1964 41.707L21.6473 43.6555L21.6474 43.6555L21.1964 41.707ZM19.563 41.5273L18.7003 43.3317L18.7003 43.3317L19.563 41.5273ZM18.7978 41.0926L19.8405 39.3859L19.8405 39.3859L18.7978 41.0926ZM15.8428 40.7726L15.2234 38.8709L15.2234 38.8709L15.8428 40.7726ZM14.34 41.1029L14.5235 43.0945L14.5235 43.0945L14.34 41.1029ZM12.5411 41.0418L12.7551 39.0533L12.7551 39.0533L12.5411 41.0418ZM11.5007 40.9903L11.5002 42.9903L11.5002 42.9903L11.5007 40.9903ZM10.1496 41.1619L10.6386 43.1013L10.6386 43.1013L10.1496 41.1619ZM8.68523 41.414L8.68357 43.414L8.68391 43.414L8.68523 41.414ZM6.81181 41.0011L7.41778 39.0951L7.41775 39.0951L6.81181 41.0011ZM5.48245 40.7051L5.2677 42.6936L5.26774 42.6936L5.48245 40.7051ZM2.23233 41.8269L0.900766 40.3346L0.900707 40.3346L2.23233 41.8269ZM4 41.9728C4 42.3361 3.89998 42.6071 3.85604 42.7161C3.80292 42.8478 3.74655 42.9463 3.71388 43.0001C3.64869 43.1075 3.58856 43.1824 3.56712 43.2087C3.53915 43.2431 3.51699 43.2676 3.50648 43.279C3.49474 43.2917 3.48664 43.3 3.48377 43.3029C3.47838 43.3084 3.49541 43.2912 3.54033 43.2513C3.62939 43.1722 3.73322 43.0875 3.79485 43.0421L1.42329 39.821C1.23781 39.9575 1.03711 40.1246 0.883414 40.2612C0.806957 40.3291 0.718049 40.4108 0.63707 40.4929C0.601019 40.5294 0.534539 40.5981 0.464948 40.6836C0.433131 40.7227 0.364987 40.8085 0.294374 40.9248C0.258985 40.9831 0.200552 41.0855 0.14605 41.2207C0.100729 41.3332 0 41.6071 0 41.9728H4ZM3.79487 43.0421C4.28782 42.6792 4.74254 42.564 5.26726 42.6189L5.68294 38.6405C4.12482 38.4777 2.68356 38.8931 1.42327 39.821L3.79487 43.0421ZM5.26725 42.6189C5.30747 42.6231 5.36849 42.6307 5.43286 42.6399C5.46381 42.6443 5.49164 42.6486 5.51428 42.6522C5.53864 42.6562 5.54932 42.6582 5.54842 42.658L6.31209 38.7316C6.13256 38.6967 5.86731 38.6598 5.68295 38.6405L5.26725 42.6189ZM5.54847 42.658C5.79677 42.7063 5.84566 42.715 6.78267 43.0095L7.98224 39.1936C7.05612 38.9025 6.80897 38.8282 6.31205 38.7316L5.54847 42.658ZM6.78269 43.0095C7.47931 43.2285 8.00025 43.339 8.69571 43.3385L8.69297 39.3385C8.57989 39.3386 8.51736 39.3321 8.45051 39.32C8.36671 39.3049 8.23568 39.2733 7.98222 39.1936L6.78269 43.0095ZM8.69537 43.3385C9.36704 43.3382 9.74742 43.2506 10.6389 43.0257L9.66029 39.1473C9.20634 39.2618 9.01781 39.305 8.902 39.325C8.8438 39.3351 8.81999 39.3384 8.6933 39.3385L8.69537 43.3385ZM10.6389 43.0257C10.9883 42.9375 11.0462 42.9277 11.0813 42.9232C11.1107 42.9195 11.158 42.9147 11.4989 42.915L11.5024 38.915C11.2059 38.9148 10.9023 38.9139 10.5778 38.955C10.259 38.9955 9.96016 39.0716 9.66029 39.1473L10.6389 43.0257ZM11.4989 42.915C11.9236 42.9154 11.9996 42.9202 12.3192 42.9547L12.7484 38.9778C12.2635 38.9254 12.0431 38.9155 11.5024 38.915L11.4989 42.915ZM12.3192 42.9547C13.1014 43.0391 13.7814 43.0817 14.4534 43.03C15.1502 42.9764 15.7538 42.8283 16.3986 42.6177L15.1568 38.8154C14.7032 38.9635 14.4262 39.0203 14.1464 39.0418C13.8418 39.0652 13.449 39.0534 12.7484 38.9778L12.3192 42.9547ZM16.3985 42.6177C16.828 42.4775 17.0086 42.4249 17.1101 42.4016C17.1463 42.3932 17.1527 42.3934 17.1439 42.3944C17.1357 42.3953 17.1404 42.3939 17.1805 42.3939V38.3939C16.4728 38.3939 15.984 38.5452 15.1569 38.8153L16.3985 42.6177ZM17.1805 42.3939C17.2389 42.3939 17.2288 42.3972 17.1914 42.3906C17.1491 42.3831 17.1283 42.3733 17.1477 42.3812C17.1776 42.3934 17.249 42.4257 17.3926 42.5052C17.5354 42.5843 17.7193 42.693 17.9732 42.8477L20.0557 39.4326C19.552 39.1255 19.0909 38.8535 18.6554 38.6762C18.1091 38.4539 17.6471 38.3939 17.1805 38.3939V42.3939ZM17.9731 42.8477C18.669 43.2721 19.3226 43.5868 20.1637 43.6751L20.5817 39.6971C20.5627 39.6951 20.551 39.6942 20.5057 39.676C20.4374 39.6486 20.3074 39.5861 20.0558 39.4327L17.9731 42.8477ZM20.1637 43.6752C21.3915 43.8041 22.392 43.4227 23.4274 42.8272L21.433 39.3598C21.071 39.5681 20.8713 39.6472 20.7607 39.6791C20.681 39.7021 20.6415 39.7033 20.5816 39.697L20.1637 43.6752ZM23.4274 42.8272C23.7371 42.6491 23.8875 42.5716 23.9726 42.5335C24.0073 42.5179 24.0174 42.5153 24.0113 42.5172C24.0031 42.5198 23.9964 42.5211 24 42.5204L23.2703 38.5876C22.5937 38.7131 22.0731 38.9917 21.4331 39.3598L23.4274 42.8272ZM23.9999 42.5204C24.0346 42.514 24.0298 42.5154 24.0105 42.518C23.9833 42.5217 23.9353 42.527 23.875 42.5286C23.8162 42.5302 23.7723 42.5274 23.7546 42.5261C23.7433 42.5252 23.7459 42.5251 23.7863 42.5299L24.2588 38.5579C24.1718 38.5475 23.9852 38.5244 23.7705 38.53C23.5457 38.5359 23.359 38.5711 23.2703 38.5875L23.9999 42.5204ZM23.7863 42.5299C23.8331 42.5354 23.8263 42.5352 23.8045 42.5315C23.771 42.5258 23.7088 42.5135 23.6324 42.4898C23.5589 42.4669 23.5068 42.4443 23.4898 42.4366C23.4804 42.4323 23.4846 42.4339 23.5324 42.4579L25.325 38.882C25.2542 38.8466 25.0551 38.7431 24.8183 38.6696C24.5655 38.5911 24.3384 38.5673 24.2588 38.5579L23.7863 42.5299ZM23.5324 42.4579C23.541 42.4622 23.6122 42.4934 23.9525 42.775L26.5031 39.6937C26.107 39.3658 25.7525 39.0963 25.325 38.882L23.5324 42.4579ZM23.9525 42.775C24.3642 43.1159 24.7421 43.4027 25.2076 43.6205L26.903 39.9976C26.9021 39.9972 26.9001 39.9962 26.8939 39.9927C26.8869 39.9886 26.8705 39.9786 26.8415 39.9585C26.7782 39.9144 26.6773 39.8379 26.5031 39.6937L23.9525 42.775ZM25.2075 43.6205L25.4136 43.7169L27.1092 40.0941L26.9031 39.9976L25.2075 43.6205ZM26.2621 43.9055L26.4606 43.9054L26.4591 39.9054L26.2606 39.9055L26.2621 43.9055ZM26.4606 43.9054C26.5141 43.9054 26.7641 43.9111 27.0358 43.8586C27.3076 43.806 27.5375 43.7076 27.5873 43.6876L26.0978 39.9753C26.0491 39.9948 26.0556 39.9917 26.0755 39.9847C26.1073 39.9736 26.1797 39.95 26.2768 39.9312C26.3739 39.9125 26.4498 39.9074 26.4834 39.9059C26.5044 39.9049 26.5116 39.9054 26.4591 39.9054L26.4606 43.9054ZM27.5872 43.6877C28.0923 43.485 28.5465 43.1543 28.9338 42.8384L26.4058 39.7386C26.2668 39.8519 26.1713 39.9211 26.1099 39.9614C26.0461 40.0033 26.0462 39.996 26.0979 39.9753L27.5872 43.6877ZM28.9338 42.8384C29.1444 42.6666 29.2522 42.5814 29.3254 42.5271C29.3806 42.486 29.4129 42.4648 29.4703 42.4303L27.4097 39.0019C27.0642 39.2096 26.836 39.3877 26.4058 39.7386L28.9338 42.8384ZM29.4703 42.4303C29.5007 42.412 29.5114 42.4062 29.5113 42.4062C29.5089 42.4075 29.4932 42.416 29.4683 42.4271C29.4424 42.4387 29.4193 42.4476 29.403 42.4533C29.3896 42.4579 29.3876 42.4581 29.4075 42.4523L28.3019 38.6082C27.9435 38.7113 27.706 38.8238 27.4097 39.0019L29.4703 42.4303ZM29.4075 42.4523C29.4317 42.4454 29.4211 42.4498 29.3915 42.4536C29.3599 42.4578 29.3383 42.4571 29.3385 42.4571C29.3446 42.4574 29.3809 42.4596 29.4668 42.4735C29.5538 42.4876 29.6718 42.5105 29.8406 42.5474L30.6934 38.6393C29.8654 38.4586 29.1815 38.3552 28.3018 38.6082L29.4075 42.4523ZM29.8406 42.5473C30.6893 42.7326 31.1453 42.7694 32.0326 42.7346L31.8758 38.7377C31.3091 38.7599 31.1932 38.7484 30.6934 38.6393L29.8406 42.5473ZM32.0326 42.7346C32.5006 42.7163 32.6741 42.7273 32.8108 42.7491C32.9587 42.7728 33.1567 42.8244 33.6567 43.0011L34.9893 39.2296C34.4574 39.0416 33.9714 38.884 33.443 38.7994C32.9034 38.7131 32.4084 38.7168 31.8758 38.7377L32.0326 42.7346ZM33.6567 43.0011C34.7528 43.3884 35.3249 43.5396 36.2997 43.5345L36.2786 39.5346C36.048 39.5358 35.9595 39.5246 35.8578 39.5029C35.7104 39.4715 35.4867 39.4054 34.9894 39.2296L33.6567 43.0011ZM36.2997 43.5345C37.3343 43.529 38.0121 43.3253 39.0933 42.8715L37.5452 39.1832C37.0857 39.376 36.8598 39.4528 36.7095 39.4904C36.5966 39.5186 36.4944 39.5334 36.2786 39.5346L36.2997 43.5345ZM39.0933 42.8715C39.8166 42.5679 39.938 42.5595 39.9937 42.5535L39.5637 38.5766C38.887 38.6498 38.306 38.8639 37.5453 39.1832L39.0933 42.8715ZM39.9937 42.5535C40.009 42.5518 39.9955 42.5549 39.9639 42.5489C39.9311 42.5427 39.9065 42.5319 39.8967 42.5265C39.8846 42.5199 39.9847 42.5711 40.1723 42.8329L43.4238 40.5031C43.012 39.9284 42.4915 39.386 41.8141 39.016C41.1043 38.6283 40.3367 38.4931 39.5637 38.5766L39.9937 42.5535ZM40.1723 42.8328C40.284 42.9888 40.2594 42.9641 40.2143 42.8805C40.1974 42.849 40.1563 42.7706 40.1156 42.661C40.0846 42.5776 39.993 42.3208 39.9949 41.9735C39.9972 41.5692 40.1396 40.9148 40.7423 40.4336C41.2549 40.0242 41.7911 40 41.9769 40V44C42.1743 44 42.7194 43.9736 43.2382 43.5594C43.8469 43.0733 43.9925 42.4113 43.9949 41.9963C43.9969 41.6383 43.9022 41.3677 43.8647 41.2668C43.8175 41.1398 43.7665 41.0403 43.736 40.9837C43.6368 40.7995 43.4995 40.6088 43.4238 40.5031L40.1723 42.8328ZM41.9769 40C42.4081 40 42.7224 40.1404 42.8314 40.192C42.972 40.2585 43.0748 40.3276 43.1281 40.3653C43.2358 40.4414 43.311 40.5112 43.3378 40.5363C43.4 40.5947 43.4418 40.6422 43.4496 40.6509C43.4739 40.6784 43.4841 40.6919 43.4729 40.6779C43.4564 40.657 43.4227 40.6125 43.3802 40.5535L40.1328 42.889C40.2006 42.9832 40.2716 43.0782 40.3349 43.1584C40.3638 43.1948 40.4076 43.2493 40.457 43.3051C40.4774 43.328 40.5297 43.3865 40.5997 43.4523C40.6305 43.4812 40.709 43.5538 40.8195 43.6319C40.8741 43.6704 40.9782 43.7402 41.1198 43.8073C41.2298 43.8594 41.545 44 41.9769 44V40ZM43.3802 40.5534C42.9132 39.9041 42.2968 39.2768 41.4484 38.9195C40.5613 38.5459 39.6695 38.5705 38.8617 38.7846L39.8865 42.6511C39.9796 42.6264 40.0107 42.6301 39.996 42.6296C39.9748 42.6289 39.9354 42.6225 39.8958 42.6059C39.8222 42.5749 39.9094 42.5784 40.1328 42.889L43.3802 40.5534ZM38.8617 38.7846C38.4616 38.8907 38.1217 39.0217 37.5973 39.2413L39.1425 42.9308C39.6336 42.7251 39.7646 42.6834 39.8865 42.6511L38.8617 38.7846ZM37.5973 39.2413C36.9382 39.5173 36.7814 39.5549 36.5406 39.5966L37.2225 43.5381C37.8925 43.4221 38.3667 43.2557 39.1425 42.9308L37.5973 39.2413ZM36.5406 39.5966C36.5138 39.6012 36.5013 39.603 36.496 39.6036C36.4919 39.6042 36.4881 39.6046 36.4807 39.6051C36.4591 39.6066 36.4096 39.6088 36.2732 39.6089L36.2761 43.6089C36.633 43.6086 36.8773 43.5978 37.2225 43.5381L36.5406 39.5966ZM36.2734 39.6089C36.0294 39.609 35.9429 39.5975 35.8454 39.5765C35.7005 39.5454 35.4802 39.4798 34.9746 39.3007L33.6392 43.0712C34.145 43.2503 34.582 43.3963 35.005 43.4872C35.4752 43.5883 35.8669 43.6091 36.2759 43.6089L36.2734 39.6089ZM34.9746 39.3007C34.4519 39.1155 33.9735 38.9589 33.4548 38.8742C32.9232 38.7875 32.4376 38.7904 31.9183 38.8091L32.0624 42.8065C32.5211 42.79 32.6835 42.8013 32.8105 42.822C32.9505 42.8448 33.1413 42.8948 33.6392 43.0712L34.9746 39.3007ZM31.9183 38.8091C31.5208 38.8235 31.3626 38.8214 31.244 38.8118C31.1371 38.8031 31.0133 38.7845 30.6898 38.714L29.8375 42.6221C30.7123 42.8129 31.1109 42.8408 32.0624 42.8065L31.9183 38.8091ZM30.6898 38.714C29.8708 38.5354 29.181 38.4289 28.3037 38.6839L29.4203 42.5249C29.4398 42.5192 29.426 42.5243 29.3937 42.5285C29.3598 42.5329 29.337 42.5322 29.3372 42.5322C29.3431 42.5325 29.3793 42.5346 29.4651 42.5486C29.5519 42.5627 29.6696 42.5855 29.8375 42.6221L30.6898 38.714ZM28.3037 38.6839C27.616 38.8838 27.09 39.2756 26.5828 39.6845L29.0933 42.7985C29.3198 42.616 29.4327 42.5369 29.4888 42.502C29.5113 42.488 29.5113 42.4896 29.4938 42.4977C29.4741 42.5068 29.4481 42.5168 29.4203 42.5249L28.3037 38.6839ZM26.5828 39.6845C26.3366 39.8829 26.2061 39.9802 26.1283 40.0327C26.0697 40.0723 26.0777 40.0614 26.1144 40.0468L27.5977 43.7616C28.1527 43.54 28.5924 43.2024 29.0933 42.7986L26.5828 39.6845ZM26.1143 40.0468C26.0602 40.0684 26.0644 40.0663 26.081 40.0604C26.1103 40.0501 26.1837 40.0259 26.2834 40.0067C26.3831 39.9875 26.4605 39.9827 26.492 39.9814C26.5099 39.9806 26.515 39.9811 26.4568 39.9811V43.9811C26.5054 43.9811 26.7639 43.9876 27.0398 43.9345C27.3151 43.8815 27.5526 43.7796 27.5978 43.7615L26.1143 40.0468ZM26.4568 39.9811H26.2501V43.9811H26.4568V39.9811ZM27.1077 40.1743L26.8898 40.0708L25.1745 43.6844L25.3925 43.7878L27.1077 40.1743ZM26.8898 40.0708C26.887 40.0695 26.7992 40.0307 26.4669 39.753L23.9023 42.8227C24.3118 43.1648 24.7088 43.4633 25.1744 43.6844L26.8898 40.0708ZM26.4668 39.753C26.1019 39.4481 25.7065 39.1497 25.2849 38.9416L23.5149 42.5287C23.4982 42.5204 23.5211 42.53 23.5936 42.5812C23.6648 42.6313 23.7648 42.7079 23.9023 42.8227L26.4668 39.753ZM25.285 38.9416C25.2083 38.9038 25.019 38.8081 24.7887 38.7382C24.5458 38.6644 24.3316 38.6413 24.2436 38.6311L23.7836 42.6045C23.8223 42.609 23.8136 42.6086 23.7894 42.6045C23.7554 42.5987 23.697 42.587 23.626 42.5655C23.557 42.5445 23.5071 42.5236 23.4869 42.5147C23.4736 42.5089 23.4745 42.5087 23.5148 42.5286L25.285 38.9416ZM24.2436 38.6311C23.1016 38.4989 22.251 38.9673 21.4107 39.4548L23.4181 42.9146C23.6191 42.798 23.7653 42.7175 23.8765 42.661C23.9885 42.6041 24.0393 42.5846 24.0505 42.5807C24.0548 42.5791 24.013 42.5941 23.9404 42.6025C23.8649 42.6112 23.8062 42.6071 23.7836 42.6045L24.2436 38.6311ZM21.4107 39.4548C21.0348 39.6729 20.8483 39.7347 20.7455 39.7585L21.6474 43.6555C22.2739 43.5105 22.8431 43.2482 23.4181 42.9147L21.4107 39.4548ZM20.7456 39.7585C20.6204 39.7874 20.5437 39.7794 20.4256 39.7229L18.7003 43.3317C19.6348 43.7785 20.6376 43.8891 21.6473 43.6555L20.7456 39.7585ZM20.4257 39.7229C20.3339 39.6791 20.3077 39.6654 20.2613 39.639C20.1906 39.5989 20.085 39.5353 19.8405 39.3859L17.755 42.7993C18.2342 43.0921 18.3752 43.1763 18.7003 43.3317L20.4257 39.7229ZM19.8405 39.3859C19.4215 39.13 19.0039 38.8884 18.5797 38.7248C18.0771 38.5311 17.6314 38.4694 17.1812 38.4694V42.4694C17.2208 42.4694 17.2129 42.4718 17.1828 42.4666C17.1498 42.4609 17.1317 42.4535 17.141 42.4571C17.1577 42.4636 17.2088 42.485 17.3149 42.5422C17.4215 42.5996 17.5611 42.6808 17.755 42.7993L19.8405 39.3859ZM17.1812 38.4694C16.4833 38.4694 16.0152 38.6131 15.2234 38.8709L16.4622 42.6743C16.8693 42.5417 17.0326 42.4947 17.1213 42.4746C17.1507 42.468 17.1531 42.4688 17.1423 42.4699C17.1331 42.4708 17.1383 42.4694 17.1812 42.4694V38.4694ZM15.2234 38.8709C14.6658 39.0525 14.5265 39.0773 14.1565 39.1114L14.5235 43.0945C15.2552 43.0271 15.6917 42.9252 16.4622 42.6743L15.2234 38.8709ZM14.1566 39.1114C13.8459 39.14 13.5647 39.1404 12.7551 39.0533L12.327 43.0303C13.2423 43.1288 13.8265 43.1587 14.5235 43.0945L14.1566 39.1114ZM12.7551 39.0533C12.2621 39.0002 12.0464 38.9905 11.5011 38.9903L11.5002 42.9903C11.9267 42.9904 11.9978 42.9949 12.327 43.0303L12.7551 39.0533ZM11.5011 38.9903C11.2043 38.9903 10.9011 38.9896 10.5772 39.0307C10.2588 39.0712 9.96051 39.147 9.66065 39.2226L10.6386 43.1013C10.9869 43.0134 11.0455 43.0034 11.0813 42.9989C11.1115 42.995 11.1599 42.9903 11.5002 42.9903L11.5011 38.9903ZM9.66069 39.2226C9.20326 39.338 9.01516 39.3809 8.89975 39.4008C8.84268 39.4106 8.81884 39.4141 8.68655 39.414L8.68391 43.414C9.36209 43.4145 9.73927 43.328 10.6386 43.1013L9.66069 39.2226ZM8.68689 39.414C8.54178 39.4139 8.50553 39.4092 8.41524 39.3893C8.25507 39.354 7.99908 39.2799 7.41778 39.0951L6.20584 42.9071C7.34033 43.2677 7.84141 43.4133 8.68357 43.414L8.68689 39.414ZM7.41775 39.0951C6.79821 38.8981 6.29326 38.781 5.69716 38.7167L5.26774 42.6936C5.54098 42.7231 5.77959 42.7715 6.20587 42.9071L7.41775 39.0951ZM5.6972 38.7167C3.88186 38.5206 2.26048 39.1213 0.900766 40.3346L3.56389 43.3192C4.177 42.7721 4.70092 42.6323 5.2677 42.6936L5.6972 38.7167ZM0.900707 40.3346C0.753498 40.466 0.838127 40.3792 0.980013 40.2901C1.0293 40.2591 1.16937 40.1733 1.37023 40.1041C1.53731 40.0464 2.0397 39.8954 2.64868 40.101C3.37806 40.3472 3.73812 40.913 3.88 41.3004C3.9989 41.625 4 41.8969 4 41.9728H0C0 42.0614 0.00230092 42.3438 0.124063 42.6762C0.268812 43.0714 0.633389 43.6424 1.36941 43.8909C1.98502 44.0987 2.49618 43.947 2.67458 43.8854C2.88676 43.8122 3.04074 43.7193 3.10695 43.6777C3.31654 43.5461 3.51734 43.3607 3.56395 43.3191L0.900707 40.3346Z" fill="black" mask="url(#path-1-outside-1)"/>
</g>
<g opacity="0.98">
<mask id="path-3-outside-2" maskUnits="userSpaceOnUse" x="0" y="18.7097" width="44" height="6" fill="black">
<rect fill="white" y="18.7097" width="44" height="6"/>
<path d="M2.00251 22.3832C2.01195 22.4154 2.36531 22.5051 2.6129 22.5382C3.34516 22.6362 4.19356 22.4921 5.27953 22.0853C5.57878 21.9732 5.68705 21.9298 6.45477 21.6145C8.01135 20.9753 8.72996 20.792 9.6786 20.7922C10.4882 20.7924 11.0666 20.9389 12.005 21.3817C12.9588 21.8318 13.1681 21.92 13.5189 22.0198C14.2026 22.2144 14.747 22.1517 15.5668 21.7839C15.6899 21.7286 15.963 21.5969 16.1736 21.4911C17.3354 20.9074 17.7563 20.7839 18.5795 20.7845C19.2387 20.7851 19.6694 20.8599 20.9493 21.196C22.131 21.5064 22.4427 21.5638 23.0301 21.5796C23.68 21.597 23.8866 21.5636 24.9809 21.264C25.8408 21.0286 26.0712 20.9894 26.5775 20.9921C27.0896 20.9949 27.2669 21.0283 28.2175 21.3018C29.1128 21.5593 29.3768 21.6082 29.8721 21.609C30.4338 21.6099 30.7576 21.5501 31.8083 21.2516C32.7859 20.9739 33.133 20.8998 33.7483 20.8373C34.1219 20.7994 34.8872 20.8093 35.2185 20.8565C36.0183 20.9702 36.5201 21.1224 37.9856 21.6956C39.6291 22.3383 40.2646 22.5008 41.1285 22.4992C41.4338 22.4986 41.5387 22.4909 41.7404 22.4542C41.908 22.4238 41.9863 22.402 41.9915 22.3842C41.9956 22.37 41.9951 22.3533 41.9903 22.347C41.9856 22.3408 41.8726 22.3553 41.7393 22.3792C41.5408 22.4149 41.4302 22.423 41.1285 22.4239C40.7377 22.425 40.527 22.4045 40.1546 22.3293C39.5732 22.2119 39.131 22.0656 37.8772 21.5758C36.9232 21.2031 36.5234 21.0647 36.0557 20.9454C35.5137 20.8072 35.1313 20.7548 34.5603 20.7407C33.7393 20.7204 33.0957 20.8116 32.1316 21.0848C30.7347 21.4805 30.4631 21.5345 29.8721 21.5341C29.3858 21.5336 29.1057 21.4821 28.2537 21.236C27.2749 20.9532 26.9163 20.8898 26.4187 20.9114C26.0231 20.9286 25.6811 20.995 24.9448 21.1974C23.9608 21.468 23.7294 21.5089 23.1746 21.5101C22.5652 21.5115 22.1653 21.4416 20.959 21.1226C19.6852 20.7859 19.2423 20.7093 18.5725 20.7097C17.7369 20.7103 17.3187 20.8349 16.1089 21.4436C15.045 21.9789 14.5212 22.1197 13.9225 22.0312C13.481 21.9659 13.1367 21.8385 12.1931 21.3912C11.4756 21.0511 11.1266 20.919 10.6903 20.8225C10.0603 20.6831 9.34368 20.6793 8.64569 20.8118C8.03797 20.9272 7.46491 21.1189 6.33366 21.5853C5.51936 21.921 5.24094 22.0282 4.83811 22.1613C3.77449 22.5129 3.00206 22.5789 2.21938 22.3851C2.10626 22.3571 2.00955 22.3396 2.00447 22.3463C1.99939 22.3529 1.99851 22.3695 2.00251 22.3832Z"/>
</mask>
<path d="M2.00251 22.3832C2.01195 22.4154 2.36531 22.5051 2.6129 22.5382C3.34516 22.6362 4.19356 22.4921 5.27953 22.0853C5.57878 21.9732 5.68705 21.9298 6.45477 21.6145C8.01135 20.9753 8.72996 20.792 9.6786 20.7922C10.4882 20.7924 11.0666 20.9389 12.005 21.3817C12.9588 21.8318 13.1681 21.92 13.5189 22.0198C14.2026 22.2144 14.747 22.1517 15.5668 21.7839C15.6899 21.7286 15.963 21.5969 16.1736 21.4911C17.3354 20.9074 17.7563 20.7839 18.5795 20.7845C19.2387 20.7851 19.6694 20.8599 20.9493 21.196C22.131 21.5064 22.4427 21.5638 23.0301 21.5796C23.68 21.597 23.8866 21.5636 24.9809 21.264C25.8408 21.0286 26.0712 20.9894 26.5775 20.9921C27.0896 20.9949 27.2669 21.0283 28.2175 21.3018C29.1128 21.5593 29.3768 21.6082 29.8721 21.609C30.4338 21.6099 30.7576 21.5501 31.8083 21.2516C32.7859 20.9739 33.133 20.8998 33.7483 20.8373C34.1219 20.7994 34.8872 20.8093 35.2185 20.8565C36.0183 20.9702 36.5201 21.1224 37.9856 21.6956C39.6291 22.3383 40.2646 22.5008 41.1285 22.4992C41.4338 22.4986 41.5387 22.4909 41.7404 22.4542C41.908 22.4238 41.9863 22.402 41.9915 22.3842C41.9956 22.37 41.9951 22.3533 41.9903 22.347C41.9856 22.3408 41.8726 22.3553 41.7393 22.3792C41.5408 22.4149 41.4302 22.423 41.1285 22.4239C40.7377 22.425 40.527 22.4045 40.1546 22.3293C39.5732 22.2119 39.131 22.0656 37.8772 21.5758C36.9232 21.2031 36.5234 21.0647 36.0557 20.9454C35.5137 20.8072 35.1313 20.7548 34.5603 20.7407C33.7393 20.7204 33.0957 20.8116 32.1316 21.0848C30.7347 21.4805 30.4631 21.5345 29.8721 21.5341C29.3858 21.5336 29.1057 21.4821 28.2537 21.236C27.2749 20.9532 26.9163 20.8898 26.4187 20.9114C26.0231 20.9286 25.6811 20.995 24.9448 21.1974C23.9608 21.468 23.7294 21.5089 23.1746 21.5101C22.5652 21.5115 22.1653 21.4416 20.959 21.1226C19.6852 20.7859 19.2423 20.7093 18.5725 20.7097C17.7369 20.7103 17.3187 20.8349 16.1089 21.4436C15.045 21.9789 14.5212 22.1197 13.9225 22.0312C13.481 21.9659 13.1367 21.8385 12.1931 21.3912C11.4756 21.0511 11.1266 20.919 10.6903 20.8225C10.0603 20.6831 9.34368 20.6793 8.64569 20.8118C8.03797 20.9272 7.46491 21.1189 6.33366 21.5853C5.51936 21.921 5.24094 22.0282 4.83811 22.1613C3.77449 22.5129 3.00206 22.5789 2.21938 22.3851C2.10626 22.3571 2.00955 22.3396 2.00447 22.3463C1.99939 22.3529 1.99851 22.3695 2.00251 22.3832Z" fill="black"/>
<path d="M2.6129 22.5382L2.87809 20.5559L2.87804 20.5559L2.6129 22.5382ZM2.00251 22.3832L3.92169 21.8204L3.9216 21.8201L2.00251 22.3832ZM2.00447 22.3463L3.59294 23.5615L3.59369 23.5605L2.00447 22.3463ZM2.21938 22.3851L2.69994 20.4437L2.69988 20.4437L2.21938 22.3851ZM4.83811 22.1613L4.21054 20.2624L4.21053 20.2624L4.83811 22.1613ZM6.33366 21.5853L5.5714 19.7362L5.57139 19.7362L6.33366 21.5853ZM8.64569 20.8118L9.01868 22.7768L9.0187 22.7768L8.64569 20.8118ZM10.6903 20.8225L10.2582 22.7752L10.2583 22.7752L10.6903 20.8225ZM12.1931 21.3912L11.3364 23.1984L11.3364 23.1984L12.1931 21.3912ZM13.9225 22.0312L13.63 24.0096L13.6301 24.0096L13.9225 22.0312ZM16.1089 21.4436L17.0078 23.2303L17.0078 23.2303L16.1089 21.4436ZM18.5725 20.7097L18.5713 18.7097L18.571 18.7097L18.5725 20.7097ZM20.959 21.1226L20.4478 23.0562L20.4478 23.0562L20.959 21.1226ZM23.1746 21.5101L23.17 19.5101L23.17 19.5101L23.1746 21.5101ZM24.9448 21.1974L25.4751 23.1258L25.4751 23.1258L24.9448 21.1974ZM26.4187 20.9114L26.3319 18.9133L26.3318 18.9133L26.4187 20.9114ZM28.2537 21.236L28.8088 19.3145L28.8088 19.3145L28.2537 21.236ZM29.8721 21.5341L29.8704 23.5341L29.8707 23.5341L29.8721 21.5341ZM32.1316 21.0848L31.5864 19.1605L31.5864 19.1605L32.1316 21.0848ZM34.5603 20.7407L34.6097 18.7413L34.6097 18.7413L34.5603 20.7407ZM36.0557 20.9454L35.5614 22.8834L35.5614 22.8834L36.0557 20.9454ZM37.8772 21.5758L38.605 19.7129L38.605 19.7129L37.8772 21.5758ZM40.1546 22.3293L40.5505 20.3689L40.5505 20.3689L40.1546 22.3293ZM41.1285 22.4239L41.1229 20.4239L41.1227 20.4239L41.1285 22.4239ZM41.7393 22.3792L42.0929 24.3477L42.0931 24.3477L41.7393 22.3792ZM41.9903 22.347L40.4008 23.5609L40.4018 23.5622L41.9903 22.347ZM41.9915 22.3842L43.9109 22.9463L43.9119 22.9428L41.9915 22.3842ZM41.7404 22.4542L41.3829 20.4864L41.3828 20.4865L41.7404 22.4542ZM41.1285 22.4992L41.1246 20.4992L41.1246 20.4992L41.1285 22.4992ZM37.9856 21.6956L37.2571 23.5582L37.2571 23.5582L37.9856 21.6956ZM35.2185 20.8565L34.9369 22.8365L34.9369 22.8365L35.2185 20.8565ZM33.7483 20.8373L33.9504 22.8271L33.9505 22.8271L33.7483 20.8373ZM31.8083 21.2516L32.3548 23.1755L32.3548 23.1755L31.8083 21.2516ZM29.8721 21.609L29.8687 23.609L29.8691 23.609L29.8721 21.609ZM28.2175 21.3018L27.6647 23.2238L27.6647 23.2239L28.2175 21.3018ZM26.5775 20.9921L26.5668 22.9921L26.5668 22.9921L26.5775 20.9921ZM24.9809 21.264L25.5089 23.1931L25.5089 23.1931L24.9809 21.264ZM23.0301 21.5796L22.9765 23.5789L22.9765 23.5789L23.0301 21.5796ZM20.9493 21.196L21.4574 19.2617L21.4574 19.2617L20.9493 21.196ZM18.5795 20.7845L18.5812 18.7845L18.581 18.7845L18.5795 20.7845ZM16.1736 21.4911L15.2758 19.7039L15.2758 19.7039L16.1736 21.4911ZM15.5668 21.7839L16.3854 23.6087L16.3856 23.6086L15.5668 21.7839ZM13.5189 22.0198L14.0664 20.0962L14.0663 20.0962L13.5189 22.0198ZM12.005 21.3817L11.1515 23.1905L11.1515 23.1905L12.005 21.3817ZM9.6786 20.7922L9.67907 18.7922L9.67904 18.7922L9.6786 20.7922ZM6.45477 21.6145L5.69501 19.7645L5.69501 19.7645L6.45477 21.6145ZM5.27953 22.0853L4.57801 20.2123L4.57796 20.2124L5.27953 22.0853ZM2.87804 20.5559C2.84565 20.5516 2.77253 20.5376 2.7108 20.5219C2.6776 20.5135 2.68868 20.5149 2.72966 20.5293C2.74208 20.5336 2.82145 20.5611 2.92522 20.6137C2.97242 20.6376 3.0905 20.6993 3.22659 20.8038C3.29619 20.8573 3.40788 20.9503 3.52446 21.0866C3.63442 21.2152 3.8161 21.4603 3.92169 21.8204L0.0833409 22.946C0.27362 23.5948 0.726863 23.9275 0.789814 23.9759C0.932239 24.0853 1.05912 24.1523 1.11737 24.1818C1.24324 24.2456 1.35369 24.2856 1.40444 24.3034C1.52207 24.3447 1.63873 24.3766 1.726 24.3988C1.90521 24.4443 2.13256 24.4918 2.34776 24.5206L2.87804 20.5559ZM3.9216 21.8201C3.98668 22.0419 4.00822 22.2613 3.99729 22.4678C3.99162 22.5749 3.97529 22.716 3.93154 22.8771C3.8924 23.0212 3.80346 23.2863 3.59294 23.5615L0.41599 21.1311C0.0409185 21.6214 0.00977189 22.1262 0.00287932 22.2564C-0.0087658 22.4763 0.0143398 22.7109 0.0834253 22.9463L3.9216 21.8201ZM3.59369 23.5605C3.33697 23.8965 3.03828 24.0683 2.87083 24.1487C2.69329 24.2339 2.53958 24.2752 2.44898 24.2958C2.27095 24.3361 2.12805 24.3422 2.07217 24.344C1.94715 24.3478 1.85178 24.3383 1.82744 24.3359C1.76047 24.3293 1.71589 24.3209 1.71566 24.3208C1.70213 24.3184 1.71159 24.3198 1.73888 24.3266L2.69988 20.4437C2.61404 20.4225 2.51859 20.4011 2.42716 20.3846C2.38798 20.3775 2.31119 20.3642 2.22113 20.3553C2.18523 20.3518 2.08059 20.3418 1.94887 20.3459C1.88963 20.3477 1.74404 20.354 1.56397 20.3949C1.50382 20.4085 0.875345 20.5299 0.415244 21.1321L3.59369 23.5605ZM1.73882 24.3265C3.00373 24.6396 4.17792 24.4859 5.4657 24.0603L4.21053 20.2624C3.37106 20.5398 3.0004 20.5181 2.69994 20.4437L1.73882 24.3265ZM5.46569 24.0603C5.94027 23.9035 6.27378 23.7733 7.09594 23.4343L5.57139 19.7362C4.76495 20.0687 4.54161 20.153 4.21054 20.2624L5.46569 24.0603ZM7.09593 23.4343C8.1984 22.9798 8.61809 22.8528 9.01868 22.7768L8.2727 18.8469C7.45786 19.0016 6.73143 19.258 5.5714 19.7362L7.09593 23.4343ZM9.0187 22.7768C9.47735 22.6897 9.91861 22.7001 10.2582 22.7752L11.1224 18.8697C10.202 18.666 9.21002 18.669 8.27267 18.8469L9.0187 22.7768ZM10.2583 22.7752C10.4768 22.8236 10.6673 22.8812 11.3364 23.1984L13.0498 19.5839C12.284 19.2209 11.7764 19.0144 11.1224 18.8697L10.2583 22.7752ZM11.3364 23.1984C12.2842 23.6477 12.8657 23.8966 13.63 24.0096L14.2151 20.0527C14.0962 20.0351 13.9893 20.0293 13.0498 19.5839L11.3364 23.1984ZM13.6301 24.0096C14.874 24.1936 15.8741 23.8006 17.0078 23.2303L15.21 19.657C14.7106 19.9083 14.4598 20.0029 14.3222 20.0398C14.2929 20.0477 14.2736 20.0516 14.2625 20.0535C14.2517 20.0553 14.2466 20.0556 14.2458 20.0557C14.2451 20.0557 14.2442 20.0557 14.2417 20.0556C14.2389 20.0555 14.2307 20.055 14.215 20.0527L13.6301 24.0096ZM17.0078 23.2303C17.6061 22.9292 17.876 22.8178 18.052 22.7654C18.1694 22.7304 18.2773 22.7099 18.574 22.7097L18.571 18.7097C18.0321 18.7101 17.5132 18.7522 16.91 18.9319C16.3656 19.0941 15.8215 19.3494 15.21 19.657L17.0078 23.2303ZM18.5738 22.7097C18.9752 22.7095 19.2132 22.7298 20.4478 23.0562L21.4702 19.1891C20.1573 18.8419 19.5094 18.7091 18.5713 18.7097L18.5738 22.7097ZM20.4478 23.0562C21.6852 23.3833 22.2953 23.5121 23.1791 23.5101L23.17 19.5101C22.9665 19.5106 22.8322 19.5009 22.6352 19.4664C22.4002 19.4253 22.0712 19.348 21.4702 19.1891L20.4478 23.0562ZM23.1791 23.5101C24.0022 23.5083 24.4374 23.4112 25.4751 23.1258L24.4145 19.269C23.9134 19.4068 23.6957 19.4597 23.5508 19.4853C23.4546 19.5023 23.3827 19.5097 23.17 19.5101L23.1791 23.5101ZM25.4751 23.1258C26.1739 22.9337 26.3407 22.9167 26.5055 22.9095L26.3318 18.9133C25.7056 18.9405 25.1883 19.0562 24.4145 19.269L25.4751 23.1258ZM26.5055 22.9095C26.6203 22.9045 26.6879 22.9078 26.8074 22.929C26.9691 22.9576 27.2161 23.018 27.6987 23.1574L28.8088 19.3145C27.7923 19.0209 27.1717 18.8768 26.3319 18.9133L26.5055 22.9095ZM27.6987 23.1574C28.6086 23.4203 29.1023 23.5334 29.8704 23.5341L29.8738 19.5341C29.7212 19.5339 29.6541 19.5271 29.5623 19.5102C29.4313 19.4861 29.2316 19.4367 28.8088 19.3145L27.6987 23.1574ZM29.8707 23.5341C30.7709 23.5347 31.2856 23.4032 32.6768 23.009L31.5864 19.1605C30.8724 19.3628 30.5337 19.4518 30.3096 19.4964C30.1523 19.5277 30.0724 19.5342 29.8735 19.5341L29.8707 23.5341ZM32.6768 23.009C33.4885 22.779 33.9293 22.7257 34.5109 22.7401L34.6097 18.7413C33.5494 18.7151 32.7028 18.8442 31.5864 19.1605L32.6768 23.009ZM34.5109 22.7401C34.9349 22.7506 35.168 22.783 35.5614 22.8834L36.55 19.0075C35.8595 18.8313 35.3276 18.7591 34.6097 18.7413L34.5109 22.7401ZM35.5614 22.8834C35.9029 22.9705 36.2068 23.0704 37.1494 23.4387L38.605 19.7129C37.6395 19.3357 37.1438 19.1589 36.55 19.0075L35.5614 22.8834ZM37.1494 23.4387C38.4105 23.9314 38.9928 24.1351 39.7588 24.2898L40.5505 20.3689C40.1535 20.2887 39.8515 20.1999 38.605 19.7129L37.1494 23.4387ZM39.7587 24.2897C40.2671 24.3924 40.6124 24.4253 41.1342 24.4238L41.1227 20.4239C40.863 20.4246 40.787 20.4167 40.5505 20.3689L39.7587 24.2897ZM41.134 24.4238C41.5016 24.4228 41.7385 24.4114 42.0929 24.3477L41.3856 20.4107C41.3544 20.4164 41.3407 20.4183 41.3357 20.419C41.3325 20.4194 41.331 20.4196 41.3268 20.4199C41.3101 20.4211 41.2651 20.4235 41.1229 20.4239L41.134 24.4238ZM42.0931 24.3477C42.1129 24.3441 42.1307 24.3412 42.1451 24.3389C42.1603 24.3365 42.1678 24.3355 42.1675 24.3355C42.1673 24.3356 42.1621 24.3362 42.1528 24.3372C42.1451 24.338 42.1246 24.3401 42.0958 24.342C42.0792 24.343 42.0031 24.3481 41.9026 24.344C41.8598 24.3423 41.7381 24.3365 41.585 24.305C41.5093 24.2894 41.365 24.2556 41.1946 24.1817C41.0523 24.1201 40.6976 23.9495 40.4008 23.5609L43.5798 21.1332C43.2828 20.7442 42.9276 20.5732 42.7845 20.5113C42.6134 20.4371 42.4682 20.403 42.3914 20.3872C42.236 20.3552 42.1112 20.3492 42.0646 20.3473C41.9566 20.3429 41.8698 20.3482 41.8399 20.3501C41.764 20.355 41.6967 20.3632 41.6585 20.3681C41.5713 20.3792 41.4755 20.3946 41.3855 20.4108L42.0931 24.3477ZM40.4018 23.5622C40.1714 23.261 40.0849 22.9696 40.0505 22.8294C40.0105 22.666 39.9983 22.5254 39.9952 22.4239C39.9891 22.2255 40.0134 22.0239 40.0711 21.8256L43.9119 22.9428C43.9737 22.7303 43.9998 22.5132 43.9933 22.3014C43.9903 22.2052 43.9807 21.6572 43.5789 21.1319L40.4018 23.5622ZM40.0721 21.8221C40.2392 21.2515 40.604 20.9348 40.7414 20.8255C40.9069 20.694 41.0554 20.62 41.1231 20.5882C41.263 20.5225 41.373 20.4926 41.3894 20.488C41.4413 20.4735 41.4549 20.4734 41.3829 20.4864L42.098 24.422C42.1935 24.4046 42.33 24.3783 42.4642 24.3409C42.5218 24.3248 42.6628 24.2843 42.8241 24.2085C42.9025 24.1717 43.0593 24.0928 43.2307 23.9566C43.3741 23.8426 43.7425 23.5213 43.9109 22.9463L40.0721 21.8221ZM41.3828 20.4865C41.3496 20.4925 41.3358 20.4945 41.3312 20.4951C41.329 20.4954 41.3291 20.4954 41.3268 20.4956C41.3129 20.4966 41.2706 20.4989 41.1246 20.4992L41.1323 24.4992C41.5047 24.4985 41.7379 24.4874 42.098 24.422L41.3828 20.4865ZM41.1246 20.4992C40.6572 20.5001 40.3162 20.4595 38.7141 19.8329L37.2571 23.5582C38.942 24.2171 39.872 24.5016 41.1323 24.4992L41.1246 20.4992ZM38.7141 19.833C37.2131 19.2459 36.5363 19.0238 35.5001 18.8764L34.9369 22.8365C35.5004 22.9167 35.8271 22.9989 37.2571 23.5582L38.7141 19.833ZM35.5001 18.8764C34.9904 18.8039 34.0616 18.7952 33.5462 18.8476L33.9505 22.8271C34.0253 22.8195 34.222 22.8116 34.4732 22.8148C34.5891 22.8163 34.6984 22.82 34.7895 22.8251C34.8347 22.8277 34.8716 22.8303 34.8997 22.8328C34.9295 22.8354 34.9406 22.8371 34.9369 22.8365L35.5001 18.8764ZM33.5462 18.8476C32.7643 18.927 32.2903 19.0356 31.2619 19.3277L32.3548 23.1755C33.2816 22.9123 33.5016 22.8727 33.9504 22.8271L33.5462 18.8476ZM31.2619 19.3277C30.7363 19.477 30.4738 19.5425 30.2938 19.5758C30.1569 19.601 30.0613 19.6093 29.875 19.609L29.8691 23.609C30.7181 23.6103 31.2603 23.4864 32.3548 23.1755L31.2619 19.3277ZM29.8754 19.609C29.7141 19.6088 29.6502 19.602 29.5599 19.5852C29.4255 19.5603 29.2194 19.5089 28.7704 19.3797L27.6647 23.2239C28.6114 23.4961 29.0902 23.6077 29.8687 23.609L29.8754 19.609ZM28.7704 19.3797C27.775 19.0934 27.3832 18.9964 26.5883 18.9922L26.5668 22.9921C26.764 22.9932 26.8021 22.9994 26.862 23.0107C26.9814 23.0333 27.1726 23.0823 27.6647 23.2238L28.7704 19.3797ZM26.5883 18.9922C25.8123 18.988 25.3768 19.0821 24.4528 19.335L25.5089 23.1931C25.9433 23.0742 26.1283 23.0307 26.2476 23.0104C26.3229 22.9976 26.3826 22.9911 26.5668 22.9921L26.5883 18.9922ZM24.4528 19.335C23.8883 19.4895 23.666 19.5426 23.5195 19.5663C23.4301 19.5808 23.3591 19.5877 23.0836 19.5803L22.9765 23.5789C23.3509 23.5889 23.7082 23.5878 24.1582 23.515C24.551 23.4514 24.9791 23.3381 25.5089 23.1931L24.4528 19.335ZM23.0836 19.5803C22.8673 19.5745 22.7492 19.5635 22.5751 19.5314C22.3591 19.4916 22.0533 19.4182 21.4574 19.2617L20.4413 23.1304C21.648 23.4474 22.1461 23.5566 22.9765 23.5789L23.0836 19.5803ZM21.4574 19.2617C20.143 18.9164 19.5077 18.7853 18.5812 18.7845L18.5778 22.7845C18.9696 22.7848 19.1958 22.8033 20.4413 23.1304L21.4574 19.2617ZM18.581 18.7845C18.0485 18.7841 17.534 18.8253 16.94 18.9997C16.4006 19.1581 15.8672 19.4068 15.2758 19.7039L17.0715 23.2782C17.6419 22.9917 17.8998 22.8868 18.0671 22.8376C18.1798 22.8045 18.2873 22.7843 18.578 22.7845L18.581 18.7845ZM15.2758 19.7039C15.0753 19.8047 14.8321 19.9215 14.748 19.9592L16.3856 23.6086C16.5478 23.5358 16.8508 23.3891 17.0715 23.2782L15.2758 19.7039ZM14.7481 19.9592C14.442 20.0965 14.3089 20.1206 14.2629 20.1259C14.2427 20.1282 14.2017 20.1348 14.0664 20.0962L12.9714 23.9434C13.5197 24.0995 14.0928 24.172 14.7207 24.0996C15.3228 24.0303 15.8718 23.8391 16.3854 23.6087L14.7481 19.9592ZM14.0663 20.0962C13.898 20.0483 13.8333 20.033 12.8584 19.573L11.1515 23.1905C12.0843 23.6306 12.4381 23.7917 12.9714 23.9434L14.0663 20.0962ZM12.8585 19.573C11.7258 19.0385 10.8545 18.7925 9.67907 18.7922L9.67814 22.7922C10.1219 22.7923 10.4074 22.8394 11.1515 23.1905L12.8585 19.573ZM9.67904 18.7922C8.34096 18.7919 7.33518 19.0909 5.69501 19.7645L7.21453 23.4646C8.68752 22.8597 9.11896 22.7921 9.67816 22.7922L9.67904 18.7922ZM5.69501 19.7645C4.92562 20.0804 4.84422 20.1126 4.57801 20.2123L5.98104 23.9582C6.31334 23.8337 6.44849 23.7792 7.21453 23.4646L5.69501 19.7645ZM4.57796 20.2124C3.64155 20.5631 3.14948 20.5922 2.87809 20.5559L2.34772 24.5206C3.54085 24.6802 4.74557 24.421 5.9811 23.9582L4.57796 20.2124Z" fill="black" mask="url(#path-3-outside-2)"/>
</g>
<g opacity="0.98">
<mask id="path-5-outside-3" maskUnits="userSpaceOnUse" x="0" y="0" width="44" height="5" fill="black">
<rect fill="white" width="44" height="5"/>
<path d="M37.7139 2.43603C37.884 2.45758 37.9692 2.465 38.1111 2.47063C38.2104 2.47457 38.301 2.47814 38.3125 2.47855C38.3239 2.47896 38.4247 2.47653 38.5364 2.47315C38.7919 2.46542 39.0697 2.44427 39.5525 2.39579C40.3289 2.31783 40.6137 2.30089 40.9779 2.311C41.2769 2.31929 41.4936 2.34448 41.756 2.40145C41.8652 2.42517 41.9648 2.44458 41.9774 2.44458C42.0401 2.44458 41.9711 2.42185 41.7857 2.38148C41.5168 2.3229 41.2834 2.29604 40.9715 2.28775C40.6073 2.27809 40.3333 2.29435 39.5632 2.37136C38.8147 2.44622 38.497 2.46321 38.1327 2.44785C37.7642 2.43232 37.4731 2.38729 36.9333 2.26232C36.2661 2.10786 36.0447 2.06664 35.7339 2.03906C35.5399 2.02185 35.5224 2.02126 35.3076 2.02475C35.0484 2.02896 34.8571 2.0437 34.2672 2.10497C33.7665 2.15697 33.5621 2.16807 33.234 2.16109C32.9861 2.15581 32.7833 2.14488 32.4393 2.11824C31.6156 2.05447 31.284 2.05337 30.4813 2.11176C29.8967 2.15427 29.5912 2.1643 29.2687 2.15157C29.0286 2.14209 28.9614 2.13653 28.3354 2.07436C27.7655 2.01775 27.541 2.00488 27.2372 2.01142C26.9706 2.01716 26.7402 2.03795 26.2185 2.10333C25.6898 2.16958 25.4911 2.1883 25.2316 2.1963C24.9201 2.2059 24.6255 2.18928 23.9932 2.12639C23.7026 2.09749 23.5024 2.08497 23.2562 2.08029C23.0308 2.076 23.0056 2.07664 22.7938 2.09201C22.5436 2.11016 22.3514 2.1332 21.8884 2.20051C21.2998 2.2861 21.0818 2.30832 20.7686 2.31465C20.3152 2.32382 19.9452 2.29401 19.0296 2.17452C18.1529 2.06011 17.7293 2.02278 17.2017 2.01343C16.8206 2.00668 16.4642 2.03258 15.7277 2.12056C14.7988 2.23151 14.4592 2.23603 13.5528 2.14944C12.7167 2.06959 12.4151 2.05685 11.9055 2.0799C11.6208 2.09278 11.4058 2.10834 10.8651 2.15523C10.0411 2.22668 9.7322 2.24344 9.22509 2.2442C8.65042 2.24506 8.36309 2.22437 7.64279 2.13026C6.88493 2.03125 6.6406 2.00821 6.27725 2.00154C6.10031 1.9983 6.03512 1.99968 5.85818 2.01047C5.47412 2.03387 5.0847 2.08613 4.43485 2.20147C3.67692 2.33598 3.37506 2.3817 3.04041 2.41262C2.74913 2.43954 2.48067 2.44755 2.26013 2.43591C2.04924 2.42477 2 2.42475 2 2.43579C2 2.4461 2.01451 2.44745 2.24601 2.45882C2.74484 2.48329 3.36302 2.42212 4.23261 2.26224C4.96939 2.12679 5.44935 2.05923 5.85826 2.03342C6.01977 2.02323 6.0899 2.0217 6.2657 2.02452C6.60849 2.03001 6.86696 2.05332 7.49113 2.13503C7.9543 2.19567 8.04767 2.20677 8.26922 2.22753C8.59515 2.25807 8.8174 2.26747 9.2107 2.26737C9.72188 2.26723 10.0199 2.25111 10.9014 2.17589C11.9005 2.09063 12.2164 2.0779 12.6945 2.10365C12.9137 2.11546 13.2409 2.14177 13.5168 2.16977C13.7788 2.19636 14.1012 2.21975 14.3188 2.22795C14.7388 2.24379 15.041 2.22525 15.7855 2.13796C16.5332 2.0503 16.8384 2.02867 17.2223 2.03615C17.7261 2.04596 18.1312 2.08195 18.9862 2.19286C19.9556 2.31858 20.3017 2.34665 20.7709 2.33757C21.0364 2.33243 21.3271 2.3054 21.7102 2.25024C22.652 2.1146 22.8548 2.09535 23.2563 2.10341C23.4999 2.1083 23.7398 2.12351 24.015 2.15152C24.6049 2.21156 24.9228 2.2292 25.2369 2.21931C25.4967 2.21114 25.7098 2.19121 26.2114 2.12815C26.426 2.10118 26.6991 2.07005 26.8183 2.05898C27.3084 2.01349 27.6688 2.02497 28.4729 2.11167C29.2533 2.19584 29.5766 2.19908 30.5248 2.13221C31.0104 2.09796 31.0789 2.09511 31.4207 2.0949C31.7788 2.09468 31.8331 2.09703 32.3531 2.1352C32.8777 2.17371 32.967 2.17861 33.2414 2.18391C33.5832 2.19051 33.828 2.17689 34.3251 2.12362C34.8431 2.06812 35.058 2.05143 35.3078 2.04729C35.5001 2.04409 35.5327 2.04511 35.7051 2.05967C36.0066 2.08511 36.2152 2.12356 36.8684 2.27409C37.2778 2.36844 37.4679 2.40485 37.7139 2.43603Z"/>
</mask>
<path d="M37.7139 2.43603C37.884 2.45758 37.9692 2.465 38.1111 2.47063C38.2104 2.47457 38.301 2.47814 38.3125 2.47855C38.3239 2.47896 38.4247 2.47653 38.5364 2.47315C38.7919 2.46542 39.0697 2.44427 39.5525 2.39579C40.3289 2.31783 40.6137 2.30089 40.9779 2.311C41.2769 2.31929 41.4936 2.34448 41.756 2.40145C41.8652 2.42517 41.9648 2.44458 41.9774 2.44458C42.0401 2.44458 41.9711 2.42185 41.7857 2.38148C41.5168 2.3229 41.2834 2.29604 40.9715 2.28775C40.6073 2.27809 40.3333 2.29435 39.5632 2.37136C38.8147 2.44622 38.497 2.46321 38.1327 2.44785C37.7642 2.43232 37.4731 2.38729 36.9333 2.26232C36.2661 2.10786 36.0447 2.06664 35.7339 2.03906C35.5399 2.02185 35.5224 2.02126 35.3076 2.02475C35.0484 2.02896 34.8571 2.0437 34.2672 2.10497C33.7665 2.15697 33.5621 2.16807 33.234 2.16109C32.9861 2.15581 32.7833 2.14488 32.4393 2.11824C31.6156 2.05447 31.284 2.05337 30.4813 2.11176C29.8967 2.15427 29.5912 2.1643 29.2687 2.15157C29.0286 2.14209 28.9614 2.13653 28.3354 2.07436C27.7655 2.01775 27.541 2.00488 27.2372 2.01142C26.9706 2.01716 26.7402 2.03795 26.2185 2.10333C25.6898 2.16958 25.4911 2.1883 25.2316 2.1963C24.9201 2.2059 24.6255 2.18928 23.9932 2.12639C23.7026 2.09749 23.5024 2.08497 23.2562 2.08029C23.0308 2.076 23.0056 2.07664 22.7938 2.09201C22.5436 2.11016 22.3514 2.1332 21.8884 2.20051C21.2998 2.2861 21.0818 2.30832 20.7686 2.31465C20.3152 2.32382 19.9452 2.29401 19.0296 2.17452C18.1529 2.06011 17.7293 2.02278 17.2017 2.01343C16.8206 2.00668 16.4642 2.03258 15.7277 2.12056C14.7988 2.23151 14.4592 2.23603 13.5528 2.14944C12.7167 2.06959 12.4151 2.05685 11.9055 2.0799C11.6208 2.09278 11.4058 2.10834 10.8651 2.15523C10.0411 2.22668 9.7322 2.24344 9.22509 2.2442C8.65042 2.24506 8.36309 2.22437 7.64279 2.13026C6.88493 2.03125 6.6406 2.00821 6.27725 2.00154C6.10031 1.9983 6.03512 1.99968 5.85818 2.01047C5.47412 2.03387 5.0847 2.08613 4.43485 2.20147C3.67692 2.33598 3.37506 2.3817 3.04041 2.41262C2.74913 2.43954 2.48067 2.44755 2.26013 2.43591C2.04924 2.42477 2 2.42475 2 2.43579C2 2.4461 2.01451 2.44745 2.24601 2.45882C2.74484 2.48329 3.36302 2.42212 4.23261 2.26224C4.96939 2.12679 5.44935 2.05923 5.85826 2.03342C6.01977 2.02323 6.0899 2.0217 6.2657 2.02452C6.60849 2.03001 6.86696 2.05332 7.49113 2.13503C7.9543 2.19567 8.04767 2.20677 8.26922 2.22753C8.59515 2.25807 8.8174 2.26747 9.2107 2.26737C9.72188 2.26723 10.0199 2.25111 10.9014 2.17589C11.9005 2.09063 12.2164 2.0779 12.6945 2.10365C12.9137 2.11546 13.2409 2.14177 13.5168 2.16977C13.7788 2.19636 14.1012 2.21975 14.3188 2.22795C14.7388 2.24379 15.041 2.22525 15.7855 2.13796C16.5332 2.0503 16.8384 2.02867 17.2223 2.03615C17.7261 2.04596 18.1312 2.08195 18.9862 2.19286C19.9556 2.31858 20.3017 2.34665 20.7709 2.33757C21.0364 2.33243 21.3271 2.3054 21.7102 2.25024C22.652 2.1146 22.8548 2.09535 23.2563 2.10341C23.4999 2.1083 23.7398 2.12351 24.015 2.15152C24.6049 2.21156 24.9228 2.2292 25.2369 2.21931C25.4967 2.21114 25.7098 2.19121 26.2114 2.12815C26.426 2.10118 26.6991 2.07005 26.8183 2.05898C27.3084 2.01349 27.6688 2.02497 28.4729 2.11167C29.2533 2.19584 29.5766 2.19908 30.5248 2.13221C31.0104 2.09796 31.0789 2.09511 31.4207 2.0949C31.7788 2.09468 31.8331 2.09703 32.3531 2.1352C32.8777 2.17371 32.967 2.17861 33.2414 2.18391C33.5832 2.19051 33.828 2.17689 34.3251 2.12362C34.8431 2.06812 35.058 2.05143 35.3078 2.04729C35.5001 2.04409 35.5327 2.04511 35.7051 2.05967C36.0066 2.08511 36.2152 2.12356 36.8684 2.27409C37.2778 2.36844 37.4679 2.40485 37.7139 2.43603Z" fill="black"/>
<path d="M38.1111 2.47063L38.1904 0.472205L38.1904 0.472205L38.1111 2.47063ZM37.7139 2.43603L37.4625 4.42016L37.4625 4.42016L37.7139 2.43603ZM36.8684 2.27409L37.3175 0.325172L37.3175 0.325166L36.8684 2.27409ZM35.7051 2.05967L35.5369 4.05258L35.5369 4.05258L35.7051 2.05967ZM35.3078 2.04729L35.2746 0.0475608L35.2746 0.0475608L35.3078 2.04729ZM34.3251 2.12362L34.1121 0.135002L34.1121 0.135002L34.3251 2.12362ZM33.2414 2.18391L33.28 0.184279L33.28 0.184279L33.2414 2.18391ZM32.3531 2.1352L32.2067 4.12983L32.2067 4.12983L32.3531 2.1352ZM31.4207 2.0949L31.4194 0.0948998L31.4194 0.0948998L31.4207 2.0949ZM30.5248 2.13221L30.3841 0.137166L30.3841 0.137166L30.5248 2.13221ZM28.4729 2.11167L28.6873 0.123203L28.6873 0.123202L28.4729 2.11167ZM26.8183 2.05898L26.6334 0.0675447L26.6334 0.0675465L26.8183 2.05898ZM26.2114 2.12815L25.9619 0.143768L25.9619 0.14377L26.2114 2.12815ZM25.2369 2.21931L25.2998 4.21833L25.2998 4.21833L25.2369 2.21931ZM24.015 2.15152L23.8125 4.14124L23.8125 4.14124L24.015 2.15152ZM23.2563 2.10341L23.2965 0.103813L23.2965 0.103813L23.2563 2.10341ZM21.7102 2.25024L21.9952 4.22982L21.9952 4.22982L21.7102 2.25024ZM20.7709 2.33757L20.8096 4.3372L20.8096 4.3372L20.7709 2.33757ZM18.9862 2.19286L18.729 4.17624L18.729 4.17624L18.9862 2.19286ZM17.2223 2.03615L17.1833 4.03577L17.1834 4.03577L17.2223 2.03615ZM15.7855 2.13796L15.5526 0.151569L15.5526 0.15157L15.7855 2.13796ZM14.3188 2.22795L14.3942 0.229375L14.3941 0.229375L14.3188 2.22795ZM13.5168 2.16977L13.7188 0.179992L13.7187 0.179992L13.5168 2.16977ZM12.6945 2.10365L12.8021 0.10655L12.8021 0.106549L12.6945 2.10365ZM10.9014 2.17589L10.7313 0.183133L10.7313 0.183133L10.9014 2.17589ZM9.2107 2.26737L9.21122 4.26737L9.21123 4.26737L9.2107 2.26737ZM8.26922 2.22753L8.08264 4.2188L8.08264 4.2188L8.26922 2.22753ZM7.49113 2.13503L7.23151 4.11811L7.23153 4.11812L7.49113 2.13503ZM6.2657 2.02452L6.23364 4.02426L6.23365 4.02426L6.2657 2.02452ZM5.85826 2.03342L5.7323 0.0373929L5.73229 0.0373934L5.85826 2.03342ZM4.23261 2.26224L3.87097 0.295213L3.87097 0.295213L4.23261 2.26224ZM2.24601 2.45882L2.14797 4.45641L2.14799 4.45641L2.24601 2.45882ZM2.26013 2.43591L2.15464 4.43312L2.15467 4.43313L2.26013 2.43591ZM3.04041 2.41262L3.22446 4.40414L3.22446 4.40414L3.04041 2.41262ZM4.43485 2.20147L4.08535 0.232241L4.08535 0.232241L4.43485 2.20147ZM5.85818 2.01047L5.73653 0.0141697L5.73652 0.0141701L5.85818 2.01047ZM6.27725 2.00154L6.31396 0.0018802L6.31396 0.00188006L6.27725 2.00154ZM7.64279 2.13026L7.38369 4.11341L7.3837 4.11341L7.64279 2.13026ZM9.22509 2.2442L9.22808 4.2442L9.22809 4.2442L9.22509 2.2442ZM10.8651 2.15523L10.6924 0.162702L10.6924 0.162703L10.8651 2.15523ZM11.9055 2.0799L11.9959 4.07786L11.9959 4.07786L11.9055 2.0799ZM13.5528 2.14944L13.743 0.158506L13.7429 0.158505L13.5528 2.14944ZM15.7277 2.12056L15.965 4.10644L15.965 4.10644L15.7277 2.12056ZM17.2017 2.01343L17.2371 0.0137471L17.2371 0.013747L17.2017 2.01343ZM19.0296 2.17452L19.2884 0.191339L19.2884 0.191338L19.0296 2.17452ZM20.7686 2.31465L20.7281 0.315061L20.7281 0.315061L20.7686 2.31465ZM21.8884 2.20051L22.1762 4.1797L22.1762 4.1797L21.8884 2.20051ZM22.7938 2.09201L22.9385 4.08676L22.9385 4.08676L22.7938 2.09201ZM23.2562 2.08029L23.2182 4.07993L23.2182 4.07993L23.2562 2.08029ZM23.9932 2.12639L23.7952 4.11657L23.7952 4.11657L23.9932 2.12639ZM25.2316 2.1963L25.17 0.19725L25.17 0.19725L25.2316 2.1963ZM26.2185 2.10333L26.4672 4.08781L26.4672 4.08781L26.2185 2.10333ZM27.2372 2.01142L27.1942 0.011884L27.1941 0.0118846L27.2372 2.01142ZM28.3354 2.07436L28.1377 4.06456L28.1377 4.06456L28.3354 2.07436ZM29.2687 2.15157L29.1898 4.15001L29.1898 4.15001L29.2687 2.15157ZM30.4813 2.11176L30.3362 0.117025L30.3362 0.117025L30.4813 2.11176ZM32.4393 2.11824L32.5937 0.12421L32.5937 0.124209L32.4393 2.11824ZM33.234 2.16109L33.2766 0.161541L33.2766 0.16154L33.234 2.16109ZM34.2672 2.10497L34.4738 4.09427L34.4738 4.09427L34.2672 2.10497ZM35.3076 2.02475L35.3401 4.02448L35.3401 4.02448L35.3076 2.02475ZM35.7339 2.03906L35.9107 0.0468916L35.9107 0.0468911L35.7339 2.03906ZM36.9333 2.26232L37.3844 0.313857L37.3844 0.313851L36.9333 2.26232ZM38.1327 2.44785L38.0484 4.44608L38.0484 4.44608L38.1327 2.44785ZM39.5632 2.37136L39.3642 0.38129L39.3642 0.381291L39.5632 2.37136ZM40.9715 2.28775L41.0246 0.28846L41.0245 0.288459L40.9715 2.28775ZM41.7857 2.38148L41.3601 4.33567L41.3601 4.33567L41.7857 2.38148ZM41.756 2.40145L42.1804 0.446997L42.1803 0.446991L41.756 2.40145ZM40.9779 2.311L40.9224 4.31023L40.9224 4.31023L40.9779 2.311ZM39.5525 2.39579L39.7523 4.38579L39.7523 4.38578L39.5525 2.39579ZM38.5364 2.47315L38.476 0.474061L38.476 0.474061L38.5364 2.47315ZM38.1904 0.472205C38.1402 0.470214 38.1165 0.468573 38.0967 0.466848C38.0737 0.464843 38.0389 0.461215 37.9653 0.451891L37.4625 4.42016C37.6784 4.44752 37.822 4.46074 38.0318 4.46906L38.1904 0.472205ZM37.9653 0.451893C37.8157 0.43293 37.6997 0.41325 37.3175 0.325172L36.4192 4.223C36.8559 4.32363 37.1202 4.37678 37.4625 4.42016L37.9653 0.451893ZM37.3175 0.325166C36.6553 0.172556 36.3276 0.105095 35.8734 0.0667534L35.5369 4.05258C35.6857 4.06513 35.7751 4.07457 36.4193 4.22301L37.3175 0.325166ZM35.8734 0.0667538C35.6271 0.0459627 35.5268 0.0433754 35.2746 0.0475608L35.3409 4.04701C35.4418 4.04534 35.4524 4.04588 35.4516 4.04585C35.4464 4.04569 35.4498 4.04522 35.5369 4.05258L35.8734 0.0667538ZM35.2746 0.0475608C34.9298 0.0532825 34.6403 0.0784065 34.1121 0.135002L34.5382 4.11224C35.0459 4.05784 35.1861 4.04958 35.3409 4.04701L35.2746 0.0475608ZM34.1121 0.135002C33.6641 0.183005 33.5091 0.188703 33.28 0.184279L33.2028 4.18353C33.6573 4.19231 33.992 4.17077 34.5382 4.11224L34.1121 0.135002ZM33.28 0.184279C33.1536 0.181838 33.0891 0.179861 33.0006 0.175008C32.9001 0.1695 32.7655 0.160096 32.4995 0.140566L32.2067 4.12983C32.741 4.16906 32.8734 4.17717 33.2028 4.18353L33.28 0.184279ZM32.4995 0.140566C31.9504 0.100255 31.8434 0.0946414 31.4194 0.0948998L31.4219 4.0949C31.6004 4.09479 31.6646 4.09554 31.7398 4.09879C31.8271 4.10256 31.9385 4.11015 32.2067 4.12983L32.4995 0.140566ZM31.4194 0.0948998C31.0163 0.0951482 30.8985 0.10089 30.3841 0.137166L30.6654 4.12726C30.9141 4.10972 31.0232 4.10267 31.1099 4.09906C31.1865 4.09587 31.2539 4.095 31.4219 4.0949L31.4194 0.0948998ZM30.3841 0.137166C29.5305 0.197362 29.3283 0.192326 28.6873 0.123203L28.2584 4.10015C29.1784 4.19935 29.6228 4.20079 30.6654 4.12726L30.3841 0.137166ZM28.6873 0.123202C27.8235 0.0300579 27.3136 0.00440959 26.6334 0.0675447L27.0031 4.05042C27.3032 4.02257 27.5141 4.01988 28.2584 4.10015L28.6873 0.123202ZM26.6334 0.0675465C26.482 0.0816007 26.1839 0.115869 25.9619 0.143768L26.4608 4.11253C26.668 4.08648 26.9161 4.0585 27.0032 4.05042L26.6334 0.0675465ZM25.9619 0.14377C25.476 0.204853 25.3378 0.215151 25.174 0.220304L25.2998 4.21833C25.6557 4.20713 25.9435 4.17757 26.4608 4.11253L25.9619 0.14377ZM25.1741 0.220303C24.9947 0.225947 24.782 0.219248 24.2175 0.161797L23.8125 4.14124C24.4279 4.20388 24.8509 4.23245 25.2998 4.21833L25.1741 0.220303ZM24.2175 0.161797C23.8954 0.129019 23.6009 0.109927 23.2965 0.103813L23.2162 4.10301C23.3988 4.10668 23.5842 4.11801 23.8125 4.14124L24.2175 0.161797ZM23.2965 0.103813C22.7154 0.0921427 22.3688 0.134751 21.4251 0.27066L21.9952 4.22982C22.4737 4.16092 22.7123 4.12942 22.8749 4.11398C23.0014 4.10197 23.074 4.10015 23.2162 4.10301L23.2965 0.103813ZM21.4251 0.27066C21.0904 0.318857 20.8873 0.334943 20.7322 0.337948L20.8096 4.3372C21.1855 4.32992 21.5639 4.29194 21.9952 4.22982L21.4251 0.27066ZM20.7322 0.337947C20.4195 0.344 20.1961 0.333021 19.2435 0.20947L18.729 4.17624C19.7151 4.30414 20.184 4.34931 20.8096 4.3372L20.7322 0.337947ZM19.2435 0.209472C18.3591 0.0947577 17.8714 0.048408 17.2612 0.0365288L17.1834 4.03577C17.5808 4.04351 17.9033 4.06914 18.729 4.17624L19.2435 0.209472ZM17.2612 0.0365291C16.737 0.0263205 16.3222 0.0613365 15.5526 0.151569L16.0184 4.12436C16.7441 4.03927 16.9398 4.03103 17.1833 4.03577L17.2612 0.0365291ZM15.5526 0.15157C14.8444 0.234596 14.6612 0.239447 14.3942 0.229375L14.2434 4.22653C14.8163 4.24814 15.2376 4.2159 16.0184 4.12436L15.5526 0.15157ZM14.3941 0.229375C14.2264 0.22305 13.947 0.203157 13.7188 0.179992L13.3149 4.15955C13.6106 4.18956 13.9759 4.21644 14.2434 4.22653L14.3941 0.229375ZM13.7187 0.179992C13.4192 0.149591 13.0597 0.120426 12.8021 0.10655L12.5869 4.10076C12.7677 4.1105 13.0626 4.13395 13.3149 4.15955L13.7187 0.179992ZM12.8021 0.106549C12.1774 0.0729029 11.7456 0.0965751 10.7313 0.183133L11.0714 4.16865C12.0553 4.08469 12.2554 4.0829 12.587 4.10076L12.8021 0.106549ZM10.7313 0.183133C9.872 0.256461 9.63851 0.267255 9.21018 0.267367L9.21123 4.26737C9.80526 4.26721 10.1678 4.24575 11.0714 4.16865L10.7313 0.183133ZM9.21018 0.267367C8.86737 0.267456 8.70865 0.25994 8.45579 0.236248L8.08264 4.2188C8.48165 4.25619 8.76743 4.26748 9.21122 4.26737L9.21018 0.267367ZM8.4558 0.236248C8.27288 0.219109 8.2099 0.212065 7.75073 0.151955L7.23153 4.11812C7.69869 4.17927 7.82247 4.19443 8.08264 4.2188L8.4558 0.236248ZM7.75074 0.151956C7.10228 0.0670633 6.755 0.0321022 6.29776 0.0247732L6.23365 4.02426C6.46197 4.02792 6.63163 4.03958 7.23151 4.11811L7.75074 0.151956ZM6.29777 0.0247734C6.07373 0.0211806 5.95069 0.0236107 5.7323 0.0373929L5.98423 4.02945C6.05378 4.02506 6.08054 4.02404 6.10033 4.02361C6.1219 4.02314 6.15359 4.02298 6.23364 4.02426L6.29777 0.0247734ZM5.73229 0.0373934C5.20469 0.0706908 4.63321 0.155074 3.87097 0.295213L4.59426 4.22928C5.30557 4.0985 5.69401 4.04777 5.98424 4.02945L5.73229 0.0373934ZM3.87097 0.295213C3.05598 0.445051 2.61457 0.474495 2.34404 0.461219L2.14799 4.45641C2.8751 4.49209 3.67005 4.3992 4.59426 4.22928L3.87097 0.295213ZM2.34405 0.46122C2.20149 0.454223 2.19887 0.453392 2.22253 0.455606C2.23506 0.456779 2.27605 0.460706 2.33088 0.469424C2.37171 0.475918 2.50549 0.49767 2.67039 0.555759C2.8146 0.60656 3.21641 0.763311 3.55351 1.17834C3.95005 1.66656 4 2.18449 4 2.43579H0C0 2.68967 0.0503999 3.2099 0.448645 3.70021C0.787442 4.11733 1.19219 4.27597 1.34138 4.32852C1.51126 4.38836 1.65205 4.41174 1.70272 4.41979C1.76739 4.43008 1.82104 4.43551 1.84986 4.43821C1.93865 4.44652 2.05904 4.45205 2.14797 4.45641L2.34405 0.46122ZM4 2.43579C4 2.83507 3.88018 3.22771 3.65259 3.56121C3.44177 3.87014 3.19028 4.0538 3.01696 4.15581C2.70455 4.33967 2.42204 4.38811 2.35402 4.39995C2.24692 4.41859 2.16347 4.42363 2.13041 4.42535C2.09058 4.42742 2.06138 4.42754 2.0501 4.42753C2.0264 4.42752 2.03635 4.42688 2.15464 4.43312L2.36563 0.438693C2.27302 0.433802 2.1529 0.427577 2.05186 0.427532C2.02641 0.427521 1.86162 0.425507 1.66796 0.459222C1.59202 0.472442 1.30402 0.522601 0.988097 0.708532C0.600281 0.936777 0 1.4991 0 2.43579H4ZM2.15467 4.43313C2.49689 4.4512 2.8658 4.43728 3.22446 4.40414L2.85636 0.421111C2.63246 0.441803 2.46445 0.443912 2.3656 0.438692L2.15467 4.43313ZM3.22446 4.40414C3.64955 4.36485 4.0231 4.3058 4.78435 4.17069L4.08535 0.232241C3.33074 0.36617 3.10057 0.398541 2.85636 0.421112L3.22446 4.40414ZM4.78435 4.17069C5.40387 4.06074 5.70722 4.02338 5.97985 4.00676L5.73652 0.0141701C5.24102 0.0443682 4.76552 0.111522 4.08535 0.232241L4.78435 4.17069ZM5.97984 4.00676C6.06091 4.00182 6.09 4.00072 6.11029 4.00029C6.13054 3.99986 6.15955 3.99972 6.24054 4.00121L6.31396 0.00188006C6.08412 -0.00233928 5.96609 0.000179692 5.73653 0.0141697L5.97984 4.00676ZM6.24053 4.00121C6.48593 4.00571 6.63769 4.01594 7.38369 4.11341L7.90189 0.147116C7.13216 0.0465501 6.79527 0.0107177 6.31396 0.0018802L6.24053 4.00121ZM7.3837 4.11341C8.16936 4.21605 8.54646 4.24522 9.22808 4.2442L9.22209 0.244203C8.75439 0.244904 8.55683 0.232682 7.90188 0.147115L7.3837 4.11341ZM9.22809 4.2442C9.81583 4.24332 10.1878 4.22147 11.0379 4.14775L10.6924 0.162703C9.89437 0.231899 9.64857 0.243563 9.22209 0.244203L9.22809 4.2442ZM11.0379 4.14775C11.5709 4.10153 11.7532 4.08884 11.9959 4.07786L11.8152 0.0819421C11.4885 0.096716 11.2407 0.115155 10.6924 0.162702L11.0379 4.14775ZM11.9959 4.07786C12.3716 4.06086 12.5685 4.06453 13.3626 4.14038L13.7429 0.158505C12.865 0.0746455 12.4585 0.0528424 11.8152 0.0819429L11.9959 4.07786ZM13.3626 4.14038C14.4151 4.24092 14.8981 4.23388 15.965 4.10644L15.4905 0.134674C14.6996 0.229151 14.5033 0.231133 13.743 0.158506L13.3626 4.14038ZM15.965 4.10644C16.6786 4.02119 16.9255 4.00885 17.1662 4.01312L17.2371 0.013747C16.7156 0.0045089 16.2498 0.0439767 15.4905 0.134675L15.965 4.10644ZM17.1662 4.01312C17.5861 4.02056 17.9259 4.04746 18.7708 4.15771L19.2884 0.191338C18.3798 0.0727721 17.8724 0.0250043 17.2371 0.0137471L17.1662 4.01312ZM18.7708 4.15771C19.706 4.27975 20.1988 4.32659 20.809 4.31424L20.7281 0.315061C20.4316 0.321058 20.1844 0.308262 19.2884 0.191339L18.7708 4.15771ZM20.809 4.31424C21.2485 4.30536 21.5645 4.26865 22.1762 4.1797L21.6006 0.221327C21.0351 0.30355 20.9151 0.31128 20.7281 0.315061L20.809 4.31424ZM22.1762 4.1797C22.6247 4.11449 22.7607 4.09966 22.9385 4.08676L22.6491 0.097251C22.3264 0.120659 22.078 0.151908 21.6006 0.22133L22.1762 4.1797ZM22.9385 4.08676C23.0509 4.07861 23.0641 4.0783 23.0706 4.07813C23.0795 4.07791 23.0973 4.07763 23.2182 4.07993L23.2942 0.080648C23.0115 0.0752741 22.9252 0.0772102 22.6491 0.0972516L22.9385 4.08676ZM23.2182 4.07993C23.4023 4.08343 23.5484 4.09202 23.7952 4.11657L24.1911 0.136206C23.8568 0.102957 23.6025 0.0865094 23.2942 0.080648L23.2182 4.07993ZM23.7952 4.11657C24.4446 4.18115 24.8458 4.20914 25.2932 4.19535L25.17 0.19725C24.9943 0.202666 24.8064 0.197404 24.1911 0.136205L23.7952 4.11657ZM25.2932 4.19535C25.651 4.18432 25.9267 4.15554 26.4672 4.08781L25.9698 0.118854C25.453 0.183621 25.3312 0.192281 25.17 0.19725L25.2932 4.19535ZM26.4672 4.08781C26.9726 4.02446 27.1201 4.01441 27.2803 4.01096L27.1941 0.0118846C26.8211 0.0199204 26.5077 0.0514347 25.9698 0.118855L26.4672 4.08781ZM27.2802 4.01096C27.4618 4.00705 27.5911 4.01027 28.1377 4.06456L28.5331 0.0841493C27.94 0.0252358 27.6201 0.00271439 27.1942 0.011884L27.2802 4.01096ZM28.1377 4.06456C28.76 4.12637 28.8825 4.13788 29.1898 4.15001L29.3476 0.153128C29.2434 0.149012 29.1976 0.146646 29.1117 0.139533C29.0067 0.130848 28.8521 0.115831 28.5331 0.0841489L28.1377 4.06456ZM29.1898 4.15001C29.6241 4.16716 30.0168 4.15082 30.6263 4.10649L30.3362 0.117025C29.7766 0.157725 29.5583 0.161447 29.3476 0.153127L29.1898 4.15001ZM30.6263 4.10649C31.3268 4.05554 31.5582 4.05601 32.2849 4.11227L32.5937 0.124209C31.6729 0.0529238 31.2412 0.0511993 30.3362 0.117025L30.6263 4.10649ZM32.2849 4.11227C32.6529 4.14077 32.895 4.15433 33.1915 4.16064L33.2766 0.16154C33.0772 0.157299 32.9137 0.148986 32.5937 0.12421L32.2849 4.11227ZM33.1915 4.16064C33.6342 4.17006 33.929 4.15085 34.4738 4.09427L34.0606 0.115663C33.604 0.163088 33.49 0.166082 33.2766 0.161541L33.1915 4.16064ZM34.4738 4.09427C35.0601 4.03338 35.1757 4.02715 35.3401 4.02448L35.2751 0.0250091C34.921 0.0307615 34.6541 0.0540266 34.0606 0.115663L34.4738 4.09427ZM35.3401 4.02448C35.3953 4.02359 35.4255 4.02317 35.4471 4.02307C35.4657 4.02298 35.4671 4.0232 35.4614 4.02301C35.4527 4.02272 35.4506 4.02178 35.5571 4.03123L35.9107 0.0468911C35.6405 0.0229111 35.5527 0.0204998 35.2751 0.0250092L35.3401 4.02448ZM35.5571 4.03123C35.7192 4.04562 35.8248 4.0586 36.4822 4.21079L37.3844 0.313851C36.7073 0.157114 36.3701 0.0876667 35.9107 0.0468916L35.5571 4.03123ZM36.4822 4.21078C37.0889 4.35125 37.5115 4.42344 38.0484 4.44608L38.2169 0.449625C38.0169 0.441194 37.8572 0.423331 37.3844 0.313857L36.4822 4.21078ZM38.0484 4.44608C38.5617 4.46771 38.9965 4.43802 39.7622 4.36144L39.3642 0.381291C38.6328 0.454429 38.4324 0.458706 38.2169 0.449624L38.0484 4.44608ZM39.7622 4.36144C40.5198 4.28567 40.6882 4.28094 40.9184 4.28705L41.0245 0.288459C40.5264 0.275236 40.1467 0.303035 39.3642 0.38129L39.7622 4.36144ZM40.9184 4.28705C41.1213 4.29244 41.2286 4.30702 41.3601 4.33567L42.2113 0.427288C41.8049 0.338777 41.4455 0.299637 41.0246 0.28846L40.9184 4.28705ZM41.3601 4.33567C41.4613 4.35771 41.4286 4.35401 41.3492 4.32786C41.3302 4.3216 41.2391 4.29193 41.1255 4.23721C41.0752 4.213 40.9421 4.14715 40.7907 4.0325C40.7406 3.9946 40.1907 3.60547 40.0375 2.82616C39.9415 2.3375 40.0316 1.83293 40.2863 1.40985C40.5112 1.03629 40.801 0.828756 40.9685 0.728087C41.2803 0.540643 41.5643 0.489314 41.6282 0.477392C41.8139 0.442784 41.9605 0.444577 41.9774 0.444577V4.44458C42.01 4.44458 42.1681 4.44566 42.3613 4.40965C42.429 4.39703 42.7157 4.34483 43.0293 4.15634C43.1976 4.05515 43.488 3.84705 43.7133 3.47289C43.9683 3.0492 44.0586 2.54398 43.9624 2.05463C43.809 1.27394 43.2578 0.883264 43.2055 0.843646C43.0518 0.727287 42.9154 0.659553 42.8609 0.633304C42.7388 0.574499 42.6353 0.540099 42.6 0.52848C42.4554 0.480872 42.2955 0.445624 42.2113 0.427287L41.3601 4.33567ZM41.9774 0.444577C42.0364 0.444577 42.0834 0.447237 42.1095 0.448984C42.1382 0.450905 42.1618 0.45312 42.1777 0.45475C42.2088 0.457936 42.2329 0.461185 42.245 0.462862C42.2695 0.466285 42.2866 0.469213 42.2898 0.469769C42.2985 0.471249 42.2982 0.471321 42.2853 0.468796C42.2618 0.464228 42.2239 0.456448 42.1804 0.446997L41.3316 4.35591C41.3973 4.37017 41.4638 4.38396 41.5206 4.39502C41.5478 4.40031 41.5816 4.40672 41.6159 4.41258C41.6319 4.41532 41.6597 4.41995 41.6925 4.42453C41.7087 4.42679 41.7363 4.43047 41.7704 4.43396C41.791 4.43606 41.8729 4.44458 41.9774 4.44458V0.444577ZM42.1803 0.446991C41.7838 0.360894 41.4426 0.323111 41.0333 0.311764L40.9224 4.31023C41.1112 4.31546 41.2033 4.32806 41.3316 4.35591L42.1803 0.446991ZM41.0333 0.311765C40.5331 0.297889 40.1409 0.326656 39.3527 0.405798L39.7523 4.38578C40.517 4.30901 40.6942 4.3039 40.9224 4.31023L41.0333 0.311765ZM39.3527 0.405796C38.883 0.452959 38.6605 0.468479 38.476 0.474061L38.5969 4.47223C38.9233 4.46236 39.2564 4.43558 39.7523 4.38579L39.3527 0.405796ZM38.476 0.474061C38.4233 0.475654 38.3744 0.476988 38.3386 0.47785C38.3204 0.47829 38.3082 0.478543 38.3017 0.478656C38.2982 0.478718 38.2996 0.47868 38.3041 0.478642C38.3063 0.478624 38.3125 0.478576 38.3211 0.4786C38.3255 0.478612 38.3325 0.478647 38.3412 0.478767C38.3489 0.478872 38.3642 0.479122 38.3836 0.479814L38.2413 4.47728C38.339 4.48076 38.5418 4.4739 38.5969 4.47223L38.476 0.474061ZM38.3836 0.479814C38.3848 0.479857 38.381 0.479715 38.3678 0.479204C38.3566 0.478767 38.3414 0.478173 38.3233 0.477461C38.2871 0.476037 38.2399 0.47417 38.1904 0.472205L38.0318 4.46906C38.1275 4.47286 38.2245 4.47668 38.2413 4.47728L38.3836 0.479814Z" fill="black" mask="url(#path-5-outside-3)"/>
</g>
</svg>
