<svg width="30" height="30" viewBox="0 0 30 30" fill="none" xmlns="http://www.w3.org/2000/svg">
<path fill-rule="evenodd" clip-rule="evenodd" d="M15.0001 0C6.71687 0 0 6.8854 0 15.3796C0 22.1749 4.29799 27.9399 10.258 29.9736C11.0077 30.1159 11.2829 29.6399 11.2829 29.2337C11.2829 28.867 11.269 27.6554 11.2625 26.3703C7.08946 27.3007 6.2089 24.5557 6.2089 24.5557C5.52656 22.778 4.54341 22.3053 4.54341 22.3053C3.18245 21.3507 4.64599 21.3703 4.64599 21.3703C6.15227 21.4786 6.94539 22.9552 6.94539 22.9552C8.28325 25.3065 10.4545 24.6267 11.3105 24.2337C11.4451 23.24 11.8338 22.561 12.2628 22.1772C8.93107 21.7883 5.42869 20.4695 5.42869 14.5764C5.42869 12.8972 6.01465 11.5252 6.97421 10.4482C6.81846 10.0605 6.30503 8.49653 7.11952 6.37806C7.11952 6.37806 8.37913 5.96471 11.2456 7.95456C12.4421 7.61379 13.7254 7.4429 15.0001 7.43704C16.2749 7.4429 17.5591 7.61379 18.7579 7.95456C21.6209 5.96471 22.8787 6.37806 22.8787 6.37806C23.6952 8.49653 23.1815 10.0605 23.0258 10.4482C23.9876 11.5252 24.5696 12.8972 24.5696 14.5764C24.5696 20.4835 21.0605 21.7842 17.7203 22.1649C18.2583 22.6422 18.7377 23.5782 18.7377 25.0131C18.7377 27.0707 18.7203 28.7269 18.7203 29.2337C18.7203 29.643 18.9904 30.1226 19.7507 29.9715C25.7075 27.9356 30 22.1726 30 15.3796C30 6.8854 23.2841 0 15.0001 0" fill="#FCBF49"/>
<path fill-rule="evenodd" clip-rule="evenodd" d="M5.68129 22.0819C5.64826 22.1586 5.53102 22.1812 5.4242 22.1288C5.31541 22.0786 5.2543 21.9744 5.28957 21.8978C5.32187 21.8191 5.43936 21.7974 5.54791 21.8496C5.65695 21.9001 5.71905 22.0053 5.68129 22.0819" fill="#FCBF49"/>
<path fill-rule="evenodd" clip-rule="evenodd" d="M6.28888 22.7767C6.21734 22.8447 6.07749 22.8131 5.9826 22.7056C5.88449 22.5984 5.86611 22.455 5.93864 22.386C6.01241 22.318 6.14804 22.3499 6.2464 22.4571C6.34452 22.5656 6.36364 22.7079 6.28888 22.7767" fill="#FCBF49"/>
<path fill-rule="evenodd" clip-rule="evenodd" d="M6.8803 23.6625C6.78839 23.7279 6.63812 23.6665 6.54522 23.5298C6.45331 23.393 6.45331 23.229 6.5472 23.1633C6.64035 23.0976 6.78839 23.1567 6.88254 23.2924C6.97419 23.4312 6.97419 23.5955 6.8803 23.6625" fill="#FCBF49"/>
<path fill-rule="evenodd" clip-rule="evenodd" d="M7.69058 24.5182C7.60837 24.6112 7.43325 24.5862 7.30507 24.4594C7.17392 24.3354 7.13741 24.1594 7.21987 24.0664C7.30309 23.9732 7.4792 23.9994 7.60837 24.1253C7.73852 24.249 7.77827 24.4263 7.69058 24.5182" fill="#FCBF49"/>
<path fill-rule="evenodd" clip-rule="evenodd" d="M8.80836 25.0151C8.7721 25.1356 8.60343 25.1903 8.43353 25.1391C8.26388 25.0864 8.15284 24.9453 8.18712 24.8236C8.2224 24.7024 8.3918 24.6453 8.56295 24.7001C8.73235 24.7525 8.84363 24.8926 8.80836 25.0151" fill="#FCBF49"/>
<path fill-rule="evenodd" clip-rule="evenodd" d="M10.0359 25.1073C10.0402 25.2341 9.8961 25.3393 9.71775 25.3414C9.53841 25.3457 9.39334 25.2431 9.39136 25.1183C9.39136 24.9902 9.5322 24.886 9.71154 24.8829C9.88989 24.8794 10.0359 24.9812 10.0359 25.1073" fill="#FCBF49"/>
<path fill-rule="evenodd" clip-rule="evenodd" d="M11.1783 24.9079C11.1997 25.0317 11.0757 25.1587 10.8986 25.1924C10.7245 25.2252 10.5633 25.1488 10.5412 25.0261C10.5196 24.8992 10.6457 24.7721 10.8196 24.7393C10.997 24.7077 11.1557 24.7821 11.1783 24.9079" fill="#FCBF49"/>
</svg>
