<svg width="30" height="30" viewBox="0 0 30 30" fill="none" xmlns="http://www.w3.org/2000/svg">
<path fill-rule="evenodd" clip-rule="evenodd" d="M15 0C6.71573 0 0 6.71573 0 15C0 23.2843 6.71573 30 15 30C23.2843 30 30 23.2843 30 15C30 6.71573 23.2843 0 15 0ZM11.7021 7.04832C12.5554 7.00948 12.8281 6.99998 15.0008 6.99998H14.9983C17.1716 6.99998 17.4433 7.00948 18.2966 7.04832C19.1483 7.08732 19.73 7.22215 20.24 7.41999C20.7666 7.62416 21.2117 7.89749 21.6567 8.3425C22.1017 8.78717 22.375 9.23351 22.58 9.75968C22.7767 10.2684 22.9117 10.8497 22.9517 11.7014C22.99 12.5547 23 12.8274 23 15.0001C23 17.1728 22.99 17.4448 22.9517 18.2981C22.9117 19.1494 22.7767 19.7309 22.58 20.2398C22.375 20.7658 22.1017 21.2121 21.6567 21.6568C21.2122 22.1018 20.7665 22.3758 20.2405 22.5801C19.7315 22.778 19.1495 22.9128 18.2978 22.9518C17.4445 22.9907 17.1726 23.0001 14.9998 23.0001C12.8272 23.0001 12.5547 22.9907 11.7014 22.9518C10.8499 22.9128 10.2684 22.778 9.75937 22.5801C9.23353 22.3758 8.78719 22.1018 8.34269 21.6568C7.89785 21.2121 7.62451 20.7658 7.42001 20.2396C7.22234 19.7309 7.08751 19.1496 7.04834 18.2979C7.00967 17.4446 7.00001 17.1728 7.00001 15.0001C7.00001 12.8274 7.01001 12.5545 7.04817 11.7012C7.08651 10.8499 7.22151 10.2684 7.41985 9.75951C7.62485 9.23351 7.89818 8.78717 8.34319 8.3425C8.78786 7.89766 9.2342 7.62432 9.76037 7.41999C10.269 7.22215 10.8504 7.08732 11.7021 7.04832Z" fill="#FCBF49"/>
<path fill-rule="evenodd" clip-rule="evenodd" d="M14.2831 8.44167C14.4225 8.44145 14.5724 8.44152 14.7341 8.44159L15.0008 8.44167C17.1368 8.44167 17.39 8.44933 18.2335 8.48767C19.0135 8.52333 19.4368 8.65367 19.7188 8.76317C20.0922 8.90817 20.3583 9.08151 20.6382 9.36151C20.9182 9.64151 21.0915 9.90818 21.2369 10.2815C21.3464 10.5632 21.4769 10.9865 21.5124 11.7665C21.5507 12.6099 21.559 12.8632 21.559 14.9982C21.559 17.1333 21.5507 17.3866 21.5124 18.2299C21.4767 19.0099 21.3464 19.4333 21.2369 19.715C21.0918 20.0883 20.9182 20.3541 20.6382 20.634C20.3582 20.914 20.0923 21.0873 19.7188 21.2323C19.4372 21.3423 19.0135 21.4723 18.2335 21.508C17.3901 21.5463 17.1368 21.5546 15.0008 21.5546C12.8646 21.5546 12.6114 21.5463 11.7681 21.508C10.9881 21.472 10.5647 21.3416 10.2826 21.2321C9.90923 21.0871 9.64256 20.9138 9.36256 20.6338C9.08256 20.3538 8.90922 20.0878 8.76389 19.7143C8.65439 19.4326 8.52388 19.0093 8.48838 18.2293C8.45005 17.3859 8.44238 17.1326 8.44238 14.9962C8.44238 12.8599 8.45005 12.6079 8.48838 11.7645C8.52405 10.9845 8.65439 10.5612 8.76389 10.2792C8.90889 9.90585 9.08256 9.63918 9.36256 9.35918C9.64256 9.07917 9.90923 8.90584 10.2826 8.7605C10.5646 8.6505 10.9881 8.5205 11.7681 8.48467C12.5061 8.45133 12.7921 8.44133 14.2831 8.43967V8.44167ZM19.2712 9.77004C18.7412 9.77004 18.3111 10.1995 18.3111 10.7297C18.3111 11.2597 18.7412 11.6897 19.2712 11.6897C19.8012 11.6897 20.2312 11.2597 20.2312 10.7297C20.2312 10.1997 19.8012 9.76971 19.2712 9.76971V9.77004ZM10.8924 15.0001C10.8924 12.7313 12.7318 10.8918 15.0006 10.8917C17.2695 10.8917 19.1085 12.7312 19.1085 15.0001C19.1085 17.2689 17.2696 19.1076 15.0008 19.1076C12.7319 19.1076 10.8924 17.2689 10.8924 15.0001Z" fill="#FCBF49"/>
<path fill-rule="evenodd" clip-rule="evenodd" d="M15.0007 12.3334C16.4734 12.3334 17.6674 13.5272 17.6674 15.0001C17.6674 16.4728 16.4734 17.6668 15.0007 17.6668C13.5279 17.6668 12.334 16.4728 12.334 15.0001C12.334 13.5272 13.5279 12.3334 15.0007 12.3334V12.3334Z" fill="#FCBF49"/>
</svg>
