<svg width="44" height="5" viewBox="0 0 44 5" fill="none" xmlns="http://www.w3.org/2000/svg">
<path opacity="0.98" d="M27.2157 1.01165L27.2157 1.01165C27.5805 1.0038 27.8528 1.02149 28.4342 1.07925C29.0621 1.14161 29.1016 1.14419 29.3082 1.15235C29.5748 1.16287 29.8366 1.156 30.4087 1.11439L30.4104 1.13777L30.4087 1.11439C31.2626 1.05228 31.6442 1.0537 32.5165 1.12123L32.5147 1.14435L32.5165 1.12123C32.8485 1.14693 33.0317 1.15656 33.2553 1.16131C33.5261 1.16708 33.6852 1.16003 34.1639 1.11031C34.7556 1.04886 34.9847 1.02986 35.2914 1.02488C35.5375 1.02088 35.5902 1.02238 35.8223 1.04298C36.2074 1.07715 36.4867 1.13249 37.1588 1.28809L37.153 1.3134L37.1588 1.28809C37.6652 1.40531 37.8905 1.43676 38.1748 1.44874C38.4647 1.46096 38.7238 1.45033 39.4637 1.37633C40.24 1.29869 40.5669 1.27666 40.998 1.28811C41.3644 1.29784 41.6608 1.33084 41.9985 1.40438L41.993 1.42958L41.9985 1.40438C42.087 1.42365 42.1987 1.44916 42.2873 1.47832C42.309 1.48547 42.3639 1.50386 42.4271 1.53428C42.4554 1.54791 42.5244 1.58225 42.6018 1.64085C42.6025 1.64144 42.6035 1.64218 42.6047 1.64308C42.6445 1.67272 42.9066 1.86823 42.9812 2.24745C43.0293 2.49229 42.9842 2.74507 42.8566 2.95709C42.7438 3.14434 42.5985 3.24854 42.5141 3.29927C42.3581 3.39303 42.2151 3.41968 42.1789 3.42643L42.178 3.42659C42.0813 3.44461 42.0006 3.44458 41.9785 3.44458L41.9774 3.44458C41.9252 3.44458 41.8839 3.44035 41.8725 3.43918L41.8722 3.43915C41.8545 3.43734 41.8398 3.43538 41.8306 3.43411C41.8122 3.43154 41.7956 3.4288 41.7844 3.42688C41.7608 3.42285 41.7354 3.41806 41.7118 3.41347C41.6633 3.40402 41.6039 3.39174 41.5438 3.37868C41.3484 3.33627 41.194 3.31737 40.9502 3.31061L40.9508 3.28756L40.9501 3.31061C40.6539 3.30239 40.4229 3.31342 39.6524 3.39079C39.163 3.43993 38.8576 3.46389 38.5667 3.47269L38.5631 3.4728C38.479 3.47534 38.3307 3.47983 38.2769 3.47792L38.2778 3.45232L38.2769 3.47792L38.0714 3.46985C37.8956 3.46287 37.7812 3.45255 37.5882 3.42809L37.5911 3.4052L37.5882 3.42809C37.294 3.39082 37.0668 3.34604 36.6438 3.24855C35.9952 3.09907 35.8461 3.07512 35.621 3.05612C35.5344 3.04881 35.507 3.04709 35.4828 3.04634C35.4563 3.04551 35.4229 3.04551 35.3244 3.04715C35.1221 3.0505 34.9445 3.06298 34.4317 3.11793C33.91 3.17383 33.6202 3.19141 33.2221 3.18372C32.9202 3.17789 32.8094 3.17139 32.2799 3.13252C31.7745 3.09542 31.7464 3.0947 31.4213 3.0949C31.1103 3.09509 31.0664 3.0965 30.5951 3.12973C29.5997 3.19993 29.2159 3.1976 28.3656 3.10591C27.5915 3.02243 27.3058 3.01803 26.9107 3.0547C26.8076 3.06428 26.547 3.09383 26.3361 3.12034C25.8266 3.18439 25.5762 3.20913 25.2684 3.21882L25.2676 3.19566L25.2684 3.21882C24.8868 3.23082 24.5164 3.20772 23.9137 3.14638C23.662 3.12076 23.4494 3.10749 23.2362 3.10321C22.9245 3.09695 22.7936 3.10453 21.8527 3.24003C21.4455 3.29867 21.1109 3.33117 20.7903 3.33739L20.7903 3.33739C20.2429 3.34798 19.8353 3.31136 18.8576 3.18455L18.8607 3.16097L18.8576 3.18455C18.0172 3.07554 17.6534 3.04473 17.2028 3.03596C16.8891 3.02985 16.6386 3.04479 15.9019 3.13116C15.1393 3.22057 14.7775 3.24597 14.2811 3.22724C14.0385 3.2181 13.6947 3.19296 13.4158 3.16466C13.1518 3.13786 12.8407 3.11298 12.6407 3.10221L27.2157 1.01165ZM27.2157 1.01165C26.8959 1.01854 26.6239 1.04469 26.0941 1.11109C25.5714 1.1766 25.4111 1.19029 25.2008 1.19678C24.9572 1.20429 24.716 1.19334 24.0921 1.1313C23.7797 1.10022 23.5525 1.08574 23.2752 1.08047C23.0211 1.07564 22.9654 1.07692 22.7214 1.09463C22.435 1.11541 22.2147 1.14255 21.7445 1.21092C21.1675 1.29482 20.9985 1.3098 20.7484 1.31486L20.7488 1.33781M27.2157 1.01165L20.7488 1.33781M20.7488 1.33781L20.7483 1.31486C20.3734 1.32244 20.0648 1.30114 19.159 1.18293C18.2663 1.06644 17.8008 1.02389 17.2194 1.01359C16.7681 1.0056 16.357 1.03828 15.6091 1.12762C14.7492 1.23033 14.4812 1.23358 13.6479 1.15398L13.6479 1.15397C12.7908 1.07212 12.4368 1.05485 11.8604 1.08092C11.5547 1.09475 11.3233 1.11175 10.7787 1.15896L10.7808 1.18254L10.7787 1.15896C9.96771 1.22929 9.69038 1.2435 9.22359 1.2442C8.70241 1.24498 8.45996 1.22852 7.77234 1.13869C7.00855 1.0389 6.71793 1.00947 6.2956 1.00171C6.09222 0.997978 6.0006 0.999932 5.79735 1.01232L5.79735 1.01232C5.35757 1.03912 4.92511 1.09883 4.2601 1.21685C3.50383 1.35108 3.23782 1.39012 2.94839 1.41687M20.7488 1.33781L2.94839 1.41687M2.94839 1.41687C2.6908 1.44067 2.47258 1.44573 2.31288 1.4373L2.94839 1.41687ZM6.29518 1.02487C6.29518 1.02487 6.29518 1.02487 6.29518 1.02487ZM5.92125 3.03144C6.05431 3.02304 6.09798 3.02196 6.24967 3.02439L6.24968 3.02439C6.53523 3.02896 6.7493 3.04645 7.36132 3.12657L7.36133 3.12657C7.8265 3.18747 7.93507 3.2006 8.17593 3.22316L8.1781 3.2L8.17593 3.22317C8.5384 3.25713 8.79241 3.26748 9.21096 3.26737C9.76357 3.26722 10.0939 3.24843 10.9864 3.17227C11.9779 3.08766 12.2359 3.0804 12.6407 3.10221L5.92125 3.03144ZM4.41344 3.24576C5.13747 3.11264 5.57168 3.0535 5.92125 3.03144L2.31287 1.4373C2.21384 1.43207 2.12127 1.42756 2.05142 1.42753C2.05074 1.42753 2.04999 1.42753 2.04919 1.42753C2.0236 1.4275 1.93719 1.42739 1.83947 1.4444C1.79953 1.45136 1.65415 1.47687 1.49531 1.57035C1.30053 1.68499 1 1.96675 1 2.43579C1 2.56338 1.02531 2.82407 1.22486 3.06974C1.39468 3.27882 1.59779 3.35861 1.67363 3.38533C1.80844 3.43282 1.9345 3.44194 1.94262 3.44253C1.94285 3.44254 1.94298 3.44255 1.94302 3.44256C2.00143 3.44802 2.08787 3.45226 2.18553 3.45705L2.19699 3.45761L2.197 3.45761C2.80997 3.48769 3.51653 3.41066 4.41344 3.24576Z" fill="black" stroke="black" stroke-width="2"/>
</svg>
