<svg width="44" height="6" viewBox="0 0 44 6" fill="none" xmlns="http://www.w3.org/2000/svg">
<g opacity="0.98">
<mask id="path-1-outside-1" maskUnits="userSpaceOnUse" x="0" y="0.39389" width="44" height="6" fill="black">
<rect fill="white" y="0.39389" width="44" height="6"/>
<path d="M2.60907 3.43155C2.36197 3.61348 2 3.93511 2 3.97275C2 4.02402 2.03851 3.99984 2.23233 3.82688C3.21874 2.94671 4.29139 2.57648 5.48245 2.70512C5.91712 2.75205 6.2889 2.83483 6.81181 3.00107C7.9443 3.36112 8.18278 3.41361 8.68523 3.41403C9.09519 3.4143 9.26395 3.38525 10.1496 3.16195C10.7978 2.99853 10.8634 2.99019 11.5007 2.99034C11.9865 2.99045 12.1299 2.99754 12.5411 3.04179C13.4035 3.13463 13.8362 3.14933 14.34 3.10292C14.8909 3.05217 15.1788 2.98889 15.8428 2.77262C16.6367 2.51405 16.8337 2.46943 17.1812 2.46943C17.6663 2.46943 17.9683 2.58585 18.7978 3.0926C19.2713 3.3819 19.3374 3.41949 19.563 3.52732C20.0892 3.77891 20.629 3.83828 21.1964 3.70697C21.5611 3.62258 21.939 3.46054 22.4144 3.18471C23.2771 2.68421 23.5996 2.56987 24.0136 2.6178C24.1897 2.63818 24.2254 2.64901 24.3999 2.73513C24.6049 2.8363 24.8547 3.01224 25.1846 3.28786C25.5555 3.59775 25.7979 3.7664 26.0321 3.8776L26.2501 3.98107H26.4568C26.6574 3.98107 26.6692 3.97878 26.8561 3.90418C27.0991 3.80712 27.3283 3.65247 27.8381 3.24151C28.3302 2.8447 28.5889 2.68377 28.862 2.60438C29.2421 2.49389 29.5237 2.50667 30.2636 2.66803C30.9532 2.81841 31.1824 2.83697 31.9903 2.80784C32.9684 2.77257 33.2863 2.82445 34.3069 3.18593C35.3183 3.54414 35.6216 3.60927 36.2747 3.60885C36.5701 3.60863 36.6904 3.6004 36.8815 3.56733C37.3369 3.48855 37.6525 3.3865 38.3699 3.08605C38.8777 2.87338 39.1131 2.78706 39.3741 2.71788C40.3492 2.45942 41.0661 2.76134 41.7565 3.72122C41.8668 3.87456 41.9659 4 41.9769 4C42.0234 4 41.9855 3.9296 41.798 3.66799C41.1986 2.83143 40.5569 2.48092 39.7787 2.56505C39.4125 2.60465 39.0613 2.71588 38.3193 3.02732C37.359 3.43037 36.9562 3.531 36.2891 3.53452C35.6466 3.53792 35.3246 3.46927 34.323 3.11533C33.2911 2.75072 32.9548 2.69689 31.9542 2.73616C31.2272 2.76468 30.9413 2.74048 30.267 2.59334C29.524 2.43118 29.2428 2.41863 28.8547 2.53027C28.6903 2.57754 28.6125 2.6124 28.44 2.71609C28.2256 2.84495 28.091 2.94499 27.6698 3.28849C27.3231 3.57125 27.0588 3.74467 26.8425 3.83146C26.6665 3.9021 26.6495 3.90536 26.4599 3.90543L26.2614 3.90551L26.0553 3.80903C25.8294 3.70332 25.6115 3.55201 25.2278 3.23438C24.8596 2.92961 24.6467 2.77926 24.4287 2.66995C24.2392 2.57493 24.2115 2.56634 24.0225 2.54387C23.8407 2.52224 23.8007 2.52329 23.6351 2.554C23.3262 2.61131 23.0662 2.72775 22.4302 3.09351C21.5664 3.59036 21.0038 3.7524 20.3727 3.6861C19.9597 3.64271 19.6041 3.49978 19.0145 3.14019C17.9723 2.50467 17.7001 2.39389 17.1805 2.39389C16.8283 2.39389 16.617 2.44247 15.7777 2.71654C14.6793 3.07524 14.0166 3.12623 12.5338 2.9662C12.1315 2.92279 11.9833 2.91546 11.5006 2.91504C10.8633 2.91449 10.7988 2.92266 10.1496 3.08648C9.2697 3.30849 9.09794 3.33829 8.69434 3.3385C8.26861 3.33879 7.95932 3.28293 7.38245 3.10159C6.45089 2.80874 6.30287 2.76728 5.93026 2.69482C5.82298 2.67396 5.61815 2.64465 5.4751 2.62971C4.43368 2.52089 3.48569 2.78612 2.60907 3.43155Z"/>
</mask>
<path d="M2.60907 3.43155C2.36197 3.61348 2 3.93511 2 3.97275C2 4.02402 2.03851 3.99984 2.23233 3.82688C3.21874 2.94671 4.29139 2.57648 5.48245 2.70512C5.91712 2.75205 6.2889 2.83483 6.81181 3.00107C7.9443 3.36112 8.18278 3.41361 8.68523 3.41403C9.09519 3.4143 9.26395 3.38525 10.1496 3.16195C10.7978 2.99853 10.8634 2.99019 11.5007 2.99034C11.9865 2.99045 12.1299 2.99754 12.5411 3.04179C13.4035 3.13463 13.8362 3.14933 14.34 3.10292C14.8909 3.05217 15.1788 2.98889 15.8428 2.77262C16.6367 2.51405 16.8337 2.46943 17.1812 2.46943C17.6663 2.46943 17.9683 2.58585 18.7978 3.0926C19.2713 3.3819 19.3374 3.41949 19.563 3.52732C20.0892 3.77891 20.629 3.83828 21.1964 3.70697C21.5611 3.62258 21.939 3.46054 22.4144 3.18471C23.2771 2.68421 23.5996 2.56987 24.0136 2.6178C24.1897 2.63818 24.2254 2.64901 24.3999 2.73513C24.6049 2.8363 24.8547 3.01224 25.1846 3.28786C25.5555 3.59775 25.7979 3.7664 26.0321 3.8776L26.2501 3.98107H26.4568C26.6574 3.98107 26.6692 3.97878 26.8561 3.90418C27.0991 3.80712 27.3283 3.65247 27.8381 3.24151C28.3302 2.8447 28.5889 2.68377 28.862 2.60438C29.2421 2.49389 29.5237 2.50667 30.2636 2.66803C30.9532 2.81841 31.1824 2.83697 31.9903 2.80784C32.9684 2.77257 33.2863 2.82445 34.3069 3.18593C35.3183 3.54414 35.6216 3.60927 36.2747 3.60885C36.5701 3.60863 36.6904 3.6004 36.8815 3.56733C37.3369 3.48855 37.6525 3.3865 38.3699 3.08605C38.8777 2.87338 39.1131 2.78706 39.3741 2.71788C40.3492 2.45942 41.0661 2.76134 41.7565 3.72122C41.8668 3.87456 41.9659 4 41.9769 4C42.0234 4 41.9855 3.9296 41.798 3.66799C41.1986 2.83143 40.5569 2.48092 39.7787 2.56505C39.4125 2.60465 39.0613 2.71588 38.3193 3.02732C37.359 3.43037 36.9562 3.531 36.2891 3.53452C35.6466 3.53792 35.3246 3.46927 34.323 3.11533C33.2911 2.75072 32.9548 2.69689 31.9542 2.73616C31.2272 2.76468 30.9413 2.74048 30.267 2.59334C29.524 2.43118 29.2428 2.41863 28.8547 2.53027C28.6903 2.57754 28.6125 2.6124 28.44 2.71609C28.2256 2.84495 28.091 2.94499 27.6698 3.28849C27.3231 3.57125 27.0588 3.74467 26.8425 3.83146C26.6665 3.9021 26.6495 3.90536 26.4599 3.90543L26.2614 3.90551L26.0553 3.80903C25.8294 3.70332 25.6115 3.55201 25.2278 3.23438C24.8596 2.92961 24.6467 2.77926 24.4287 2.66995C24.2392 2.57493 24.2115 2.56634 24.0225 2.54387C23.8407 2.52224 23.8007 2.52329 23.6351 2.554C23.3262 2.61131 23.0662 2.72775 22.4302 3.09351C21.5664 3.59036 21.0038 3.7524 20.3727 3.6861C19.9597 3.64271 19.6041 3.49978 19.0145 3.14019C17.9723 2.50467 17.7001 2.39389 17.1805 2.39389C16.8283 2.39389 16.617 2.44247 15.7777 2.71654C14.6793 3.07524 14.0166 3.12623 12.5338 2.9662C12.1315 2.92279 11.9833 2.91546 11.5006 2.91504C10.8633 2.91449 10.7988 2.92266 10.1496 3.08648C9.2697 3.30849 9.09794 3.33829 8.69434 3.3385C8.26861 3.33879 7.95932 3.28293 7.38245 3.10159C6.45089 2.80874 6.30287 2.76728 5.93026 2.69482C5.82298 2.67396 5.61815 2.64465 5.4751 2.62971C4.43368 2.52089 3.48569 2.78612 2.60907 3.43155Z" fill="black"/>
<path d="M2.60907 3.43155L3.79485 5.04212L3.79487 5.04211L2.60907 3.43155ZM5.4751 2.62971L5.68295 0.640536L5.68294 0.640535L5.4751 2.62971ZM5.93026 2.69482L5.54842 4.65803L5.54847 4.65804L5.93026 2.69482ZM7.38245 3.10159L6.78267 5.00954L6.78269 5.00954L7.38245 3.10159ZM8.69434 3.3385L8.6933 1.3385L8.69297 1.3385L8.69434 3.3385ZM10.1496 3.08648L9.66029 1.14725L9.66029 1.14725L10.1496 3.08648ZM11.5006 2.91504L11.5024 0.915039L11.5006 2.91504ZM12.5338 2.9662L12.3192 4.95466L12.3192 4.95466L12.5338 2.9662ZM15.7777 2.71654L15.1569 0.815333L15.1568 0.815351L15.7777 2.71654ZM19.0145 3.14019L20.0558 1.43267L20.0557 1.43265L19.0145 3.14019ZM20.3727 3.6861L20.1637 5.67515L20.1637 5.67516L20.3727 3.6861ZM22.4302 3.09351L21.4331 1.35981L21.433 1.35983L22.4302 3.09351ZM23.6351 2.554L23.2703 0.587545L23.2703 0.587552L23.6351 2.554ZM24.0225 2.54387L23.7863 4.52986L23.7863 4.52987L24.0225 2.54387ZM24.4287 2.66995L25.325 0.882032V0.882032L24.4287 2.66995ZM25.2278 3.23438L26.5031 1.69374L26.5031 1.69372L25.2278 3.23438ZM26.0553 3.80903L26.9031 1.99761L26.903 1.99756L26.0553 3.80903ZM26.2614 3.90551L25.4136 5.71693L25.8169 5.90567L26.2621 5.90551L26.2614 3.90551ZM26.4599 3.90543L26.4606 5.90543H26.4606L26.4599 3.90543ZM26.8425 3.83146L26.0979 1.97526L26.0978 1.97529L26.8425 3.83146ZM27.6698 3.28849L26.4058 1.73856L26.4058 1.73858L27.6698 3.28849ZM28.44 2.71609L29.4703 4.43029L29.4703 4.43028L28.44 2.71609ZM28.8547 2.53027L29.4075 4.45235L29.4075 4.45234L28.8547 2.53027ZM30.267 2.59334L30.6934 0.639324L30.6934 0.639323L30.267 2.59334ZM31.9542 2.73616L32.0326 4.73462L32.0326 4.73462L31.9542 2.73616ZM34.323 3.11533L34.9894 1.2296L34.9893 1.22959L34.323 3.11533ZM36.2891 3.53452L36.2786 1.53455L36.2786 1.53455L36.2891 3.53452ZM38.3193 3.02732L37.5453 1.18316L37.5452 1.18317L38.3193 3.02732ZM39.7787 2.56505L39.5637 0.576633L39.5637 0.576639L39.7787 2.56505ZM41.798 3.66799L43.4238 2.50314L43.4238 2.50313L41.798 3.66799ZM41.7565 3.72122L43.3802 2.55346L43.3802 2.55345L41.7565 3.72122ZM39.3741 2.71788L38.8617 0.784636L38.8617 0.784638L39.3741 2.71788ZM38.3699 3.08605L37.5973 1.2413L37.5973 1.24131L38.3699 3.08605ZM36.8815 3.56733L36.5406 1.5966L36.5406 1.5966L36.8815 3.56733ZM36.2747 3.60885L36.2759 5.60885L36.2761 5.60885L36.2747 3.60885ZM34.3069 3.18593L33.6392 5.07118L33.6392 5.07118L34.3069 3.18593ZM31.9903 2.80784L32.0624 4.80654L31.9903 2.80784ZM30.2636 2.66803L30.6898 0.713959L30.6898 0.713951L30.2636 2.66803ZM28.862 2.60438L28.3037 0.683872L28.3037 0.683876L28.862 2.60438ZM27.8381 3.24151L29.0933 4.79856L29.0933 4.79853L27.8381 3.24151ZM26.8561 3.90418L26.1144 2.04678L26.1143 2.04681L26.8561 3.90418ZM26.2501 3.98107L25.3925 5.78785L25.7995 5.98107H26.2501V3.98107ZM26.0321 3.8776L25.1744 5.68435L25.1745 5.68438L26.0321 3.8776ZM25.1846 3.28786L26.4669 1.75302L26.4668 1.75299L25.1846 3.28786ZM24.3999 2.73513L23.5148 4.52862L23.5149 4.52867L24.3999 2.73513ZM24.0136 2.6178L23.7836 4.60453L23.7836 4.60453L24.0136 2.6178ZM22.4144 3.18471L23.4181 4.91465L23.4181 4.91464L22.4144 3.18471ZM21.1964 3.70697L21.6473 5.65548L21.6474 5.65547L21.1964 3.70697ZM19.563 3.52732L18.7003 5.3317L18.7003 5.33172L19.563 3.52732ZM18.7978 3.0926L19.8405 1.38593L19.8405 1.38593L18.7978 3.0926ZM15.8428 2.77262L15.2234 0.870935L15.2234 0.870939L15.8428 2.77262ZM14.34 3.10292L14.5235 5.09449L14.5235 5.09448L14.34 3.10292ZM12.5411 3.04179L12.7551 1.05328L12.7551 1.05328L12.5411 3.04179ZM11.5007 2.99034L11.5002 4.99034H11.5002L11.5007 2.99034ZM10.1496 3.16195L10.6386 5.10126L10.6386 5.10125L10.1496 3.16195ZM8.68523 3.41403L8.68357 5.41403L8.68391 5.41403L8.68523 3.41403ZM6.81181 3.00107L7.41778 1.09508L7.41775 1.09507L6.81181 3.00107ZM5.48245 2.70512L5.2677 4.69355L5.26774 4.69356L5.48245 2.70512ZM2.23233 3.82688L0.900766 2.33459L0.900707 2.33464L2.23233 3.82688ZM4 3.97275C4 4.33608 3.89998 4.60705 3.85604 4.71606C3.80292 4.84785 3.74655 4.94629 3.71388 5.00013C3.64869 5.10755 3.58856 5.1824 3.56712 5.20874C3.53915 5.24311 3.51699 5.26756 3.50648 5.27898C3.49474 5.29174 3.48664 5.3 3.48377 5.30291C3.47838 5.30837 3.49541 5.29124 3.54033 5.25132C3.62939 5.17218 3.73322 5.08749 3.79485 5.04212L1.42329 1.82099C1.23781 1.95754 1.03711 2.12463 0.883414 2.2612C0.806957 2.32914 0.718049 2.41084 0.63707 2.49287C0.60102 2.52939 0.534539 2.59807 0.464948 2.68356C0.433131 2.72265 0.364987 2.80845 0.294374 2.9248C0.258985 2.98311 0.200552 3.08552 0.14605 3.22075C0.100729 3.33319 0 3.60707 0 3.97275H4ZM3.79487 5.04211C4.28782 4.67916 4.74254 4.56405 5.26726 4.61888L5.68294 0.640535C4.12482 0.477731 2.68356 0.893088 1.42327 1.821L3.79487 5.04211ZM5.26725 4.61888C5.30747 4.62308 5.36849 4.63068 5.43286 4.63989C5.46381 4.64431 5.49164 4.64856 5.51428 4.65223C5.53864 4.65617 5.54932 4.65821 5.54842 4.65803L6.31209 0.731608C6.13256 0.696689 5.86731 0.659799 5.68295 0.640536L5.26725 4.61888ZM5.54847 4.65804C5.79677 4.70633 5.84566 4.71498 6.78267 5.00954L7.98224 1.19364C7.05612 0.902507 6.80897 0.828237 6.31205 0.7316L5.54847 4.65804ZM6.78269 5.00954C7.47931 5.22852 8.00025 5.33897 8.69571 5.3385L8.69297 1.3385C8.57989 1.33858 8.51735 1.33206 8.45051 1.31999C8.36671 1.30486 8.23568 1.27331 7.98222 1.19364L6.78269 5.00954ZM8.69537 5.3385C9.36704 5.33815 9.74742 5.25063 10.6389 5.0257L9.66029 1.14725C9.20634 1.26179 9.01781 1.30495 8.902 1.32501C8.8438 1.33509 8.81999 1.33843 8.6933 1.3385L8.69537 5.3385ZM10.6389 5.0257C10.9883 4.93755 11.0462 4.92767 11.0813 4.92321C11.1107 4.91948 11.158 4.91474 11.4989 4.91504L11.5024 0.915039C11.2059 0.914783 10.9023 0.913857 10.5778 0.955031C10.259 0.995478 9.96016 1.07159 9.66029 1.14725L10.6389 5.0257ZM11.4989 4.91504C11.9236 4.9154 11.9996 4.92016 12.3192 4.95466L12.7484 0.977751C12.2635 0.925419 12.0431 0.915506 11.5024 0.915039L11.4989 4.91504ZM12.3192 4.95466C13.1014 5.03907 13.7814 5.08172 14.4534 5.03C15.1502 4.97637 15.7538 4.82829 16.3986 4.61773L15.1568 0.815351C14.7032 0.963495 14.4262 1.02026 14.1464 1.04179C13.8418 1.06524 13.449 1.05336 12.7484 0.977751L12.3192 4.95466ZM16.3985 4.61775C16.828 4.47751 17.0086 4.42488 17.1101 4.40155C17.1463 4.39321 17.1527 4.39343 17.1439 4.39438C17.1357 4.39526 17.1404 4.39389 17.1805 4.39389V0.39389C16.4728 0.39389 15.984 0.545243 15.1569 0.815333L16.3985 4.61775ZM17.1805 4.39389C17.2389 4.39389 17.2288 4.39718 17.1914 4.39056C17.1491 4.38308 17.1283 4.37333 17.1477 4.3812C17.1776 4.39338 17.249 4.42573 17.3926 4.50522C17.5354 4.5843 17.7193 4.69295 17.9732 4.84774L20.0557 1.43265C19.552 1.12547 19.0909 0.853477 18.6554 0.676235C18.1091 0.453919 17.6471 0.39389 17.1805 0.39389V4.39389ZM17.9731 4.84771C18.669 5.27212 19.3226 5.58677 20.1637 5.67515L20.5817 1.69705C20.5627 1.69506 20.551 1.69423 20.5057 1.67599C20.4374 1.64857 20.3074 1.58615 20.0558 1.43267L17.9731 4.84771ZM20.1637 5.67516C21.3915 5.80413 22.392 5.42273 23.4274 4.82718L21.433 1.35983C21.071 1.56807 20.8713 1.64724 20.7607 1.67911C20.681 1.70205 20.6415 1.70333 20.5816 1.69705L20.1637 5.67516ZM23.4274 4.8272C23.7371 4.64908 23.8875 4.57157 23.9726 4.53345C24.0073 4.51792 24.0174 4.5153 24.0113 4.51725C24.0031 4.51985 23.9964 4.52111 24 4.52044L23.2703 0.587552C22.5937 0.713077 22.0731 0.991726 21.4331 1.35981L23.4274 4.8272ZM23.9999 4.52045C24.0346 4.51401 24.0298 4.5154 24.0105 4.51803C23.9833 4.52174 23.9353 4.52704 23.875 4.52862C23.8162 4.53016 23.7723 4.52744 23.7546 4.52607C23.7433 4.5252 23.7459 4.52506 23.7863 4.52986L24.2588 0.557868C24.1718 0.547516 23.9852 0.524371 23.7705 0.529988C23.5457 0.535865 23.359 0.571093 23.2703 0.587545L23.9999 4.52045ZM23.7863 4.52987C23.8331 4.53543 23.8263 4.5352 23.8045 4.53151C23.771 4.52582 23.7088 4.51348 23.6324 4.48979C23.5589 4.46694 23.5068 4.44425 23.4898 4.43656C23.4804 4.43233 23.4846 4.43389 23.5324 4.45786L25.325 0.882032C25.2542 0.846554 25.0551 0.743114 24.8183 0.669623C24.5655 0.59114 24.3384 0.567333 24.2588 0.557866L23.7863 4.52987ZM23.5324 4.45786C23.541 4.46218 23.6122 4.4934 23.9525 4.77504L26.5031 1.69372C26.107 1.36583 25.7525 1.09635 25.325 0.882032L23.5324 4.45786ZM23.9525 4.77502C24.3642 5.11585 24.7421 5.40269 25.2076 5.6205L26.903 1.99756C26.9021 1.99717 26.9001 1.99625 26.8939 1.99268C26.8869 1.98858 26.8705 1.97861 26.8415 1.95846C26.7782 1.91445 26.6773 1.83791 26.5031 1.69374L23.9525 4.77502ZM25.2075 5.62045L25.4136 5.71693L27.1092 2.09409L26.9031 1.99761L25.2075 5.62045ZM26.2621 5.90551L26.4606 5.90543L26.4591 1.90543L26.2606 1.90551L26.2621 5.90551ZM26.4606 5.90543C26.5141 5.90541 26.7641 5.91108 27.0358 5.85857C27.3076 5.80604 27.5375 5.70759 27.5873 5.68762L26.0978 1.97529C26.0491 1.99483 26.0556 1.99168 26.0755 1.98473C26.1073 1.9736 26.1797 1.95001 26.2768 1.93125C26.3739 1.91248 26.4498 1.90741 26.4834 1.90587C26.5044 1.90491 26.5116 1.90541 26.4591 1.90543L26.4606 5.90543ZM27.5872 5.68765C28.0923 5.48502 28.5465 5.15428 28.9338 4.83839L26.4058 1.73858C26.2668 1.85191 26.1713 1.92111 26.1098 1.96144C26.0461 2.00326 26.0462 1.99598 26.0979 1.97526L27.5872 5.68765ZM28.9338 4.83841C29.1444 4.66664 29.2522 4.58144 29.3254 4.52707C29.3806 4.48603 29.4129 4.4648 29.4703 4.43029L27.4097 1.00189C27.0642 1.20955 26.836 1.38771 26.4058 1.73856L28.9338 4.83841ZM29.4703 4.43028C29.5007 4.41204 29.5114 4.40617 29.5113 4.40625C29.5089 4.40751 29.4932 4.416 29.4683 4.42714C29.4424 4.43875 29.4193 4.44758 29.403 4.45326C29.3896 4.45792 29.3876 4.45808 29.4075 4.45235L28.3019 0.608183C27.9435 0.711258 27.706 0.823787 27.4097 1.00189L29.4703 4.43028ZM29.4075 4.45234C29.4317 4.4454 29.4211 4.44982 29.3915 4.45365C29.3599 4.45775 29.3383 4.45713 29.3385 4.45714C29.3446 4.45741 29.3809 4.45955 29.4668 4.47351C29.5538 4.48763 29.6718 4.51052 29.8406 4.54735L30.6934 0.639323C29.8654 0.458627 29.1815 0.355188 28.3018 0.608193L29.4075 4.45234ZM29.8406 4.54735C30.6893 4.73256 31.1453 4.76943 32.0326 4.73462L31.8758 0.737696C31.3091 0.75993 31.1932 0.748393 30.6934 0.639324L29.8406 4.54735ZM32.0326 4.73462C32.5006 4.71626 32.6741 4.72728 32.8108 4.74915C32.9587 4.77282 33.1567 4.82441 33.6567 5.00108L34.9893 1.22959C34.4574 1.04164 33.9714 0.884007 33.443 0.799429C32.9034 0.713051 32.4084 0.716794 31.8758 0.737696L32.0326 4.73462ZM33.6567 5.00106C34.7528 5.3884 35.3249 5.53965 36.2997 5.5345L36.2786 1.53455C36.048 1.53577 35.9595 1.52457 35.8578 1.50289C35.7104 1.47147 35.4867 1.40536 34.9894 1.2296L33.6567 5.00106ZM36.2997 5.5345C37.3343 5.52903 38.0121 5.32526 39.0933 4.87146L37.5452 1.18317C37.0857 1.37604 36.8598 1.45282 36.7095 1.49039C36.5966 1.51857 36.4944 1.53341 36.2786 1.53455L36.2997 5.5345ZM39.0933 4.87147C39.8166 4.5679 39.938 4.55948 39.9937 4.55346L39.5637 0.576639C38.887 0.649814 38.306 0.863852 37.5453 1.18316L39.0933 4.87147ZM39.9937 4.55346C40.009 4.5518 39.9955 4.55493 39.9639 4.5489C39.9311 4.54266 39.9065 4.53187 39.8967 4.52651C39.8846 4.51988 39.9847 4.57107 40.1723 4.83286L43.4238 2.50313C43.012 1.92835 42.4915 1.386 41.8141 1.01601C41.1043 0.628301 40.3367 0.49307 39.5637 0.576633L39.9937 4.55346ZM40.1723 4.83285C40.284 4.98882 40.2594 4.96413 40.2143 4.88047C40.1974 4.84905 40.1563 4.77064 40.1156 4.66104C40.0846 4.57762 39.993 4.32084 39.9949 3.97352C39.9972 3.56918 40.1396 2.91476 40.7423 2.43357C41.2549 2.02424 41.7911 2 41.9769 2V6C42.1743 6 42.7194 5.97357 43.2382 5.55937C43.8469 5.0733 43.9925 4.41134 43.9949 3.99631C43.9969 3.63831 43.9022 3.36769 43.8647 3.26682C43.8175 3.13978 43.7665 3.04031 43.736 2.98373C43.6368 2.79947 43.4995 2.60878 43.4238 2.50314L40.1723 4.83285ZM41.9769 2C42.4081 2 42.7224 2.14038 42.8314 2.19199C42.972 2.25854 43.0748 2.32763 43.1281 2.36526C43.2358 2.44143 43.311 2.51117 43.3378 2.53632C43.4 2.59467 43.4418 2.64216 43.4496 2.65093C43.4739 2.67836 43.4841 2.69192 43.4729 2.67785C43.4564 2.65699 43.4227 2.61254 43.3802 2.55346L40.1328 4.88899C40.2006 4.98324 40.2716 5.07819 40.3349 5.15838C40.3638 5.19483 40.4076 5.24934 40.457 5.30509C40.4774 5.32801 40.5297 5.3865 40.5997 5.45231C40.6305 5.48119 40.709 5.55377 40.8195 5.63185C40.8741 5.67044 40.9782 5.74025 41.1198 5.80729C41.2298 5.85938 41.545 6 41.9769 6V2ZM43.3802 2.55345C42.9132 1.90415 42.2968 1.2768 41.4484 0.919467C40.5613 0.545896 39.6695 0.570538 38.8617 0.784636L39.8865 4.65112C39.9796 4.62645 40.0107 4.63006 39.996 4.62959C39.9748 4.6289 39.9354 4.62254 39.8958 4.60588C39.8222 4.57486 39.9094 4.57841 40.1328 4.889L43.3802 2.55345ZM38.8617 0.784638C38.4616 0.890682 38.1217 1.02166 37.5973 1.2413L39.1425 4.9308C39.6336 4.7251 39.7646 4.68344 39.8865 4.65112L38.8617 0.784638ZM37.5973 1.24131C36.9382 1.51732 36.7814 1.55495 36.5406 1.5966L37.2225 5.53805C37.8925 5.42214 38.3667 5.25569 39.1425 4.93079L37.5973 1.24131ZM36.5406 1.5966C36.5138 1.60124 36.5013 1.60296 36.496 1.60364C36.4919 1.60415 36.4881 1.60457 36.4807 1.60507C36.4591 1.60655 36.4096 1.60875 36.2732 1.60885L36.2761 5.60885C36.633 5.60859 36.8773 5.59776 37.2225 5.53805L36.5406 1.5966ZM36.2734 1.60885C36.0294 1.60901 35.9429 1.59747 35.8454 1.57651C35.7005 1.54539 35.4802 1.47976 34.9746 1.30068L33.6392 5.07118C34.145 5.25031 34.582 5.39634 35.005 5.48723C35.4752 5.58829 35.8669 5.60911 36.2759 5.60885L36.2734 1.60885ZM34.9746 1.30068C34.4519 1.11554 33.9735 0.958868 33.4548 0.874222C32.9232 0.78746 32.4376 0.790412 31.9183 0.809137L32.0624 4.80654C32.5211 4.79 32.6835 4.80126 32.8105 4.82199C32.9505 4.84483 33.1413 4.89484 33.6392 5.07118L34.9746 1.30068ZM31.9183 0.809137C31.5208 0.823466 31.3626 0.821375 31.244 0.811775C31.1371 0.803116 31.0133 0.7845 30.6898 0.713959L29.8375 4.6221C30.7123 4.81288 31.1109 4.84084 32.0624 4.80654L31.9183 0.809137ZM30.6898 0.713951C29.8708 0.535372 29.181 0.428873 28.3037 0.683872L29.4203 4.52488C29.4398 4.5192 29.426 4.52434 29.3937 4.52851C29.3598 4.5329 29.337 4.5322 29.3372 4.5322C29.3431 4.53247 29.3793 4.53463 29.4651 4.54858C29.5519 4.56268 29.6696 4.58548 29.8375 4.62211L30.6898 0.713951ZM28.3037 0.683876C27.616 0.883791 27.09 1.27555 26.5828 1.68449L29.0933 4.79853C29.3198 4.61598 29.4327 4.53693 29.4888 4.50203C29.5113 4.48804 29.5113 4.48964 29.4938 4.49769C29.4741 4.50678 29.4481 4.5168 29.4203 4.52488L28.3037 0.683876ZM26.5828 1.68446C26.3366 1.88294 26.2061 1.98018 26.1283 2.03272C26.0697 2.07228 26.0777 2.06142 26.1144 2.04678L27.5977 5.76157C28.1527 5.53997 28.5924 5.20237 29.0933 4.79856L26.5828 1.68446ZM26.1143 2.04681C26.0602 2.06843 26.0644 2.06625 26.081 2.06042C26.1103 2.05014 26.1837 2.02588 26.2834 2.00669C26.3831 1.98748 26.4605 1.98272 26.492 1.98137C26.5099 1.98061 26.515 1.98107 26.4568 1.98107V5.98107C26.5054 5.98107 26.7639 5.98765 27.0398 5.93451C27.3151 5.88148 27.5526 5.77959 27.5978 5.76154L26.1143 2.04681ZM26.4568 1.98107H26.2501V5.98107H26.4568V1.98107ZM27.1077 2.17429L26.8898 2.07082L25.1745 5.68438L25.3925 5.78785L27.1077 2.17429ZM26.8898 2.07084C26.887 2.0695 26.7992 2.03068 26.4669 1.75302L23.9023 4.82269C24.3118 5.16483 24.7088 5.4633 25.1744 5.68435L26.8898 2.07084ZM26.4668 1.75299C26.1019 1.44814 25.7065 1.14967 25.2849 0.9416L23.5149 4.52867C23.4982 4.52043 23.5211 4.53003 23.5936 4.58115C23.6648 4.63128 23.7648 4.70786 23.9023 4.82272L26.4668 1.75299ZM25.285 0.941643C25.2083 0.903827 25.019 0.808122 24.7887 0.738171C24.5458 0.664368 24.3316 0.641254 24.2436 0.631065L23.7836 4.60453C23.8223 4.609 23.8136 4.60858 23.7894 4.60448C23.7554 4.59872 23.697 4.58702 23.626 4.56546C23.557 4.54449 23.5071 4.52356 23.4869 4.51471C23.4736 4.50889 23.4745 4.50874 23.5148 4.52862L25.285 0.941643ZM24.2436 0.631067C23.1016 0.498851 22.251 0.967278 21.4107 1.45479L23.4181 4.91464C23.6191 4.79799 23.7653 4.71754 23.8765 4.66099C23.9885 4.60406 24.0393 4.58463 24.0505 4.58065C24.0548 4.57912 24.013 4.5941 23.9404 4.60251C23.8649 4.61124 23.8062 4.60714 23.7836 4.60453L24.2436 0.631067ZM21.4107 1.45478C21.0348 1.67287 20.8483 1.73469 20.7455 1.75847L21.6474 5.65547C22.2739 5.51047 22.8431 5.2482 23.4181 4.91465L21.4107 1.45478ZM20.7456 1.75846C20.6204 1.78743 20.5437 1.77936 20.4256 1.72292L18.7003 5.33172C19.6348 5.77846 20.6376 5.88912 21.6473 5.65548L20.7456 1.75846ZM20.4257 1.72294C20.3339 1.67907 20.3077 1.66543 20.2613 1.63903C20.1906 1.5989 20.085 1.53529 19.8405 1.38593L17.755 4.79927C18.2342 5.09205 18.3752 5.17627 18.7003 5.3317L20.4257 1.72294ZM19.8405 1.38593C19.4215 1.12996 19.0039 0.88836 18.5797 0.724842C18.0771 0.531095 17.6314 0.469433 17.1812 0.469433V4.46943C17.2208 4.46943 17.2129 4.47177 17.1828 4.4666C17.1498 4.46093 17.1317 4.45353 17.141 4.45713C17.1577 4.46356 17.2088 4.48503 17.3149 4.54218C17.4215 4.59964 17.5611 4.68076 17.755 4.79927L19.8405 1.38593ZM17.1812 0.469433C16.4833 0.469433 16.0152 0.613069 15.2234 0.870935L16.4622 4.6743C16.8693 4.54169 17.0326 4.49472 17.1213 4.47464C17.1507 4.46798 17.1531 4.46878 17.1423 4.46989C17.1331 4.47083 17.1383 4.46943 17.1812 4.46943V0.469433ZM15.2234 0.870939C14.6658 1.05255 14.5265 1.07727 14.1565 1.11135L14.5235 5.09448C15.2552 5.02707 15.6917 4.92524 16.4622 4.6743L15.2234 0.870939ZM14.1566 1.11135C13.8459 1.13997 13.5647 1.14043 12.7551 1.05328L12.327 5.03031C13.2423 5.12883 13.8265 5.1587 14.5235 5.09449L14.1566 1.11135ZM12.7551 1.05328C12.2621 1.00021 12.0464 0.99046 11.5011 0.990336L11.5002 4.99034C11.9267 4.99043 11.9978 4.99487 12.327 5.03031L12.7551 1.05328ZM11.5011 0.990336C11.2043 0.990266 10.9011 0.9896 10.5772 1.03074C10.2588 1.07119 9.96051 1.14704 9.66065 1.22264L10.6386 5.10125C10.9869 5.01344 11.0455 5.00341 11.0813 4.99886C11.1115 4.99502 11.1599 4.99026 11.5002 4.99034L11.5011 0.990336ZM9.66069 1.22263C9.20326 1.33796 9.01516 1.38095 8.89975 1.40082C8.84268 1.41064 8.81884 1.41412 8.68655 1.41403L8.68391 5.41403C9.36209 5.41448 9.73927 5.32799 10.6386 5.10126L9.66069 1.22263ZM8.68689 1.41403C8.54178 1.41391 8.50553 1.40918 8.41524 1.38928C8.25507 1.35398 7.99908 1.27989 7.41778 1.09508L6.20584 4.90706C7.34033 5.26775 7.84141 5.41333 8.68357 5.41403L8.68689 1.41403ZM7.41775 1.09507C6.79821 0.898109 6.29326 0.781042 5.69716 0.716675L5.26774 4.69356C5.54098 4.72306 5.77959 4.77155 6.20587 4.90707L7.41775 1.09507ZM5.6972 0.716679C3.88186 0.520624 2.26048 1.12133 0.900766 2.33459L3.56389 5.31918C4.177 4.7721 4.70092 4.63234 5.2677 4.69355L5.6972 0.716679ZM0.900707 2.33464C0.753498 2.46601 0.838127 2.37916 0.980013 2.29008C1.0293 2.25914 1.16938 2.17334 1.37023 2.10405C1.53731 2.04642 2.0397 1.8954 2.64868 2.10095C3.37806 2.34715 3.73812 2.91304 3.88 3.30038C3.9989 3.62497 4 3.89691 4 3.97275H0C0 4.06141 0.00230098 4.34381 0.124063 4.67621C0.268812 5.07137 0.633389 5.64243 1.36941 5.89087C1.98502 6.09867 2.49618 5.94695 2.67458 5.88541C2.88676 5.81222 3.04074 5.7193 3.10695 5.67773C3.31654 5.54613 3.51734 5.36072 3.56395 5.31912L0.900707 2.33464Z" fill="black" mask="url(#path-1-outside-1)"/>
</g>
</svg>
