<svg width="44" height="7" viewBox="0 0 44 7" fill="none" xmlns="http://www.w3.org/2000/svg">
<g opacity="0.98">
<mask id="path-1-outside-1" maskUnits="userSpaceOnUse" x="0" y="0.709717" width="44" height="6" fill="black">
<rect fill="white" y="0.709717" width="44" height="6"/>
<path d="M2.00251 4.38319C2.01195 4.41536 2.36531 4.50512 2.6129 4.53824C3.34516 4.63619 4.19356 4.49207 5.27953 4.08528C5.57878 3.97319 5.68705 3.92982 6.45477 3.61454C8.01135 2.97531 8.72996 2.79198 9.6786 2.79219C10.4882 2.79238 11.0666 2.93894 12.005 3.38174C12.9588 3.8318 13.1681 3.91999 13.5189 4.01983C14.2026 4.21443 14.747 4.15172 15.5668 3.78392C15.6899 3.72865 15.963 3.59687 16.1736 3.49106C17.3354 2.9074 17.7563 2.78387 18.5795 2.7845C19.2387 2.78506 19.6694 2.85987 20.9493 3.19604C22.131 3.5064 22.4427 3.56383 23.0301 3.57957C23.68 3.59697 23.8866 3.56357 24.9809 3.26403C25.8408 3.02862 26.0712 2.98939 26.5775 2.99212C27.0896 2.99487 27.2669 3.02835 28.2175 3.30177C29.1128 3.55927 29.3768 3.60819 29.8721 3.60902C30.4338 3.60985 30.7576 3.55006 31.8083 3.25163C32.7859 2.97394 33.133 2.89983 33.7483 2.83733C34.1219 2.79939 34.8872 2.80934 35.2185 2.85647C36.0183 2.97022 36.5201 3.12239 37.9856 3.69556C39.6291 4.33833 40.2646 4.50084 41.1285 4.49918C41.4338 4.49859 41.5387 4.49088 41.7404 4.45423C41.908 4.42377 41.9863 4.40196 41.9915 4.38418C41.9956 4.36998 41.9951 4.35325 41.9903 4.34702C41.9856 4.34078 41.8726 4.35527 41.7393 4.37923C41.5408 4.41489 41.4302 4.42302 41.1285 4.42385C40.7377 4.42498 40.527 4.40453 40.1546 4.32932C39.5732 4.21191 39.131 4.06561 37.8772 3.57578C36.9232 3.20307 36.5234 3.06471 36.0557 2.94542C35.5137 2.80719 35.1313 2.75482 34.5603 2.74071C33.7393 2.72043 33.0957 2.81162 32.1316 3.08477C30.7347 3.48055 30.4631 3.53447 29.8721 3.53405C29.3858 3.53364 29.1057 3.48206 28.2537 3.23596C27.2749 2.9532 26.9163 2.88977 26.4187 2.91138C26.0231 2.92858 25.6811 2.99495 24.9448 3.19742C23.9608 3.46801 23.7294 3.50888 23.1746 3.51013C22.5652 3.5115 22.1653 3.44156 20.959 3.12264C19.6852 2.78586 19.2423 2.7093 18.5725 2.70972C17.7369 2.71034 17.3187 2.83494 16.1089 3.44364C15.045 3.97893 14.5212 4.11966 13.9225 4.03115C13.481 3.96585 13.1367 3.83849 12.1931 3.39118C11.4756 3.05108 11.1266 2.91901 10.6903 2.82247C10.0603 2.68306 9.34368 2.67934 8.64569 2.81184C8.03797 2.9272 7.46491 3.11893 6.33366 3.58528C5.51936 3.92098 5.24094 4.02822 4.83811 4.16135C3.77449 4.51286 3.00206 4.57887 2.21938 4.38513C2.10626 4.35713 2.00955 4.33964 2.00447 4.34629C1.99939 4.35293 1.99851 4.36954 2.00251 4.38319Z"/>
</mask>
<path d="M2.00251 4.38319C2.01195 4.41536 2.36531 4.50512 2.6129 4.53824C3.34516 4.63619 4.19356 4.49207 5.27953 4.08528C5.57878 3.97319 5.68705 3.92982 6.45477 3.61454C8.01135 2.97531 8.72996 2.79198 9.6786 2.79219C10.4882 2.79238 11.0666 2.93894 12.005 3.38174C12.9588 3.8318 13.1681 3.91999 13.5189 4.01983C14.2026 4.21443 14.747 4.15172 15.5668 3.78392C15.6899 3.72865 15.963 3.59687 16.1736 3.49106C17.3354 2.9074 17.7563 2.78387 18.5795 2.7845C19.2387 2.78506 19.6694 2.85987 20.9493 3.19604C22.131 3.5064 22.4427 3.56383 23.0301 3.57957C23.68 3.59697 23.8866 3.56357 24.9809 3.26403C25.8408 3.02862 26.0712 2.98939 26.5775 2.99212C27.0896 2.99487 27.2669 3.02835 28.2175 3.30177C29.1128 3.55927 29.3768 3.60819 29.8721 3.60902C30.4338 3.60985 30.7576 3.55006 31.8083 3.25163C32.7859 2.97394 33.133 2.89983 33.7483 2.83733C34.1219 2.79939 34.8872 2.80934 35.2185 2.85647C36.0183 2.97022 36.5201 3.12239 37.9856 3.69556C39.6291 4.33833 40.2646 4.50084 41.1285 4.49918C41.4338 4.49859 41.5387 4.49088 41.7404 4.45423C41.908 4.42377 41.9863 4.40196 41.9915 4.38418C41.9956 4.36998 41.9951 4.35325 41.9903 4.34702C41.9856 4.34078 41.8726 4.35527 41.7393 4.37923C41.5408 4.41489 41.4302 4.42302 41.1285 4.42385C40.7377 4.42498 40.527 4.40453 40.1546 4.32932C39.5732 4.21191 39.131 4.06561 37.8772 3.57578C36.9232 3.20307 36.5234 3.06471 36.0557 2.94542C35.5137 2.80719 35.1313 2.75482 34.5603 2.74071C33.7393 2.72043 33.0957 2.81162 32.1316 3.08477C30.7347 3.48055 30.4631 3.53447 29.8721 3.53405C29.3858 3.53364 29.1057 3.48206 28.2537 3.23596C27.2749 2.9532 26.9163 2.88977 26.4187 2.91138C26.0231 2.92858 25.6811 2.99495 24.9448 3.19742C23.9608 3.46801 23.7294 3.50888 23.1746 3.51013C22.5652 3.5115 22.1653 3.44156 20.959 3.12264C19.6852 2.78586 19.2423 2.7093 18.5725 2.70972C17.7369 2.71034 17.3187 2.83494 16.1089 3.44364C15.045 3.97893 14.5212 4.11966 13.9225 4.03115C13.481 3.96585 13.1367 3.83849 12.1931 3.39118C11.4756 3.05108 11.1266 2.91901 10.6903 2.82247C10.0603 2.68306 9.34368 2.67934 8.64569 2.81184C8.03797 2.9272 7.46491 3.11893 6.33366 3.58528C5.51936 3.92098 5.24094 4.02822 4.83811 4.16135C3.77449 4.51286 3.00206 4.57887 2.21938 4.38513C2.10626 4.35713 2.00955 4.33964 2.00447 4.34629C1.99939 4.35293 1.99851 4.36954 2.00251 4.38319Z" fill="black"/>
<path d="M2.6129 4.53824L2.87809 2.5559L2.87804 2.55589L2.6129 4.53824ZM2.00251 4.38319L3.92169 3.82036L3.9216 3.82007L2.00251 4.38319ZM2.00447 4.34629L3.59294 5.5615L3.59369 5.56053L2.00447 4.34629ZM2.21938 4.38513L2.69994 2.44372L2.69988 2.44371L2.21938 4.38513ZM4.83811 4.16135L4.21054 2.26236L4.21053 2.26236L4.83811 4.16135ZM6.33366 3.58528L5.5714 1.73624L5.57139 1.73624L6.33366 3.58528ZM8.64569 2.81184L9.01868 4.77675L9.0187 4.77675L8.64569 2.81184ZM10.6903 2.82247L10.2582 4.77524L10.2583 4.77524L10.6903 2.82247ZM12.1931 3.39118L11.3364 5.19842L11.3364 5.19842L12.1931 3.39118ZM13.9225 4.03115L13.63 6.00964L13.63 6.00965L13.9225 4.03115ZM16.1089 3.44364L17.0078 5.23025L17.0078 5.23025L16.1089 3.44364ZM18.5725 2.70972L18.5713 0.709719L18.571 0.709719L18.5725 2.70972ZM20.959 3.12264L20.4478 5.05619L20.4478 5.0562L20.959 3.12264ZM23.1746 3.51013L23.17 1.51013H23.17L23.1746 3.51013ZM24.9448 3.19742L25.4751 5.12584L25.4751 5.12584L24.9448 3.19742ZM26.4187 2.91138L26.3319 0.913267L26.3318 0.91327L26.4187 2.91138ZM28.2537 3.23596L28.8088 1.31452L28.8088 1.31452L28.2537 3.23596ZM29.8721 3.53405L29.8704 5.53405H29.8707L29.8721 3.53405ZM32.1316 3.08477L31.5864 1.16051L31.5864 1.16052L32.1316 3.08477ZM34.5603 2.74071L34.6097 0.741319L34.6097 0.741319L34.5603 2.74071ZM36.0557 2.94542L35.5614 4.88337L35.5614 4.88338L36.0557 2.94542ZM37.8772 3.57578L38.605 1.7129L38.605 1.7129L37.8772 3.57578ZM40.1546 4.32932L40.5505 2.36889L40.5505 2.36888L40.1546 4.32932ZM41.1285 4.42385L41.1229 2.42386L41.1227 2.42386L41.1285 4.42385ZM41.7393 4.37923L42.0929 6.34771L42.0931 6.34769L41.7393 4.37923ZM41.9903 4.34702L40.4008 5.56088L40.4018 5.56216L41.9903 4.34702ZM41.9915 4.38418L43.9109 4.94627L43.9119 4.94277L41.9915 4.38418ZM41.7404 4.45423L41.3829 2.48644L41.3828 2.48645L41.7404 4.45423ZM41.1285 4.49918L41.1246 2.49918L41.1246 2.49918L41.1285 4.49918ZM37.9856 3.69556L37.2571 5.55816L37.2571 5.55817L37.9856 3.69556ZM35.2185 2.85647L34.9369 4.83654L34.9369 4.83654L35.2185 2.85647ZM33.7483 2.83733L33.9504 4.8271L33.9505 4.8271L33.7483 2.83733ZM31.8083 3.25163L32.3548 5.17552L32.3548 5.17552L31.8083 3.25163ZM29.8721 3.60902L29.8687 5.60902L29.8691 5.60902L29.8721 3.60902ZM28.2175 3.30177L27.6647 5.22385L27.6647 5.22385L28.2175 3.30177ZM26.5775 2.99212L26.5668 4.99209L26.5668 4.99209L26.5775 2.99212ZM24.9809 3.26403L25.5089 5.19307L25.5089 5.19306L24.9809 3.26403ZM23.0301 3.57957L22.9765 5.57885L22.9765 5.57885L23.0301 3.57957ZM20.9493 3.19604L21.4574 1.26165L21.4574 1.26165L20.9493 3.19604ZM18.5795 2.7845L18.5812 0.784499L18.581 0.784499L18.5795 2.7845ZM16.1736 3.49106L15.2758 1.70392L15.2758 1.70393L16.1736 3.49106ZM15.5668 3.78392L16.3854 5.60869L16.3856 5.60863L15.5668 3.78392ZM13.5189 4.01983L14.0664 2.09623L14.0663 2.09621L13.5189 4.01983ZM12.005 3.38174L11.1515 5.19049L11.1515 5.1905L12.005 3.38174ZM9.6786 2.79219L9.67907 0.792189H9.67904L9.6786 2.79219ZM6.45477 3.61454L5.69501 1.76447L5.69501 1.76447L6.45477 3.61454ZM5.27953 4.08528L4.57801 2.21235L4.57796 2.21237L5.27953 4.08528ZM2.87804 2.55589C2.84565 2.55156 2.77253 2.5376 2.7108 2.52192C2.6776 2.51349 2.68868 2.51489 2.72966 2.52928C2.74208 2.53364 2.82145 2.56108 2.92522 2.61365C2.97242 2.63757 3.0905 2.69928 3.22659 2.80382C3.29619 2.85729 3.40788 2.95026 3.52446 3.0866C3.63442 3.2152 3.8161 3.46034 3.92169 3.82036L0.0833409 4.94602C0.27362 5.59484 0.726863 5.92755 0.789814 5.97591C0.932239 6.08532 1.05912 6.15229 1.11737 6.1818C1.24324 6.24557 1.35369 6.28556 1.40444 6.30338C1.52207 6.34468 1.63873 6.37663 1.726 6.3988C1.90521 6.44432 2.13256 6.4918 2.34776 6.52058L2.87804 2.55589ZM3.9216 3.82007C3.98668 4.04186 4.00822 4.26126 3.99729 4.46784C3.99162 4.57487 3.97529 4.71602 3.93154 4.87712C3.8924 5.02123 3.80346 5.28633 3.59294 5.5615L0.41599 3.13108C0.0409185 3.62136 0.00977194 4.12618 0.00287938 4.25638C-0.0087657 4.47634 0.0143398 4.71086 0.0834253 4.94631L3.9216 3.82007ZM3.59369 5.56053C3.33697 5.89653 3.03828 6.06832 2.87083 6.14871C2.69329 6.23395 2.53958 6.2752 2.44898 6.29576C2.27095 6.33615 2.12805 6.34223 2.07217 6.34395C1.94715 6.34781 1.85178 6.33831 1.82744 6.33591C1.76047 6.32928 1.71589 6.32087 1.71566 6.32082C1.70213 6.31838 1.71159 6.3198 1.73888 6.32655L2.69988 2.44371C2.61404 2.42246 2.51859 2.40114 2.42716 2.38461C2.38798 2.37753 2.31119 2.36424 2.22113 2.35533C2.18523 2.35178 2.08059 2.34179 1.94887 2.34585C1.88963 2.34768 1.74404 2.35404 1.56397 2.39489C1.50382 2.40854 0.875345 2.52986 0.415244 3.13205L3.59369 5.56053ZM1.73882 6.32654C3.00373 6.63964 4.17792 6.48592 5.4657 6.06033L4.21053 2.26236C3.37106 2.5398 3.0004 2.51809 2.69994 2.44372L1.73882 6.32654ZM5.46569 6.06034C5.94027 5.9035 6.27378 5.77326 7.09594 5.43432L5.57139 1.73624C4.76495 2.0687 4.54161 2.15295 4.21054 2.26236L5.46569 6.06034ZM7.09593 5.43432C8.1984 4.97983 8.61809 4.8528 9.01868 4.77675L8.2727 0.846931C7.45786 1.00161 6.73143 1.25802 5.5714 1.73624L7.09593 5.43432ZM9.0187 4.77675C9.47735 4.68968 9.91861 4.70008 10.2582 4.77524L11.1224 0.869706C10.202 0.666033 9.21002 0.668992 8.27267 0.846935L9.0187 4.77675ZM10.2583 4.77524C10.4768 4.82361 10.6673 4.88124 11.3364 5.19842L13.0498 1.58394C12.284 1.22093 11.7764 1.01441 11.1224 0.869702L10.2583 4.77524ZM11.3364 5.19842C12.2842 5.64767 12.8657 5.89662 13.63 6.00964L14.2151 2.05267C14.0962 2.03508 13.9893 2.0293 13.0498 1.58394L11.3364 5.19842ZM13.63 6.00965C14.874 6.19355 15.8741 5.80062 17.0078 5.23025L15.21 1.65703C14.7106 1.90828 14.4598 2.00287 14.3222 2.03984C14.2929 2.04771 14.2736 2.05156 14.2625 2.05345C14.2517 2.05528 14.2466 2.0556 14.2458 2.05565C14.2451 2.0557 14.2442 2.05575 14.2417 2.05563C14.2389 2.05549 14.2307 2.05497 14.215 2.05266L13.63 6.00965ZM17.0078 5.23025C17.6061 4.9292 17.876 4.81784 18.052 4.76541C18.1694 4.73045 18.2773 4.70994 18.574 4.70972L18.571 0.709719C18.0321 0.710122 17.5132 0.752221 16.91 0.931894C16.3656 1.09409 15.8215 1.34937 15.21 1.65703L17.0078 5.23025ZM18.5738 4.70972C18.9752 4.70947 19.2132 4.72978 20.4478 5.05619L21.4702 1.18908C20.1573 0.841937 19.5094 0.709135 18.5713 0.709719L18.5738 4.70972ZM20.4478 5.0562C21.6852 5.38335 22.2953 5.51212 23.1791 5.51012L23.17 1.51013C22.9665 1.51059 22.8322 1.50086 22.6352 1.4664C22.4002 1.4253 22.0712 1.34797 21.4702 1.18908L20.4478 5.0562ZM23.1791 5.51012C24.0022 5.50827 24.4374 5.41117 25.4751 5.12584L24.4145 1.269C23.9134 1.40679 23.6957 1.45968 23.5508 1.48527C23.4546 1.50226 23.3827 1.50965 23.17 1.51013L23.1791 5.51012ZM25.4751 5.12584C26.1739 4.93368 26.3407 4.91666 26.5055 4.9095L26.3318 0.91327C25.7056 0.940492 25.1883 1.05623 24.4145 1.269L25.4751 5.12584ZM26.5055 4.9095C26.6203 4.90451 26.6879 4.90782 26.8074 4.92896C26.9691 4.95757 27.2161 5.018 27.6987 5.15739L28.8088 1.31452C27.7923 1.02088 27.1717 0.876782 26.3319 0.913267L26.5055 4.9095ZM27.6987 5.15739C28.6087 5.42026 29.1023 5.5334 29.8704 5.53405L29.8738 1.53406C29.7212 1.53392 29.6541 1.52713 29.5623 1.51022C29.4313 1.48609 29.2316 1.43665 28.8088 1.31452L27.6987 5.15739ZM29.8707 5.53405C30.7709 5.53469 31.2856 5.4032 32.6768 5.00902L31.5864 1.16052C30.8724 1.36281 30.5337 1.45183 30.3096 1.49638C30.1523 1.52766 30.0724 1.5342 29.8735 1.53406L29.8707 5.53405ZM32.6768 5.00902C33.4885 4.77904 33.9293 4.72573 34.5109 4.7401L34.6097 0.741319C33.5494 0.715127 32.7028 0.844191 31.5864 1.16051L32.6768 5.00902ZM34.5109 4.7401C34.9349 4.75058 35.168 4.78303 35.5614 4.88337L36.55 1.00748C35.8595 0.831343 35.3276 0.759061 34.6097 0.741319L34.5109 4.7401ZM35.5614 4.88338C35.9029 4.97049 36.2068 5.07041 37.1494 5.43867L38.605 1.7129C37.6395 1.33573 37.1438 1.15894 36.55 1.00747L35.5614 4.88338ZM37.1494 5.43867C38.4105 5.93135 38.9928 6.1351 39.7588 6.28975L40.5505 2.36888C40.1535 2.28873 39.8515 2.19986 38.605 1.7129L37.1494 5.43867ZM39.7587 6.28974C40.2671 6.3924 40.6124 6.42535 41.1342 6.42384L41.1227 2.42386C40.863 2.42461 40.787 2.41666 40.5505 2.36889L39.7587 6.28974ZM41.134 6.42384C41.5016 6.42283 41.7385 6.41139 42.0929 6.34771L41.3856 2.41075C41.3544 2.41636 41.3407 2.41833 41.3357 2.41902C41.3325 2.41944 41.331 2.41961 41.3268 2.41992C41.3101 2.42114 41.2651 2.42347 41.1229 2.42386L41.134 6.42384ZM42.0931 6.34769C42.1129 6.34413 42.1307 6.34115 42.1451 6.33888C42.1603 6.33649 42.1678 6.33551 42.1675 6.33554C42.1673 6.33557 42.1621 6.33625 42.1528 6.33722C42.1451 6.33803 42.1246 6.34011 42.0958 6.34196C42.0792 6.34302 42.0031 6.34806 41.9026 6.34399C41.8598 6.34226 41.7381 6.33654 41.585 6.30503C41.5093 6.28944 41.365 6.25555 41.1946 6.18171C41.0523 6.12007 40.6976 5.94948 40.4008 5.56088L43.5798 3.13317C43.2828 2.74418 42.9276 2.57323 42.7845 2.51128C42.6134 2.43713 42.4682 2.40297 42.3914 2.38715C42.236 2.35519 42.1112 2.34916 42.0646 2.34727C41.9566 2.34289 41.8698 2.34823 41.8399 2.35015C41.764 2.35501 41.6967 2.36316 41.6585 2.36806C41.5713 2.37925 41.4755 2.3946 41.3855 2.41077L42.0931 6.34769ZM40.4018 5.56216C40.1714 5.26101 40.0849 4.96963 40.0505 4.82937C40.0105 4.66598 39.9983 4.52538 39.9952 4.42386C39.9891 4.22553 40.0134 4.02388 40.0711 3.82559L43.9119 4.94277C43.9737 4.73028 43.9998 4.51317 43.9933 4.30137C43.9903 4.20522 43.9807 3.65715 43.5789 3.13189L40.4018 5.56216ZM40.0721 3.82209C40.2392 3.25149 40.604 2.93479 40.7414 2.82552C40.9069 2.69397 41.0554 2.62 41.1231 2.58819C41.263 2.52246 41.373 2.49258 41.3894 2.488C41.4413 2.47352 41.4549 2.47335 41.3829 2.48644L42.0979 6.42201C42.1935 6.40465 42.33 6.37834 42.4642 6.3409C42.5218 6.32484 42.6628 6.28427 42.8241 6.2085C42.9025 6.17167 43.0593 6.09284 43.2307 5.95657C43.3741 5.84258 43.7425 5.52132 43.9109 4.94627L40.0721 3.82209ZM41.3828 2.48645C41.3496 2.4925 41.3358 2.49451 41.3312 2.49513C41.329 2.49544 41.3291 2.49543 41.3268 2.4956C41.3129 2.49662 41.2706 2.4989 41.1246 2.49918L41.1323 6.49917C41.5047 6.49846 41.7379 6.48743 42.098 6.422L41.3828 2.48645ZM41.1246 2.49918C40.6572 2.50008 40.3162 2.45954 38.7141 1.83294L37.2571 5.55817C38.942 6.21712 39.872 6.5016 41.1323 6.49917L41.1246 2.49918ZM38.7141 1.83295C37.2131 1.2459 36.5363 1.02376 35.5001 0.876393L34.9369 4.83654C35.5004 4.91668 35.8271 4.99887 37.2571 5.55816L38.7141 1.83295ZM35.5001 0.876394C34.9904 0.803903 34.0616 0.795224 33.5462 0.847573L33.9505 4.8271C34.0253 4.81949 34.222 4.81156 34.4732 4.81483C34.5891 4.81634 34.6984 4.82001 34.7895 4.82512C34.8347 4.82766 34.8716 4.83034 34.8997 4.83282C34.9295 4.83544 34.9406 4.83708 34.9369 4.83654L35.5001 0.876394ZM33.5462 0.847571C32.7643 0.926989 32.2903 1.03561 31.2619 1.32773L32.3548 5.17552C33.2816 4.91227 33.5016 4.87268 33.9504 4.8271L33.5462 0.847571ZM31.2619 1.32773C30.7363 1.477 30.4738 1.54254 30.2938 1.57577C30.1569 1.60105 30.0613 1.6093 29.875 1.60902L29.8691 5.60902C30.7181 5.61028 31.2603 5.48641 32.3548 5.17552L31.2619 1.32773ZM29.8754 1.60902C29.7141 1.60875 29.6502 1.60202 29.5599 1.58524C29.4255 1.5603 29.2194 1.50885 28.7704 1.37969L27.6647 5.22385C28.6114 5.49613 29.0902 5.60771 29.8687 5.60902L29.8754 1.60902ZM28.7704 1.3797C27.775 1.09341 27.3832 0.996421 26.5883 0.992151L26.5668 4.99209C26.764 4.99315 26.8021 4.99941 26.862 5.01072C26.9814 5.03326 27.1726 5.0823 27.6647 5.22385L28.7704 1.3797ZM26.5883 0.992151C25.8123 0.987967 25.3768 1.08207 24.4528 1.33499L25.5089 5.19306C25.9433 5.07415 26.1283 5.0307 26.2476 5.01039C26.3229 4.99756 26.3826 4.9911 26.5668 4.99209L26.5883 0.992151ZM24.4528 1.33499C23.8883 1.48952 23.666 1.54262 23.5195 1.56631C23.4301 1.58077 23.3591 1.58766 23.0836 1.58029L22.9765 5.57885C23.3509 5.58888 23.7082 5.58777 24.1582 5.51499C24.551 5.45145 24.9791 5.33807 25.5089 5.19307L24.4528 1.33499ZM23.0836 1.58029C22.8673 1.57449 22.7491 1.56351 22.5751 1.53142C22.3591 1.49161 22.0533 1.41816 21.4574 1.26165L20.4413 5.13043C21.648 5.44739 22.1461 5.55661 22.9765 5.57885L23.0836 1.58029ZM21.4574 1.26165C20.143 0.916417 19.5077 0.78529 18.5812 0.784499L18.5778 4.7845C18.9696 4.78483 19.1958 4.80331 20.4413 5.13044L21.4574 1.26165ZM18.581 0.784499C18.0485 0.784095 17.534 0.825287 16.94 0.999699C16.4006 1.1581 15.8672 1.4068 15.2758 1.70392L17.0715 5.2782C17.6419 4.99166 17.8998 4.88676 18.0671 4.83764C18.1798 4.80453 18.2873 4.78428 18.578 4.7845L18.581 0.784499ZM15.2758 1.70393C15.0753 1.80467 14.8321 1.92147 14.748 1.95921L16.3856 5.60863C16.5478 5.53583 16.8508 5.38906 17.0715 5.27819L15.2758 1.70393ZM14.7481 1.95915C14.442 2.09649 14.3089 2.12062 14.2629 2.12591C14.2427 2.12825 14.2017 2.13476 14.0664 2.09623L12.9714 5.94343C13.5197 6.0995 14.0928 6.17196 14.7207 6.09963C15.3228 6.03028 15.8718 5.83915 16.3854 5.60869L14.7481 1.95915ZM14.0663 2.09621C13.898 2.04833 13.8333 2.03298 12.8584 1.57298L11.1515 5.1905C12.0843 5.63062 12.4381 5.79166 12.9714 5.94345L14.0663 2.09621ZM12.8585 1.57299C11.7258 1.03852 10.8545 0.792461 9.67907 0.792189L9.67814 4.79219C10.1219 4.79229 10.4074 4.83935 11.1515 5.19049L12.8585 1.57299ZM9.67904 0.792189C8.34096 0.791895 7.33518 1.09091 5.69501 1.76447L7.21453 5.46462C8.68752 4.85971 9.11896 4.79207 9.67816 4.79219L9.67904 0.792189ZM5.69501 1.76447C4.92562 2.08043 4.84422 2.11263 4.57801 2.21235L5.98104 5.95821C6.31334 5.83375 6.44849 5.7792 7.21453 5.46462L5.69501 1.76447ZM4.57796 2.21237C3.64155 2.56313 3.14948 2.5922 2.87809 2.5559L2.34772 6.52058C3.54085 6.68019 4.74557 6.421 5.9811 5.95819L4.57796 2.21237Z" fill="black" mask="url(#path-1-outside-1)"/>
</g>
</svg>
