<?xml version="1.0" encoding="UTF-8"?>
<!-- Created with Inkscape (http://www.inkscape.org/) -->
<svg width="136.41mm" height="53.688mm" version="1.1" viewBox="0 0 136.41 53.688" xmlns="http://www.w3.org/2000/svg" xmlns:cc="http://creativecommons.org/ns#" xmlns:dc="http://purl.org/dc/elements/1.1/" xmlns:rdf="http://www.w3.org/1999/02/22-rdf-syntax-ns#">
 <metadata>
  <rdf:RDF>
   <cc:Work rdf:about="">
    <dc:format>image/svg+xml</dc:format>
    <dc:type rdf:resource="http://purl.org/dc/dcmitype/StillImage"/>
    <dc:title/>
   </cc:Work>
  </rdf:RDF>
 </metadata>
 <g transform="translate(-93.952 -142.51)">
  <path d="m173.91 195.84c-0.47556-0.34774-0.46158-0.36288 0.21553-0.23345 0.68856 0.13163 1.5148-0.26896 1.5148-0.73442 0-0.11914-0.50507-0.3165-1.1224-0.43858-1.2753-0.25221-1.5829-0.86467-0.84418-1.681 0.61958-0.68462 1.1737-0.64393 1.1688 0.0858-3e-3 0.493-0.0523 0.52711-0.28472 0.19844-0.2066-0.29212-0.31552-0.31133-0.41267-0.0728-0.24288 0.5964-0.12507 0.71301 0.99917 0.98895 1.3417 0.32929 1.4819 0.62024 0.74854 1.5526-0.61953 0.7876-1.2237 0.88947-1.9828 0.33434zm-19.532-0.28959c-0.0838-0.21828-0.0522-0.39687 0.0702-0.39687 0.12235 0 0.29988-0.48418 0.39451-1.076 0.1467-0.9174 0.25785-1.0636 0.75427-0.99219 0.56261 0.081 1.7732 1.7997 1.7828 2.5312 6e-3 0.46662-0.77453 0.41274-0.9583-0.0661-0.0838-0.21828-0.36494-0.39687-0.62485-0.39687-0.2599 0-0.54108 0.17859-0.62484 0.39687-0.0838 0.21828-0.26236 0.39688-0.39688 0.39688s-0.31311-0.1786-0.39687-0.39688zm1.6832-1.1906c0-0.14552-0.0525-0.26459-0.11668-0.26459-0.0642 0-0.19026 0.11907-0.2802 0.26459-0.0899 0.14552-0.0374 0.26458 0.11668 0.26458 0.15411 0 0.2802-0.11906 0.2802-0.26458zm1.8884 1.1245c-0.36134-0.67784-0.43356-1.4252-0.2173-2.249 0.28783-1.0964 0.81027-0.91822 0.62658 0.21369-0.21917 1.3506-0.0161 1.7293 0.76749 1.4314 0.81292-0.30907 0.84464 0.0991 0.0509 0.65502-0.74926 0.52481-0.92453 0.5175-1.2277-0.0511zm4.9907-0.14223c-0.46646-0.23473-0.68623-0.58905-0.74549-1.2019-0.0907-0.93761-0.74949-1.4108-1.1292-0.8111-0.31835 0.50277-0.3033 1.0999 0.0226 0.89845 0.41233-0.25483 0.31074 0.29377-0.12071 0.65185-0.57355 0.476-0.94118 0.0935-0.7636-0.7944 0.13539-0.67693 0.0781-0.78349-0.42115-0.78349-0.86376 0-0.3981-0.48341 0.65618-0.6812 0.58026-0.10885 1.0651-0.0519 1.3136 0.15444 0.3112 0.25828 0.39397 0.25855 0.39397 1e-3 0-0.45092 1.3575-0.10262 1.7859 0.45821 0.1819 0.23813 0.3355 0.32091 0.34132 0.18395 6e-3 -0.13695 0.19008 0.082 0.40944 0.48645 0.48186 0.88853 1.0126 0.67303 0.81205-0.32972-0.13949-0.69747-0.1082-0.71951 0.97001-0.68311 0.61278 0.0207 1.2689 0.13326 1.458 0.25014 0.21375 0.13211 0.47217 0.037 0.68299-0.25127 0.51166-0.69975 1.0028-0.26222 0.62827 0.55972-0.43652 0.95806 0.0354 1.3402 1.0187 0.82495 0.41623-0.21808 0.72702-0.46689 0.69064-0.5529-0.0364-0.086-0.0661-0.43593-0.0661-0.77758 0-0.50881 0.1436-0.62528 0.79375-0.64376 0.86817-0.0247 1.0574 0.45221 0.39688 1.0004-0.63215 0.52463-0.48509 1.0018 0.26458 0.85851 0.38612-0.0738 0.66146-3e-3 0.66146 0.16898 0 0.16248-0.11907 0.29543-0.26459 0.29543-0.45065 0-0.29084 0.48408 0.19844 0.60111 0.44072 0.10541 0.44069 0.12046-5.3e-4 0.31252-0.70224 0.30562-1.7284-0.0527-1.925-0.67229-0.17449-0.54975-0.17641-0.54982-0.74524-0.0278-0.65992 0.60567-1.7609 0.37243-1.7609-0.37303 0-0.32936-0.1389-0.2645-0.54837 0.25606-0.62572 0.79548-1.0885 0.87841-1.5822 0.28354-0.31128-0.37507-0.36481-0.37507-0.57471 0-0.27536 0.49205-1.26 0.55622-1.2715 0.0829-4e-3 -0.18355-0.12806-0.12468-0.27773 0.13229-0.31939 0.54836-0.4338 0.55912-1.3017 0.12235zm0.39344-1.7186c-0.16779-0.41057-0.2049-0.40337-0.38572 0.0749-0.11868 0.31388-0.0802 0.60645 0.0945 0.71912 0.37286 0.24041 0.53415-0.19942 0.29118-0.794zm3.9506 0.84032c0.47522-0.18236 0.55671-0.78109 0.14126-1.0379-0.49819-0.30789-1.0116 0.0811-0.86198 0.65311 0.1601 0.61219 0.14668 0.60503 0.72072 0.38475zm-28.643-1.1304c-0.23013-0.14586 0.13325-0.27145 1.0366-0.35825 2.1803-0.2095 2.677-1.4137 1.4481-3.5106-0.4072-0.69482-0.5911-1.322-0.49518-1.6888 0.20178-0.77164 1.9221-1.6629 2.5411-1.3165 0.78857 0.44131 0.53828 0.92506-0.4207 0.81311-1.3499-0.1576-1.7405 0.48794-1.0537 1.7414 1.1214 2.0467 0.97997 3.4145-0.42843 4.1428-0.86665 0.44816-2.0718 0.52926-2.6278 0.17684zm45.62-4.3314c-0.21294-0.32742-0.47049-1.2305-0.57234-2.0069-0.21214-1.617-0.61364-1.9172-1.7034-1.2735-0.70445 0.41613-0.73344 0.41337-0.61018-0.058 0.11526-0.44075-0.0393-0.4125-1.4137 0.25827-0.84873 0.41423-1.6267 0.75581-1.7288 0.75907-0.1469 5e-3 -1.6223-2.131-2.655-3.8432-0.092-0.15247-0.074-0.42797 0.0398-0.61223 0.14096-0.22808 0.53654 0.17636 1.2393 1.2671 0.56774 0.88116 1.1216 1.6031 1.2307 1.6044 0.10914 1e-3 0.19844 0.18091 0.19844 0.39919 0 0.21829 0.074 0.39688 0.1645 0.39688s1.4076-0.61167 2.927-1.3593c2.016-0.99197 2.8415-1.2803 3.0547-1.067s0.15518 0.33705-0.21501 0.45802c-2.2466 0.73415-2.9896 1.1559-1.7038 0.96722 1.0576-0.15522 1.5934 0.32859 1.5934 1.4388 0 0.49618 0.17252 1.315 0.38337 1.8197 0.37219 0.89076 0.42624 0.91754 1.8521 0.91754 0.80779 0 1.4687 0.11906 1.4687 0.26458 0 0.14688-0.70353 0.26459-1.5814 0.26459-1.3489 0-1.6383-0.0875-1.9686-0.59532zm-39.418-1.827c-0.99896-0.5668-2.1281-1.2463-2.5093-1.51-0.38114-0.26371-0.90912-0.55763-1.1733-0.65315-0.38356-0.1387-0.44799-0.0718-0.31986 0.33189 0.12986 0.40912 0.0574 0.47863-0.37957 0.36435-0.29702-0.0777-0.54004-0.2025-0.54004-0.2774s0.46285-1.0433 1.0285-2.152c0.56569-1.1087 1.1584-2.3432 1.3172-2.7434s0.4826-0.72761 0.71957-0.72761c0.30713 0 0.37569 0.13296 0.23874 0.46302-0.10566 0.25467-0.19778 0.61185-0.2047 0.79375-7e-3 0.18191-0.0997 0.33073-0.20625 0.33073-0.10652 0-0.56547 0.71438-1.0199 1.5875-0.8087 1.5539-0.814 1.5875-0.25022 1.5875 0.31678 0 0.9444 0.2791 1.3947 0.62022 0.95546 0.72381 3.8758 2.3722 3.9772 2.2449 0.2635-0.33056 1.4717-3.1661 1.4717-3.4539 0-0.19632-0.25099-0.37586-0.55776-0.39897-0.30677-0.0231-1.1104-0.31633-1.7859-0.65161-0.88851-0.44101-1.3014-0.8363-1.4931-1.4293-0.14573-0.45083-0.4194-1.0058-0.60816-1.2332-0.24229-0.29195-0.25786-0.46627-0.0529-0.59292 0.15965-0.0987 1.2801 0.48605 2.4899 1.2994 1.2098 0.81331 2.4542 1.4788 2.7653 1.4788 0.75383 0 0.7228 0.21802-0.36037 2.5316-0.50933 1.0879-0.92605 2.0807-0.92605 2.2063s-0.2698 0.40514-0.59957 0.62121c-0.55689 0.36488-0.72891 0.31948-2.4159-0.63767zm1.8257-4.9846c-0.27489-0.44478-1.1915-0.85356-1.1915-0.53138 0 0.15533 0.26789 0.3901 0.59532 0.52171 0.78331 0.31485 0.78482 0.31487 0.59619 0.01zm36.999-1.0598c-0.37867-0.87312-0.85378-1.5875-1.0558-1.5875-0.26665 0-0.31949-0.19942-0.19278-0.7276 0.096-0.40019 0.22548-0.78536 0.28772-0.85595 0.14685-0.16654 1.1217 1.1003 1.1294 1.4677 3e-3 0.15456 0.24401 0.77389 0.53505 1.3763 0.58154 1.2036 0.67698 1.9146 0.25702 1.9146-0.14968 0-0.58196-0.71438-0.96062-1.5875zm-7.1678 0.59048c-0.89099-0.14685-0.63047-0.86647 0.36871-1.0185 0.16642-0.0253 1.253-0.47515 2.4146-0.99963 1.1616-0.52447 2.2458-0.95358 2.4094-0.95358 0.60666 0 0.28917 1.3719-0.50016 2.1612-0.71647 0.71647-0.93849 0.78884-2.1828 0.71151-0.76186-0.0473-1.5043-0.0224-1.6498 0.0555-0.14552 0.0779-0.53247 0.0974-0.85989 0.0435zm4.4056-1.224c0.32922-0.35045 0.48106-0.70408 0.33979-0.79139-0.23236-0.14361-2.6948 1.0582-2.6948 1.3153 0 0.0603 0.39596 0.10967 0.87992 0.10967 0.58615 0 1.0786-0.21152 1.4751-0.63354zm-30.6-0.89866c-0.90143-1.8829-1.6096-2.2677-4.4725-2.4306-1.3357-0.076-2.5165-0.22646-2.6241-0.33433-0.10761-0.10788-0.35831-0.0611-0.55712 0.10385-0.1988 0.16499-0.44444 0.21702-0.54585 0.11561-0.35733-0.35734 0.60558-0.68856 1.5598-0.53652 0.58932 0.0939 1.1797 0.0203 1.5148-0.189 0.40144-0.2507 0.6278-0.26413 0.84197-0.05 0.21313 0.21313 0.50205 0.21398 1.0607 3e-3 0.65053-0.24555 0.82288-0.21442 1.1288 0.20389 0.21116 0.28879 0.49439 0.41125 0.68239 0.29506 0.36169-0.22353 1.3464 0.54918 1.3464 1.0565 0 0.18015 0.20503 0.40623 0.45561 0.50239 0.3377 0.12959 0.37037 0.22751 0.12624 0.37839-0.25852 0.15977-0.24193 0.41281 0.0771 1.1764 0.59012 1.4124 0.109 1.1736-0.59399-0.29478zm23.816-0.23108c-0.13152-0.26712-0.16968-0.84287-0.0848-1.2794 0.12867-0.66176 0.28586-0.79829 0.94529-0.82107 0.43503-0.015 1.1482-0.18545 1.5847-0.37872 0.43657-0.19326 1.27-0.37515 1.8521-0.40419 0.58208-0.029 1.3858-0.14039 1.7859-0.24744 0.47553-0.12721 0.7276-0.0923 0.7276 0.10079 0 0.16248-0.23439 0.29542-0.52086 0.29542-0.33952 0-0.47102 0.12989-0.3777 0.37308 0.11435 0.298-0.15898 0.36108-1.3583 0.31348-1.0012-0.0397-1.5436 0.0502-1.6279 0.26989-0.0695 0.18122-0.47947 0.45256-0.91095 0.60298-0.62547 0.21804-0.81466 0.19496-0.93314-0.1138-0.28029-0.73042-0.66171-0.38732-0.58315 0.52456 0.0922 1.0702-0.15889 1.4549-0.49886 0.76445zm-79.883-2.9279c-0.33945-0.81242-0.36306-1.2846-0.13354-2.6698 0.29672-1.7906 0.93303-3.0578 1.4497-2.8869 0.43902 0.14517 1.1348 1.4453 0.8994 1.6807-0.10677 0.10677-0.35358-0.0239-0.54848-0.29048-0.33091-0.45256-0.38324-0.42672-0.79101 0.39069-0.5373 1.077-0.56845 3.1602-0.0576 3.8523 0.50298 0.68149 0.74811 0.38326 1.449-1.7628 0.31384-0.961 0.73287-1.9692 0.93118-2.2404 0.33625-0.45985 0.3892-0.42459 0.78505 0.52282 0.23346 0.55875 0.42448 1.1702 0.42448 1.3588s0.0832 0.5597 0.18485 0.82465c0.13491 0.35156 0.26002 0.13085 0.46302-0.81681 0.15299-0.7142 0.40189-1.3395 0.5531-1.3896 0.15121-0.0501 0.42112 0.45554 0.59979 1.1236 0.40648 1.5198 0.89416 1.4257 1.2201-0.23525 0.14744-0.75125 0.38481-1.2371 0.60443-1.2371 0.278 0 0.32864 0.32128 0.21894 1.3891-0.0785 0.76398-0.0727 1.2402 0.0129 1.0583s0.2793-0.33073 0.43044-0.33073c0.15525 0 0.10476 0.2561-0.11604 0.58865-0.48875 0.7361-1.922 0.87298-2.3921 0.22847-0.29233-0.40073-0.36337-0.40423-0.72115-0.0355-0.21828 0.22496-0.39687 0.55784-0.39687 0.73974 0 0.18191-0.0893 0.33073-0.19844 0.33073h-0.47864c-0.15411 0-0.22149-0.095-0.14975-0.21107 0.21988-0.35577-0.29096-0.94007-0.85843-0.98188-0.36165-0.0266-0.63954 0.20813-0.8512 0.7191-0.63655 1.5368-1.9476 1.682-2.5331 0.28062zm3.6792-2.0557c-0.0695-0.36381-0.23162-0.66146-0.36018-0.66146s-0.23374 0.29765-0.23374 0.66146c0 0.38162 0.15237 0.66145 0.36018 0.66145 0.24153 0 0.31853-0.2179 0.23374-0.66145zm12.869 2.4694c-0.0168-0.19403-9e-3 -0.56114 0.0166-0.8158 0.0592-0.58241-0.99327-0.63978-1.2134-0.0661-0.0838 0.21828-0.33089 0.39687-0.54918 0.39687-0.24948 0-0.33852-0.15205-0.23975-0.40944 0.1418-0.36953 0.10013-0.36953-0.42744 0-1.0322 0.723-1.2606 0.53073-1.2606-1.0614 0-0.88951-0.1021-1.4077-0.25834-1.3112-0.14209 0.0878-0.23551 0.68436-0.2076 1.3256 0.0279 0.64129-0.0265 1.2432-0.12093 1.3376-0.39152 0.39152-0.66813-0.21934-0.69864-1.5429-0.0315-1.3656-6e-3 -1.4187 0.84374-1.7258 0.48192-0.17427 0.96563-0.31685 1.0749-0.31685s0.11687 0.65485 0.0169 1.4552c-0.11877 0.95058-0.0861 1.4552 0.0944 1.4552 0.4346 0 1.1077-0.78503 1.1077-1.2919 0-0.47983 0.91517-1.6185 1.3008-1.6185 0.37891 0 0.80527 0.67475 0.98074 1.5521 0.0924 0.4621 0.25709 0.89523 0.36594 0.9625 0.29706 0.18359-0.0988 1.7952-0.47149 1.9195-0.17816 0.0594-0.33764-0.0508-0.3544-0.2448zm-0.3512-2.5252c-0.0811-0.2114-0.1475-0.49369-0.1475-0.62731s-0.11906-0.24295-0.26458-0.24295-0.26459 0.35346-0.26459 0.78545c0 0.60235 0.0961 0.74858 0.41209 0.62731 0.22664-0.087 0.3457-0.33109 0.26458-0.5425zm-5.7038 1.7976c0-0.54876-0.12991-0.81579-0.39687-0.81579-0.24695 0-0.39688 0.24988-0.39688 0.66146 0 0.65928-0.5047 0.95931-0.55633 0.33072-0.14258-1.7358-3e-3 -2.6968 0.43744-3.0191 0.26654-0.19489 0.56736-0.35435 0.66848-0.35435 0.39598 0 1.0647 1.917 0.98734 2.8305-0.10271 1.2129-0.74318 1.5288-0.74318 0.36656zm-0.34581-2.0675c-0.0671-0.25743-0.12638-0.11087-0.13177 0.3257-5e-3 0.43656 0.0495 0.64718 0.12197 0.46805 0.0725-0.17913 0.0769-0.53632 0.01-0.79375zm67.55 2.079c0-0.48346 0.96416-2.2719 1.4359-2.6633 0.30092-0.24974 0.51123-0.26657 0.75923-0.0607 0.44307 0.36772 1.8942-0.54015 1.9329-1.2093 0.0148-0.25618 0.0446-0.59464 0.0662-0.75213 0.025-0.18316 0.56797-0.2425 1.5066-0.16465 1.1922 0.0989 1.5319 0.0336 1.8109-0.34798 0.25542-0.34931 0.53132-0.42252 1.0766-0.28566 0.64378 0.16157 0.71432 0.27819 0.57865 0.95656-0.11306 0.5653-0.0325 0.84365 0.30019 1.0376 0.37006 0.2157 0.38083 0.27222 0.0578 0.3036-0.21828 0.0212-0.5384 0.0546-0.71138 0.0742-0.17297 0.0196-0.56457 0.30352-0.8702 0.63094-0.65638 0.70316-0.84361 0.723-1.8605 0.19714-0.70854-0.3664-0.85443-0.35415-1.8284 0.15349-0.59355 0.30937-1.279 0.48162-1.5608 0.39219-0.55958-0.1776-1.2536 0.45845-0.98115 0.89924 0.0939 0.15189 0.0446 0.27617-0.10952 0.27617-0.43709 0-0.32937-0.82888 0.18282-1.4069 0.36569-0.41267 0.37959-0.4977 0.0661-0.40449-0.21828 0.0649-0.65953 0.6327-0.98056 1.2618-0.66592 1.3049-0.87152 1.5673-0.87152 1.1123zm4.1166-2.5387c0.65773-0.49748 0.1887-0.50331-0.67703-8e-3 -0.42398 0.24236-0.51338 0.38148-0.24901 0.38749 0.22685 5e-3 0.64357-0.16543 0.92604-0.37908zm3.4971-0.18733c0.40243-0.40242-0.0644-1.0117-0.77524-1.0117-0.63097 0-0.95771 0.76639-0.46087 1.081 0.5048 0.31965 0.86753 0.29932 1.2361-0.0693zm-26.521 1.9676c-0.3697-0.3987-0.67217-0.82344-0.67217-0.94388 0-0.12043-0.24825-0.14017-0.55168-0.0439-0.36636 0.11628-0.74408 2.6e-4 -1.1245-0.34531-0.74379-0.67576-2.1203-1.0049-3.4171-0.81717-0.1819 0.0263-0.58607-0.0344-0.89816-0.13498-0.36337-0.1171-0.71339-0.0369-0.97329 0.223-0.91446 0.91446-0.96955 0.20786-0.0652-0.83616 0.49808-0.575 0.71502-0.67155 0.9623-0.42828 0.24658 0.24258 0.56697 0.21847 1.4075-0.10594 0.59852-0.231 1.2013-0.52116 1.3396-0.6448 0.38363-0.3431 0.67469-0.26886 0.67469 0.17208 0 0.31267 0.35084 0.39244 1.6536 0.37598 0.90951-0.0115 1.5048-0.0809 1.3229-0.15433-0.71805-0.28974-0.28024-0.5734 0.47737-0.30929 1.1077 0.38615 1.0101 1.3758-0.14664 1.4865-0.60947 0.0583-0.70161 0.0132-0.39688-0.19438 0.30898-0.21044 0.20828-0.27121-0.45471-0.27436-0.64918-3e-3 -0.8154 0.0903-0.6993 0.39283 0.0838 0.21828 0.24449 0.39687 0.35718 0.39687 0.36558 0 1.8407 1.6615 1.6906 1.9042-0.0801 0.12959-2e-3 0.409 0.17414 0.6209 0.56712 0.68333 0.0339 0.4091-0.66036-0.33961zm-1.2013-1.5138c0-0.34403-1.2296-1.1987-1.7035-1.1842-0.54537 0.0168-0.54537 0.0168-7e-3 0.23498 0.2961 0.12002 0.69763 0.41013 0.8923 0.64469 0.33051 0.39825 0.81831 0.57975 0.81831 0.30449zm-19.964-2.837c-0.3615-1.5903-0.66953-4.2085-0.67134-5.7061l-2e-3 -1.6536c-3.5771 1.9165-11.215-2.2225-12.048 1.7492-0.5002 2.385-1.7552 4.6008-2.6058 4.6008-0.61985 0-0.95307-1.066-0.97713-3.1261l-0.0207-1.7687-0.57466 1.6124c-0.72587 2.0368-1.3772 3.0178-2.0036 3.0178-0.68473 0-1.0118-0.47877-1.3461-1.9704-0.69058-3.0815-0.36861-8.389 0.75714-12.481 0.36347-1.3212 1.2344-2.4884 1.8386-2.464 0.33944 0.0137 0.30741 0.0838-0.13622 0.2982-0.75106 0.36294-1.2559 1.6619-1.9539 5.0271-0.47657 2.2978-0.54286 3.291-0.42148 6.3157 0.21048 5.2454 0.88467 6.2276 2.3491 3.4224 0.85387-1.6357 1.1701-2.8815 1.511-5.9531 0.1292-1.1642 0.42213-2.9364 0.65094-3.9382 0.22881-1.0018 0.35718-1.9167 0.28526-2.0331-0.20234-0.3274 0.91292-2.2972 1.4082-2.4872 0.66379-0.25472 1.0615 0.50145 1.2269 2.3324-0.4381 8.2489 10.89 7.5793 11.981 7.5813l0.1835-3.476c0.10377-1.9657 0.34533-3.8632 0.55594-4.3673 0.36022-0.86213 1.497-1.5868 2.0008-1.2754 0.43229 0.26718 1.043 2.846 1.043 4.4042 0 0.84993 0.11851 1.5395 0.26458 1.5395 0.15416 0 0.26459-0.8762 0.26459-2.0994 0-2.7482 0.28546-3.5281 1.2068-3.2968 0.39764 0.0998 0.96677 0.022 1.3537-0.18514 0.5948-0.31832 0.70901-0.30078 1.0464 0.1607 0.37189 0.50859 0.38159 0.50731 0.53265-0.0704 0.0846-0.32361 0.25972-0.52297 0.38909-0.44301 0.13391 0.0828 0.11972 0.36117-0.0329 0.64642-0.19158 0.35796-0.15511 0.8256 0.12772 1.6376 0.50643 1.4539 0.50154 1.9392-8e-3 0.76578-0.21482-0.49496-0.45017-0.84034-0.52299-0.76752-0.0728 0.0728-0.22038 1.6928-0.32788 3.6l-0.19547 3.4676 1.5899 0.20374-0.82908 0.0423c-0.82001 0.0419-0.8311 0.0613-1.0149 1.7775-0.2368 2.2112 0.0343 4.1886 0.67822 4.9472 0.49413 0.58214 0.51161 0.58377 0.89825 0.0838 0.21688-0.28042 0.46075-0.44342 0.54195-0.36222 0.175 0.175-0.60492 1.0044-0.9445 1.0044-0.12946 0-0.47149-0.25344-0.76007-0.56319-0.65485-0.7029-0.94281-2.8236-0.69616-5.1268l0.18401-1.7183h-3.2171v1.4132c0 0.77724 0.16694 1.9679 0.37098 2.6458 0.20404 0.67797 0.31702 1.2327 0.25108 1.2327-0.36709 0-0.89034-2.0779-0.91399-3.6295-0.0296-1.9427-0.0673-1.8641-0.76675 1.5995-0.47178 2.3361-0.60841 1.6087-0.17194-0.91545 0.28553-1.6512 0.30564-2.2633 0.0791-2.4083-0.22061-0.1412-0.21322-0.19549 0.027-0.19844 0.24705-3e-3 0.3243-0.79064 0.30533-3.1129-0.0309-3.788-0.41995-5.7547-1.1383-5.7547-0.27415 0-0.6305 0.23812-0.79188 0.52917-0.16138 0.29104-0.37344 0.58999-0.47125 0.66433-0.0978 0.0743-0.2508 1.3245-0.33998 2.7781-0.0892 1.4536-0.21893 3.0894-0.28832 3.6351-0.12093 0.951-0.0937 0.99219 0.6551 0.99219 0.42969 0 0.86503 0.13554 0.96741 0.3012 0.13286 0.21497-0.0816 0.25097-0.7491 0.12575l-0.93526-0.17546 0.10317 2.3216c0.0981 2.2085 0.49832 5.0538 0.74557 5.301 0.0633 0.0633 0.42442-0.4621 0.80249-1.1676 0.65405-1.2204 0.68878-0.69281 0.046 0.69849-0.41002 0.88749-1.1666 1.0107-1.3465 0.21926zm-14.037-2.973c1.0277-1.7646 1.3623-3.8489 1.2776-7.9586-0.042-2.0373-0.20756-4.338-0.36791-5.1126-0.26454-1.2781-0.32539-1.3638-0.6572-0.92604-0.20112 0.26533-0.36946 0.68086-0.37409 0.9234-5e-3 0.24253-0.12826 0.48092-0.27474 0.52975-0.14648 0.0488-0.50965 1.3387-0.80703 2.8663-0.5696 2.926-0.8561 10.391-0.42444 11.059 0.29864 0.46221 0.80411 0.0334 1.6278-1.3808zm17.26-6.5648c-0.0589-0.47555-0.10828-0.15026-0.10976 0.72286-2e-3 0.87313 0.0467 1.2622 0.10706 0.86464 0.0604-0.39758 0.0616-1.112 3e-3 -1.5875zm3.5387 1.8473c0.0144-0.1819 0.0644-0.68792 0.1111-1.1245 0.10422-0.97496-0.32849-5.2014-0.60055-5.8658-0.1409-0.3441-0.24363-0.10145-0.35512 0.83875l-0.15687 1.3229-0.0416-1.6536c-0.0368-1.4634-0.10244-1.6536-0.57073-1.6536-0.44963 0-0.53481 0.18891-0.56672 1.2568l-0.0375 1.2568-0.17608-1.0583-0.17608-1.0583-0.1714 1.1906c-0.0943 0.65485-0.24003 2.4706-0.32389 4.0349l-0.15249 2.8443h1.5958c1.0863 0 1.6042-0.1056 1.6221-0.33073zm0.38945-8.2021c-0.41897-0.69681-1.0457-0.59728-0.83304 0.13229 0.0954 0.32742 0.31769 1.2502 0.49388 2.0505l0.32034 1.4552 0.14861-1.5875c0.0862-0.92136 0.0318-1.7818-0.12979-2.0505zm10.983 14.076c-0.15757-0.73477-0.30059-2.0147-0.31781-2.8443-0.0441-2.1263-0.29192-3.0744-0.83063-3.1782-0.39739-0.0765-0.46098 0.13287-0.46098 1.5181 0 0.8838-0.0893 1.6071-0.19844 1.6074-0.10914 2.6e-4 -0.15855-0.70506-0.1098-1.5674 0.079-1.3968 0.0356-1.5601-0.39688-1.4968-0.26703 0.0391-0.52629 0.28003-0.57614 0.53548-0.14439 0.73992 0.2087 2.2117 0.63222 2.6352 0.22793 0.22792 0.28297 0.45374 0.13317 0.54632-0.4014 0.24809-1.0716-1.3106-1.0716-2.4922 0-0.58931-0.11906-1.0715-0.26458-1.0715s-0.26641 0.14883-0.26864 0.33073c-3e-3 0.24165-0.0564 0.2485-0.19843 0.0254-0.10692-0.16791-0.13912-0.94181-0.0716-1.7198l0.12281-1.4145 0.16635 1.3229c0.14185 1.1281 0.17248 0.98217 0.20792-0.99052 0.0399-2.2229 0.0643-2.31 0.62291-2.2247 0.31974 0.0488 0.62646 0.25641 0.6816 0.46136 0.0778 0.28927 0.0375 0.28385-0.18042-0.0242-0.23731-0.33557-0.28417-0.31513-0.30332 0.13229l-0.0226 0.52917-0.2339-0.52917c-0.15556-0.35193-0.21579 0.17978-0.17984 1.5875 0.0442 1.7314 0.1263 2.0989 0.45094 2.0188 0.21828-0.0538 0.78627-0.0871 1.2622-0.074l0.86533 0.0238-0.15604-2.8364c-0.0858-1.56-0.20025-3.1849-0.2543-3.6108-0.16875-1.3296 0.2461-1.7392 1.7617-1.7392h1.3436l-0.16355 0.85989c-0.0899 0.47295-0.23833 2.1812-0.32973 3.7961l-0.1662 2.9362 1.0273 0.1697c1.6263 0.26865 4.1239 0.21216 3.9377-0.0891-0.0899-0.14552-0.0247-0.26458 0.14499-0.26458 0.16967 0 0.23997-0.17859 0.15621-0.39687-0.098-0.25534 0.01-0.40273 0.30242-0.41329 2.6794-0.0967 12.975 0.32275 17.517 0.71365 1.8167 0.15634 1.9514 0.13445 1.6212-0.26336-0.31448-0.37894-0.28897-0.43388 0.20149-0.43388 0.39329 0 0.56156 0.16575 0.56156 0.55315 0 0.60193 0.0198 0.60176-9.7896 0.0869l-2.7781-0.14581-0.47839 0.81193c-0.47757 0.81052-0.47726 0.81236 0.17867 1.0617 0.76921 0.29245 4.7578 0.41972 9.4175 0.30048 2.2496-0.0576 3.3281 9e-3 3.3949 0.20932 0.0684 0.20522-0.37694 0.24405-1.4786 0.1289-0.86707-0.0906-2.3948-0.073-3.3949 0.0392-1.569 0.17598-1.7126 0.23357-1.0472 0.41995 0.42416 0.11881 0.84976 0.34312 0.94577 0.49847 0.10275 0.16625 1.1947 0.28728 2.6542 0.2942 1.6708 8e-3 2.3548 0.0942 2.0969 0.26464-0.21049 0.13909-1.4128 0.22086-2.6719 0.18171-1.903-0.0592-2.3784 0.01-2.818 0.40741-0.31589 0.28588-0.59441 0.37247-0.6917 0.21504-0.0896-0.14494-0.0419-0.33832 0.10602-0.42972 0.1479-0.0914 0.2689-0.2898 0.2689-0.44087 0-0.27265-11.157-0.13505-16.073 0.19824-1.2754 0.0865-2.1828 0.0457-2.1828-0.0981 0-0.28651 4.5995-0.5733 11.897-0.74182 3.1712-0.0732 5.2554-0.22823 5.424-0.40338 0.26902-0.27956-9.7704-0.20759-13.408 0.0961-0.9785 0.0817-1.5496 0.022-1.6206-0.1694-0.0776-0.20943-0.2117-0.19918-0.46012 0.0352-0.19281 0.1819-0.65418 0.31886-1.0253 0.30435l-0.67468-0.0264 0.66145-0.20064c0.62103-0.18839 0.60485-0.20699-0.26458-0.30436-0.50932-0.057-0.92604-0.20676-0.92604-0.33271s2.4408-0.20993 5.424-0.18663l5.424 0.0424 0.0764-2.0911-2.1549-0.0498c-3.0573-0.0707-3.4228-0.0374-3.6531 0.33269-0.15528 0.2496 0.35417 0.36543 2.1018 0.47789l2.3068 0.14844-2.249 0.0807c-1.2369 0.0444-2.0391 0.13542-1.7827 0.20231 0.25645 0.0669 0.39825 0.23168 0.31512 0.36619-0.24066 0.38939-1.18 0.28318-1.3472-0.15232-0.11982-0.31224-0.66186-0.39687-2.5417-0.39687h-2.3894l0.17838 1.5214c0.19888 1.6963 0.60667 3.3893 0.99276 4.1218 0.3668 0.69582-0.1852 1.236-1.263 1.236-0.61797 0-0.89365 0.12244-0.89365 0.39688 0 0.91365-0.5067 0.29716-0.77183-0.93907zm2.0853-0.48086c-5e-3 -0.0922-0.18191-0.88195-0.39274-1.7551-0.21082-0.87312-0.38591-1.9447-0.38908-2.3812-3e-3 -0.43656-0.17656-1.1212-0.38532-1.5214-0.20875-0.40018-0.27679-0.72761-0.15119-0.72761s0.22836-1.0418 0.22836-2.3151 0.11293-2.8806 0.25096-3.5719c0.21689-1.0862 0.19274-1.2562-0.17791-1.2527-1.1346 0.0107-1.1817 0.24577-0.98865 4.9317 0.3467 8.4143 0.47685 9.1631 1.5442 8.884 0.25896-0.0677 0.4666-0.19853 0.46141-0.2907zm18.596-3.6501c-0.18191-0.0734-0.47956-0.0734-0.66146 0s-0.0331 0.13346 0.33073 0.13346c0.3638 0 0.51263-0.0601 0.33073-0.13346zm-29.679 4.2542c0.0127-0.30822 0.0754-0.37091 0.15985-0.15985 0.0764 0.191 0.067 0.4192-0.0209 0.50712-0.0879 0.0879-0.15045-0.0684-0.13896-0.34727zm36.227-0.6111c0-0.28295 0.65083-0.55747 1.3216-0.55747 0.44643 0 0.49114-0.33852 0.56779-4.2995 0.18969-9.8014 0.14769-10.349-0.7502-9.7788-0.22469 0.14266-0.24903 0.50461-0.0842 1.2525 0.36857 1.6728 0.51656 6.8283 0.2522 8.7856-0.31964 2.3666-0.79311 4.0792-1.0995 3.9771-0.33128-0.11042-0.32664-0.16998 0.19585-2.5185 0.75198-3.38 0.16685-12.27-0.77715-11.808-0.15829 0.0776-0.0739-0.0338 0.18751-0.24751 0.26143-0.21368 0.67815-0.34875 0.92605-0.30014 1.9207 0.37657 1.8348 0.30098 2.0126 1.7712 0.28116 2.3248-0.27358 13.47-0.68339 13.73-0.46754 0.29645-2.0691 0.29128-2.0691-7e-3zm-35.897-0.95435c4e-3 -1.8972-0.36505-6.82-0.58537-7.8006-0.1183-0.52651-0.15902-1.6334-0.0905-2.4598 0.13625-1.643 0.5993-2.3188 1.2301-1.7953 0.43667 0.36241 1.0608 1.971 0.67138 1.7303-0.13969-0.0863-0.25776-0.29877-0.26239-0.47208-5e-3 -0.17332-0.18792-0.55266-0.40732-0.843-0.3422-0.45282-0.43446-0.47163-0.64899-0.13229-0.13755 0.21757-0.23502 0.93137-0.21659 1.5862l0.0335 1.1906 0.2017-1.0583c0.15781-0.82812 0.1994-0.56912 0.19115 1.1906-0.0168 3.5924 0.37917 8.4385 0.7286 8.9164 0.29446 0.4027 0.34528 0.39459 0.60844-0.0971 0.67234-1.2563 0.87017-4.4914 0.4669-7.6354-0.0565-0.44028 0.0511-1.0108 0.23895-1.2677 0.28849-0.39453 0.3428-0.0934 0.34923 1.9361 8e-3 2.6177 0.22506 4.3424 0.64647 5.1433 0.26213 0.4982 0.28457 0.4954 0.76302-0.0955 0.27112-0.33482 0.50235-0.86346 0.51384-1.1748 0.0115-0.3113 0.0829-0.41113 0.15882-0.22183 0.1848 0.46113-0.40091 1.8315-0.85774 2.0068-0.44341 0.17015-1.1657-0.50197-1.1962-1.1131-0.0122-0.24427-0.16982 0.24333-0.35028 1.0836-0.39765 1.8515-0.75095 2.2961-1.4685 1.848-0.41895-0.26164-0.52321-0.238-0.61272 0.13892-0.0593 0.24981-0.10676-0.022-0.10543-0.60413zm70.084-3.61c0.062-1.1851 0.0295-2.7032-0.0723-3.3734-0.10342-0.68109-0.0677-1.5104 0.0811-1.8801l0.2661-0.66146 0.23006 0.79375c0.12654 0.43656 0.22112 2.2523 0.21017 4.0349-0.0167 2.7212-0.0847 3.2411-0.42387 3.2411-0.33839 0-0.38566-0.34977-0.29122-2.1548zm-113.9 1.1919c-0.74966-0.40121-0.94551-0.97158-0.98669-2.8736-0.0189-0.87313-0.12784-2.1556-0.24208-2.8499-0.31744-1.9292-3e-3 -2.1913 2.533-2.1133 1.1396 0.0351 2.7587 0.13627 3.5982 0.2249 1.7669 0.18655 2.1926 0.66462 1.9541 2.1949-0.12156 0.78015-0.0904 0.88001 0.16971 0.54312 1.2517-1.6215 1.4844-1.8291 1.8796-1.6775 0.2329 0.0894 0.44209 0.35812 0.46486 0.59721 0.0228 0.23909 0.0788 0.73237 0.12459 1.0962 0.43775 3.4811 0.44067 4.3197 0.0145 4.1562-0.23547-0.0904-0.50034-0.0474-0.5886 0.0954-0.0898 0.1453-0.6179-0.10264-1.1991-0.56295l-1.0386-0.82261v0.94828c0 0.52155-0.11907 0.94827-0.26459 0.94827-0.14862 0-0.26458-0.73672-0.26458-1.681 0-0.92454-0.0764-2.4119-0.16977-3.3052-0.16641-1.5922-0.18862-1.6295-1.1245-1.8894-0.52509-0.14586-1.9287-0.26586-3.1191-0.26667-2.0436-1e-3 -2.1691 0.0317-2.249 0.59383-0.16742 1.1789 0.37679 5.3278 0.74747 5.6985 0.22895 0.22896 1.3434 0.45442 2.9094 0.58859 1.396 0.11961 2.6683 0.34749 2.8272 0.5064 0.39856 0.39856-5.2142 0.2581-5.9759-0.14955zm8.9654-2.2452c-0.0909-0.45475-0.16669-1.4966-0.1683-2.3151l-3e-3 -1.4883-0.72467 0.91783c-1.2356 1.565-1.6858 2.654-1.0971 2.654 0.15895 0 0.59173 0.23813 0.96172 0.52917 0.94979 0.7471 1.2244 0.66783 1.0313-0.29766zm106.73 2.0784c0.29357-0.29976 1.2578-0.44996 3.7042-0.57703 3.2755-0.17013 10.152-0.85211 10.773-1.0684 0.17724-0.0617 0.38721-7e-3 0.4666 0.12131 0.0794 0.12845-0.54188 0.30777-1.3806 0.39848-0.83871 0.0907-2.2988 0.27733-3.2447 0.41469-0.94589 0.13736-3.4462 0.36466-5.5562 0.5051s-4.1341 0.33539-4.4979 0.43322c-0.59126 0.159-0.61934 0.13487-0.26458-0.22737zm-12.641-1.6635c-0.32342-0.22654-0.58408-0.67302-0.57924-0.99219 8e-3 -0.54277 0.81138-1.7709 1.1581-1.7709 0.30389 0 0.15019 0.62624-0.26677 1.087-0.49987 0.55235-0.28115 1.068 0.36512 0.86088 0.34868-0.11175 0.37094-0.0859 0.0956 0.11078-0.25098 0.17931-0.27088 0.31091-0.0661 0.43745 0.33482 0.20693 0.39538 0.67891 0.0871 0.67891-0.11315 0-0.47033-0.18534-0.79375-0.41187zm18.328 0.0318c-0.43306-1.3735-0.36652-1.3264-1.0143-0.71786-0.41952 0.39412-0.944 0.5688-1.7078 0.5688-0.95672 0-1.1244-0.0879-1.2692-0.66485-0.21044-0.83846 0.10642-3.0393 0.43758-3.0393 0.1366 0 0.24837 0.69626 0.24837 1.5472 0 1.5223 0.0122 1.5476 0.75964 1.5688 0.71112 0.0202 0.77451-0.0646 0.99219-1.3282 0.1279-0.74236 0.35503-1.3899 0.50473-1.4391 0.1497-0.0491 0.49898 0.29877 0.77616 0.77311 0.68054 1.1646 2.0355 2.588 2.305 2.4214 0.49239-0.30431 0.1624-0.93287-0.70754-1.3477-1.007-0.48018-1.104-0.74794-0.54074-1.4913 0.46114-0.60854 1.3009-0.47487 1.4118 0.22472 0.0634 0.39989 0.0236 0.43864-0.16582 0.1615-0.13707-0.20054-0.3816-0.28281-0.54339-0.18282-0.44321 0.27391-0.3569 0.5257 0.2795 0.81544 0.80634 0.3671 1.1211 0.98857 0.91546 1.8077-0.21424 0.85362-0.75635 0.89884-1.4788 0.12336-0.43808-0.47023-0.53947-0.49803-0.53947-0.14791 0 0.59257-0.50294 0.85556-0.66333 0.34686zm-0.39501-1.8532c0-0.0642-0.11906-0.19026-0.26458-0.2802-0.14552-0.0899-0.26458-0.0374-0.26458 0.11668 0 0.15411 0.11906 0.2802 0.26458 0.2802s0.26458-0.0525 0.26458-0.11668zm-29.291 1.4495c-0.61566-0.37539-1.4503-0.54179-3.0427-0.60661l-4.5998-0.22293 4.5561 0.0797c2.3359-0.0585 2.1975 0.0375 2.8433-1.9721 0.0818-0.25466 0.28647-0.46302 0.45475-0.46302 0.30207 0 0.22283 0.91097-0.16684 1.9182-0.16349 0.42259 0.0833 0.4675 2.8257 0.51427l16.903 0.18483-16.544 0.0136c-1.4969 0.0833-2.5022 0.24015-2.3151 0.36125 0.36113 0.23373 0.45023 0.71259 0.13229 0.711-0.10914-5.3e-4 -0.58021-0.23377-1.0468-0.51828zm32.687-1.4263c-0.078-1.4778-0.0187-1.7337 0.49073-2.117 0.67506-0.50805 1.0701-0.13829 0.48131 0.4505-0.57798 0.57798-0.49881 1.2308 0.14926 1.2308 0.38463 0 0.51831 0.13837 0.44731 0.46302-0.0557 0.25466-0.24302 0.43326-0.41628 0.39688-0.17326-0.0364-0.31501 0.12633-0.31501 0.36158 0 0.30144 0.16072 0.38571 0.54429 0.2854 0.4466-0.11679 0.48827-0.0748 0.23218 0.23373-0.17165 0.20683-0.58502 0.37606-0.91858 0.37606-0.55931 0-0.61339-0.13076-0.69521-1.681zm3.5749 1.274c-0.0859-0.22385-0.0761-0.90846 0.0218-1.5214 0.11697-0.73215 0.0887-1.0236-0.0824-0.84976-0.14324 0.14552-0.29816 0.73163-0.34427 1.3025-0.0461 0.57083-0.23265 1.0868-0.41455 1.1465-0.2421 0.0795-0.33073-0.35816-0.33073-1.6332 0-0.98484 0.11498-1.7418 0.26458-1.7418 0.14552 0 0.26458 0.12325 0.26458 0.27389 0 0.18105 0.18901 0.17274 0.55758-0.0245 0.82557-0.44183 1.1692 0.0287 0.79821 1.093-0.41151 1.1805-0.3794 1.6561 0.0994 1.4724 0.23303-0.0894 0.39688-4e-3 0.39688 0.20797 0 0.19814-0.18833 0.43253-0.41852 0.52086-0.58799 0.22563-0.63719 0.21071-0.81261-0.24641zm4.299 0.0763c-0.26581-0.97151-0.68665-3.646-0.68665-4.3637 0-1.0671-0.4694-1.2143-3.2559-1.0212-1.1924 0.0827-4.0135 0.21496-6.2691 0.29403-2.2556 0.0791-4.7117 0.21209-5.4581 0.29561-0.85938 0.0962-1.423 0.0451-1.537-0.13922-0.0989-0.16009-0.1431-0.29635-0.0981-0.3028 0.045-6e-3 3.1774-0.11974 6.9609-0.25176 3.7835-0.13201 7.5978-0.31961 8.4761-0.4169 1.4418-0.15971 1.5993-0.12882 1.6208 0.31789 0.028 0.57892 0.52409 3.8152 0.77554 5.0588 0.11618 0.57463 0.0724 0.8599-0.1321 0.8599-0.16828 0-0.34669-0.14883-0.39646-0.33073zm-54.463-0.37367c0.18191-0.0734 0.47956-0.0734 0.66146 0s0.0331 0.13346-0.33073 0.13346c-0.3638 0-0.51263-0.0601-0.33073-0.13346zm-8.7312-0.2864c1.2006-0.049 3.1651-0.049 4.3656 0s0.21828 0.0891-2.1828 0.0891c-2.4011 0-3.3834-0.0401-2.1828-0.0891zm-18.677-1.3906c0-0.3638 0.06-0.51263 0.13345-0.33073 0.0734 0.1819 0.0734 0.47956 0 0.66146s-0.13345 0.0331-0.13345-0.33073zm8.0966-0.31576c-0.0377-0.10101-0.75894-0.21091-1.6027-0.24423-0.84372-0.0333-1.5869-0.14612-1.6515-0.25067-0.17602-0.28481 1.7587-0.45819 2.5698-0.23029 0.3889 0.10927 3.3357 0.1321 6.5484 0.0507 4.6518-0.11781 5.8413-0.22062 5.8413-0.50481 0-0.27355-0.63325-0.36653-2.712-0.39821-1.4916-0.0227-3.0096-0.07-3.3734-0.1051-2.0427-0.19693-5.7852-0.13806-6.3889 0.10049-0.38522 0.15221-0.7705 0.20665-0.85617 0.12097-0.0857-0.0857-0.53095-0.1451-0.9895-0.13206-0.60718 0.0172-0.75451-0.0555-0.5422-0.26782 0.47457-0.47457 2.7532-0.53738 8.6338-0.238 4.1924 0.21344 5.592 0.20725 5.7357-0.0254 0.14418-0.23329 0.35774-0.23136 0.88303 8e-3 0.38107 0.17363 1.1933 0.30763 1.8049 0.29778 0.99418-0.016 1.0489-0.0483 0.51672-0.30501-0.32742-0.15791-0.59531-0.38798-0.59531-0.51126 0-0.32119 0.1289-0.29064 1.5067 0.35702 0.93437 0.4392 1.7415 0.58359 3.3044 0.59109 1.1374 5e-3 2.068 0.10112 2.068 0.21258s-1.0588 0.20266-2.353 0.20266c-1.7909 0-2.3874 0.0899-2.4974 0.37653-0.11533 0.30054 0.25321 0.39399 1.826 0.46302 1.0837 0.0476 2.3564 5e-3 2.8282-0.0943 0.9452-0.19928 1.6416 0.1812 0.87217 0.47648-0.259 0.0994-2.2137 0.0976-4.3437-4e-3 -6.9006-0.32916-12.872-0.48518-12.726-0.3325 0.0782 0.082 0.58426 0.17881 1.1245 0.21519 0.54021 0.0364 0.98221 0.14725 0.98221 0.24638 0 0.23731-6.3246 0.16319-6.4137-0.0752zm15.092-0.79531c0.5284-0.5284 0.3727-0.61603-0.93927-0.52868-1.8515 0.12329-2.2392 0.39031-0.8599 0.59232 0.65485 0.0959 1.2561 0.19226 1.3362 0.21412 0.08 0.0219 0.2884-0.10314 0.46302-0.27776zm29.875-0.11133c-0.1037-0.10369-0.18854-0.45642-0.18854-0.78385 0-0.32742-0.14883-0.65536-0.33073-0.72876-0.20901-0.0843-0.17088-0.14114 0.10361-0.15434 0.42031-0.0202 0.92987-1.2584 0.63799-1.5503-0.0792-0.0792-0.46968 4e-3 -0.86767 0.18566-0.72185 0.32889-0.7224 0.32835-0.2247-0.22161 0.27441-0.30322 0.79064-0.55131 1.1472-0.55131 0.59888 0 0.6404 0.0822 0.54525 1.08-0.10133 1.0626-0.0904 1.0781 0.67451 0.96587 0.70777-0.10388 0.73371-0.0821 0.28922 0.24293-0.26856 0.19638-0.64413 0.35705-0.8346 0.35705-0.19046 0-0.3463 0.16744-0.3463 0.3721 0 0.24963 0.18584 0.32351 0.56459 0.22446 0.4063-0.10624 0.53039-0.0437 0.44261 0.22321-0.13179 0.40072-1.3042 0.64714-1.6124 0.3389zm-5.8602-0.33754c-0.18623-0.30132 0.10806-2.4979 0.39738-2.966 0.38637-0.62516 0.58252-0.0264 0.27775 0.84792-0.51474 1.4766-0.40665 1.8352 0.49857 1.6541 0.4661-0.0932 0.79375-0.0476 0.79375 0.1106 0 0.52436-1.6758 0.82532-1.9674 0.35335zm2.5328-0.86322c-0.24565-0.66407-0.0815-1.81 0.25922-1.81 0.12855 0 0.23374 0.41672 0.23374 0.92605 0 1.01 0.0563 1.0562 0.80129 0.65742 0.32283-0.17278 0.44483-0.43239 0.34192-0.7276-0.14772-0.42376-0.12158-0.42248 0.34058 0.0167 0.48981 0.46542 0.48635 0.48663-0.16088 0.98631-0.87268 0.67373-1.5554 0.65537-1.8159-0.0488zm-54.784-0.37684c0.0127-0.30822 0.0754-0.37091 0.15985-0.15985 0.0764 0.191 0.067 0.4192-0.0209 0.50712-0.0879 0.0879-0.15045-0.0684-0.13896-0.34727zm2.134-0.57326c-0.28872-0.6747-0.28218-0.69026 0.0898-0.21401 0.22065 0.28247 0.40117 0.60989 0.40117 0.7276 0 0.40214-0.17947 0.21441-0.49099-0.51359zm-29.63-0.0662c0-0.3638 0.0601-0.51263 0.13345-0.33072 0.0734 0.1819 0.0734 0.47955 0 0.66145s-0.13345 0.0331-0.13345-0.33073zm36.131-4.6616c-0.0901-0.0901 0.0144-0.34203 0.23229-0.55988 0.52586-0.52585 0.36461-0.91466-0.57311-1.3819-0.64801-0.32287-0.69307-0.40261-0.27642-0.48912 0.60913-0.12648 1.6683 0.4097 1.8754 0.94936 0.0838 0.21832-0.0317 0.67783-0.25666 1.0211-0.41225 0.62918-0.70032 0.7616-1.0015 0.46039zm-5.0265-0.70837c-0.15875-0.41368 1.2769-2.2475 1.5476-1.9768 0.10469 0.10469 0.0513 0.35791-0.11869 0.56272-0.43221 0.52078 0.13823 0.69875 2.2396 0.69875 0.95571 0 1.6982 0.11567 1.6982 0.26458 0 0.15287-0.83784 0.26458-1.9844 0.26458s-1.9844 0.11172-1.9844 0.26459c0 0.39136-1.2444 0.32156-1.3979-0.0784zm34.856-0.14937c0.13274-0.41823-0.0295-0.51782-1.0774-0.66146-2.1068-0.28877-3.0119-0.21528-3.0119 0.24454 0 0.60301-1.685 0.40871-1.8017-0.20776-0.10632-0.5614 0.74088-1.7737 1.2474-1.7851 0.2941-7e-3 0.28028 0.0927-0.0661 0.47554-0.24083 0.26612-0.43744 0.53401-0.4369 0.59531 5.3e-4 0.0613 1.1955 0.11863 2.6555 0.1274 1.612 0.01 2.4949-0.0734 2.248-0.21158-0.55328-0.30963-0.51314-0.7304 0.0697-0.7304 0.93545 0 1.3935 1.0732 0.95065 2.2273-0.23485 0.612-0.97256 0.5419-0.77713-0.0738zm2.049-3.5293c-0.17463-0.17462-0.3175-0.49503-0.3175-0.71202 0-0.29638 0.0981-0.26676 0.39425 0.11906 0.36078 0.46998 0.38975 0.37317 0.34116-1.1402-0.0468-1.4564-0.10963-1.6358-0.52655-1.5035-0.55979 0.17767-0.62736-0.22202-0.11011-0.65131 0.74725-0.62015 1.145-0.0618 1.3234 1.8578 0.0949 1.0215 0.10441 1.9676 0.0211 2.1024-0.21057 0.3407-0.74721 0.30625-1.1257-0.0723zm-9.3133-0.57985c0-0.23406-0.10675-0.42556-0.23722-0.42556s-0.24483-0.63787-0.25415-1.4175c-0.0151-1.2643 0.0548-1.4502 0.64655-1.7198 0.92779-0.42273 1.447-0.38386 1.2634 0.0946-0.0838 0.21828-0.26565 0.39687-0.40419 0.39687s-0.16486-0.14882-0.0585-0.33072c0.10636-0.18191-0.0481-0.11938-0.3433 0.13894-0.35878 0.31398-0.4956 0.68457-0.41276 1.118 0.10628 0.55595 0.19912 0.60803 0.65191 0.36571 0.37186-0.19902 0.61089-0.19965 0.80839-2e-3 0.19751 0.19751 0.14999 0.3221-0.16069 0.42139-0.24262 0.0775-0.61972 0.19676-0.838 0.26495-0.21828 0.0682-0.39687 0.30859-0.39687 0.53421 0 0.3127 0.17297 0.36945 0.7276 0.23873 0.40018-0.0943 0.84071-0.27519 0.97896-0.40192 0.13824-0.12673 0.36266-0.23042 0.4987-0.23042 0.4535 0-1.0457 1.0228-1.7631 1.2029-0.5465 0.13714-0.70673 0.0809-0.70673-0.2482zm2.3812-0.15268c0-0.14095 0.15225-0.19785 0.33832-0.12645 0.18608 0.0714 0.5581-0.0309 0.82672-0.2273 0.45721-0.33431 0.42714-0.39327-0.47061-0.92296-0.94513-0.55763-1.1144-0.92921-0.79841-1.7527 0.17448-0.4547 1.1623-0.58552 1.1623-0.15393 0 0.14552-0.14601 0.23482-0.32445 0.19844-0.17845-0.0364-0.35676 0.17198-0.39626 0.46302-0.052 0.38319 0.19223 0.65197 0.88534 0.97433l0.95714 0.44516-0.14732-0.90781c-0.19588-1.2071 0.36175-1.522 1.8054-1.0196 1.2961 0.45104 1.1889 0.45295 1.1889-0.0212 0-0.21828 0.17859-0.39687 0.39687-0.39687s0.39688 0.16401 0.39688 0.36448c0 0.20046-0.1786 0.51269-0.39688 0.69385s-0.39687 0.43386-0.39687 0.56156c0 0.12771 0.17859 0.23219 0.39687 0.23219 0.53969 0 0.50116 0.44433-0.0661 0.76281-0.44098 0.24756-0.44098 0.26843 0 0.43833 0.68157 0.2626 0.56318 0.65094-0.19844 0.65094-0.60547 0-0.66146-0.0987-0.66146-1.1657 0-1.145-0.0116-1.1603-0.65115-0.85989-0.35813 0.16821-0.68556 0.54396-0.72761 0.835-0.042 0.29104-0.25504 0.52917-0.47332 0.52917s-0.55421 0.14882-0.74651 0.33073c-0.41095 0.38874-1.8993 0.44708-1.8993 0.0744zm3.7042-2.5218c0-0.22049-0.23519-0.39688-0.52917-0.39688s-0.52916 0.17639-0.52916 0.39688c0 0.22048 0.23518 0.39687 0.52916 0.39687s0.52917-0.17639 0.52917-0.39687zm-27.787 1.4491c-0.41767-0.41766-0.64661-0.47562-1.0423-0.26386-0.27888 0.14925-0.57057 0.16858-0.6482 0.043-0.19579-0.31679 0.10515-0.56678 0.68231-0.56678 0.26678 0 0.48506-0.1786 0.48506-0.39688 0-0.5214-0.38456-0.50367-0.93115 0.0429-0.56295 0.56295-0.81988 0.18985-0.87723-1.2739-0.0322-0.82216 0.0447-1.0407 0.32791-0.93199 0.21956 0.0842 0.42432-0.0657 0.50359-0.36888 0.15442-0.59049 0.7123-0.69457 0.7123-0.13288 0 0.20789-0.17859 0.55657-0.39687 0.77485-0.53702 0.53702-0.50002 0.96384 0.0836 0.96384 0.28528 0 0.72294 0.43146 1.0774 1.0622 0.32833 0.58418 0.70744 0.99388 0.84247 0.91043 0.31289-0.19338 0.32309-1.4434 0.0118-1.4434-0.12854 0-0.30368-0.20836-0.38919-0.46302-0.0855-0.25466-0.30354-0.66567-0.48452-0.91336-0.50585-0.69228-0.0236-0.9001 0.64546-0.27815 0.48186 0.44792 0.82146 0.52621 1.7953 0.41389 1.5002-0.17303 2.0965 0.33855 1.6183 1.3882-0.16565 0.36358-0.48233 0.73056-0.70372 0.81552-0.51567 0.19788-1.1896-0.35721-1.1896-0.97985 0-0.26464-0.12665-0.55944-0.28146-0.65511-0.18997-0.11741-0.2251 0.12645-0.10807 0.75028 0.19322 1.0299-0.20768 2.0383-0.8104 2.0383-0.21316 0-0.62842-0.24085-0.9228-0.53523zm3.5538-2.1496c-0.1538-0.24884-1.1665-0.31475-1.1665-0.0759 0 0.0823 0.13474 0.40145 0.29941 0.70914 0.28685 0.53598 0.31425 0.53917 0.65298 0.0759 0.19447-0.26594 0.29083-0.58506 0.21415-0.70914zm30.041 1.8582c-0.32574-0.78638-0.36118-0.80246-0.72916-0.33073-0.37338 0.47868-0.37987 0.47753-0.18737-0.0333 0.10967-0.29104 0.20506-0.65938 0.21199-0.81853 7e-3 -0.15916 0.35126-0.41721 0.76519-0.57345 1.2445-0.46973 1.9814 0.73515 1.2666 2.0708-0.40235 0.7518-0.93803 0.62474-1.3272-0.3148zm1.0719-0.61185c0-0.19188-0.20089-0.51227-0.44642-0.71199-0.39297-0.31966-0.42464-0.30511-0.26458 0.12153 0.10001 0.26657 0.18183 0.66055 0.18183 0.87551 0 0.21497 0.11906 0.31727 0.26458 0.22733 0.14552-0.0899 0.26459-0.32051 0.26459-0.51238zm-44.979 0.24119c0-0.36017-0.0935-0.65485-0.20776-0.65485-0.11427 0-0.23517-0.65484-0.26866-1.4552l-0.0609-1.4552h0.93012c0.6779 0 0.93012 0.1153 0.93012 0.42519 0 0.26923-0.14557 0.36932-0.39688 0.27288-0.29785-0.11429-0.39687 0.0437-0.39687 0.63315 0 0.66143 0.10444 0.78545 0.66146 0.78545 0.37384 0 0.66145 0.15294 0.66145 0.35174 0 0.19345-0.25584 0.34228-0.56853 0.33073-0.3127-0.0116-0.62027 0.12782-0.68351 0.30972-0.0768 0.22077 0.17384 0.33073 0.75375 0.33073 1.0442 0 0.73294 0.39063-0.49389 0.61985-0.7818 0.14608-0.8599 0.10119-0.8599-0.49417zm5.1686-0.58004c-0.38337-1.5275-0.41294-2.4804-0.0752-2.4245 0.18182 0.0301 0.66809-0.0397 1.0806-0.15502 0.53044-0.14831 0.86246-0.0972 1.1342 0.17451 0.545 0.545 0.17573 1.27-0.74017 1.4532-0.6926 0.13852-0.7561 0.234-0.60702 0.91274 0.22303 1.0154-0.53791 1.053-0.79238 0.0391zm1.8316-1.644c0.0837-0.13546 0.0301-0.32174-0.11905-0.41395-0.34789-0.21501-1.3249 0.0899-1.3249 0.4135 0 0.32111 1.2455 0.3215 1.4439 5.3e-4zm-4.3503 1.6354c3e-3 -0.34055 0.0611-0.37317 0.2196-0.12333 0.29246 0.46091 1.1463 0.10176 1.044-0.43913-0.0509-0.26888-0.40236-0.46076-0.93903-0.51264-1.009-0.0975-1.1555-0.75625-0.33353-1.5001 0.42899-0.38823 0.59719-0.41382 0.92604-0.1409 0.51079 0.42391 0.52201 0.82737 0.0176 0.63383-0.21131-0.0811-0.52674-0.0593-0.70096 0.0483-0.20076 0.12408 3e-3 0.30222 0.55727 0.48647 1.1146 0.37072 1.5517 1.0176 1.0755 1.5914-0.49097 0.59158-1.8717 0.55906-1.8664-0.044z" stroke-width=".26458"/>
 </g>
</svg>
