<svg width="537" height="291" viewBox="0 0 537 291" fill="none" xmlns="http://www.w3.org/2000/svg">
<g clip-path="url(#clip0)">
<path d="M87.6923 277.684L87.4161 272.744L65.7762 272.848C53.3343 272.907 45.7018 272.669 47.8196 272.286C49.8455 271.92 59.5638 271.57 69.416 271.507C79.2682 271.445 87.4631 271.268 87.6274 271.115C88.118 270.658 87.9784 231.479 87.4815 230.154C87.2294 229.482 86.8073 221.975 86.5435 213.47C86.2798 204.965 85.8195 196.074 85.5207 193.712C85.222 191.35 85.3686 188.45 85.8467 187.269C87.2264 183.859 88.0436 198.19 89.3859 249.335L89.9664 271.455L98.8205 271.504C103.69 271.53 109.332 271.883 111.358 272.286C114.091 272.829 112.073 273.01 103.53 272.986C97.1997 272.97 91.502 273.002 90.8689 273.063C90.1018 273.136 89.7178 274.749 89.7178 277.898C89.7178 284.165 88.0447 283.988 87.6923 277.684ZM160.286 279.322C159.279 277.867 159.351 273.957 160.567 264.081C161.095 259.79 161.522 250.898 161.516 244.324C161.509 237.749 161.919 225.604 162.427 217.336C162.935 209.068 163.359 198.92 163.368 194.786C163.378 190.652 163.731 187.269 164.152 187.269C164.934 187.269 164.812 201 163.865 219.484C163.575 225.153 163.149 236.75 162.919 245.255C162.689 253.76 162.239 263.875 161.92 267.733C161.35 274.613 161.381 274.755 163.514 275.132C165.563 275.495 165.573 275.524 163.677 275.634C162.207 275.72 161.588 276.386 161.375 278.113C161.166 279.811 160.859 280.151 160.286 279.322ZM199.753 276.611C199.44 276.138 199.854 275.752 200.674 275.752C201.493 275.752 201.908 276.138 201.595 276.611C201.282 277.083 200.867 277.47 200.674 277.47C200.48 277.47 200.066 277.083 199.753 276.611ZM203.897 276.611C203.897 276.138 204.336 275.752 204.872 275.752C205.408 275.752 205.591 276.138 205.278 276.611C204.965 277.083 204.526 277.47 204.303 277.47C204.08 277.47 203.897 277.083 203.897 276.611ZM206.659 276.496C206.659 276.087 208.963 275.752 211.778 275.752C214.594 275.752 216.675 276.087 216.404 276.496C216.133 276.906 213.829 277.241 211.285 277.241C208.741 277.241 206.659 276.906 206.659 276.496ZM178.343 276.018C179.23 275.802 180.68 275.802 181.566 276.018C182.453 276.235 181.728 276.411 179.955 276.411C178.182 276.411 177.457 276.235 178.343 276.018ZM184.386 276.025C185.051 275.777 185.845 275.807 186.151 276.093C186.457 276.378 185.914 276.581 184.943 276.544C183.87 276.503 183.652 276.299 184.386 276.025ZM191.248 275.996C192.648 275.798 194.72 275.803 195.852 276.009C196.985 276.213 195.84 276.374 193.307 276.368C190.775 276.361 189.848 276.193 191.248 275.996ZM13.2495 274.127C13.2495 272.956 15.7322 272.317 20.2854 272.317C23.3386 272.317 24.2287 272.038 23.7167 271.243C23.1797 270.409 23.3226 270.394 24.3567 271.173C25.089 271.725 27.1369 272.34 28.9076 272.539C30.6782 272.738 28.5255 272.963 24.1238 273.039C19.7222 273.114 15.8646 273.563 15.5517 274.035C14.8453 275.101 13.2495 275.165 13.2495 274.127ZM146.099 274.299C146.995 274.081 148.238 274.095 148.861 274.331C149.485 274.567 148.752 274.745 147.232 274.727C145.713 274.711 145.203 274.516 146.099 274.299ZM135.952 273.443C136.838 273.227 138.288 273.227 139.175 273.443C140.061 273.659 139.336 273.836 137.563 273.836C135.79 273.836 135.065 273.659 135.952 273.443ZM37.8603 272.57C38.9999 272.365 40.8646 272.365 42.0041 272.57C43.1435 272.775 42.2112 272.942 39.9322 272.942C37.6531 272.942 36.7208 272.774 37.8603 272.57ZM117.954 272.557C119.589 272.367 122.489 272.364 124.4 272.55C126.311 272.736 124.973 272.891 121.428 272.895C117.883 272.898 116.319 272.746 117.954 272.557ZM130.553 267.805C128.389 263.34 126.424 263.141 123.552 267.095C121.256 270.257 119.115 271.458 119.115 269.584C119.115 268.947 120.565 266.418 122.338 263.962C124.513 260.949 125.561 258.509 125.561 256.457C125.561 253.573 125.4 253.416 122.436 253.416C120.508 253.416 119.109 252.923 118.782 252.128C118.366 251.116 119.036 250.839 121.906 250.839C125.556 250.839 125.561 250.836 125.561 247.403C125.561 245.072 125.156 243.967 124.304 243.967C122.07 243.967 118.194 240.469 118.194 238.454C118.194 236.032 120.883 233.659 123.627 233.659C124.763 233.659 126.277 233.113 126.991 232.446C127.706 231.78 129.137 231.441 130.171 231.693C132.753 232.323 135.708 236.025 135.041 237.794C134.235 239.93 130.948 243.108 129.544 243.108C128.732 243.108 128.323 244.267 128.323 246.566C128.323 249.463 128.696 250.155 130.625 250.84C133.491 251.856 133.659 253.62 130.856 253.256C128.913 253.004 128.802 253.255 129.079 257.282C129.251 259.787 130.042 262.294 130.975 263.296C132.634 265.076 134.769 269.208 134.769 270.638C134.769 272.824 132.123 271.046 130.553 267.805ZM131.011 239.552C133.462 237.423 133.439 235.808 130.936 234.172C128.463 232.556 127.083 233.214 128.342 235.409C129.107 236.742 129.018 236.959 127.873 236.549C127.095 236.271 125.764 236.569 124.916 237.213C123.564 238.239 123.452 238.191 124.004 236.817C124.481 235.631 124.244 235.321 123.025 235.538C121.118 235.877 120.303 239.623 121.932 240.562C124.066 241.792 129.075 241.236 131.011 239.552ZM225.016 268.02C225.016 266.603 225.43 265.443 225.937 265.443C226.443 265.443 226.857 266.603 226.857 268.02C226.857 269.438 226.443 270.597 225.937 270.597C225.43 270.597 225.016 269.438 225.016 268.02ZM48.9416 262.27C48.3305 260.944 47.7246 259.715 47.5954 259.538C47.4661 259.361 46.0678 260.231 44.4882 261.471C42.9086 262.711 41.0263 263.725 40.3055 263.725C38.575 263.725 38.6233 260.787 40.3761 259.43C42.6545 257.666 42.0769 255.284 39.2961 254.977C37.9424 254.827 36.6501 254.181 36.4245 253.541C36.1113 252.652 36.6863 252.514 38.8517 252.958C41.3942 253.479 41.7549 253.295 42.3194 251.197C42.6845 249.84 42.5027 248.279 41.8871 247.485C39.9061 244.929 39.6342 243.771 40.4855 241.512C41.8019 238.02 48.0487 237.91 50.0186 241.344C51.2155 243.43 49.7961 247.225 47.5265 248.007C43.5363 249.381 43.5269 252.549 47.5126 252.585L50.5054 252.611L47.9731 254.373C45.0227 256.427 44.5263 258.228 47.2911 256.847C49.2205 255.884 49.5098 256.232 51.3409 261.719C52.284 264.545 50.2101 265.022 48.9416 262.27ZM47.2727 245.266C48.6288 243.742 47.8739 241.39 46.0286 241.39C44.6865 241.39 43.5991 243.151 43.5991 245.326C43.5991 246.924 45.8305 246.888 47.2727 245.266ZM23.8499 252.381C22.3988 233.817 21.7432 218.053 22.1835 212.312L22.6546 206.17L17.6965 206.095C14.9695 206.053 10.6665 205.699 8.13417 205.307C4.38234 204.726 5.30175 204.62 13.1014 204.738L22.6727 204.881L23.0409 172.701C23.2434 155.002 23.6518 140.312 23.9485 140.058C24.2452 139.803 24.3103 151.192 24.0933 165.366C23.6226 196.104 24.0955 205.691 26.0907 205.857C26.8504 205.92 34.5164 206.055 43.1264 206.157C52.5011 206.268 57.8574 206.616 56.4789 207.026C54.2426 207.691 26.2929 207.248 25.0442 206.528C23.5566 205.67 23.1535 223.994 24.2825 241.145C24.9443 251.198 25.2582 259.635 24.98 259.895C24.7019 260.154 24.1935 256.773 23.8502 252.382L23.8499 252.381ZM226.651 234.947C226.89 224.08 227.253 215.013 227.457 214.797C228.007 214.217 227.452 242.634 226.788 249.122C226.473 252.193 226.411 245.814 226.651 234.947ZM199.466 248.084C198.946 247.473 197.787 245.503 196.89 243.706L195.26 240.438L192.635 242.784C189.351 245.719 188.454 244.979 189.886 240.518C191.136 236.626 190.701 235.376 188.095 235.376C187.067 235.376 186.308 234.789 186.308 233.996C186.308 233.135 186.817 232.797 187.66 233.099C189.934 233.913 190.211 232.064 188.208 229.439C185.927 226.452 185.762 223.122 187.798 221.222C189.089 220.018 189.491 219.994 190.791 221.046C191.617 221.713 193.433 222.512 194.826 222.821C196.768 223.251 197.358 223.892 197.358 225.57C197.358 228.436 195.796 231.081 194.103 231.081C193.361 231.081 192.754 231.468 192.754 231.94C192.754 232.412 193.997 232.799 195.516 232.799C197.036 232.799 198.279 233.186 198.279 233.658C198.279 234.131 197.243 234.517 195.977 234.517C194.159 234.517 193.675 234.952 193.675 236.584C193.675 238.126 194.084 238.554 195.286 238.269C197.302 237.79 202.801 246.964 201.324 248.342C200.72 248.905 200.09 248.817 199.466 248.084ZM194.606 227.627C195.914 225.347 194.899 223.954 192.27 224.423C190.778 224.689 190.299 224.461 190.634 223.645C190.895 223.01 190.695 222.491 190.188 222.491C187.616 222.491 188.406 227.766 191.132 228.791C193.153 229.55 193.586 229.405 194.606 227.627ZM92.4127 241.39C92.4127 240.917 92.8516 240.531 93.3879 240.531C93.9243 240.531 94.107 240.917 93.794 241.39C93.481 241.862 93.0422 242.249 92.8188 242.249C92.5955 242.249 92.4127 241.862 92.4127 241.39ZM124.581 218.825C122.375 217.201 121.687 214.773 123.272 214.205C124.269 213.848 124.638 212.326 124.638 208.573C124.638 204.106 124.389 203.37 122.744 202.969C121.407 202.642 121.045 202.098 121.512 201.116C121.876 200.352 122.357 198.274 122.582 196.499C123.363 190.335 126.332 191.991 128.313 199.695C129.324 203.624 129.342 204.721 128.408 205.26C126.804 206.184 127.524 214.625 129.294 215.655C130.317 216.25 130.388 216.781 129.604 217.956C128.326 219.871 126.444 220.197 124.581 218.825ZM485.06 213.256C486.003 210.339 486.421 206.942 486.96 197.798C487.26 192.716 487.717 185.714 487.976 182.238L488.447 175.919L463.613 176.239C449.955 176.415 438.492 176.826 438.142 177.153C437.791 177.48 437.536 181.232 437.575 185.49C437.614 189.748 437.295 193.434 436.866 193.682C435.433 194.508 435.025 191.631 435.533 184.264L436.036 176.961H419.317V187.269C419.317 193.569 418.959 197.578 418.396 197.578C417.834 197.578 417.476 193.569 417.476 187.269V176.961L414.943 176.974C409.974 177 409.761 177.561 410.415 188.908C410.745 194.621 410.662 199.296 410.232 199.296C409.299 199.296 408.267 190.887 408.267 183.278V177.82H400.034C395.506 177.82 391.612 178.11 391.381 178.464C391.151 178.818 391.314 185.293 391.743 192.851C392.461 205.489 392.04 209.638 390.306 207.02C389.936 206.461 389.702 201.978 389.786 197.056C389.87 192.135 389.663 185.828 389.325 183.042C388.711 177.979 388.708 177.975 385.827 178.258C375.858 179.24 362.827 179.513 364.207 178.712C365.044 178.226 368.873 177.729 372.716 177.609C376.558 177.489 379.707 177.053 379.712 176.641C379.715 176.228 380.239 176.271 380.872 176.736C381.505 177.2 383.602 177.396 385.531 177.171L389.04 176.761L388.859 168.914C388.759 164.599 388.98 151.679 389.35 140.204L390.023 119.34L383.721 119.84C380.255 120.116 375.657 120.496 373.505 120.686C371.353 120.875 369.591 120.725 369.591 120.352C369.591 119.979 374.253 119.323 379.951 118.895L390.311 118.116L390.619 112.228L390.926 106.34L380.029 106.96C369.464 107.562 365.095 108.223 371.51 108.25C373.559 108.26 374.232 108.514 373.44 108.983C372.181 109.727 365.394 108.902 364.287 107.87C362.942 106.615 366.459 105.867 374.524 105.694C379.155 105.595 383.98 105.403 385.246 105.267C386.512 105.131 388.17 104.971 388.93 104.91C390.077 104.82 390.285 103.199 390.157 95.3448C390.073 90.1441 390.34 86.0826 390.752 86.3196C391.163 86.5566 391.745 86.1521 392.046 85.4205C392.53 84.2437 391.134 84.1522 379.942 84.6277C372.983 84.9231 365.738 85.2973 363.842 85.459C361.945 85.6207 360.191 85.446 359.943 85.0728C359.146 83.8696 364.902 83.3244 378.401 83.3244C386.757 83.3244 391.806 82.9884 392.191 82.4068C392.526 81.9021 393.379 81.6967 394.087 81.9503C394.796 82.2039 395.376 82.0776 395.376 81.6698C395.376 81.2619 396.722 81.2108 398.368 81.5565C401.387 82.1901 420.771 81.8662 424.612 81.1181C426.24 80.8009 426.687 80.1197 426.698 77.939C426.705 76.4125 427.098 74.5945 427.57 73.8991C428.847 72.0152 429.821 74.8923 429.097 78.4114C428.692 80.382 428.789 80.8065 429.434 79.8883C430.039 79.0269 430.344 78.9556 430.354 79.6737C430.361 80.2643 430.932 80.7475 431.621 80.7475C432.373 80.7475 433.7 78.2561 434.938 74.5195C438.312 64.3395 448.374 47.8358 451.87 46.7462C454.171 46.0293 456.198 47.8763 454.302 48.9621C447.185 53.0378 440.573 63.1576 436.482 76.2376L435.071 80.7477H437.606C439.515 80.7477 440.388 80.1644 441.142 78.3854L442.143 76.023L442.241 78.3367L442.338 80.6503L474.785 80.4844C506.436 80.3224 507.24 80.2763 507.565 78.6003C508.119 75.7378 509.503 75.1119 509.293 77.8184C509.138 79.8262 509.436 80.2647 510.806 80.0457C511.745 79.8956 513.195 80.0586 514.029 80.4074C515.145 80.8744 514.695 81.1732 512.323 81.5392L509.1 82.0365L509.436 93.2041C509.622 99.3464 509.894 104.497 510.042 104.651C510.191 104.804 514.294 105.151 519.162 105.422C524.029 105.693 527.81 106.102 527.564 106.332C527.318 106.561 523.117 106.674 518.228 106.582L509.339 106.415L509.721 112.018C509.931 115.1 510.292 117.789 510.523 117.994C510.753 118.2 514.671 118.631 519.229 118.954C523.787 119.276 527.931 119.92 528.437 120.384C529.34 121.212 528.728 121.186 515.315 119.834L510.481 119.346L510.35 123.456C510.278 125.717 510.115 128.919 509.988 130.573C509.86 132.226 509.489 138.863 509.161 145.322C508.612 156.15 508.694 157.095 510.214 157.463C511.647 157.811 511.66 157.876 510.312 157.962C508.376 158.087 508.004 159.32 507.224 168.196L506.598 175.323L523.273 175.046C532.444 174.894 539.947 175.069 539.947 175.436C539.947 175.802 532.543 176.102 523.493 176.102H507.038L506.467 179.323C506.153 181.095 505.885 185.057 505.87 188.128C505.833 196.127 504.201 209.513 503.059 211.186C502.305 212.291 502.191 211.936 502.552 209.604C502.809 207.951 503.264 202.152 503.565 196.719C503.865 191.285 504.316 184.424 504.567 181.47L505.023 176.102H497.73C489.171 176.102 489.646 175.463 489.379 187.326C489.168 196.714 487.808 211.194 486.939 213.306C486.147 215.231 484.435 215.186 485.06 213.256ZM406.195 176.421C408.138 175.935 408.266 175.448 408.266 168.577V161.251L402.051 161.799C398.632 162.1 394.695 162.349 393.303 162.353L390.77 162.359V176.963L397.446 176.95C401.118 176.943 405.055 176.706 406.195 176.421ZM418.229 168.587L418.527 161.5H410.108V176.202L417.931 175.674L418.229 168.587ZM436.13 173.893C436.339 172.873 436.604 169.343 436.718 166.049L436.926 160.06L429.272 160.456C425.063 160.674 421.411 161.029 421.158 161.245C420.905 161.462 420.49 164.903 420.237 168.893L419.777 176.147L427.763 175.947C435.131 175.762 435.78 175.603 436.13 173.893ZM488.687 172.453C488.969 170.917 489.483 167.005 489.83 163.758L490.46 157.855L473.075 158.527C463.513 158.897 454.653 159.28 453.387 159.38C452.121 159.479 448.514 159.61 445.372 159.671C438.894 159.797 439.145 159.415 438.386 170.305L438.042 175.245H488.173L488.687 172.453ZM505.29 171.259C505.612 169.067 505.876 165.201 505.876 162.669V158.064H492.195L491.636 163.003C491.328 165.72 490.859 169.586 490.592 171.594L490.108 175.245H504.704L505.29 171.259ZM408.08 160.217C408.503 159.859 409.974 145.421 410.224 139.173L410.446 133.597L406.823 133.84C404.831 133.974 401.027 134.514 398.371 135.041L393.541 136L393.938 139.784C394.452 144.674 393.482 155.487 392.53 155.487C392.126 155.487 391.637 153.844 391.443 151.836C391.234 149.67 391.025 150.931 390.93 154.934L390.769 161.682L399.287 161.066C403.972 160.727 407.928 160.345 408.08 160.217ZM417.136 159.846C418.851 159.79 419.186 159.098 419.764 154.413C420.129 151.46 420.577 148.271 420.76 147.326C420.943 146.381 421.371 142.805 421.712 139.38L422.332 133.152H418.038C412.524 133.152 412.252 133.801 411.408 148.979L410.758 160.669L412.965 160.289C414.179 160.08 416.056 159.881 417.136 159.846ZM437.377 158.605C437.434 158.543 437.759 152.791 438.098 145.822L438.715 133.152H423.92V136.588C423.92 138.478 423.846 140.314 423.756 140.668C423.043 143.46 421.191 155.545 421.176 157.497L421.159 159.936L429.216 159.326C433.648 158.99 437.319 158.666 437.377 158.605ZM469.502 157.608C470.515 157.456 475.542 157.304 480.674 157.269L490.005 157.205L490.555 150.977C490.857 147.551 491.368 138.899 491.69 131.749L492.274 118.75L441.343 118.583L441.414 126.082C441.453 130.206 441.065 135.127 440.551 137.017C440.038 138.907 439.608 144.618 439.596 149.708L439.575 158.963L453.618 158.423C461.342 158.126 468.489 157.759 469.502 157.608ZM465.584 138.95C465.792 138.359 466.966 137.749 468.193 137.594C470.377 137.317 470.385 137.339 468.581 138.64C466.334 140.262 465.075 140.392 465.584 138.95ZM475.05 139.2C474.72 138.702 475.115 138.055 475.929 137.764C477.955 137.039 478.585 137.836 476.973 139.084C476.065 139.787 475.463 139.823 475.05 139.2ZM454.825 138.391C454.155 137.379 455.032 136.964 459.142 136.347C460.535 136.138 461.675 136.3 461.675 136.707C461.675 137.385 461.113 137.54 457.761 137.79C457.128 137.837 456.351 138.207 456.034 138.612C455.718 139.017 455.174 138.918 454.825 138.391ZM507.163 147.111C507.494 141.559 507.972 133.055 508.225 128.212L508.685 119.407H493.905L493.78 125.205C493.711 128.394 493.539 132.55 493.397 134.44C493.255 136.33 492.895 142.225 492.598 147.54L492.056 157.205H506.561L507.163 147.111ZM392.328 141.973C392.095 141.137 391.888 141.613 391.869 143.03C391.852 144.448 392.042 145.132 392.294 144.55C392.546 143.968 392.561 142.809 392.328 141.973ZM409.416 130.627C410.792 130.582 411.028 129.695 411.028 124.561V118.548L404.812 118.561C394.478 118.58 394.453 118.598 394.453 125.769V131.93L401.129 131.306C404.8 130.963 408.53 130.658 409.416 130.629L409.416 130.627ZM434.665 129.534C435.368 129.03 436.064 129.298 436.668 130.305C438.159 132.79 438.467 131.421 437.975 124.502L437.512 118L431.876 118.059C426.378 118.117 426.226 118.181 425.649 120.695C425.324 122.113 425.009 124.891 424.949 126.869C424.845 130.32 424.963 130.477 427.833 130.752C431.104 131.064 433.008 130.725 434.665 129.534ZM423.009 127.782C423.016 126.247 423.276 123.541 423.59 121.769L424.161 118.547H412.87V130.574H422.999L423.009 127.782ZM508.522 112.919C508.47 106.63 508.268 106.425 502.043 106.345C493.737 106.238 494.188 105.917 494.006 112.059L493.843 117.597L498.693 117.858C501.361 118.001 504.674 118.22 506.056 118.344C508.565 118.57 508.568 118.564 508.522 112.919ZM411.301 112.893C412.049 106.131 411.656 105.561 406.55 106.006C404.201 106.211 400.519 106.411 398.367 106.45L394.453 106.522V117.69H410.771L411.301 112.893ZM492.407 115.006C493.444 110.17 493.099 106.525 491.602 106.494C480.651 106.267 443.099 106.51 442.577 106.813C442.191 107.036 441.749 109.364 441.594 111.988L441.314 116.757L448.501 117.051C452.454 117.212 463.821 117.422 473.76 117.517L491.831 117.69L492.407 115.006ZM424.248 113.608C424.562 111.836 424.823 109.305 424.829 107.983L424.839 105.58L413.329 106.092L413.054 111.461L412.78 116.829H423.677L424.248 113.608ZM438.646 111.031C438.639 105.72 438.539 105.413 437.428 107.38C433.66 114.056 431.545 115.014 428.898 111.246C426.766 108.209 426.186 108.55 425.98 112.964L425.8 116.829H438.652L438.646 111.031ZM434.071 108.613C435.302 105.59 435.359 105.662 431.746 105.662C428.204 105.662 427.667 106.793 430.047 109.245C432.104 111.366 433.006 111.224 434.071 108.613ZM411.477 100.722C411.231 98.4781 410.924 94.0356 410.797 90.8501C410.556 84.8105 409.96 84.1371 406.422 85.904C405.431 86.3985 403.796 86.4653 402.569 86.0615C401.396 85.6754 399.194 85.5823 397.674 85.8546L394.912 86.3496L394.769 95.5763L394.626 104.803H411.926L411.477 100.722ZM423.918 103.686C423.918 103.072 423.428 102.112 422.829 101.553C421.292 100.12 422.655 99.1726 424.357 100.49C425.587 101.443 425.76 100.945 425.76 96.4373C425.76 93.6106 426.022 89.5175 426.341 87.3415L426.923 83.385L421.046 83.8381C414.448 84.347 412.331 84.8298 413.189 85.6302C413.51 85.9299 413.39 86.606 412.921 87.1324C412.445 87.6684 412.305 91.7672 412.604 96.4461L413.139 104.803H418.529C422.337 104.803 423.918 104.475 423.918 103.686ZM430.825 97.7165C430.825 93.8181 431.124 89.0823 431.489 87.1924C431.934 84.8947 431.862 84.1831 431.273 85.0448C430.688 85.9015 430.388 85.9735 430.378 85.2594C430.371 84.6688 429.996 84.1856 429.546 84.1856C428.529 84.1856 427.884 87.6168 427.085 97.2861C426.465 104.783 426.469 104.803 428.644 104.803C430.762 104.804 430.825 104.599 430.825 97.7165ZM435.889 104.005C435.889 103.566 436.452 102.683 437.14 102.041C438.094 101.151 438.283 98.7949 437.938 92.1005C437.546 84.5076 437.27 83.3267 435.887 83.3267C434.755 83.3267 434.122 84.2676 433.718 86.5481C432.982 90.6998 432.961 101.683 433.687 103.444C434.289 104.908 435.889 105.316 435.889 104.005ZM492.981 98.0587C492.981 91.1674 494.263 85.904 495.941 85.904C496.492 85.904 496.612 86.702 496.232 87.8369C495.054 91.3532 494.013 97.4474 493.957 101.152L493.902 104.803H508.294L507.952 94.709C507.764 89.1573 507.531 84.072 507.433 83.4077C507.285 82.4079 502.264 82.1396 478.248 81.8487C462.294 81.6555 447.584 81.8292 445.558 82.2322C441.108 83.1199 440.966 83.6492 441.868 95.9976L442.512 104.803H492.981L492.981 98.0587ZM227.951 210.251L227.785 206.171L215.124 206.086C187.687 205.901 168.665 205.423 168.108 204.904C167.376 204.222 169.766 202.761 171.614 202.761C172.842 202.761 172.842 202.854 171.614 203.594C170.693 204.149 175.759 204.437 186.808 204.459C195.924 204.475 208.874 204.729 215.584 205.021C222.508 205.322 227.808 205.221 227.838 204.787C228.676 192.637 229.987 187.702 229.477 198.619L229.167 205.241L233.771 205.547L238.375 205.853L228.807 206.171L228.462 210.251L228.118 214.332L227.951 210.251ZM60.4276 206.438C61.314 206.222 62.7643 206.222 63.6506 206.438C64.5369 206.654 63.8117 206.831 62.0391 206.831C60.2665 206.831 59.5413 206.654 60.4276 206.438ZM53.8132 180.185C52.897 178.177 51.8536 175.761 51.4945 174.816C50.7665 172.9 50.81 172.867 45.7905 179.206C43.7622 181.768 41.5455 181.461 43.2687 178.857C49.5769 169.323 49.5737 168.528 43.2209 167.06C38.1351 165.885 37.9482 164.245 42.8626 163.915L46.8344 163.648L47.3124 158.633C47.7328 154.222 47.5662 153.507 45.9311 152.703C41.2166 150.386 38.6672 145.691 40.6326 142.945C41.6499 141.524 45.0781 140.024 47.3107 140.024C49.9787 140.024 49.1598 141.935 46.3251 142.324C44.3219 142.599 41.7345 144.689 41.7898 145.987C41.8719 147.913 45.5709 150.511 48.808 150.916C52.447 151.372 58.3445 149.489 58.3445 147.872C58.3445 145.99 50.6908 144.386 49.5966 146.038C49.2836 146.51 48.5733 146.897 48.0183 146.897C47.4632 146.897 47.759 146.124 48.6757 145.179C50.8814 142.905 58.0379 142.767 59.8254 144.964C60.4983 145.791 61.0591 147.047 61.0717 147.756C61.101 149.395 55.6288 152.91 53.0474 152.91C50.2994 152.91 49.8043 154.085 50.5163 158.914C51.0987 162.865 51.3141 163.137 54.0499 163.385C56.2091 163.58 56.9635 164.075 56.9635 165.295C56.9635 166.2 56.4452 167.102 55.8118 167.299C55.078 167.528 54.8646 167.16 55.2237 166.287C55.6555 165.238 55.3866 165.051 54.0733 165.489C51.2303 166.437 50.9188 166.73 51.6269 167.788C52.0004 168.346 52.4204 169.488 52.5603 170.326C52.7002 171.163 54.0732 174.175 55.6114 177.017C58.2581 181.908 58.4801 183.836 56.3969 183.836C55.8919 183.836 54.7294 182.193 53.8132 180.185ZM134.617 182.059C133.77 181.613 132.163 179.868 131.045 178.18L129.013 175.113L125.621 178.203C121.298 182.141 120.163 181.213 123.745 176.669C125.254 174.755 126.488 172.105 126.488 170.781C126.488 168.616 126.173 168.373 123.364 168.373C121.436 168.373 120.036 167.879 119.709 167.084C119.294 166.074 119.957 165.796 122.778 165.796C126.272 165.796 126.385 165.702 126.663 162.574C126.907 159.822 126.446 158.884 123.495 156.132C120.842 153.657 120.042 152.227 120.042 149.953C120.042 144.668 127.342 142.214 130.813 146.331C131.746 147.437 133.433 148.804 134.563 149.368C137.391 150.78 137.215 154.065 134.191 156.284C132.857 157.263 131.252 158.064 130.624 158.064C129.899 158.064 129.454 159.472 129.401 161.93C129.321 165.635 129.428 165.796 131.971 165.796C138.177 165.796 139.587 168.136 133.625 168.538C130.148 168.773 129.737 169.025 129.941 170.793C130.173 172.797 133.947 178.189 136.515 180.188C138.343 181.61 136.748 183.181 134.617 182.059ZM132.978 154.767C135.44 152.907 134.904 151.701 131.058 150.451C128.675 149.676 127.977 149.802 126.369 151.303C124.637 152.919 124.506 152.934 124.798 151.485C124.974 150.615 126.047 149.522 127.184 149.055C130.252 147.796 129.689 146.815 126.03 147.045C122.323 147.278 121.17 149.185 122.891 152.233C124.337 154.793 125.655 155.556 127.639 154.98C128.525 154.723 129.25 154.925 129.25 155.429C129.25 156.789 130.625 156.545 132.978 154.767ZM211.464 181.416C210.846 181.055 209.695 179.054 208.907 176.971C208.12 174.888 206.77 172.457 205.909 171.569C204.393 170.007 204.232 170.075 200.896 173.674C198.698 176.046 197.439 176.888 197.422 175.998C197.391 174.435 201.846 166.544 203.266 165.647C204.858 164.641 201.957 162.365 199.362 162.584C195.689 162.894 195.903 161.173 199.64 160.341C202.465 159.713 202.919 159.267 202.919 157.12C202.919 155.75 202.521 154.628 202.034 154.628C200.403 154.628 197.394 150.889 197.394 148.861C197.394 146.491 200.345 145.179 205.676 145.179C212.247 145.179 214.147 149.603 209.366 153.769C205.849 156.834 205.868 158.517 209.435 159.676C212.711 160.742 212.201 162.625 208.849 161.84C206.992 161.406 206.603 161.633 206.603 163.153C206.603 164.164 205.981 165.213 205.222 165.485C203.198 166.21 203.537 167.841 205.912 168.814C208.382 169.824 213.298 177.987 212.882 180.385C212.693 181.47 212.186 181.838 211.464 181.416ZM209.006 150.69C209.396 149.24 209.128 148.025 208.234 147.191C207.021 146.06 206.479 146.063 203.51 147.22C198.336 149.237 199.549 152.91 205.388 152.91C207.869 152.91 208.516 152.513 209.006 150.69ZM228.848 176.963C228.848 175.782 229.057 175.299 229.313 175.889C229.568 176.48 229.568 177.446 229.313 178.037C229.057 178.628 228.848 178.144 228.848 176.963ZM97.0121 167.088C98.1997 165.908 98.9404 164.728 98.658 164.464C98.3757 164.201 93.8503 164.27 88.6019 164.617C83.2887 164.969 80.0492 165.476 81.2928 165.761C84.9471 166.598 84.4058 167.948 80.4451 167.876C76.3219 167.801 76.2958 167.787 75.4664 165.265C75.015 163.892 75.4674 163.078 77.3096 161.953C79.1544 160.825 79.9202 160.715 80.4429 161.504C81.1067 162.506 95.824 162.898 96.8501 161.941C97.0854 161.722 96.7455 160.943 96.0947 160.212C94.3639 158.266 95.6989 157.61 98.1379 159.207C104.547 163.405 104.707 163.963 100.382 167.04C96.3571 169.904 94.1446 169.935 97.0121 167.088ZM152.736 167.526C151.946 166.333 156.773 158.923 158.341 158.923C159.052 158.923 159.634 159.467 159.634 160.131C159.634 161.072 161.416 161.352 167.692 161.401L175.749 161.463L173.461 159.822C170.66 157.815 171.49 156.741 175.001 157.829C178.324 158.859 180.829 162.689 179.183 164.224C178.281 165.066 177.167 165.072 173.889 164.253C168.55 162.921 159.402 162.918 157.977 164.247C156.489 165.635 156.583 166.652 158.199 166.652C158.929 166.652 159.782 167.039 160.095 167.511C160.438 168.029 159.202 168.37 156.981 168.37C154.955 168.37 153.045 167.989 152.736 167.523L152.736 167.526ZM379.218 163.162C378.917 162.708 380.575 162.36 383.038 162.36C388.053 162.36 388.107 162.762 383.186 163.47C381.296 163.742 379.51 163.603 379.218 163.162ZM312.147 158.237C311.301 156.959 312.194 155.487 313.816 155.487C314.484 155.487 315.597 154.85 316.289 154.072C317.445 152.773 316.96 152.692 310.387 153.086C306.448 153.322 303.03 153.22 302.791 152.859C302.292 152.106 307.093 151.311 314.105 150.986C322.329 150.605 319.569 149.047 310.146 148.751C304.399 148.571 300.905 148.822 300.061 149.475C298.737 150.5 294.998 149.905 294.998 148.669C294.998 147.662 300.863 146.922 309.271 146.868L316.638 146.821L313.184 145.12C309.589 143.35 308.532 140.883 311.368 140.883C312.269 140.883 313.681 141.56 314.507 142.387C315.332 143.214 317.082 144.585 318.394 145.433C319.943 146.435 320.781 147.774 320.781 149.246C320.781 152.096 317.144 157.191 315.103 157.199C314.259 157.202 313.402 157.669 313.199 158.237C312.913 159.039 312.679 159.039 312.147 158.237ZM86.3413 139.81C86.6795 134.967 87.8425 121.727 88.9257 110.387C90.4814 94.1027 90.9166 82.8734 90.9969 56.9517C91.0528 38.9012 91.3829 23.8669 91.7305 23.5423C92.4128 22.9057 92.7564 41.3262 92.5492 67.4355C92.4394 81.271 91.7187 92.0712 89.1958 117.689C88.9864 119.815 88.5245 127.644 88.1693 135.085C87.7965 142.897 87.1439 148.615 86.625 148.615C86.0592 148.615 85.9541 145.354 86.3413 139.81ZM166.076 142.315C166.076 140.583 166.483 139.165 166.979 139.165C167.476 139.165 167.736 140.341 167.556 141.777C167.078 145.607 166.076 145.971 166.076 142.315ZM230.857 138.894C231.084 137.092 231.52 135.384 231.824 135.1C232.788 134.201 232.393 139.536 231.396 140.883C230.687 141.841 230.549 141.33 230.857 138.894ZM23.0056 138.491C22.2008 137.276 23.2096 127.88 24.256 126.845C24.6581 126.447 24.7904 128.766 24.55 131.999C24.0181 139.152 23.8663 139.79 23.0056 138.491ZM158.597 129.405C157.832 127.838 157.942 126.771 159.085 124.71C159.906 123.229 161.08 122.229 161.727 122.46C162.953 122.899 193.656 93.6731 199.531 86.4763C203.273 81.8905 231.655 54.0198 232.13 54.4636C232.474 54.7841 224.418 63.0783 212.88 74.2839C208.487 78.5492 202.893 84.3568 200.448 87.1893C198.003 90.0219 195.381 92.9559 194.621 93.7095C193.861 94.463 187.802 100.457 181.156 107.029C162.98 125.002 162.291 125.709 161.354 127.343C160.333 129.123 160.83 129.245 163.283 127.816C166.015 126.224 166.82 127.892 164.219 129.756C161.179 131.935 159.791 131.849 158.597 129.405ZM124.933 128.642C121.674 125.265 121.326 124.228 123.643 124.793C125.22 125.178 125.577 124.992 125.168 123.999C124.875 123.286 124.635 120.802 124.635 118.478C124.635 114.544 124.477 114.253 122.333 114.253C119.869 114.253 119.194 112.781 121.31 112.023C122.013 111.771 123.29 109.851 124.148 107.755C125.006 105.659 126.056 103.944 126.482 103.944C127.361 103.944 128.798 107.942 129.687 112.865C130.214 115.779 130.091 116.13 128.716 115.638C127.323 115.139 127.209 115.534 127.73 119.079C128.054 121.281 128.331 124.285 128.347 125.755C128.37 127.986 128.53 128.179 129.313 126.924C130.532 124.972 132.002 124.996 132.002 126.967C132.002 130.696 127.862 131.677 124.933 128.642ZM235.883 117.961C236.548 117.713 237.342 117.744 237.648 118.029C237.954 118.315 237.41 118.518 236.44 118.48C235.367 118.439 235.149 118.236 235.883 117.961ZM205.208 117.05C199.383 116.719 196.882 115.659 200.082 114.878C201.129 114.623 201.985 114.764 201.985 115.193C201.985 115.621 206.025 116.016 210.963 116.072C215.901 116.127 222.635 116.454 225.927 116.8C231.124 117.345 230.518 117.423 221.323 117.396C215.498 117.38 208.246 117.223 205.208 117.05ZM68.9235 112.884C66.0102 111.692 67.3396 111.436 71.2163 112.443C72.4773 112.77 73.0989 113.258 72.5976 113.526C72.0962 113.795 70.443 113.507 68.9235 112.884ZM17.3549 112.535C15.0415 111.608 21.0921 111.593 29.7864 112.506L35.7719 113.133L27.4845 113.204C22.9263 113.243 18.3677 112.941 17.3549 112.535ZM39.4552 112.476C43.0626 111.79 59.0121 111.375 58.2558 111.987C58.0448 112.157 52.8995 112.495 46.8221 112.737C39.9936 113.008 37.179 112.909 39.4552 112.476ZM234.279 109.743C234.244 108.444 234.629 107.381 235.135 107.381C236.216 107.381 236.216 108.041 235.135 110.388C234.434 111.91 234.336 111.837 234.279 109.743ZM235.265 94.2646C235.402 87.3041 235.878 81.6096 236.322 81.6096C237.141 81.6096 236.316 105.706 235.471 106.495C235.22 106.729 235.128 101.225 235.265 94.2646ZM132.166 95.1113C131.627 94.5052 130.714 92.8623 130.138 91.4602L129.09 88.9113L126.866 91.4884C125.643 92.9059 124.641 94.3555 124.638 94.7099C124.635 95.0642 124.025 95.3542 123.281 95.3542C121.663 95.3542 122.18 93.7511 125.312 89.0619C126.519 87.2548 127.378 84.9352 127.221 83.9076C126.984 82.3532 126.331 82.039 123.339 82.039C118.421 82.039 117.906 80.0911 122.638 79.3852C126.218 78.8512 126.314 78.7445 126.635 74.9842C126.923 71.6062 126.658 70.9273 124.488 69.4857C119.075 65.8906 120.691 58.4152 126.88 58.4152C128.599 58.4152 130.143 58.7051 130.312 59.0595C130.481 59.4138 132.173 60.374 134.072 61.1932C136.685 62.3201 137.525 63.1936 137.525 64.7819C137.525 67.1285 133.679 70.442 130.955 70.442C129.508 70.442 129.238 71.1181 129.238 74.7371C129.238 78.9177 129.31 79.0323 131.946 79.0323C133.435 79.0323 134.91 79.4188 135.223 79.8913C135.555 80.3925 134.619 80.7504 132.975 80.7504C130.453 80.7504 130.158 81.0225 130.158 83.3561C130.158 84.7892 131.194 87.8688 132.461 90.2C133.727 92.5309 134.763 94.8373 134.763 95.3257C134.763 96.5542 133.346 96.4371 132.166 95.1113ZM134.533 66.7058C136.069 65.2505 136.024 65.0821 133.56 63.086C129.56 59.8445 126.445 60.5128 125.3 64.8581C124.852 66.5568 124.846 66.5566 124.74 64.8354C124.682 63.8774 125.278 62.2345 126.067 61.1844C127.814 58.8568 125.947 58.4765 124.074 60.7785C122.402 62.8332 122.494 63.8444 124.579 66.3168C126.736 68.8755 132.025 69.0818 134.533 66.7058ZM53.7293 91.67C53.7293 91.0612 54.558 89.0466 55.571 87.193C57.9145 82.905 57.8889 82.5946 55.1106 81.6092C52.3849 80.6424 52.0572 79.0321 54.5861 79.0321C57.4501 79.0321 57.3799 75.5697 54.4506 72.3447C51.5406 69.1408 51.217 66.8949 53.3752 64.8816C55.6575 62.7524 66.6211 64.5709 66.6211 67.0785C66.6211 69.2327 63.7112 72.8672 61.5885 73.3643C59.758 73.7929 59.2542 74.4512 59.2542 76.4146C59.2542 78.4491 59.691 78.9692 61.5849 79.1901C62.8669 79.3395 63.7992 79.8485 63.6568 80.3209C63.5145 80.7934 62.6728 81.0879 61.7865 80.9754C59.3832 80.6702 59.8048 82.9962 62.9376 87.3267C66.1583 91.7787 66.3626 92.7781 63.9306 92.1846C62.9573 91.9472 61.5398 90.5563 60.7806 89.0938L59.4001 86.4348L57.3945 89.6059C55.3766 92.7964 53.7293 93.724 53.7293 91.67ZM62.993 70.388C64.4096 68.2995 63.9533 66.3698 61.926 65.8753C60.3075 65.4804 60.0755 65.7087 60.4989 67.2784C60.9838 69.076 60.9509 69.086 59.6979 67.5223C58.5597 66.1016 58.1873 66.0462 56.8088 67.0927C55.4126 68.1525 55.2974 68.117 55.8303 66.7908C56.1624 65.964 56.0772 65.2875 55.6408 65.2875C54.0692 65.2875 53.716 68.1471 55.0526 70.0501C56.6161 72.2761 61.5692 72.4868 62.993 70.388ZM235.243 76.291C235.185 73.6021 235.552 71.1633 236.058 70.8711C237.151 70.241 237.172 72.9585 236.111 77.7436C235.354 81.1579 235.348 81.1488 235.243 76.291ZM26.2508 78.1731C26.2508 76.9919 26.4598 76.5087 26.7152 77.0993C26.9707 77.6899 26.9707 78.6563 26.7152 79.2469C26.4598 79.8375 26.2508 79.3544 26.2508 78.1731ZM302.359 76.1269C302.359 75.4182 302.773 74.5994 303.279 74.3074C303.786 74.0156 304.2 74.3564 304.2 75.065C304.2 75.7737 303.786 76.5925 303.279 76.8846C302.773 77.1764 302.359 76.8355 302.359 76.1269ZM26.39 70.8713C26.3952 68.0365 26.5671 66.9804 26.772 68.5244C26.977 70.0684 26.9727 72.3877 26.7626 73.6786C26.5525 74.9694 26.3848 73.7046 26.39 70.8713ZM170.902 68.7237C170.868 64.7077 171.163 59.4889 171.557 57.1265L172.274 52.8314L172.306 57.1265C172.323 59.4889 172.028 64.7077 171.651 68.7237L170.964 76.0258L170.902 68.7237ZM25.137 61.6366C25.1113 59.6286 24.8944 56.4395 24.655 54.5495C24.4155 52.6597 24.6082 49.9537 25.083 48.5362C25.7402 46.5745 25.9653 48.267 26.0256 55.6233C26.0691 60.9386 25.8975 65.2877 25.6443 65.2877C25.391 65.2877 25.1628 63.6447 25.137 61.6366ZM254.476 59.0117C254.476 58.3947 255.512 56.5801 256.778 54.9791C259.682 51.3067 259.659 50.8603 256.548 50.5262C254.072 50.2606 253.376 48.6499 255.637 48.4206C256.265 48.357 257.296 48.2602 257.929 48.206C259.71 48.0527 259.289 45.1132 257.238 43.3822C253.624 40.3306 255.797 33.5032 260.383 33.5032C261.994 33.5032 268.289 38.4361 268.289 39.6991C268.289 40.8368 264.331 44.6709 263.156 44.6709C261.896 44.6709 260.757 46.808 261.599 47.5936C261.902 47.8761 262.909 48.1071 263.838 48.1071C264.766 48.1071 265.526 48.4936 265.526 48.9661C265.526 49.4386 264.652 49.8252 263.584 49.8252C261.541 49.8252 261.512 50.4746 263.217 57.986L263.802 60.5631L259.424 55.7822L258.175 57.9578C256.863 60.2453 254.476 60.9253 254.476 59.0117ZM265.013 41.2884C266.646 39.6054 266.206 37.4436 264.348 38.0212C263.793 38.1939 262.56 37.6085 261.608 36.7205C260.238 35.4419 259.603 35.3185 258.558 36.1277C256.622 37.6266 256.948 40.0881 259.285 41.6151C261.962 43.3645 263.06 43.3019 265.013 41.2884ZM233.151 55.6739C233.071 54.583 233.017 53.2568 233.029 52.7268C233.042 52.1753 232.218 51.9532 231.102 52.2076C229.456 52.5829 229.556 52.3482 231.75 50.6984C235.035 48.228 236.535 49.3344 235.678 53.596C234.955 57.1902 233.358 58.5036 233.151 55.6739ZM171.886 47.6768C171.892 44.8419 172.063 43.7858 172.268 45.3298C172.473 46.8738 172.469 49.1932 172.259 50.4841C172.049 51.775 171.881 50.51 171.886 47.6768ZM496.431 49.7255C494.565 48.4272 493.898 47.2196 493.898 45.1404C493.898 42.6153 493.579 42.2696 490.873 41.8599C487.173 41.2998 482.685 42.0122 483.374 43.0504C483.651 43.4688 483.483 43.8112 483.001 43.8112C482.519 43.8112 481.886 43.2314 481.594 42.5226C481.303 41.8139 480.119 41.2096 478.963 41.1796L476.863 41.1251L479.069 40.3018C480.282 39.849 484.012 39.3902 487.356 39.2824L493.438 39.0863L493.99 31.1353L487.223 30.5438C480.816 29.9837 477.267 28.9732 478.305 28.0049C478.562 27.7646 481.451 27.9292 484.724 28.3704C494.854 29.7362 494.819 29.7461 494.819 25.5058C494.819 20.469 496.23 19.0158 501.611 18.5122C505.135 18.1824 507.152 18.5557 510.985 20.2476C515.077 22.0534 516.253 23.1219 518.236 26.833C519.537 29.2694 520.602 32.3467 520.602 33.6714C520.602 35.9019 520.87 36.0799 524.226 36.0799C528.201 36.0799 533.176 37.5218 532.234 38.4009C531.907 38.7061 529.156 38.8612 526.121 38.7456C521.826 38.582 520.602 38.8099 520.602 39.7729C520.602 40.4535 519.112 42.5965 517.29 44.535C514.935 47.0417 513.007 48.2097 510.614 48.5795C508.764 48.8655 505.415 49.649 503.172 50.321C500.93 50.9929 499.065 51.5305 499.029 51.5155C498.992 51.4993 497.823 50.6949 496.431 49.7255ZM505.626 47.2637C515.927 44.2512 517.999 41.8532 517.425 33.6083C517.069 28.4751 515.248 25.5755 510.482 22.5498C507.056 20.374 501.705 20.034 499.166 21.8308C497.575 22.9574 497.429 27.9945 498.425 47.4622C498.52 49.3223 498.595 49.3201 505.626 47.2637ZM506.822 36.9954C506.298 36.0815 505.869 34.5352 505.869 33.5593C505.869 31.0244 504.518 31.3625 501.802 34.5767C500.243 36.4226 499.44 36.8985 499.433 35.9811C499.426 35.218 500.3 33.554 501.371 32.2833C503.986 29.1823 507.067 29.5661 507.714 33.0733C508.266 36.0658 509.762 36.2046 510.577 33.3389C511.028 31.75 511.265 31.625 511.765 32.7105C512.624 34.573 510.826 38.6573 509.147 38.6573C508.393 38.6573 507.347 37.9093 506.822 36.9954ZM11.8446 45.4127C15.3056 44.8083 41.9818 44.5488 39.0095 45.1484C38.2499 45.3016 30.9981 45.5685 22.8948 45.7415C14.7914 45.9145 9.81867 45.7675 11.8446 45.4127ZM41.5993 44.9427C42.264 44.6947 43.0583 44.7251 43.3642 45.0105C43.6702 45.2959 43.1264 45.499 42.1557 45.4618C41.0829 45.4205 40.8647 45.2169 41.5993 44.9427ZM170.763 33.8607C170.807 32.86 171.025 32.6564 171.319 33.3417C171.585 33.9618 171.552 34.7028 171.246 34.9883C170.94 35.2737 170.723 34.7665 170.763 33.8607ZM170.869 27.9191C170.888 26.5017 171.095 26.0258 171.328 26.8616C171.562 27.6975 171.546 28.8572 171.294 29.4388C171.042 30.0204 170.851 29.3365 170.869 27.9191ZM235.162 13.9102C235.135 10.1248 237.264 0 238.087 0C238.543 0 238.707 1.25634 238.453 2.79187C238.199 4.32744 237.754 7.32349 237.464 9.44949C236.851 13.9385 235.185 17.1664 235.162 13.9102ZM494.864 10.7793C493.23 8.94334 494.526 6.27924 497.791 4.75974C500.367 3.561 500.876 3.5589 502.807 4.74027C505.994 6.68857 505.519 9.09783 501.564 11.0401C498.828 12.3831 496.199 12.2802 494.864 10.7793ZM502.765 8.42346C503.077 7.95216 502.635 6.92718 501.783 6.14568C500.339 4.82222 500.111 4.86387 498.451 6.75282C497.471 7.86825 496.669 8.28702 496.669 7.68344C496.669 7.0799 496.424 6.8146 496.124 7.09399C495.825 7.37353 495.844 8.37795 496.166 9.3264C496.677 10.8284 497.104 10.9367 499.475 10.1656C500.972 9.67872 502.453 8.89476 502.765 8.42346ZM505.276 10.0938C505.04 9.73946 505.39 9.40846 506.053 9.35823C506.716 9.3079 508.087 9.21146 509.1 9.1436C512.175 8.93743 511.324 6.44303 508.179 6.44303C506.031 6.44303 505.417 6.06119 505.417 4.72491C505.417 3.50726 506.087 2.96062 507.719 2.84821C509.048 2.75665 509.34 2.87418 508.409 3.12581C506.036 3.76838 506.435 5.44333 508.822 4.86092C509.935 4.58949 511.388 4.78692 512.05 5.29969C512.961 6.00489 513.719 5.68204 515.158 3.97517C517.043 1.73895 519.69 0.922568 519.69 2.57716C519.69 3.04963 519.135 3.43624 518.457 3.43624C516.966 3.43624 514.824 7.50023 515.654 8.75317C515.987 9.2559 517.803 9.45117 519.809 9.20006C521.77 8.95461 523.373 9.06241 523.373 9.43937C523.373 11.2241 516.147 11.8142 514.388 10.1731C513.626 9.4627 512.982 9.44108 512.132 10.0972C510.817 11.1121 505.951 11.1095 505.276 10.0938Z" fill="black"/>
</g>
<defs>
<clipPath id="clip0">
<rect width="537" height="291" fill="white"/>
</clipPath>
</defs>
</svg>
