<svg width="545" height="178" viewBox="0 0 545 178" fill="none" xmlns="http://www.w3.org/2000/svg">
<g clip-path="url(#clip0)">
<path d="M251.246 176.642C250.607 175.921 250.084 175.18 250.084 174.995C250.084 174.811 249.397 174.449 248.557 174.192L247.029 173.724L245.518 175.457C243.341 177.951 242.357 177.691 241.122 174.292C240.573 172.784 240.446 171.712 240.472 168.844C240.509 164.902 240.584 164.584 241.475 164.584C241.884 164.584 242.154 164.934 242.284 165.634C242.392 166.212 242.55 166.994 242.636 167.372C242.722 167.751 242.817 169.16 242.846 170.505C242.912 173.509 243.443 174.401 244.33 172.997C244.658 172.477 244.915 171.961 244.9 171.851C244.886 171.741 244.983 171.352 245.117 170.987C245.25 170.621 245.204 169.504 245.014 168.504C244.611 166.39 244.911 164.263 245.694 163.672C246.646 162.953 247.196 164.14 247.529 167.633C247.832 170.809 248.11 171.442 249.206 171.454C249.572 171.458 249.767 171.163 249.772 170.6C249.791 168.236 252.282 164.202 253.721 164.202C254.606 164.202 255.512 165.981 255.512 167.719C255.512 169.277 253.943 172.422 252.984 172.787C252.148 173.104 252.12 174.361 252.937 174.884C253.699 175.372 254.962 175.397 255.369 174.933C255.536 174.742 256.213 174.321 256.873 173.996C258.072 173.406 258.073 173.406 257.703 174.247C255.991 178.141 253.42 179.095 251.246 176.642L251.246 176.642ZM253.742 167.613C253.406 166.962 252.715 167.247 252.52 168.117C252.143 169.803 252.312 170.053 253.123 169.006C253.565 168.436 253.843 167.809 253.742 167.613H253.742ZM194.043 176.426C193.325 175.139 192.877 175.002 192.267 175.882C191.735 176.648 189.984 176.31 188.665 175.186C186.822 173.617 185.742 168.768 186.699 166.357C187.256 164.952 187.839 164.523 188.917 164.725C189.794 164.889 189.88 165.54 189.274 167.438C188.709 169.206 188.82 170.517 189.685 172.319C190.175 173.339 191.648 173.841 191.648 172.988C191.648 172.777 191.812 172.605 192.012 172.605C192.593 172.605 193.224 171.361 193.235 170.193C193.258 167.726 194.681 166.79 195.668 168.593C196.195 169.554 196.081 172.224 195.513 172.224C195.297 172.224 195.25 173.578 195.43 174.611C195.628 175.743 198.354 173.243 198.354 171.931C198.354 171.546 198.484 171.067 198.644 170.867C199.093 170.305 199.623 167.64 199.286 167.64C199.125 167.64 198.992 167.769 198.991 167.926C198.988 168.23 197.193 169.55 196.782 169.55C196.397 169.55 196.864 167.153 197.436 166.189C197.745 165.667 198.423 165.224 199.119 165.089C200.641 164.794 201.533 165.703 201.584 167.604C201.605 168.382 201.685 168.646 201.769 168.213C202.013 166.946 204.784 164.169 205.534 164.439C206.722 164.867 208.238 166.158 209.215 167.573C210.127 168.893 210.195 168.927 210.367 168.148C210.467 167.693 210.976 167.109 211.497 166.851C212.322 166.442 212.556 166.48 213.303 167.147C214.369 168.1 214.453 169.354 213.452 169.37C212.245 169.389 211.312 170.963 211.407 172.82C211.504 174.705 211.03 175.256 210.14 174.293C209.535 173.638 209.493 173.645 209 174.487C208.365 175.572 206.712 176.425 205.245 176.425C204.295 176.425 203.964 176.164 202.999 174.652C202.249 173.476 201.867 172.467 201.867 171.659C201.867 169.629 201.517 169.84 200.431 172.526C199.316 175.285 198.396 176.521 196.976 177.164C195.481 177.842 194.729 177.653 194.043 176.425L194.043 176.426ZM207.532 172.471C208.102 172.02 208.569 171.457 208.57 171.221C208.574 170.465 206.195 166.887 205.699 166.903C205.435 166.911 204.878 167.435 204.46 168.066C203.814 169.044 203.731 169.481 203.904 171.006C204.227 173.865 205.252 174.278 207.533 172.471H207.532ZM261.38 177.171C258.986 176.099 258.139 169.247 259.993 165.96C260.68 164.743 260.925 164.576 261.899 164.669C262.781 164.752 263.038 164.956 263.118 165.632C263.193 166.262 263.094 166.432 262.744 166.271C262.245 166.042 261.501 167.264 261.617 168.122C261.652 168.382 261.57 168.898 261.435 169.268C261.299 169.638 261.313 170.927 261.464 172.133L261.739 174.325L264.134 174.216C265.451 174.156 266.888 174.07 267.327 174.025C267.964 173.959 268.105 174.097 268.022 174.707C267.965 175.127 267.607 175.76 267.228 176.114C266.12 177.145 262.701 177.763 261.379 177.171L261.38 177.171ZM232.457 176.133C231.916 176.047 231.506 175.684 231.358 175.16C230.949 173.712 231.227 172.437 232.89 168.153C233.392 166.86 233.892 165.266 234.002 164.612C234.111 163.957 234.326 163.329 234.479 163.216C234.837 162.951 234.843 160.382 234.485 160.382C233.926 160.382 231.706 162.583 231.266 163.573C230.699 164.849 230.156 164.692 230.033 163.217C229.963 162.37 230.232 161.715 231.151 160.504C232.726 158.426 233.852 157.74 235.164 158.057C236.036 158.269 236.262 158.563 236.641 159.986C237.056 161.543 237.033 161.862 236.322 164.366C235.9 165.851 235.447 167.124 235.316 167.194C235.184 167.264 235.076 167.651 235.076 168.054C235.076 168.456 234.932 168.786 234.757 168.786C234.581 168.786 234.433 169.172 234.427 169.645C234.422 170.118 234.206 170.838 233.948 171.246C233.23 172.382 233.346 173.121 234.198 172.841C235.983 172.255 237.173 172.228 237.739 172.761C238.884 173.837 237.625 175.314 235.563 175.313C235.477 175.313 234.937 175.528 234.363 175.791C233.789 176.054 232.931 176.208 232.457 176.133L232.457 176.133ZM220.841 174.621C220.532 174.253 219.922 174.009 219.452 174.068C218.391 174.201 216.533 172.729 215.959 171.3C215.578 170.351 215.597 169.95 216.112 168.136C216.766 165.835 217.065 165.41 218.132 165.259C219.009 165.136 220.025 166.582 220.371 168.451C220.521 169.258 220.618 167.779 220.632 164.503C220.644 161.622 220.722 159.13 220.805 158.964C220.888 158.799 220.849 157.838 220.719 156.83C220.587 155.802 220.638 153.871 220.834 152.437C221.157 150.088 221.25 149.877 221.969 149.877C222.786 149.877 222.906 150.221 223.385 153.932C223.483 154.691 223.712 155.781 223.894 156.355C224.282 157.574 224.419 160.271 224.112 160.638C223.995 160.777 223.9 160.626 223.9 160.302C223.9 159.977 223.692 159.506 223.439 159.255C223.043 158.861 222.965 159.474 222.88 163.638C222.789 168.139 223.017 170 223.409 167.942C224.039 164.626 224.205 163.471 224.221 162.292C224.233 161.34 224.319 161.12 224.518 161.528C224.902 162.317 224.337 168.55 223.761 169.884C223.505 170.476 223.372 171.313 223.466 171.744C223.693 172.783 222.392 175.253 221.607 175.274C221.488 175.277 221.143 174.984 220.84 174.622L220.841 174.621ZM220.596 170.87C220.859 170.051 220.425 169.64 220.02 170.325C219.743 170.795 219.717 170.781 219.86 170.243C219.955 169.888 219.743 169.158 219.388 168.619C218.851 167.802 218.674 167.725 218.317 168.151C217.619 168.987 217.616 170.226 218.312 170.857C219.144 171.611 220.356 171.618 220.596 170.871L220.596 170.87ZM3.4074 170.226C2.28628 169.748 1.98209 169.298 1.97533 168.108C1.97171 167.504 2.23836 167.123 2.84856 166.859C3.33154 166.649 4.0363 166.29 4.41472 166.059C4.79313 165.828 5.26115 165.757 5.45477 165.9C5.64837 166.043 5.89299 165.891 5.99835 165.563C6.10456 165.232 6.56605 164.964 7.03389 164.961C7.49807 164.958 8.81185 164.598 9.95344 164.161C12.7706 163.083 19.533 162.951 19.533 163.975C19.533 164.321 19.3097 164.443 18.9078 164.317C18.5467 164.204 17.9214 164.461 17.4278 164.926C16.9577 165.368 16.305 165.73 15.9775 165.73C15.6499 165.73 15.3819 165.969 15.3819 166.262C15.3819 166.965 16.3176 167.374 16.8093 166.885C17.023 166.673 17.7591 166.586 18.4452 166.692C20.9082 167.072 22.7262 167.15 22.7262 166.875C22.7262 166.721 23.2651 166.65 23.9237 166.718C24.5823 166.785 25.8396 166.914 26.7177 167.004C27.5958 167.094 28.1337 167.087 27.9131 166.989C27.6925 166.891 27.599 166.642 27.7054 166.436C27.8185 166.217 28.1734 166.35 28.5605 166.755C28.9245 167.137 29.1173 167.234 28.989 166.971C28.7041 166.388 29.4807 166.323 29.9547 166.89C30.1661 167.143 30.5645 167.162 31.0563 166.941C31.4801 166.752 32.1142 166.724 32.4655 166.88C32.8167 167.035 33.2391 167.068 33.4042 166.952C33.8258 166.656 35.797 166.608 35.6476 166.897C35.58 167.028 36.1749 167.165 36.9696 167.201C38.0091 167.248 38.3492 167.139 38.1817 166.815C38.016 166.494 38.1251 166.453 38.5599 166.672C39.4227 167.106 45.6337 167.347 45.8366 166.954C45.929 166.775 47.0799 166.686 48.394 166.757C49.8071 166.833 50.8664 166.725 50.9866 166.493C51.0984 166.276 51.3282 166.202 51.4973 166.327C51.9241 166.642 55.7204 166.698 56.1307 166.395C56.3149 166.258 57.5054 166.104 58.7762 166.052C60.0471 166 61.1543 165.826 61.2367 165.667C61.3191 165.507 61.7259 165.531 62.1407 165.72C62.5554 165.909 62.9615 165.983 63.043 165.886C63.2354 165.656 65.4046 165.24 66.6326 165.198C67.1595 165.18 67.6849 165.008 67.8002 164.815C67.9154 164.622 68.7776 164.416 69.7161 164.358C70.6546 164.3 71.8534 164.155 72.3804 164.036C73.6679 163.745 75.3975 163.374 76.3719 163.181C77.8381 162.889 78.1252 162.812 78.6071 162.582C78.8705 162.456 79.9482 162.252 81.002 162.129C82.8051 161.917 85.6386 161.389 87.0691 160.997C87.4203 160.901 87.7971 160.809 87.9062 160.793C88.0154 160.777 88.1091 158.142 88.1145 154.939C88.1235 149.505 88.1838 147.911 88.6562 140.601C88.7682 138.868 88.7015 137.517 88.4795 137.021C88.2834 136.583 88.2521 136.32 88.4099 136.436C88.5762 136.559 88.686 133.33 88.6711 128.747C88.657 124.401 88.7469 120.046 88.8708 119.069C88.9947 118.092 89.1995 113.365 89.326 108.565C89.4523 103.764 89.6015 99.1485 89.6575 98.3081C89.7134 97.4677 89.7604 91.7952 89.762 85.7024C89.7636 79.6097 89.7852 73.3354 89.8101 71.7597C89.835 70.184 89.8366 68.379 89.8137 67.7488C89.7908 67.1185 89.7618 64.4117 89.7492 61.7339C89.7366 59.056 89.6104 56.7792 89.4687 56.6745C89.3271 56.5699 89.3248 55.8816 89.4637 55.1452C89.6025 54.4087 89.6235 53.8064 89.5103 53.8066C89.2828 53.807 89.3157 48.8666 89.5911 41.6745C89.8188 35.7266 89.6001 33.5605 88.772 33.5605C88.4391 33.5605 88.0843 33.3034 87.9835 32.9891C87.8636 32.6154 87.5082 32.4749 86.9557 32.5828C84.7436 33.0151 79.8647 33.5929 79.6486 33.4481C79.5149 33.3586 78.3997 33.4245 77.1704 33.5948C75.9411 33.7651 72.9953 34.0011 70.6243 34.1192C68.2534 34.2373 65.595 34.4211 64.7169 34.5273C63.8388 34.6336 61.4679 34.8045 59.4482 34.9072C57.4285 35.0099 55.2731 35.1813 54.6583 35.2881C54.0436 35.3949 52.0319 35.5675 50.1878 35.6717C48.3437 35.7758 45.1106 35.9569 43.0032 36.0742C40.8957 36.1914 34.3576 36.3524 28.4736 36.4318C17.3931 36.5816 13.4324 36.7681 9.26503 37.3366C7.92033 37.52 6.48343 37.5952 6.07189 37.5036C5.02542 37.2707 4.31999 38.6195 4.93698 39.6733C5.24362 40.197 5.31051 41.0502 5.16801 42.6198C4.93004 45.2408 4.97187 47.0133 5.28605 47.6214C5.41156 47.8644 5.43156 48.6247 5.33057 49.3112C5.22956 49.9976 5.29896 52.1922 5.48492 54.188C5.86164 58.2315 6.37644 64.5432 6.63773 68.3218C6.81172 70.8381 6.86269 75.6551 6.74478 78.4446C6.7093 79.285 6.71823 80.832 6.76469 81.8825C6.81116 82.933 6.75384 84.566 6.63752 85.5114C6.52105 86.4568 6.36048 89.2931 6.28059 91.8142C6.20069 94.3353 5.99279 97.4295 5.81856 98.6901C5.64434 99.9506 5.42082 102.099 5.32185 103.465C5.11256 106.353 4.97987 107.576 4.714 109.069C4.60815 109.664 4.45174 111.439 4.36634 113.015C4.28089 114.59 4.1345 116.395 4.04093 117.026C3.65951 119.595 3.59374 126.625 3.9392 127.894C4.2071 128.878 4.20545 129.25 3.93316 129.358C3.45424 129.549 3.46487 130.692 3.95103 131.274C4.19541 131.566 4.21094 131.732 3.99387 131.732C3.76705 131.732 3.7372 132.274 3.90432 133.356C4.05053 134.302 4.03182 135.033 3.85942 135.107C3.69681 135.178 3.65133 135.405 3.75841 135.612C3.86546 135.819 3.94809 138.037 3.94207 140.539C3.93603 143.042 4.04549 145.174 4.18526 145.277C4.32504 145.381 4.38022 146.108 4.30787 146.893C4.23546 147.679 4.27915 148.198 4.4049 148.048C4.64921 147.755 5.80295 148.831 5.80295 149.351C5.80295 149.707 4.77195 149.321 4.51365 148.867C4.41915 148.702 4.32981 149.377 4.31503 150.367C4.3003 151.358 4.40421 152.258 4.54609 152.367C4.68796 152.476 4.72456 153.274 4.62744 154.141C4.492 155.349 4.26101 155.819 3.63654 156.16C2.31405 156.881 1.61756 155.718 1.45813 152.523C1.38668 151.091 1.19707 149.351 1.03681 148.656C0.876565 147.962 0.861829 147.394 1.00411 147.394C1.44107 147.394 1.55144 144.718 1.14325 144.021C0.84331 143.509 0.843672 143.069 1.14446 142.021C1.39208 141.159 1.43282 140.272 1.25803 139.547C0.721465 137.323 0.333827 121.4 0.771861 119.577C0.888928 119.09 1.0707 117.285 1.17569 115.566C1.28069 113.847 1.49462 111.582 1.65111 110.531C1.80758 109.481 2.02594 107.504 2.13634 106.138C2.24677 104.773 2.42633 102.968 2.53542 102.128C2.64453 101.287 2.74065 99.783 2.74907 98.7851C2.75752 97.7871 2.84442 96.9706 2.94213 96.9706C3.03989 96.9706 3.05871 96.3438 2.98401 95.5778C2.9093 94.8118 3.01466 93.2947 3.21825 92.2064C3.76265 89.2963 3.7066 61.1614 3.1532 59.5357C2.83704 58.6072 2.54028 55.0299 2.44769 51.0313C2.40026 48.98 2.211 47.0851 2.02724 46.8202C1.84348 46.5553 1.68498 44.7956 1.67503 42.91C1.66537 41.0241 1.64607 39.1926 1.63267 38.8397C1.6194 38.4869 1.24536 37.9137 0.801547 37.5658L-0.00537109 36.9333L0.687519 36.051C1.24793 35.3374 1.61211 35.2059 2.59221 35.3631C3.2865 35.4746 3.89418 35.3829 4.01523 35.1486C4.13145 34.9237 4.43929 34.8373 4.69934 34.9567C4.9594 35.0761 5.3576 34.9896 5.58424 34.7646C5.81089 34.5396 7.92847 34.2687 10.2901 34.1626C12.6517 34.0565 16.3082 33.8746 18.4157 33.7583C20.5233 33.6419 27.3486 33.446 33.5837 33.323C49.1826 33.0151 53.473 32.8205 62.0032 32.0336C64.1985 31.8311 68.0733 31.5634 70.6137 31.4386C73.1542 31.3139 75.3117 31.1534 75.4082 31.0821C75.5046 31.0108 77.4495 30.8426 79.7301 30.7084C82.0107 30.5743 85.0224 30.3015 86.4228 30.1024C90.3326 29.5464 91.8372 29.6305 92.4487 30.4389C93.1266 31.335 93.1177 31.9208 92.4184 32.4434C91.9074 32.8252 91.8667 33.6504 91.9426 42.092C92.1647 66.7874 92.151 100.727 91.9172 104.993C91.3967 114.49 90.8972 139.718 91.0777 147.395C91.1197 149.181 91.1256 150.9 91.0909 151.215C90.9517 152.479 90.7462 156.49 90.722 158.413C90.695 160.562 90.9202 161.274 91.3585 160.425C91.5532 160.049 91.9813 159.995 93.0175 160.219C93.7857 160.385 94.6297 160.533 94.8931 160.547C95.1974 160.564 95.4095 161.041 95.4746 161.854C95.5417 162.692 95.4589 163.048 95.2351 162.882C95.047 162.743 94.8931 162.794 94.8931 162.994C94.8931 163.324 91.9969 163.767 88.1875 164.02C86.162 164.155 81.3002 164.905 79.4063 165.375C77.2548 165.909 74.8076 166.432 72.7804 166.792C71.8584 166.956 70.9245 167.224 70.7051 167.388C70.4857 167.551 69.5517 167.769 68.6295 167.872C65.0049 168.275 63.5056 168.524 62.9613 168.813C62.7884 168.904 62.1943 168.956 57.4265 169.296C55.6995 169.419 54.0111 169.624 53.6744 169.751C53.3378 169.879 53.0623 169.816 53.0623 169.612C53.0623 169.203 51.8363 169.465 51.2651 169.996C51.0669 170.18 50.564 170.188 50.1474 170.014C49.7309 169.84 49.0309 169.759 48.5918 169.836C48.1527 169.912 45.1352 170.043 41.8862 170.126C38.6371 170.209 35.835 170.297 35.6594 170.32C35.0091 170.407 33.094 170.097 32.7703 169.853C32.5863 169.714 32.2282 169.754 31.9746 169.942C31.721 170.129 31.1894 170.185 30.7931 170.066C30.3969 169.947 29.821 169.975 29.5133 170.128C28.6279 170.567 27.2068 170.641 27.009 170.259C26.9097 170.066 26.3351 170.02 25.7321 170.155C25.0701 170.303 24.4589 170.225 24.1889 169.957C23.8647 169.635 23.6818 169.629 23.5234 169.936C23.3889 170.196 22.9214 170.258 22.3074 170.097C20.805 169.702 17.9421 169.614 17.7649 169.957C17.6791 170.123 16.9283 170.204 16.0966 170.136C15.2649 170.068 14.4408 170.123 14.2651 170.259C13.7506 170.656 10.9147 170.542 10.9083 170.123C10.9047 169.913 10.7969 169.937 10.6679 170.177C10.411 170.653 6.51343 170.6 5.19444 170.102C4.6472 169.896 4.4918 169.939 4.65449 170.254C4.92577 170.779 4.68961 170.774 3.40827 170.227L3.4074 170.226ZM13.3063 166.876C13.1978 166.666 12.9652 166.494 12.7896 166.494C12.614 166.494 12.5591 166.666 12.6677 166.876C12.7762 167.086 13.0087 167.258 13.1843 167.258C13.36 167.258 13.4148 167.086 13.3063 166.876ZM15.0625 166.707C15.0625 166.405 14.9188 166.051 14.7432 165.921C14.5676 165.791 14.4239 165.767 14.4239 165.867C14.4239 165.967 14.3366 166.321 14.2301 166.654C14.1029 167.05 14.2127 167.258 14.5494 167.258C14.8316 167.258 15.0625 167.01 15.0625 166.707V166.707ZM22.3271 163.567C22.5466 163.461 22.9058 163.461 23.1254 163.567C23.3449 163.673 23.1653 163.76 22.7262 163.76C22.2871 163.76 22.1075 163.673 22.3271 163.567ZM504.582 159.511C503.294 158.731 501.989 155.961 501.161 152.248C500.488 149.229 500.378 147.85 500.337 141.873C500.248 129.055 500.698 119.286 501.568 115.106C501.786 114.06 501.761 114.013 501.251 114.515C500.947 114.815 500.209 116.276 499.611 117.762C499.013 119.248 498.52 120.163 498.515 119.795C498.504 119.043 497.873 118.86 497.856 119.604C497.85 119.867 496.545 121.8 494.958 123.901C493.371 126.002 491.856 128.323 491.591 129.058C491.052 130.56 490.994 133.275 491.441 136.125C491.605 137.176 491.753 139.306 491.77 140.86C491.787 142.508 491.966 143.927 492.199 144.265C492.419 144.583 492.598 145.134 492.598 145.488C492.598 145.843 493.593 147.147 494.81 148.387C496.026 149.627 497.858 151.662 498.881 152.909C499.904 154.156 500.746 155.016 500.752 154.819C500.758 154.622 500.969 154.891 501.22 155.416C501.84 156.713 501.813 157.956 501.158 158.256C500.762 158.438 499.758 157.494 497.406 154.729C492.814 149.329 491.93 148.348 491.002 147.62C490.247 147.028 490.09 147.024 489.183 147.565C487.298 148.69 485.78 148.102 486.951 146.701C487.494 146.052 487.503 145.943 487.043 145.596C486.624 145.28 486.526 144.352 486.492 140.382C486.462 136.953 486.325 135.372 486.019 134.931C485.782 134.59 485.632 133.82 485.684 133.221C485.737 132.622 485.668 131.915 485.531 131.651C485.277 131.158 485.322 129.009 485.613 127.817C485.851 126.84 486.836 127 487.326 128.095C487.665 128.852 487.912 128.994 488.558 128.8C489.378 128.554 491.113 126.582 492.682 124.115C493.737 122.454 494.357 121.592 496.497 118.808C497.412 117.617 498.686 115.574 499.328 114.266C500.78 111.311 501.209 110.842 501.865 111.493C502.26 111.885 502.456 111.859 502.927 111.348C504.221 109.948 504.543 110.876 503.903 114.161C503.718 115.106 503.467 117.255 503.344 118.936C503.2 120.901 502.99 121.961 502.755 121.907C502.1 121.754 501.932 124.872 501.958 136.698C501.981 146.952 502.058 148.677 502.602 151.088C503.445 154.832 504.247 156.658 505.312 157.263C506.391 157.875 506.701 158.661 506.166 159.431C505.691 160.116 505.59 160.121 504.582 159.51L504.582 159.511ZM489.133 144.925C489.5 144.617 489.883 144.464 489.983 144.584C490.234 144.884 489.901 138.139 489.539 135.578C489.378 134.436 489.246 132.919 489.246 132.207C489.246 131.178 489.131 130.94 488.687 131.046C488.08 131.192 488.068 131.394 488.375 136.316C488.474 137.892 488.651 139.475 488.769 139.834C488.971 140.447 488.593 143.324 488.114 144.816C487.853 145.631 488.241 145.672 489.133 144.925V144.925ZM522.658 156.293C521.087 155.909 519.857 155.276 518.311 154.059C517.126 153.124 516.02 152.36 515.853 152.36C515.687 152.36 515.221 151.827 514.819 151.177C514.269 150.287 514.178 149.884 514.453 149.556C514.728 149.227 515.074 149.298 515.843 149.842C516.406 150.24 517.298 150.827 517.825 151.146C518.352 151.466 519.214 152.114 519.741 152.587C520.268 153.059 521.489 153.814 522.455 154.265C525.832 155.841 525.958 157.1 522.658 156.293L522.658 156.293ZM13.3697 152.462C12.8661 151.139 13.8918 150.045 15.7245 149.95C16.4997 149.91 17.2069 149.762 17.2961 149.622C17.3853 149.482 18.7504 149.252 20.3296 149.11C21.9088 148.969 23.6106 148.616 24.1113 148.325C24.9434 147.842 25.1082 147.874 26.0272 148.698C26.9771 149.55 27.1202 149.573 28.6149 149.109C29.5014 148.834 30.4842 148.749 30.8501 148.915C31.6248 149.267 41.4969 149.137 42.2252 148.766C42.5022 148.625 43.0947 148.675 43.5417 148.879C44.1058 149.135 44.4672 149.114 44.7224 148.808C44.9793 148.501 45.2564 148.486 45.6411 148.757C45.944 148.971 46.4074 149.122 46.6709 149.092C46.9343 149.063 48.0479 149.012 49.1456 148.98C50.8106 148.932 51.1429 148.811 51.1515 148.254C51.1612 147.62 51.1844 147.621 51.5905 148.261C51.9694 148.858 52.4047 148.911 55.3322 148.716C57.1544 148.594 60.2978 148.437 62.3175 148.367C64.3372 148.296 65.9897 148.202 65.9897 148.156C65.9897 148.011 68.7864 147.771 71.5777 147.677C73.2109 147.621 74.46 147.395 74.7139 147.107C74.946 146.845 75.5926 146.609 76.1508 146.584C76.7091 146.559 77.5089 146.516 77.9283 146.489C78.3477 146.461 78.8474 146.735 79.0387 147.097C79.5511 148.066 78.8736 148.678 77.3672 148.607C76.6755 148.575 75.5743 148.816 74.9202 149.143C74.266 149.47 73.2105 149.702 72.5745 149.659C71.9385 149.617 71.034 149.768 70.5646 149.995C70.0951 150.223 69.2329 150.408 68.6487 150.407C67.1152 150.404 62.132 150.759 60.0824 151.016C59.1165 151.138 57.5338 151.283 56.5656 151.338C55.5972 151.394 54.6365 151.564 54.4306 151.716C54.2247 151.868 53.4723 151.836 52.7586 151.644C52.0448 151.452 51.4608 151.42 51.4608 151.573C51.4608 151.995 47.5261 151.927 47.0702 151.497C46.8151 151.256 46.6711 151.254 46.6711 151.491C46.6711 151.697 45.5266 151.882 44.1033 151.907C42.691 151.932 41.3979 152.054 41.2295 152.178C41.0612 152.303 40.9234 152.265 40.9234 152.095C40.9235 151.925 40.1691 151.818 39.247 151.858C38.3249 151.897 37.5705 151.96 37.5705 151.998C37.5705 152.036 35.8461 152.12 33.7387 152.185C31.6312 152.25 29.1546 152.328 28.2352 152.359C27.3158 152.389 26.485 152.566 26.3889 152.752C26.2929 152.938 25.8974 152.949 25.51 152.778C25.0862 152.59 24.5776 152.635 24.2331 152.89C23.7918 153.217 23.5949 153.188 23.3739 152.763C23.1418 152.317 22.931 152.297 22.2661 152.659C21.6267 153.008 21.4438 153.003 21.44 152.638C21.4364 152.267 21.3826 152.267 21.1856 152.638C21.0283 152.935 20.4887 153.04 19.7256 152.923C19.0599 152.821 18.3551 152.856 18.1593 153.001C17.9636 153.146 16.8828 153.285 15.7577 153.312C13.901 153.355 13.6803 153.276 13.3699 152.461L13.3697 152.462ZM30.0668 149.304C30.0668 149.094 30.0034 148.922 29.9259 148.922C29.8485 148.922 29.6963 149.094 29.5878 149.304C29.4792 149.514 29.5426 149.686 29.7286 149.686C29.9146 149.686 30.0668 149.514 30.0668 149.304ZM97.1231 150.832C96.8698 150.645 96.7344 150.406 96.8222 150.3C96.9101 150.195 97.1891 150.263 97.4424 150.45C97.6956 150.637 97.831 150.876 97.7432 150.981C97.6554 151.086 97.3763 151.019 97.1231 150.832ZM406.047 145.486C402.072 144.15 400.261 142.177 402.198 141.296C402.62 141.104 403.064 140.758 403.183 140.526C403.303 140.295 403.656 140.202 403.967 140.32C404.281 140.439 404.715 140.275 404.938 139.954C405.452 139.212 405.902 139.208 405.902 139.945C405.902 140.26 406.045 140.518 406.221 140.518C406.397 140.518 406.54 140.19 406.54 139.79C406.54 139.207 406.226 139.01 404.968 138.803C404.103 138.661 402.734 138.544 401.924 138.544C400.722 138.544 400.361 138.376 399.948 137.623C399.365 136.558 399.569 134.381 400.322 133.634C400.581 133.377 400.795 132.973 400.797 132.736C400.805 132.092 403.74 130.493 404.636 130.645C406.046 130.884 405.723 131.875 403.996 132.609C402.863 133.09 402.251 133.617 401.912 134.402C401.063 136.366 401.238 136.698 403.107 136.67C404.568 136.649 405.744 137.027 408.573 138.429C409.078 138.679 409.134 138.596 408.945 137.882C408.77 137.221 408.972 136.757 409.889 135.723C410.878 134.607 411.284 134.407 412.55 134.409C416.09 134.415 418.218 138.379 416.776 142.28C415.508 145.707 414.204 146.497 412.12 145.097C411.457 144.651 410.829 144.434 410.723 144.613C410.618 144.793 409.95 145.207 409.24 145.533C408.061 146.073 407.78 146.069 406.046 145.486L406.047 145.486ZM408.78 143.264C409.422 142.643 409.45 142.484 409.055 141.711C408.661 140.939 408.435 140.871 406.86 141.054C403.484 141.445 402.992 141.97 404.806 143.243C406.055 144.12 407.887 144.129 408.781 143.264L408.78 143.264ZM414.397 142.712C416.036 139.694 416.056 138.09 414.468 137.212C414.059 136.985 413.336 136.581 412.861 136.312C412.126 135.896 411.875 135.92 411.17 136.472C410.715 136.829 410.187 137.53 409.997 138.03C409.708 138.787 409.778 139.143 410.41 140.152C411.538 141.95 413.144 143.956 413.453 143.953C413.603 143.952 414.028 143.393 414.397 142.712L414.397 142.712ZM453.32 145.482C452.969 145.322 452.251 144.609 451.724 143.898C450.764 142.604 449.01 138.727 449.01 137.901C449.01 137.66 448.866 137.462 448.69 137.462C448.515 137.462 448.371 137.72 448.371 138.035C448.371 138.35 448.227 138.608 448.052 138.608C447.876 138.608 447.732 139.142 447.732 139.795C447.732 140.693 447.616 140.928 447.253 140.762C446.906 140.602 446.774 140.806 446.774 141.504C446.774 142.919 445.898 144.702 445.003 145.109C444.009 145.561 442.777 145.027 441.505 143.593C440.979 142.998 440.24 142.402 439.864 142.267C439.061 141.978 438.521 139.827 438.237 135.778C438.057 133.222 438.073 133.146 438.735 133.353C439.222 133.505 439.755 133.198 440.587 132.286C442.749 129.917 444.894 130.159 446.053 132.903C446.446 133.835 446.861 135.181 446.975 135.895L447.182 137.193L447.909 135.513C448.309 134.589 448.785 133.459 448.966 133.001C449.259 132.26 450.368 131.455 451.939 130.841C453.751 130.134 456.462 132.725 457.373 136.035C457.935 138.077 457.887 141.348 457.292 141.601C457.127 141.671 456.992 141.902 456.992 142.115C456.992 142.828 455.673 144.726 454.812 145.253C454.303 145.564 453.701 145.656 453.32 145.482L453.32 145.482ZM455.174 141.389C456.399 139.411 456.465 138.391 455.524 135.957C454.795 134.07 453.58 132.877 452.393 132.884C451.25 132.891 450.923 133.112 450.211 134.358C449.691 135.268 449.721 135.49 450.625 137.462C450.866 137.988 451.392 139.178 451.794 140.107C452.564 141.89 453.418 143.192 453.818 143.192C453.95 143.192 454.56 142.381 455.174 141.39L455.174 141.389ZM444.765 141.091C445.281 139.338 445.135 135.775 444.479 134.132C443.89 132.653 442.741 132.603 441.391 133.997C440.333 135.089 440.322 135.135 440.542 137.404C440.898 141.078 442.065 142.929 443.869 142.681C444.115 142.647 444.518 141.931 444.765 141.091H444.765ZM380.276 144.57C379.509 143.874 379.576 143.269 380.436 143.123C381.002 143.027 381.174 142.718 381.248 141.664C381.302 140.899 381.136 140 380.859 139.563C380.582 139.125 380.372 139.007 380.366 139.286C380.337 140.698 377.588 140.587 369.097 138.83C367.65 138.531 364.167 138.181 361.357 138.054C358.547 137.926 355.637 137.73 354.89 137.618C354.04 137.491 353.533 137.566 353.533 137.821C353.533 138.574 351.661 138.274 351.298 137.462C351.086 136.988 350.627 136.696 350.089 136.693C349.356 136.689 349.055 136.321 348.138 134.306C347.146 132.128 346.313 130.497 343.99 126.193C343.537 125.353 342.862 124.311 342.491 123.878C342.12 123.446 341.412 122.242 340.917 121.204C340.422 120.167 339.708 118.888 339.329 118.362C338.951 117.837 338.375 116.896 338.05 116.271C337.725 115.647 337.338 114.959 337.19 114.744C336.268 113.398 330.123 102.284 329.722 101.237C329.316 100.176 329.155 100.042 328.761 100.433C328.377 100.815 328.146 100.743 327.527 100.048C326.882 99.3231 326.424 99.1968 324.516 99.2182C323.278 99.2326 321.362 99.4034 320.257 99.599C319.152 99.7946 318.033 99.962 317.769 99.9711C316.706 100.008 313.679 100.349 312.101 100.611C311.007 100.793 310.425 101.071 310.425 101.413C310.425 102.066 310.039 102.085 309.512 101.459C309.19 101.077 309.149 101.104 309.306 101.599C309.452 102.059 309.256 102.274 308.53 102.448C307.995 102.575 307.377 102.613 307.155 102.531C306.934 102.45 306.36 102.28 305.88 102.154C304.934 101.907 304.066 100.285 304.279 99.161C304.393 98.5603 304.678 98.5131 306.869 98.7317C308.228 98.8672 310.328 98.7903 311.555 98.56C315.518 97.8161 319.611 97.3576 323.996 97.1666C325.753 97.0901 327.477 96.9128 327.828 96.7725C329.86 95.9612 330.559 95.495 332.235 93.8375C333.254 92.8297 334.188 92.0013 334.311 91.9967C334.434 91.9924 335.252 91.1986 336.13 90.2334C337.009 89.2683 338.23 88.0261 338.845 87.4728C340.092 86.35 344.575 81.7759 345.071 81.1196C345.247 80.8872 346.109 80.0228 346.987 79.1987C347.866 78.3746 348.955 77.2661 349.408 76.7352C349.861 76.2045 351.226 74.8247 352.44 73.6693C353.655 72.5137 355.224 70.9403 355.927 70.1728C358.178 67.7162 360.351 65.4678 362.155 63.7298C363.121 62.7991 364.774 61.1153 365.827 59.988C366.881 58.8607 368.171 57.6714 368.694 57.3451C369.217 57.0188 370.645 55.7451 371.867 54.5147C373.089 53.2844 374.205 52.2776 374.349 52.2776C374.492 52.2776 374.609 52.0307 374.609 51.7289C374.609 51.389 374.214 51.1345 373.571 51.0604C372.808 50.9725 372.556 50.7712 372.621 50.301C372.67 49.9492 372.562 49.5523 372.382 49.419C371.897 49.0603 371.984 47.7018 372.508 47.4614C372.758 47.3468 373.261 47.4442 373.626 47.6778C374.109 47.9873 374.467 47.9886 374.945 47.6836C375.466 47.3498 375.905 47.4402 377.087 48.1249C378.596 48.9986 380.375 49.2833 387.781 49.8358C390.636 50.0488 391.213 50.0005 391.213 49.5485C391.213 49.2497 390.766 48.6892 390.22 48.3031C389.47 47.7736 389.333 47.5224 389.659 47.2809C390.005 47.0253 389.964 46.8443 389.455 46.3847C389.105 46.068 388.623 45.8033 388.385 45.7966C388.122 45.7894 388.028 45.5463 388.146 45.1803C388.252 44.8479 388.339 44.5041 388.339 44.4163C388.339 43.9012 389.223 44.4326 390.297 45.5935C390.978 46.3288 391.759 46.9305 392.033 46.9305C392.308 46.9305 392.846 47.137 393.23 47.3896C393.613 47.6421 394.143 47.8906 394.406 47.9418C394.67 47.9931 395.209 48.4836 395.604 49.032C396.964 50.9194 396.401 55.3953 394.566 57.2911C393.958 57.9191 393.893 57.9123 393.209 57.1489C392.317 56.1538 392.252 55.1705 393.094 55.4342C393.602 55.5929 393.751 55.3094 394.028 53.6642C394.305 52.023 394.272 51.5506 393.827 50.7505L393.296 49.7955L393.19 50.6558C393.132 51.129 392.801 51.6976 392.455 51.9193C391.767 52.3599 386.674 52.1526 383.296 51.5465C381.363 51.1996 379.093 51.3657 378.76 51.8785C378.672 52.0136 378.141 52.5081 377.579 52.9773L376.558 53.8302L376.196 53.0226C375.864 52.2805 375.79 52.2641 375.276 52.8197C374.969 53.1523 374.558 53.4244 374.362 53.4244C374.166 53.4244 373.818 53.7385 373.589 54.1223C373.359 54.5062 372.914 54.9896 372.6 55.1966C372.286 55.4036 371.136 56.4552 370.045 57.5335C368.955 58.6117 366.266 61.2602 364.071 63.4189C361.876 65.5776 360.008 67.4409 359.92 67.5595C359.832 67.678 358.539 69.042 357.046 70.5907C355.553 72.1393 353.103 74.798 351.601 76.4987C350.098 78.1994 347.601 80.9661 346.05 82.6469C344.499 84.3278 342.795 86.2615 342.264 86.9444C341.732 87.6272 341.161 88.1859 340.995 88.1859C340.829 88.1859 340.296 88.5726 339.809 89.0453C339.323 89.5181 338.525 90.2486 338.035 90.6689C337.546 91.0891 336.748 91.9056 336.263 92.4834C335.779 93.0611 335.275 93.5338 335.144 93.5338C335.014 93.5338 334.68 93.7939 334.401 94.1116C334.123 94.4294 333.069 95.4819 332.06 96.4504C331.05 97.4189 330.223 98.3541 330.223 98.5286C330.223 98.7032 330.584 99.1549 331.024 99.5324C331.763 100.166 337.248 109.545 337.248 110.175C337.248 110.328 337.721 111.159 338.298 112.021C338.875 112.883 339.617 114.104 339.948 114.734C340.278 115.365 341.5 117.427 342.662 119.318C344.948 123.038 348.744 130.056 348.744 130.563C348.744 130.735 348.966 131.096 349.238 131.366C349.51 131.636 350.096 132.776 350.54 133.9C351.066 135.23 351.479 135.846 351.722 135.663C352.706 134.928 353.836 134.904 359.92 135.49C365.322 136.01 372.138 136.981 373.632 137.443C374.257 137.636 375.577 137.909 376.566 138.049C378.563 138.332 379.172 137.876 378.312 136.74C378.032 136.369 377.802 135.884 377.802 135.661C377.802 135.438 377.299 135.143 376.684 135.005C375.481 134.735 375.304 134.379 376.02 133.669C376.378 133.314 376.883 133.467 378.424 134.397C382.134 136.637 383.871 139.35 383.384 142.144C382.917 144.821 381.646 145.814 380.277 144.571L380.276 144.57ZM197.712 143.112C197.175 142.055 197.111 141.398 197.249 138.337C197.4 134.992 197.373 134.788 196.778 134.788C196.431 134.788 196.057 134.963 195.947 135.176C195.836 135.39 195.612 135.466 195.449 135.345C195.285 135.224 195.152 135.704 195.152 136.412C195.152 138.008 194.509 139.118 193.694 138.933C193.21 138.823 193.041 138.382 192.916 136.901L192.757 135.01L191.005 135.123C190.042 135.186 189.141 135.319 189.005 135.42C188.868 135.522 188.147 135.685 187.403 135.783C186.011 135.968 185.043 136.143 183.656 136.461C181.456 136.966 180.465 137.012 180.262 136.618C179.985 136.083 181.287 134.788 182.101 134.788C182.585 134.788 182.671 134.599 182.518 133.871C182.354 133.09 182.46 132.924 183.23 132.756C184.07 132.573 186.543 132.65 191.112 133.002C192.791 133.131 193.057 133.046 193.753 132.152C194.179 131.606 194.671 130.522 194.848 129.743C195.025 128.964 195.305 128.226 195.471 128.103C195.865 127.812 196.568 125.87 197.06 123.711C197.276 122.765 197.737 121.239 198.085 120.319C198.433 119.399 198.796 118.067 198.892 117.358C199.039 116.278 198.97 116.071 198.466 116.073C198.136 116.074 197.579 116.628 197.227 117.304C195.637 120.363 195.152 121.315 194.544 122.565C194.186 123.3 193.483 124.482 192.981 125.192C192.194 126.304 191.977 126.423 191.406 126.057C190.859 125.707 190.755 125.315 190.814 123.812C190.896 121.692 192.019 119.281 193.911 117.165C194.593 116.402 195.152 115.67 195.152 115.539C195.152 115.328 196.28 113.687 197.258 112.475C197.45 112.236 197.867 111.387 198.185 110.587C198.696 109.297 198.737 108.465 198.546 103.168C198.428 99.8868 198.202 96.0759 198.044 94.6993C197.696 91.6729 197.149 85.5357 196.901 81.8824C196.801 80.4118 196.658 78.6927 196.584 78.0625C196.27 75.4027 195.59 62.7472 195.66 60.8732C195.936 53.5073 196.216 49.4035 196.593 47.2084C197.269 43.2616 198.611 42.1902 198.611 45.5963C198.611 46.74 198.474 47.3124 198.2 47.3124C197.619 47.3124 197.417 49.2334 197.198 56.8622C197.038 62.4216 197.311 71.0182 197.861 77.6811C198.018 79.5884 198.834 92.1663 199.545 103.657L199.782 107.477L201.094 105.185C201.816 103.924 202.502 102.529 202.619 102.084C202.736 101.639 203.115 100.968 203.462 100.592C203.809 100.217 204.092 99.5066 204.092 99.014C204.092 98.5213 204.236 98.1182 204.412 98.1182C204.587 98.1182 204.731 97.8002 204.731 97.4115C204.731 97.0228 205.159 95.9989 205.681 95.1362C206.722 93.4169 206.698 93.3417 204.99 92.9584C204.345 92.8136 203.746 92.4725 203.659 92.2004C203.428 91.4807 204.715 90.2223 206.008 89.9025C206.623 89.7505 207.27 89.4945 207.445 89.3336C207.621 89.1726 208.267 88.9558 208.882 88.8517C209.497 88.7476 210.833 88.3835 211.851 88.0425C214.002 87.3224 215.372 87.2415 215.204 87.8445C215.139 88.0767 214.542 88.4906 213.876 88.7643C212.325 89.4024 212.33 89.3943 212.797 90.5987C213.177 91.5773 213.302 91.6212 215.907 91.688C217.4 91.7262 219.124 91.7254 219.739 91.6866C220.354 91.6471 227.466 91.5256 235.545 91.4164C250.343 91.2164 255.256 91.4701 257.936 92.5727C259.164 93.0777 259.97 94.1939 258.813 93.7875C255.857 92.7487 244.153 92.3979 230.595 92.9416C227.17 93.0789 221.677 93.2606 218.389 93.3451C214.615 93.4421 212.147 93.6666 211.698 93.9536C211.17 94.2917 210.957 94.2963 210.866 93.9716C210.799 93.7314 210.584 93.5349 210.388 93.5349C210.14 93.5349 210.148 93.6748 210.415 93.9933C211.165 94.8912 210.825 96.2604 209.441 97.9142C208.694 98.8058 207.509 100.359 206.806 101.365C206.104 102.371 205.314 103.481 205.05 103.832C204.393 104.709 203.52 106.86 203.261 108.242C203.143 108.872 202.943 109.56 202.816 109.77C202.614 110.105 200.957 115.634 200.756 116.645C200.501 117.921 200.154 119.359 200.041 119.599C199.969 119.753 199.843 121.214 199.761 122.846C199.68 124.478 199.496 126.798 199.352 128.002C199.209 129.206 199.157 130.721 199.236 131.368L199.381 132.546L201.976 132.324C203.403 132.202 205.577 132.017 206.806 131.912C214.484 131.26 229.084 131.011 241.606 131.319C243.375 131.362 244.518 131.236 244.587 130.989C244.648 130.769 245.109 130.588 245.611 130.588C246.113 130.588 246.616 130.408 246.73 130.188C246.874 129.909 247.062 129.911 247.347 130.195C247.573 130.419 247.992 130.494 248.279 130.362C248.566 130.231 249.195 130.44 249.677 130.827C250.609 131.577 251.053 131.684 254.065 131.886C256.696 132.063 256.779 132.079 256.779 132.403C256.779 132.561 255.414 132.666 253.746 132.636C252.077 132.606 250.712 132.714 250.712 132.876C250.712 133.22 249.362 133.904 247.998 134.25C245.747 134.821 236.143 134.947 220.457 134.61C211.238 134.411 208.882 134.459 208.882 134.843C208.882 135.177 208.779 135.203 208.55 134.929C208.178 134.483 199.298 134.651 198.909 135.111C198.781 135.263 198.581 137.116 198.465 139.229C198.282 142.585 198.321 143.102 198.779 143.312C199.437 143.614 199.465 144.341 198.819 144.341C198.553 144.341 198.055 143.789 197.712 143.115L197.712 143.112ZM245.777 133.351C246.209 133.252 246.562 133.035 246.562 132.868C246.562 132.557 229.677 132.453 229.234 132.761C228.388 133.349 230.182 133.523 237.144 133.526C241.46 133.528 245.345 133.449 245.777 133.351L245.777 133.351ZM247.52 133.092C247.52 132.999 247.377 132.817 247.201 132.687C247.025 132.557 246.882 132.633 246.882 132.856C246.882 133.078 247.025 133.26 247.201 133.26C247.377 133.26 247.52 133.184 247.52 133.092ZM196.981 132.647C196.875 132.52 196.6 132.507 196.369 132.617C196.115 132.739 196.19 132.83 196.562 132.848C196.899 132.865 197.087 132.774 196.981 132.647V132.647ZM198.026 132.496C198.026 132.286 197.882 132.114 197.706 132.114C197.531 132.114 197.387 132.286 197.387 132.496C197.387 132.706 197.531 132.878 197.706 132.878C197.882 132.878 198.026 132.706 198.026 132.496ZM197.595 131.058C197.798 130.903 198.058 129.918 198.175 128.867C198.291 127.817 198.464 126.463 198.559 125.859C198.813 124.252 198.179 124.921 197.609 126.862C197.347 127.755 196.9 129.13 196.617 129.918C196.132 131.265 196.135 131.35 196.664 131.344C196.974 131.342 197.393 131.212 197.595 131.058L197.595 131.058ZM209.84 94.8226C209.84 94.315 209.754 94.2889 209.361 94.6783C209.098 94.9399 208.882 95.2188 208.882 95.2981C208.882 95.3774 209.098 95.4423 209.361 95.4423C209.625 95.4423 209.84 95.1635 209.84 94.8226ZM208.882 91.0895C208.882 90.8125 208.574 90.645 208.164 90.6994C207.208 90.8261 207.226 90.8155 207.402 91.1569C207.663 91.6609 208.882 91.6054 208.882 91.0895H208.882ZM433.325 143.578C432.765 143.182 431.473 135.387 431.885 134.895C432.721 133.895 434.681 138.643 434.753 141.842C434.798 143.841 434.392 144.335 433.325 143.578ZM523.407 143.577C522.617 143.418 520.713 143.192 519.176 143.076C516.259 142.854 513.508 141.672 513.508 140.641C513.508 139.925 513.262 139.906 522.11 141.302C524.447 141.67 525.642 142.394 525.642 143.442C525.642 144 525.542 144.006 523.407 143.577L523.407 143.577ZM190.756 142.714C190.959 141.979 192.275 141.873 192.275 142.592C192.275 142.982 191.986 143.191 191.45 143.191C190.933 143.191 190.674 143.013 190.756 142.714V142.714ZM419.954 141.688C419.438 140.48 419.334 139.615 419.422 137.268C419.59 132.815 420.86 131.976 422.125 135.483C422.83 137.439 424.014 138.947 425.593 139.899C426.761 140.604 426.72 140.652 427.409 137.782C427.984 135.382 427.886 134.672 426.908 134.149C426.299 133.824 426.287 133.747 426.761 133.18C428.524 131.07 430.268 135.897 429.15 139.792C428.091 143.48 426.376 143.77 423.518 140.743C422.89 140.078 422.74 140.046 422.485 140.527C422.322 140.837 422.186 141.459 422.183 141.909C422.178 142.651 421.63 143.191 420.881 143.191C420.724 143.191 420.306 142.515 419.954 141.689V141.688ZM420.582 138.225C420.582 137.805 420.527 137.461 420.459 137.461C420.392 137.461 420.262 137.805 420.17 138.225C420.078 138.646 420.133 138.989 420.292 138.989C420.451 138.989 420.582 138.646 420.582 138.225ZM194.1 141.792C194.319 141.686 194.678 141.686 194.898 141.792C195.117 141.898 194.938 141.985 194.499 141.985C194.06 141.985 193.88 141.898 194.1 141.792ZM275.975 138.607C275.975 138.082 276.048 137.867 276.136 138.13C276.225 138.392 276.225 138.822 276.136 139.085C276.048 139.347 275.975 139.133 275.975 138.607ZM275.93 135.265C275.932 134.057 276.061 132.831 276.214 132.54C276.368 132.249 276.389 131.562 276.261 131.012C276.132 130.462 276.146 129.497 276.291 128.867C276.539 127.786 276.908 121.985 277.378 111.773C277.497 109.187 277.462 107.284 277.297 107.284C277.139 107.284 276.623 108.015 276.15 108.908C275.677 109.801 274.93 111.031 274.49 111.641C274.049 112.251 273.689 112.864 273.689 113.001C273.689 113.139 273.437 113.585 273.128 113.992C272.156 115.274 270.496 117.889 270.496 118.139C270.496 118.378 268.894 121.438 268.58 121.8C268.148 122.296 265.34 130.592 265.22 131.726C265.01 133.71 264.511 134.025 263.636 132.724C262.917 131.655 262.898 131.291 263.475 129.631C263.726 128.908 264.155 127.028 264.259 126.193C264.314 125.746 264.607 124.866 265.4 122.755C265.716 121.915 266.205 120.368 266.486 119.317C266.768 118.267 267.122 117.063 267.272 116.643C268.152 114.189 268.585 112.651 268.778 111.295C268.898 110.455 269.262 109.023 269.587 108.112C270.583 105.318 270.233 104.244 268.759 105.577C268.418 105.886 267.865 106.138 267.531 106.138C266.891 106.138 264.983 107.273 264.802 107.762C264.743 107.919 264.508 108.048 264.28 108.048C264.051 108.048 263.619 108.496 263.319 109.044C262.967 109.686 262.663 109.909 262.464 109.67C261.954 109.06 263.936 107.038 266.36 105.695C267.581 105.018 268.58 104.325 268.58 104.155C268.58 103.843 267.712 103.708 266.455 103.827C266.077 103.862 265.673 103.709 265.558 103.487C265.432 103.242 265.704 103.063 266.246 103.033C267.618 102.958 270.278 103.111 270.826 103.297C271.324 103.466 271.647 102.781 272.732 99.2624C273.309 97.3928 274.221 96.8498 274.97 97.9298C275.278 98.3734 275.312 98.8297 275.094 99.5717C274.928 100.137 274.69 100.513 274.566 100.408C274.442 100.303 274.107 100.617 273.821 101.105C273.167 102.221 271.089 108.059 270.534 110.34C270.303 111.286 269.975 112.377 269.805 112.765C269.634 113.153 269.586 113.58 269.698 113.714C269.929 113.99 271.117 112.276 271.128 111.651C271.138 111.114 272.922 106.952 273.476 106.174C273.715 105.839 274.45 104.19 275.109 102.509C275.767 100.828 276.549 98.8516 276.845 98.1163C277.279 97.0398 277.329 96.3701 277.101 94.6785C276.946 93.523 276.631 92.3197 276.401 92.0045C276.107 91.6004 275.92 89.292 275.77 84.1736C275.55 76.7253 274.858 66.3216 274.333 62.591C274.17 61.4355 273.883 59.1149 273.695 57.434C273.507 55.7532 273.079 52.745 272.744 50.7492C271.874 45.5563 271.795 42.3454 272.538 42.3454C273.018 42.3454 273.472 43.3668 273.215 43.8657C273.128 44.0336 273.397 46.038 273.813 48.3197C274.228 50.6014 274.667 53.1254 274.787 53.9286C274.968 55.1446 275.082 55.3127 275.465 54.9323C275.718 54.6811 275.925 54.2101 275.925 53.8856C275.925 53.5612 276.02 53.4096 276.136 53.5488C276.253 53.6879 276.323 54.5865 276.293 55.5457C276.259 56.6235 276.411 57.4975 276.692 57.8338C277.293 58.5521 277.963 62.2647 277.547 62.5718C277.353 62.7154 277.343 63.3617 277.519 64.2985C277.675 65.1219 277.726 65.942 277.634 66.1209C277.066 67.2188 277.858 93.9146 278.458 93.9146C278.58 93.9146 278.918 93.3194 279.208 92.5919C279.581 91.6555 280.041 91.1699 280.784 90.9291C282.052 90.5179 282.631 90.9535 282.631 92.3187C282.631 93.0845 282.546 93.2015 282.247 92.845C281.685 92.1718 281.034 92.2866 281.034 93.059C281.034 93.4288 280.704 94.1593 280.3 94.6824C279.545 95.6609 278.479 98.4583 278.479 99.4611C278.479 100.363 278.914 100.115 279.502 98.878C279.836 98.1764 280.306 97.7344 280.718 97.7344C281.311 97.7344 281.379 97.9251 281.292 99.3579C281.22 100.543 281.021 101.073 280.555 101.32C279.321 101.974 278.867 104.075 278.483 110.913C277.708 124.711 277.544 126.846 277.221 127.311C277.038 127.575 276.962 127.879 277.052 127.987C277.315 128.302 276.482 137.462 276.19 137.462C276.044 137.462 275.927 136.473 275.93 135.265L275.93 135.265ZM269.858 114.71C269.858 114.408 269.729 114.16 269.573 114.16C269.22 114.16 268.877 115.151 269.126 115.449C269.406 115.783 269.858 115.327 269.858 114.71ZM276.89 103.234C277.025 102.52 277.093 101.936 277.042 101.936C276.795 101.936 275.344 105.698 275.513 105.9C275.809 106.254 276.615 104.694 276.89 103.234L276.89 103.234ZM506.739 136.984C506.175 136.441 505.464 130.455 505.398 125.688C505.36 122.98 505.408 122.746 506.028 122.64C506.613 122.541 506.768 122.861 507.23 125.138C507.522 126.575 507.711 128.298 507.65 128.967C507.589 129.636 507.711 131.606 507.923 133.345C508.323 136.641 508.262 137.462 507.619 137.462C507.408 137.462 507.012 137.247 506.739 136.984L506.739 136.984ZM20.4657 136.587C19.3265 135.9 19.2962 134.737 20.392 133.767C21.6031 132.696 24.3619 132.05 28.4487 131.881C30.2928 131.804 32.5918 131.642 33.5577 131.519C34.5236 131.397 35.5552 131.272 35.8499 131.241C36.1447 131.211 36.3603 131.008 36.3289 130.791C36.2976 130.573 36.4874 130.455 36.7509 130.529C37.7562 130.809 39.8815 130.694 42.4145 130.221C43.861 129.951 45.334 129.821 45.6879 129.932C46.0417 130.042 46.2507 129.977 46.1523 129.786C46.0539 129.596 46.7362 129.423 47.6686 129.402C50.1637 129.345 52.2908 129.117 54.6862 128.651C55.8573 128.422 57.2942 128.181 57.8794 128.114C58.4646 128.048 59.5182 127.886 60.2207 127.755C60.9232 127.624 62.0728 127.447 62.7753 127.36C63.4778 127.273 64.0526 127.175 64.0526 127.141C64.0526 127.107 64.8429 126.996 65.8088 126.893C66.7747 126.791 69.7204 126.386 72.3549 125.994C76.5896 125.364 77.2279 125.346 77.8632 125.842C78.5617 126.386 78.8358 127.679 78.3318 128.052C78.1945 128.153 77.009 128.276 75.6975 128.325C73.2845 128.415 67.5945 129.2 66.1282 129.646C65.6891 129.779 64.6833 129.949 63.8929 130.023C60.7133 130.322 55.9535 130.943 53.994 131.316C52.8525 131.533 51.2718 131.795 50.4815 131.897C49.6912 132 48.1825 132.246 47.1287 132.445C46.075 132.644 44.9973 132.812 44.7338 132.819C44.4704 132.826 43.5364 132.94 42.6582 133.073C41.1972 133.295 40.0323 133.447 37.6289 133.728C37.146 133.785 36.7504 133.918 36.7499 134.023C36.7493 134.129 35.8538 134.27 34.7594 134.338C33.6652 134.405 32.6238 134.592 32.4453 134.753C32.2667 134.913 31.4741 135.082 30.6837 135.127C29.8934 135.172 29.2049 135.35 29.1539 135.522C29.1028 135.695 28.4214 135.75 27.6397 135.645C26.767 135.527 26.038 135.632 25.7509 135.917C25.4937 136.173 25.15 136.283 24.9871 136.163C24.8242 136.042 23.9917 136.198 23.1371 136.508C21.2707 137.185 21.4482 137.18 20.4656 136.587L20.4657 136.587ZM513.691 132.562C513.285 131.776 521.771 126.766 523.507 126.766C524.635 126.766 525.312 127.143 525.312 127.769C525.312 128.143 525.084 128.24 524.569 128.085C523.823 127.862 522.92 128.28 517.428 131.395C514.79 132.891 513.99 133.141 513.691 132.562ZM206.216 124.183C205.144 124.009 205.232 123.182 206.339 123.033C206.765 122.976 207.914 122.674 208.893 122.363C209.873 122.052 211.022 121.807 211.448 121.818C211.874 121.83 213.443 121.745 214.936 121.631C221.165 121.155 225.447 120.969 233.457 120.829C238.111 120.747 242.802 120.533 243.882 120.354C245.405 120.101 245.812 120.134 245.694 120.502C245.61 120.763 245.338 121.071 245.089 121.185C244.606 121.406 235.627 122.015 227.23 122.395C224.42 122.522 221.474 122.682 220.684 122.751C216.665 123.1 212.15 123.413 211.583 123.382C211.232 123.363 210.514 123.499 209.987 123.684C208.604 124.171 207.244 124.351 206.216 124.183H206.216ZM21.1294 122.778C20.5494 122.039 20.4616 121.704 20.7418 121.3C21.1628 120.693 22.8947 120.036 24.9437 119.705C25.734 119.577 26.8508 119.294 27.4254 119.076C28 118.858 28.934 118.607 29.501 118.519C32.1234 118.11 33.1219 117.912 33.5653 117.715C33.8288 117.597 34.9751 117.433 36.1127 117.348C37.2503 117.264 38.3096 117.041 38.4667 116.854C38.6238 116.666 38.9325 116.595 39.1528 116.696C39.3731 116.797 40.4692 116.587 41.5886 116.23C42.708 115.873 44.0165 115.55 44.4963 115.514C44.9762 115.477 45.4671 115.33 45.5873 115.186C45.7076 115.042 46.7794 114.924 47.9691 114.924C49.1588 114.924 50.2207 114.753 50.3287 114.544C50.4367 114.335 50.984 114.195 51.545 114.232C52.1059 114.269 53.7144 114.077 55.1195 113.805C56.5245 113.533 58.0332 113.263 58.4723 113.204C59.9572 113.004 66.9308 111.856 67.4132 111.732C67.6766 111.665 68.4669 111.482 69.1694 111.327C69.8719 111.172 70.6622 110.945 70.9257 110.823C71.4266 110.592 71.8709 110.615 73.1012 110.938C73.6858 111.091 73.8189 111.346 73.7398 112.164C73.6583 113.006 73.4338 113.243 72.5222 113.452C70.0413 114.019 67.5288 114.613 66.7745 114.811C66.3354 114.926 65.4732 115.007 64.8585 114.991C64.2439 114.974 62.4477 115.208 60.8671 115.511C59.2864 115.814 57.2747 116.148 56.3966 116.253C55.5184 116.358 53.6504 116.62 52.2454 116.835C50.8404 117.05 49.0835 117.297 48.3413 117.384C47.599 117.471 46.8626 117.637 46.7048 117.754C46.5469 117.871 45.757 118.061 44.9495 118.177C44.142 118.293 41.1424 118.918 38.2838 119.566C35.4252 120.214 32.0445 120.916 30.7711 121.126C29.4977 121.336 28.4561 121.623 28.4561 121.764C28.4561 121.905 27.7873 122.047 26.97 122.079C26.1526 122.11 25.3982 122.297 25.2935 122.492C25.1889 122.688 24.6003 122.929 23.9856 123.03C23.3709 123.13 22.6455 123.329 22.3737 123.472C22.0588 123.638 21.6072 123.386 21.1294 122.778L21.1294 122.778ZM250.387 121.081C250.387 120.871 250.531 120.593 250.706 120.463C250.882 120.333 251.026 120.399 251.026 120.609C251.026 120.819 250.882 121.097 250.706 121.227C250.531 121.357 250.387 121.291 250.387 121.081ZM511.905 120.867C511.905 120.242 513.098 119.126 513.766 119.126C514.009 119.126 514.875 118.301 515.691 117.292C516.506 116.283 517.88 114.779 518.745 113.95C519.609 113.12 521.104 111.625 522.067 110.627C523.819 108.812 525.316 108.24 525.316 109.386C525.316 109.701 525.113 109.958 524.866 109.958C524.618 109.958 524.052 110.474 523.609 111.104C523.166 111.735 522.657 112.25 522.479 112.25C522.301 112.25 522.04 112.491 521.899 112.785C521.759 113.078 520.741 114.128 519.638 115.118C518.535 116.108 517.242 117.383 516.764 117.953C514.487 120.668 511.905 122.217 511.905 120.867L511.905 120.867ZM207.821 119.984C206.857 118.71 206.686 117.443 206.945 113.499C207.084 111.379 207.296 109.454 207.416 109.222C207.536 108.99 207.702 108.33 207.783 107.755C208.276 104.297 209.858 100.041 211.409 98.0011C212.929 96.0028 214.33 95.2329 215.308 95.8591L216.051 96.3345L215.094 96.7085C214.567 96.9142 214.021 97.316 213.88 97.6015C213.739 97.8869 213.258 98.5923 212.81 99.169C211.135 101.327 208.868 107.391 208.868 109.712C208.868 110.215 208.652 111.357 208.389 112.25C207.784 114.301 207.754 118.114 208.338 118.694C208.574 118.928 208.861 119.006 208.977 118.868C209.093 118.73 209.187 118.882 209.187 119.207C209.187 120.276 208.386 120.731 207.821 119.983L207.821 119.984ZM251.523 120.323C251.385 120.057 251.359 119.736 251.464 119.61C251.75 119.268 252.062 119.771 251.907 120.325C251.799 120.713 251.724 120.713 251.523 120.324L251.523 120.323ZM436.307 119.031C436.137 118.768 435.909 118.252 435.799 117.885C435.69 117.517 435.38 117.216 435.111 117.216C434.543 117.216 434.424 114.73 434.946 113.778C435.226 113.269 435.296 113.269 435.575 113.778C435.748 114.093 435.892 114.642 435.894 114.997C435.898 115.353 436.023 115.735 436.174 115.847C436.776 116.292 437.264 108.762 437.249 99.2623C437.234 89.4596 437.027 87.1511 436.183 87.3215C435.924 87.3739 435.507 86.8045 435.215 85.9973L434.703 84.5813L434.473 85.8368C434.315 86.6961 434.1 87.0274 433.793 86.8865C433.502 86.7526 433.345 86.9436 433.345 87.4325C433.345 87.8461 433.042 88.5467 432.672 88.9894C432.077 89.7008 431.944 89.7285 431.526 89.2279C431.107 88.7273 431.116 88.5116 431.598 87.3725C431.899 86.6636 432.327 85.8257 432.549 85.5105C432.977 84.9057 433.468 82.7388 434.107 78.6347C434.462 76.3586 434.566 76.1416 435.357 76.0309C436.03 75.9365 436.219 76.071 436.219 76.6479C436.219 77.8589 437.439 79.3484 439.361 80.482C440.819 81.3424 441.168 81.7278 441.168 82.4789C441.168 83.3341 441.06 83.4004 439.839 83.297C438.341 83.1702 437.939 83.5966 438.46 84.7595C439.193 86.3985 439.491 90.5412 439.462 98.6894C439.445 103.312 439.281 108.382 439.097 109.958C438.913 111.534 438.674 114.112 438.565 115.688C438.356 118.736 438.075 119.508 437.177 119.508C436.868 119.508 436.477 119.293 436.307 119.03L436.307 119.031ZM436.437 85.8215C436.335 85.5168 436.259 85.6073 436.244 86.0523C436.23 86.455 436.305 86.6806 436.412 86.5537C436.518 86.4268 436.529 86.0973 436.437 85.8215ZM420.732 118.53C419.405 117.709 416.697 114.465 416.875 113.909C417.079 113.273 416.13 112.416 415.388 112.566C414.906 112.664 414.796 112.5 414.879 111.806C415.022 110.601 415.982 110.471 416.749 111.552C417.305 112.335 417.355 112.35 417.171 111.678C417.056 111.257 416.765 110.638 416.525 110.301C415.744 109.208 414.234 103.359 413.862 99.9935C413.657 98.1302 413.564 94.0876 413.646 90.6347C413.764 85.7096 413.957 83.7587 414.662 80.3542C415.141 78.0432 415.718 75.7225 415.946 75.1973C416.586 73.7202 417.561 72.5233 418.124 72.5233C418.723 72.5233 419.295 73.6529 419.295 74.8388C419.295 75.7617 417.468 80.4342 416.961 80.8094C416.785 80.9391 416.738 80.8586 416.856 80.6306C416.974 80.4026 416.942 80.1215 416.786 80.0059C415.99 79.4172 415.138 90.9184 415.51 97.2385C415.823 102.561 417.613 108.554 419.706 111.287C420.648 112.517 421.079 112.794 422.101 112.824C423.16 112.856 423.403 112.708 423.727 111.834C424.083 110.871 425.468 110.138 426.078 110.589C426.785 111.111 425.91 115.449 424.614 117.843C424.05 118.886 423.722 119.117 422.807 119.119C422.193 119.12 421.259 118.855 420.732 118.529V118.53ZM422.169 116.071C421.915 115.883 421.636 115.816 421.548 115.921C421.461 116.026 421.596 116.265 421.849 116.453C422.103 116.64 422.382 116.707 422.469 116.602C422.557 116.497 422.422 116.258 422.169 116.071ZM253.255 118.439C253.255 118.037 253.948 117.216 254.288 117.216C254.434 117.216 254.4 117.56 254.213 117.98C253.875 118.735 253.255 119.032 253.255 118.439H253.255ZM255.809 115.757C255.809 115.585 256.153 115.086 256.574 114.648C256.995 114.211 257.462 113.617 257.612 113.329C257.976 112.63 259.651 111.371 259.87 111.633C260.063 111.864 256.448 116.071 256.057 116.071C255.921 116.071 255.809 115.93 255.809 115.757L255.809 115.757ZM510.303 115.353C510.303 115.169 510.518 114.804 510.782 114.543C511.045 114.281 511.261 113.868 511.261 113.624C511.261 113.381 512.043 112.238 512.999 111.085C513.955 109.932 515.069 108.437 515.474 107.763C520.784 98.9215 522.247 96.7861 522.743 97.1528C523.093 97.4115 522.839 98.5107 522.299 99.0719C522.097 99.282 521.651 99.9982 521.306 100.664C519.82 103.535 517.561 107.24 516.682 108.248C516.159 108.847 515.731 109.441 515.731 109.566C515.731 109.692 514.689 111.124 513.416 112.748C511.319 115.422 510.303 116.273 510.303 115.353L510.303 115.353ZM169.131 112.032C168.452 111.22 168.498 110.089 169.22 109.863C169.804 109.68 170.404 107.175 170.035 106.46C169.943 106.282 166.105 106.161 161.505 106.193C153.377 106.248 145.781 105.939 144.557 105.504C143.863 105.257 142.936 105.172 137.017 104.807C134.646 104.66 132.204 104.405 131.589 104.239C130.974 104.072 129.762 103.907 128.895 103.87C128.028 103.834 127.236 103.743 127.135 103.668C126.502 103.2 118.841 102.736 117.955 103.112C117.158 103.45 116.094 102.8 115.587 101.665C114.883 100.092 115.776 99.6436 119.26 99.8199C120.86 99.9009 122.528 100.05 122.967 100.152C124.524 100.512 128.603 101.123 132.068 101.517C134 101.736 138.526 102.265 142.126 102.691C147.882 103.373 157.353 104.067 158.251 103.872C158.427 103.833 160.622 103.75 163.129 103.687C165.637 103.624 167.771 103.473 167.871 103.353C167.972 103.232 167.537 102.515 166.905 101.759C165.559 100.148 165.453 99.3681 166.539 99.0423C167.351 98.7984 168.967 100.08 170.789 102.414C171.24 102.992 171.915 103.465 172.29 103.465C173.589 103.465 174.29 105.35 173.25 106.046C172.934 106.257 172.7 107.174 172.587 108.639C172.49 109.885 172.243 111.034 172.037 111.19C171.831 111.347 171.806 111.483 171.982 111.493C172.158 111.503 172.023 111.763 171.682 112.072C170.874 112.803 169.761 112.786 169.131 112.032L169.131 112.032ZM17.8016 111.558C17.2308 110.802 17.2348 110.768 17.9612 110.207C18.3712 109.891 19.5688 109.525 20.6225 109.394C23.7027 109.012 25.0606 108.802 25.5719 108.629C25.8353 108.539 27.9189 108.191 30.2021 107.854C32.4852 107.518 35.5746 107.004 37.0674 106.714C38.5602 106.423 40.7156 106.074 41.8572 105.939C42.9988 105.804 45.5852 105.349 47.6049 104.929C49.6246 104.508 53.217 103.848 55.5879 103.461C57.9588 103.074 60.9046 102.506 62.134 102.198C63.3633 101.89 65.5631 101.521 67.0223 101.378C69.8259 101.102 70.596 101.388 70.596 102.706C70.596 103.448 69.7197 103.827 67.4029 104.088C66.6126 104.177 64.8882 104.499 63.571 104.804C62.2539 105.108 59.7438 105.46 57.9931 105.586C56.2424 105.712 54.6754 105.914 54.5109 106.036C54.3464 106.158 53.6952 106.319 53.0639 106.395C52.4325 106.471 51.1256 106.734 50.1598 106.98C49.1938 107.225 48.2806 107.388 48.1302 107.342C47.6292 107.188 42.6657 108.121 41.9995 108.495C41.6385 108.697 41.2074 108.822 41.0415 108.773C40.8757 108.724 40.237 108.786 39.6223 108.911C39.0075 109.035 37.0677 109.339 35.3114 109.585C33.5552 109.831 31.6013 110.187 30.9695 110.377C30.3376 110.566 29.0444 110.808 28.0957 110.915C27.1468 111.022 25.221 111.287 23.816 111.504C22.4109 111.722 20.6148 111.997 19.8245 112.116C18.6424 112.295 18.2836 112.196 17.8019 111.558L17.8016 111.558ZM260.673 110.627C260.746 110.365 261.077 110.087 261.408 110.01C261.929 109.889 261.952 109.954 261.582 110.488C261.075 111.218 260.483 111.309 260.673 110.627V110.627ZM212.376 103.356C212.376 102.81 212.52 102.258 212.695 102.128C212.871 101.998 214.343 101.916 215.968 101.944C220.915 102.03 224.972 102.185 225.309 102.3C225.484 102.36 225.772 102.369 225.947 102.32C226.605 102.135 243.32 102.327 246.463 102.555C253.945 103.097 248.663 103.364 231.615 103.303C216.198 103.249 213.41 103.322 212.935 103.793C212.427 104.297 212.376 104.256 212.376 103.356L212.376 103.356ZM250.19 103.034C250.074 102.81 251.489 102.692 253.863 102.726C255.986 102.756 257.795 102.92 257.883 103.091C257.971 103.261 256.319 103.4 254.21 103.399C252.102 103.398 250.293 103.234 250.19 103.034ZM258.677 103.083C258.677 102.873 258.956 102.701 259.297 102.701C259.638 102.701 260.006 102.873 260.114 103.083C260.226 103.3 259.958 103.465 259.494 103.465C259.045 103.465 258.677 103.293 258.677 103.083ZM261.714 103.077C261.824 102.864 262.048 102.788 262.212 102.909C262.655 103.236 262.572 103.465 262.011 103.465C261.737 103.465 261.604 103.291 261.714 103.077ZM262.828 103.149C262.828 102.976 263.259 102.909 263.786 103.002C264.313 103.094 264.744 103.236 264.744 103.318C264.744 103.399 264.313 103.465 263.786 103.465C263.259 103.465 262.828 103.323 262.828 103.149ZM201.491 99.1679C201.476 98.9053 201.424 97.9164 201.376 96.9705C201.327 96.0246 201.189 93.618 201.069 91.6226C200.63 84.337 200.582 81.6917 200.891 81.6917C201.063 81.6917 201.218 83.1721 201.241 85.0341C201.29 89.0226 201.337 89.8687 201.609 91.6236C202.055 94.4949 202.22 99.6453 201.867 99.6453C201.676 99.6453 201.507 99.4305 201.491 99.1679V99.1679ZM19.8087 97.8279C19.4688 97.5431 19.1907 97.0681 19.1907 96.7722C19.1907 95.6811 20.6075 95.2979 25.0981 95.1747C27.5569 95.1073 29.7795 94.9593 30.0373 94.8459C30.632 94.5842 34.6841 93.9501 37.392 93.6951C38.5335 93.5875 39.6831 93.4049 39.9465 93.2893C40.21 93.1737 41.0003 93.0153 41.7028 92.9374C44.698 92.6049 45.5614 92.4717 46.0136 92.2722C46.5777 92.0235 49.5301 91.6076 52.0523 91.4217C56.4922 91.0944 58.8814 90.8342 62.2989 90.3055C64.3186 89.993 66.9769 89.7015 68.2063 89.6578C69.4357 89.6141 70.7069 89.4219 71.031 89.2309C71.3552 89.0398 72.8626 88.8876 74.3807 88.8927C76.8428 88.9014 77.2031 88.9937 77.7157 89.7509C78.406 90.7708 78.1494 91.1664 76.4678 91.6749C75.7877 91.8805 74.7283 92.2143 74.1136 92.4167C73.499 92.6191 72.2129 92.8672 71.2557 92.968C70.2986 93.0689 69.3718 93.3234 69.1961 93.5335C69.0204 93.7436 68.2817 93.9156 67.5544 93.9156C66.8271 93.9156 65.5597 94.1576 64.7379 94.4535C63.4088 94.932 63.1876 94.9242 62.7347 94.3827C62.269 93.8255 62.2831 93.7484 62.9009 93.475C63.2722 93.3107 63.576 92.9887 63.576 92.7594C63.576 92.5301 63.4598 92.4285 63.3179 92.5334C63.1759 92.6384 61.9186 92.8356 60.5238 92.9718C59.129 93.1079 57.5569 93.3057 57.0299 93.4114C55.7731 93.6635 54.7971 93.7753 50.9629 94.1065C49.2066 94.2583 47.6707 94.4528 47.5499 94.5389C47.4291 94.6249 46.7106 94.7911 45.9534 94.9081C45.1961 95.0251 44.0735 95.2579 43.4589 95.4256C42.8442 95.5931 42.0538 95.7376 41.7026 95.7465C41.3514 95.7552 40.2019 95.9572 39.148 96.1948C36.8953 96.7027 36.0144 96.8508 31.9634 97.4027C24.6648 98.3971 20.6552 98.5374 19.809 97.828L19.8087 97.8279ZM64.8528 92.7696C64.8528 92.5595 64.7895 92.3875 64.712 92.3875C64.6346 92.3875 64.4824 92.5595 64.3738 92.7696C64.2653 92.9797 64.3287 93.1515 64.5147 93.1515C64.7007 93.1515 64.8528 92.9797 64.8528 92.7696ZM202.388 91.6231C202.281 91.0979 202.115 86.7987 202.019 82.0694C201.833 72.832 201.614 69.8496 201.118 69.8496C200.946 69.8496 200.874 70.2794 200.958 70.8046C201.042 71.3298 200.987 71.7596 200.835 71.7596C200.558 71.7596 200.414 70.9039 200.514 69.8496C200.613 68.8166 200.549 55.579 200.435 53.2335C200.176 47.9505 199.822 44.7544 199.365 43.5723C198.379 41.0251 197.346 41.1177 226.905 41.1026C255.526 41.088 267.017 41.2558 267.851 41.7007C268.473 42.032 269.152 43.366 268.845 43.6518C268.785 43.7077 268.078 44.0053 267.273 44.3132C265.532 44.98 264.105 44.5962 264.105 43.4609C264.105 42.8077 263.856 42.7276 261.79 42.7175C258 42.699 221.325 42.6945 219.161 42.7131C217.638 42.7261 217.166 42.8605 217.166 43.2831C217.166 43.7653 217.022 43.7646 216.047 43.2773C214.897 42.7025 214.69 42.705 204.553 43.4156L200.721 43.6842V45.4032C200.721 47.0756 200.75 47.1254 201.796 47.2451L202.871 47.3681L202.632 48.964C202.301 51.1763 202.394 62.5207 202.788 68.0952C203.35 76.0451 203.033 94.767 202.389 91.624L202.388 91.6231ZM19.0278 86.766C18.051 86.4738 17.5909 85.8868 17.5909 84.9329C17.5909 83.7784 18.0817 83.6905 23.658 83.8468C31.0917 84.055 34.2878 83.9754 41.0611 83.4134C42.8174 83.2677 46.6971 83.0963 49.6828 83.0326C54.313 82.9338 57.2844 82.7586 61.3379 82.3457C61.777 82.3009 62.2081 82.1555 62.2959 82.0225C62.5175 81.6868 65.4548 81.3271 68.6498 81.2444C71.1261 81.1803 71.3788 81.2448 71.9482 82.086C72.5413 82.9622 72.5426 83.0075 71.9807 83.2723C71.6593 83.4237 70.8863 83.5597 70.2629 83.5745C69.6394 83.5892 68.9899 83.7682 68.8194 83.9721C68.5559 84.2873 58.9201 84.953 55.1914 84.9137C54.5328 84.9065 53.9939 84.9954 53.9938 85.1107C53.9938 85.2259 52.2336 85.3622 50.0822 85.4135C47.9309 85.4647 44.8055 85.6041 43.1372 85.7233C41.4688 85.8424 37.6609 86.0218 34.6752 86.1217C26.7989 86.3854 23.0722 86.5667 21.2632 86.7741C20.3851 86.8748 19.3793 86.8712 19.0279 86.7668L19.0278 86.766ZM259.763 80.7364C259.203 79.7148 258.492 79.4826 258.277 80.2517C258.19 80.5668 257.47 80.7044 256.095 80.6687C253.198 80.5933 253.246 80.605 253.246 79.9724C253.246 79.6572 253.426 79.3956 253.645 79.3909C253.865 79.3866 254.351 79.0854 254.725 78.7224C255.36 78.1061 255.382 77.9156 255.052 75.846C254.734 73.8499 254.631 73.6502 254.009 73.8369C252.984 74.1446 252.539 73.279 253.212 72.2863C253.514 71.8407 254.061 71.3623 254.427 71.2232C254.793 71.084 255.186 70.5892 255.299 70.1234L255.506 69.2766L256.012 70.1361C256.567 71.0796 258.276 71.3408 258.512 70.5181C258.587 70.2554 258.702 69.191 258.766 68.1525C258.888 66.1946 259.325 65.6304 260.112 66.4121C260.438 66.7357 260.517 67.3281 260.386 68.4684C260.166 70.3904 260.429 70.7158 262.722 71.3586C264.393 71.8271 264.89 72.3829 264.431 73.271C264.262 73.5983 264.008 73.6437 263.658 73.4092C263.371 73.2172 262.636 73.1299 262.024 73.2153C260.913 73.3705 260.913 73.3712 260.981 75.2389C261.039 76.8445 261.141 77.1073 261.706 77.1073C262.435 77.1073 263.784 78.1025 263.784 78.6397C263.784 78.8283 263.281 79.0956 262.666 79.2335C261.695 79.4514 261.548 79.6291 261.548 80.5878C261.548 82.0145 260.51 82.1008 259.763 80.7362L259.763 80.7364ZM259.044 75.5794C258.92 73.4677 258.679 73.1416 257.476 73.4578C256.668 73.6701 256.553 73.853 256.666 74.738C257.018 77.495 257.044 77.5424 258.122 77.4171C259.124 77.3008 259.143 77.2633 259.044 75.5795L259.044 75.5794ZM200.792 80.3145C200.664 80.1613 200.559 79.7724 200.559 79.4503C200.559 79.0203 200.653 78.9775 200.914 79.2895C201.109 79.5232 201.214 79.9122 201.147 80.1538C201.08 80.3954 200.92 80.4677 200.792 80.3145ZM214.018 79.8768C213.856 79.5091 213.704 75.4699 213.68 70.9007C213.655 66.3316 213.499 62.1623 213.332 61.6359C213.164 61.1094 213.044 60.0347 213.065 59.2478C213.086 58.4608 213.072 56.3557 213.034 54.5699C212.914 48.9998 214.035 43.9323 215.196 44.7908C215.721 45.1788 215.657 46.2199 215.014 47.7308C214.536 48.8564 214.469 50.1337 214.513 57.2438C214.582 68.3941 214.822 74.3927 215.22 74.9673C215.705 75.6663 215.28 80.5457 214.734 80.5457C214.502 80.5457 214.18 80.2449 214.018 79.8772L214.018 79.8768ZM200.634 76.3434C200.634 75.6081 200.699 75.3072 200.78 75.6749C200.86 76.0425 200.86 76.6442 200.78 77.0119C200.699 77.3795 200.634 77.0787 200.634 76.3434ZM488.968 76.2459C489.047 75.5771 489.245 75.4152 489.868 75.5106C490.307 75.5779 491.528 75.628 492.582 75.6221C495.543 75.6052 507.028 74.9034 508.868 74.627C510.358 74.403 513.149 74.0697 515.254 73.8646C520.031 73.3991 523.755 72.7876 526.111 72.0823C527.516 71.6616 528.839 71.3023 529.051 71.2838C529.263 71.2653 529.51 71.021 529.6 70.7408C529.837 70.0012 532.657 70.0434 532.657 70.7866C532.657 71.3828 530.528 72.6537 528.778 73.1015C528.189 73.2523 527.564 73.5042 527.388 73.6612C527.212 73.8182 526.207 74.0545 525.153 74.1864C521.107 74.6929 520.013 74.8457 519.086 75.0335C518.559 75.1402 516.26 75.4135 513.977 75.6406C511.694 75.8678 509.323 76.1055 508.708 76.1689C508.093 76.2323 503.567 76.3958 498.649 76.5323C493.732 76.6689 489.519 76.8533 489.287 76.9421C489.006 77.05 488.9 76.8185 488.968 76.2461L488.968 76.2459ZM230.262 74.8651C230.262 74.3549 234.29 73.4637 238.164 73.117C239.085 73.0346 240.257 72.8573 240.768 72.723C241.279 72.5887 241.784 72.6467 241.89 72.852C242.115 73.2869 241.231 73.5518 237.926 74.0412C236.609 74.2363 234.597 74.5727 233.456 74.789C230.889 75.275 230.262 75.29 230.262 74.8652L230.262 74.8651ZM29.3058 73.6631C27.6852 73.0812 27.2776 72.3158 27.9265 71.0729C28.1142 70.7132 28.6808 70.6421 29.9931 70.8137C32.1585 71.0969 31.7655 71.0838 35.3526 70.9914C38.3001 70.9155 39.6243 71.3225 39.6243 72.3044C39.6243 73.3642 37.2164 74.0529 33.6306 74.0186C31.7462 74.0005 29.8001 73.8405 29.3059 73.6631L29.3058 73.6631ZM200.428 73.7207C200.291 73.4544 200.265 73.1335 200.37 73.0074C200.656 72.6655 200.967 73.1683 200.813 73.7222C200.705 74.1104 200.63 74.1101 200.428 73.7208V73.7207ZM44.2952 72.7145C44.178 72.3491 43.6865 72.1415 42.9391 72.1415C42.1972 72.1415 41.6112 71.8961 41.3427 71.473C40.7623 70.5583 40.7913 69.4675 41.396 69.4675C41.6698 69.4675 41.8094 69.304 41.7062 69.1043C41.603 68.9045 41.5019 68.088 41.4816 67.2898C41.4281 65.1907 40.3958 62.2783 39.0002 60.2893C37.4815 58.1245 37.0545 56.275 37.9915 55.9192C39.2741 55.4323 40.7789 57.1571 42.9897 61.6481C43.2702 62.2181 43.3265 62.1169 43.3342 61.028C43.3462 59.3257 44.7235 55.9435 45.4722 55.7778C46.2231 55.6115 47.1693 56.6426 47.4371 57.9192C47.5977 58.6849 47.484 59.0675 46.9537 59.546C46.5723 59.8901 46.1388 60.8451 45.9902 61.6682C45.8416 62.4912 45.5476 63.9668 45.3369 64.9472C44.9904 66.5597 45.0234 66.906 45.6832 68.5761C46.4853 70.6063 46.5973 72.4647 45.9473 72.9577C45.2881 73.4578 44.4962 73.3412 44.2951 72.7144L44.2952 72.7145ZM242.862 72.9055C242.971 72.6954 243.266 72.5235 243.52 72.5235C243.773 72.5235 243.98 72.6954 243.98 72.9055C243.98 73.1155 243.684 73.2875 243.322 73.2875C242.961 73.2875 242.754 73.1155 242.862 72.9055ZM244.778 72.5235C244.887 72.3134 245.111 72.1415 245.276 72.1415C245.441 72.1415 245.576 72.3134 245.576 72.5235C245.576 72.7336 245.352 72.9055 245.078 72.9055C244.805 72.9055 244.669 72.7336 244.778 72.5235ZM23.3529 71.12C22.7916 70.6496 22.6735 70.2751 22.8166 69.4193C22.9288 68.7482 22.865 68.3216 22.6525 68.3216C22.4479 68.3216 22.3628 67.8501 22.4455 67.1756C22.5229 66.5453 22.4874 66.0297 22.3667 66.0297C22.246 66.0297 22.0454 65.0413 21.9207 63.8331C21.5844 60.5739 21.4879 60.1184 20.6772 57.9659L20.3017 56.969L18.2908 57.552C16.5562 58.0549 16.219 58.0607 15.8368 57.5939C15.4584 57.1319 15.4723 56.9392 15.9318 56.2759C16.6278 55.2713 17.8891 54.6871 20.4614 54.178C21.603 53.9521 22.8961 53.6727 23.3352 53.5572C23.7743 53.4417 25.0523 53.2627 26.1753 53.1595C28.536 52.9425 29.7216 53.4838 29.7216 54.7785C29.7216 56.0155 30.4284 56.575 31.4208 56.1237C32.5064 55.6299 33.4884 55.8915 34.4016 56.9179C35.2715 57.8955 35.3596 58.8519 34.645 59.5614C34.2491 59.9545 34.0089 59.9646 33.5318 59.6082C32.736 59.0137 32.3299 59.0347 31.7743 59.6994C31.254 60.3219 31.1669 62.6858 31.6265 63.7132C31.8957 64.3148 32.0976 64.3505 33.2145 63.9939C34.3733 63.6239 34.5704 63.6709 35.3011 64.492C35.7449 64.9907 36.1079 65.8003 36.1079 66.2911C36.1079 67.118 36.0033 67.1712 34.6813 67.0163C33.5482 66.8836 33.0197 67.04 32.1126 67.7764C30.7512 68.8815 29.6941 68.9585 28.9728 68.005C28.371 67.2095 28.2787 66.4117 28.7883 66.4117C29.2012 66.4117 28.8888 61.6753 28.4046 60.5929C28.1808 60.0927 28.2318 59.5494 28.5813 58.7114C29.1409 57.3695 28.9607 56.7111 28.1071 56.9782C27.7805 57.0804 27.2848 56.8467 26.9836 56.4485C26.4499 55.743 25.7685 55.6618 25.0274 56.2153C24.8165 56.3728 24.2777 56.4222 23.83 56.3251C22.8086 56.1035 22.8023 56.4785 23.7787 59.3744C24.202 60.6299 24.6331 62.9118 24.7475 64.5018C24.8608 66.0775 25.0324 68.1694 25.1288 69.1508C25.276 70.6497 25.2057 70.9979 24.6883 71.3291C24.2288 71.6233 23.89 71.5703 23.3528 71.1202L23.3529 71.12ZM57.9238 71.3054C56.6328 70.5588 56.249 68.4642 56.1692 61.7322C56.1201 57.5895 56.0365 56.8609 55.6093 56.8559C55.1684 56.8501 55.1656 56.8048 55.586 56.4797C56.3008 55.9272 55.7175 56.0218 54.4242 56.6682C53.7965 56.9819 53.1527 57.1423 52.9935 57.0246C52.8343 56.907 52.2877 57.0591 51.7789 57.3628C51.27 57.6664 50.5089 57.836 50.0876 57.7397C49.246 57.5472 48.3525 56.1751 48.7744 55.7229C49.3415 55.1152 53.9253 53.4607 55.7458 53.2068C56.7995 53.0598 58.0084 52.7842 58.4321 52.5945C59.4572 52.1354 62.3856 52.8746 63.0569 53.7618C63.7507 54.6789 63.4215 56.8618 62.5894 56.8618C62.2701 56.8618 61.7972 56.5005 61.5386 56.0588C61.1367 55.3724 60.8749 55.2949 59.7357 55.5252C58.5604 55.7627 58.4273 55.8915 58.6095 56.6147C58.868 57.64 59.3396 62.3658 59.5111 65.6476C59.6193 67.7178 59.7418 68.1527 60.2479 68.2631C61.2117 68.4736 61.4231 68.9365 60.9938 69.8962C60.1503 71.7816 59.3681 72.1406 57.924 71.3054L57.9238 71.3054ZM70.3184 70.8064C68.8293 70.2507 65.8147 67.0509 65.8082 66.0191C65.8062 65.6982 65.5845 65.0599 65.3157 64.6008C65.0468 64.1416 64.7708 63.115 64.7024 62.3193C64.6339 61.5237 64.4812 60.578 64.3631 60.2178C63.8116 58.5366 67.8501 54.6357 70.4778 54.3114C71.3321 54.206 72.103 54.1078 72.1908 54.0931C72.2787 54.0785 72.5661 54.1653 72.8295 54.2863C73.0929 54.4071 73.6936 54.6066 74.1643 54.7295C74.635 54.8523 75.2354 55.2105 75.4986 55.5254C75.7618 55.8402 76.2029 56.0978 76.4789 56.0978C76.7549 56.0978 76.9807 56.3413 76.9807 56.6389C76.9807 56.9366 77.0938 57.2374 77.232 57.3074C77.7451 57.5674 79.2159 61.0428 79.2159 61.9953C79.2159 64.6525 76.2658 69.2296 73.6278 70.6654C72.1304 71.4804 72.1255 71.4806 70.3184 70.8063L70.3184 70.8064ZM73.9589 66.7252C74.5983 66.0274 75.3241 65.319 75.572 65.1511C75.8199 64.9831 76.0226 64.5909 76.0226 64.2796C76.0226 63.9683 76.2088 63.6282 76.4364 63.5237C77.1837 63.1806 76.657 60.6133 75.4895 58.9089C73.8234 56.4763 71.3381 56.0762 68.9279 57.8524L67.4212 58.9627L67.4111 61.1744C67.3992 63.7735 68.1481 65.81 69.6843 67.3564C71.0085 68.6893 72.3393 68.4928 73.9588 66.7253L73.9589 66.7252ZM543.565 69.0091C543.102 68.4548 543.055 67.8 543.502 68.1305C543.677 68.2603 543.821 68.1988 543.821 67.9939C543.821 67.7889 543.678 67.5639 543.503 67.4939C543.319 67.4204 543.118 64.8631 543.027 61.4457C542.941 58.1892 542.86 55.2671 542.848 54.9519C542.823 54.3034 542.312 48.6727 542.068 46.3571C541.98 45.5167 541.562 42.9383 541.14 40.6271C540.718 38.316 540.435 36.3022 540.512 36.1518C540.589 36.0014 540.436 34.97 540.172 33.8599C539.662 31.7157 539.462 30.6507 539.021 27.7178C538.87 26.7105 538.665 25.5805 538.566 25.2069C538.466 24.8332 538.108 21.3637 537.769 17.4969C537.298 12.1152 537.243 10.3987 537.534 10.1774C538.456 9.47606 538.57 9.87188 538.878 14.8426C539.115 18.6597 539.924 25.868 540.17 26.3433C540.264 26.5254 540.71 29.0402 541.161 31.9317C542.224 38.7448 542.638 41.2936 543.463 46.1116C543.836 48.2878 544.14 50.9194 544.14 51.9594C544.14 52.9995 544.275 55.0007 544.44 56.4066C544.605 57.8125 544.808 61.3263 544.892 64.2151C545.031 68.9944 544.996 69.4675 544.497 69.4675C544.195 69.4675 543.776 69.2612 543.566 69.0091L543.565 69.0091ZM226.278 67.2159C226.039 66.7517 226.219 66.6743 227.295 66.7786C227.803 66.8279 228.014 66.6404 228.014 66.1391C228.014 65.5783 228.398 65.3434 229.85 65.0167C230.86 64.7894 231.796 64.6784 231.931 64.77C232.464 65.1328 231.748 65.6476 230.709 65.6476C230.105 65.6476 229.61 65.8359 229.61 66.0661C229.61 66.4573 236.19 66.3222 240.467 65.8432C244.224 65.4225 249.08 65.3218 249.255 65.6609C249.36 65.8637 249.114 66.0324 248.709 66.0358C248.303 66.0387 246.319 66.2206 244.299 66.4388C236.006 67.3351 226.551 67.7428 226.278 67.2159H226.278ZM491.296 65.8086C491.092 65.7062 490.991 61.7355 491.017 54.8564C491.061 43.2585 490.846 38.5319 490.058 33.7387C488.86 26.4456 488.424 18.3165 489.183 17.4084C489.691 16.8 490.11 18.4205 490.492 22.4823C490.68 24.4782 491.039 28.0021 491.289 30.3132C492.365 40.2456 492.479 42.3257 492.525 52.8502C492.579 65.2166 492.467 66.3972 491.296 65.8079L491.296 65.8086ZM232.494 64.9333C232.494 64.6059 234.148 64.2332 236.964 63.9262C238.965 63.708 240.956 63.4124 240.956 63.3335C240.956 63.2971 241.978 63.2256 243.228 63.1749C244.477 63.124 245.699 62.9331 245.942 62.7506C246.544 62.2994 248.406 62.178 248.612 62.5767C248.866 63.0683 247.238 63.5985 245.154 63.703C244.126 63.7545 242.976 63.8812 242.599 63.9846C242.222 64.088 241.052 64.249 239.998 64.3425C238.944 64.4361 237.03 64.682 235.744 64.8891C232.879 65.3503 232.494 65.3556 232.494 64.9333ZM508.409 64.1773C508.356 61.5546 510.182 58.8147 512.518 58.0132C513.379 57.7178 513.869 57.8803 515.894 59.1336C518.898 60.9935 520.975 61.5996 523.13 61.245C525.019 60.9342 526.581 59.4423 526.589 57.9416C526.593 57.4527 526.725 56.8059 526.884 56.5042C527.365 55.5945 528.218 56.7141 527.989 57.9558C527.282 61.8012 526.642 62.4036 522.874 62.7746C519.78 63.0792 518.367 62.6926 515.746 60.825C514.188 59.7148 513.655 59.5161 512.821 59.7351C511.68 60.0348 509.513 62.5366 508.858 64.3106L508.435 65.4566L508.409 64.1773L508.409 64.1773ZM229.621 60.3011C229.621 59.4499 231.182 59.0571 234.546 59.0614C236.631 59.0643 238.261 58.8948 238.515 58.6491C239.192 57.9946 239.585 57.9523 246.945 57.7411C251.35 57.6146 253.89 57.6777 253.89 57.9136C253.89 58.1181 252.345 58.4072 250.457 58.5559C248.569 58.7047 245.516 59.0847 243.672 59.4004C241.827 59.7161 238.092 60.0453 235.371 60.132C232.649 60.2188 230.243 60.3726 230.022 60.4738C229.802 60.575 229.621 60.4973 229.621 60.3011ZM254.848 58.0077C254.46 57.7083 254.506 57.6363 255.087 57.6316C255.482 57.6287 255.806 57.7976 255.806 58.0077C255.806 58.4863 255.467 58.4863 254.848 58.0077ZM225.479 57.6407C225.221 57.4452 225.1 57.1769 225.211 57.0444C225.759 56.3894 230.579 56.5726 230.579 57.2483C230.579 57.4072 229.921 57.5107 229.116 57.4783C228.311 57.4459 227.584 57.5518 227.5 57.7136C227.292 58.1179 226.051 58.0732 225.479 57.6406L225.479 57.6407ZM231.269 57.3278C230.384 56.975 231.018 56.4798 232.354 56.4798C233.155 56.4798 233.732 56.6319 233.636 56.8177C233.437 57.2028 231.826 57.5499 231.269 57.3278H231.269ZM234.252 56.8618C234.143 56.6517 234.206 56.4798 234.392 56.4798C234.578 56.4798 234.73 56.6517 234.73 56.8618C234.73 57.0719 234.667 57.2437 234.59 57.2437C234.512 57.2437 234.36 57.0719 234.252 56.8618ZM436.777 56.2514C436.672 56.1258 436.66 54.9916 436.75 53.7309C436.945 51.0155 436.708 49.604 436.057 49.604C435.444 49.604 435.448 48.6865 436.063 48.0761C436.576 47.5664 436.669 45.8532 436.339 42.9724C436.111 40.9793 435.472 40.6198 434.887 42.1551C434.687 42.6803 434.423 43.1101 434.299 43.1101C434.176 43.1101 433.978 44.6142 433.86 46.4525C433.545 51.3259 433.376 52.1803 432.68 52.3979C432.346 52.5025 431.969 52.3892 431.842 52.1465C431.437 51.3694 431.765 43.3919 432.292 41.2002C432.569 40.0446 432.834 38.605 432.879 38.0009C432.954 36.9994 433.457 36.255 434.067 36.2401C434.199 36.2373 434.307 37.2097 434.307 38.4019V40.5694L435.046 39.7388C435.886 38.7945 436.931 38.6611 437.464 39.4301C437.664 39.7171 437.97 41.393 438.145 43.1545C438.598 47.7003 438.695 48.0761 439.422 48.0761C440.244 48.0761 440.24 48.693 439.416 48.9508C438.922 49.1052 438.772 49.4842 438.756 50.6187C438.731 52.3125 438.541 54.3827 438.296 55.6205C438.138 56.4221 437.234 56.7978 436.777 56.2516L436.777 56.2514ZM456.383 54.3031C455.967 54.2041 455.555 53.7939 455.467 53.3915C455.379 52.9891 455.197 52.6599 455.062 52.6599C454.927 52.6599 454.715 51.6715 454.59 50.4633C454.465 49.2553 454.218 48.0566 454.042 47.7998C453.682 47.2749 453.607 43.2375 453.934 42.0033C454.07 41.4913 454.416 41.2 454.888 41.2C455.325 41.2 455.842 40.809 456.151 40.245C456.711 39.2217 457.867 38.9785 458.511 39.7484C459.042 40.3835 458.991 41.7747 458.415 42.346C458.015 42.7437 457.936 42.6867 457.936 41.9974C457.936 41.3015 457.84 41.2346 457.32 41.5678C456.981 41.7849 456.415 42.4465 456.063 43.0381C455.508 43.9701 455.466 44.3401 455.748 45.8084C455.927 46.7404 456.129 47.9991 456.197 48.6055C456.366 50.12 456.475 50.1773 457.777 49.4382C460.165 48.0828 461.474 49.5664 459.224 51.0786C457.35 52.3387 457.492 52.8424 459.672 52.6641C460.586 52.5893 460.597 52.6097 460.114 53.4832C459.61 54.3961 458.134 54.7204 456.382 54.3031L456.383 54.3031ZM410.412 53.1373C409.975 52.1264 409.723 47.2695 410.123 47.5647C410.337 47.7234 410.373 47.4325 410.225 46.7269C409.861 44.9948 409.402 39.5956 409.588 39.2364C409.846 38.7367 410.875 38.8446 411.269 39.4126C411.481 39.7189 411.654 42.3076 411.707 46.002C411.762 49.7641 411.917 52.0734 412.115 52.0516C412.29 52.0323 412.685 51.4305 412.992 50.7146C413.51 49.5068 413.551 49.4818 413.55 50.368C413.55 51.903 412.41 53.8058 411.492 53.8058C411.056 53.8058 410.57 53.505 410.412 53.1373ZM468.397 52.3247C467.972 51.7202 467.295 50.1731 466.893 48.8869C465.932 45.8124 465.458 45.7307 465.587 48.6615C465.671 50.5705 465.093 51.8959 464.178 51.8959C463.585 51.8959 463.324 51.6418 463.172 50.9159C462.906 49.6468 463.547 45.8353 464.164 45.0196C464.427 44.6716 464.644 44.1426 464.645 43.844C464.645 43.5454 464.794 42.6642 464.975 41.8857C465.443 39.8708 466.06 40.374 466.864 43.4268C467.687 46.5472 469.452 50.8618 469.983 51.0504C470.681 51.2981 472.307 47.7175 472.307 45.9321C472.307 45.0454 472.142 44.2542 471.941 44.1742C471.465 43.9841 472.083 42.5304 472.777 42.2122C473.864 41.7129 474.222 42.3484 474.222 44.7771C474.222 47.887 473.913 49.0361 472.43 51.4239C471.39 53.0998 471.026 53.4233 470.18 53.4236C469.459 53.4239 468.949 53.1092 468.397 52.3249L468.397 52.3247ZM445.324 52.6782C444.326 52.1226 442.61 50.1346 442.61 49.5346C442.61 49.2366 442.438 48.7873 442.228 48.5361C441.983 48.243 441.849 46.7445 441.853 44.3533C441.86 40.5129 442.419 38.2969 443.704 37.0215C443.98 36.7472 444.206 36.2961 444.206 36.0191C444.206 35.4249 444.392 35.2779 445.563 34.9428C446.113 34.7858 446.442 34.8477 446.442 35.1083C446.442 35.7575 445.591 36.6163 444.948 36.6163C444.539 36.6163 444.35 36.9283 444.313 37.6668C444.284 38.2446 444.026 40.0439 443.738 41.6654C443.234 44.509 443.239 44.7071 443.873 47.2555C444.235 48.7086 444.709 50.0735 444.927 50.2888C445.146 50.504 445.956 50.7388 446.729 50.8106C448.021 50.9307 448.157 50.8562 448.435 49.878C448.979 47.963 448.589 47.6025 446.906 48.4654C445.06 49.4123 444.526 49.4183 444.526 48.4923C444.526 47.6512 447.353 45.7841 448.626 45.7841C449.392 45.7841 449.404 45.7364 449.221 43.392C449.118 42.0763 448.933 40.6581 448.809 40.2406C448.659 39.7387 448.69 39.6108 448.899 39.8633C449.293 40.3402 450.103 44.2662 450.618 48.1979C450.983 50.9784 450.968 51.234 450.402 51.899C449.699 52.7257 446.336 53.2418 445.324 52.6783L445.324 52.6782ZM513.401 52.5272C513.063 51.4709 515.643 50.6047 519.035 50.6363C520.879 50.6535 522.323 50.8408 522.531 51.0897C522.791 51.4006 522.549 51.5297 521.625 51.5732C518.712 51.71 517.554 51.8808 515.711 52.4456C513.376 53.1613 513.602 53.1533 513.401 52.5272ZM414.872 52.3185C414.23 51.8321 413.906 49.0595 414.109 45.7951C414.283 42.9972 414.977 40.8434 415.502 41.4718C415.645 41.6427 415.803 43.5854 415.854 45.7889C415.936 49.3567 415.992 49.6969 416.373 48.8981C416.608 48.4048 416.862 47.3735 416.939 46.6062C417.015 45.8389 417.296 44.2976 417.564 43.181C417.934 41.6387 418.182 41.1808 418.595 41.2756C419.04 41.3776 419.152 41.9087 419.211 44.2088C419.303 47.8306 419.978 49.3653 421.549 49.5249C422.371 49.6082 422.988 49.3405 423.972 48.474L425.292 47.3112L425.324 43.5503C425.359 39.6265 425.94 36.9981 426.773 36.9981C427.494 36.9981 427.601 37.9185 427.601 44.0962C427.601 47.8249 427.72 49.9859 427.925 49.9859C428.103 49.9859 428.534 49.4272 428.882 48.7444L429.514 47.5029V48.5215C429.514 49.0818 429.408 49.5975 429.276 49.6675C429.144 49.7376 428.816 50.3106 428.547 50.9409C428.263 51.6048 427.753 52.1392 427.333 52.2114C426.745 52.3128 426.514 52.0451 426.098 50.7789C425.538 49.0714 425.328 48.9265 424.711 49.8169C424.153 50.6212 422.298 51.5138 421.186 51.5138C420.632 51.5138 419.852 51.0664 419.187 50.3678C418.586 49.7375 418.032 49.2218 417.955 49.2218C417.878 49.2218 417.491 49.9954 417.096 50.9408C416.388 52.6367 415.785 53.0107 414.871 52.3184L414.872 52.3185ZM518.766 43.234C518.415 43.1224 517.912 42.8204 517.648 42.5629C517.385 42.3053 516.183 41.3623 514.977 40.4673C512.486 38.6187 511.302 38.5674 509.98 40.2509C509.57 40.773 509.044 41.2001 508.811 41.2001C508.017 41.2001 508.386 40.1118 509.578 38.936C510.475 38.0521 511.089 37.7622 512.065 37.7622C513.412 37.7622 515.344 38.7367 516.5 39.9984C517.459 41.0454 519.088 41.9641 519.984 41.9641C521.133 41.9641 522.335 40.6384 522.576 39.1059C522.731 38.1133 522.949 37.7623 523.41 37.7623C524.613 37.7623 523.799 41.3806 522.339 42.5249C521.466 43.2093 519.756 43.5487 518.766 43.2341L518.766 43.234ZM517.329 32.2673C516.539 31.5551 515.119 30.1048 514.173 29.0445C513.227 27.9842 512.022 26.9024 511.493 26.6408C510.586 26.1913 510.476 26.239 509.505 27.5072C508.939 28.2455 508.403 29.0929 508.313 29.3903C508.18 29.8266 508.066 29.8382 507.722 29.45C507.368 29.0501 507.397 28.7641 507.893 27.7592C508.935 25.6493 509.439 25.1562 510.55 25.1562C512.004 25.1562 512.999 25.8411 516.088 28.9676C519.585 32.5062 520.286 32.5181 522.242 29.0717C522.792 28.1027 523.412 27.4482 523.78 27.4482C524.707 27.4482 524.245 28.7745 522.448 31.2681C520.503 33.968 519.445 34.1745 517.329 32.2672L517.329 32.2673ZM225.64 23.7925C225.208 22.8328 225.132 22.3499 225.385 22.1628C225.623 21.9868 225.257 21.0161 224.303 19.2932C223.51 17.8611 222.779 16.7881 222.678 16.9087C222.374 17.2725 221.638 16.3265 221.638 15.5718C221.638 15.1096 221.799 14.9405 222.105 15.0811C222.49 15.2578 222.541 14.9686 222.394 13.4457C222.277 12.2347 222.39 11.0018 222.72 9.87671C222.998 8.93128 223.227 7.85735 223.23 7.49035C223.236 6.55622 225.131 1.85497 225.501 1.85497C225.668 1.85497 225.945 1.4133 226.117 0.873492C226.533 -0.436423 227.704 -0.252278 228.29 1.2154C228.784 2.45191 228.584 2.95108 227.876 2.24864C227.251 1.6275 226.428 2.01343 226.428 2.92791C226.428 3.32115 226.005 4.65869 225.487 5.90032C224.751 7.66819 224.511 8.84528 224.383 11.3274C224.21 14.6715 224.206 14.6601 225.789 14.9837C226.228 15.0733 227.129 15.2701 227.792 15.4208C228.829 15.6568 229.111 15.5575 229.826 14.7017C230.897 13.4207 231.246 13.7184 231.02 15.7188C230.866 17.0775 230.955 17.4563 231.595 18.1717C232.556 19.2449 235.554 19.7435 236.935 19.0596C237.831 18.6155 238.782 16.7075 238.56 15.7976C238.509 15.5875 238.452 15.0359 238.435 14.5718C238.416 14.0787 237.937 13.3179 237.284 12.7417C236.67 12.1992 236.167 11.5476 236.167 11.2936C236.167 10.5564 233.46 10.2943 232.224 10.9119C230.816 11.6155 230.584 11.2676 231.663 10.0716C232.738 8.87916 234.659 8.80095 237.444 9.83613C238.953 10.397 239.548 10.8565 240.246 12.0006C241.02 13.2703 241.108 13.6916 240.95 15.351C240.717 17.7866 240.501 18.2353 238.713 19.9877C236.851 21.8125 235.298 22.089 232.734 21.0519L230.898 20.3093V22.5419C230.898 23.7699 230.8 24.7746 230.679 24.7746C230.559 24.7746 230.12 24.3923 229.704 23.9251C229.234 23.3961 228.865 23.2243 228.726 23.4697C228.407 24.034 226.985 25.1566 226.589 25.1566C226.404 25.1566 225.977 24.5429 225.64 23.7928L225.64 23.7925ZM229.461 20.0377C229.461 17.9318 229.067 17.4821 227.136 17.3858C226.22 17.3401 225.47 17.3594 225.47 17.4286C225.47 17.4977 225.698 18.1045 225.976 18.7769C226.638 20.3744 228.019 21.7584 228.823 21.6297C229.338 21.5472 229.461 21.2387 229.461 20.0378L229.461 20.0377ZM252.318 22.1958C252.062 21.044 251.812 11.0866 251.943 7.29776C251.994 5.83264 253.137 6.20484 253.586 7.83291C253.958 9.18106 254.28 22.1308 253.967 23.1511C253.887 23.4137 253.554 23.6286 253.229 23.6286C252.814 23.6286 252.541 23.1997 252.318 22.1961V22.1958ZM280.549 23.2401C280.439 23.0266 280.233 22.9379 280.09 23.0431C279.647 23.3708 278.205 21.3383 277.414 19.2694C276.426 16.6894 275.771 12.6793 276.049 10.911C276.219 9.82527 276.666 9.12287 278.041 7.78365C281.047 4.85399 282.702 5.57243 284.875 10.7502C286.096 13.6579 286.182 14.0692 286.06 16.3724C285.907 19.2585 284.841 21.6622 283.176 22.8766C282.06 23.6907 280.867 23.8556 280.549 23.24V23.2401ZM283.013 19.6226C283.901 18.1142 284.013 17.6449 283.942 15.7071C283.897 14.4962 283.656 13.1247 283.404 12.6594C283.153 12.1941 282.948 11.465 282.948 11.0392C282.948 10.6134 282.66 10.0503 282.309 9.78793C281.958 9.52551 281.67 9.11269 281.67 8.87056C281.67 8.44827 280.978 7.96659 280.371 7.96659C280.211 7.96659 280.115 8.35335 280.157 8.82606C280.221 9.5416 280.089 9.67397 279.371 9.61632C278.579 9.55265 278.491 9.69011 278.281 11.3353C278.132 12.5047 278.233 14.181 278.573 16.1795C278.998 18.6764 279.272 19.4276 280.068 20.2859C280.603 20.8637 281.258 21.3364 281.522 21.3364C281.786 21.3364 282.457 20.5652 283.012 19.6227L283.013 19.6226ZM271.482 22.5176C271.147 22.1169 270.693 20.8276 270.473 19.6526C270.253 18.4777 270.009 17.5165 269.931 17.5165C269.852 17.5165 269.361 17.9462 268.839 18.4715C267.538 19.7816 266.907 19.6719 266.094 17.994C265.512 16.7934 265.399 16.7006 265.392 17.421C265.389 17.8937 265.241 18.2805 265.066 18.2805C264.89 18.2805 264.746 18.586 264.746 18.9595C264.746 20.6267 262.762 22.1927 262.34 20.8588C262.035 19.8952 261.703 12.979 261.911 11.9217C262.029 11.3221 262.209 10.3872 262.311 9.84419C262.45 9.10894 262.682 8.87319 263.223 8.9207C263.622 8.95578 263.995 9.27113 264.051 9.62147C264.177 10.3984 264.747 10.4732 264.747 9.71272C264.747 9.41258 264.977 8.89096 265.259 8.55355C265.991 7.67871 266.66 8.46187 266.674 10.2097C266.686 11.7323 267.438 16.2791 267.736 16.636C267.973 16.9198 269.192 15.1955 269.206 14.5558C269.212 14.2932 269.345 14.0783 269.502 14.0783C269.888 14.0783 270.182 12.5541 270.485 8.97926C270.759 5.75204 271.404 4.31724 272.168 5.23272C272.463 5.58497 272.57 7.65519 272.57 12.9851V20.257L273.363 21.0259L274.157 21.7949L273.408 22.5205C272.473 23.4263 272.241 23.4259 271.482 22.5176L271.482 22.5176ZM264.427 11.7865C264.427 11.5764 264.275 11.4045 264.089 11.4045C263.903 11.4045 263.84 11.5764 263.948 11.7865C264.057 11.9966 264.209 12.1685 264.286 12.1685C264.364 12.1685 264.427 11.9966 264.427 11.7865ZM210.382 22.5809C210.044 22.4873 209.823 22.0697 209.823 21.5219C209.823 21.0245 209.697 20.5243 209.543 20.4104C209.389 20.2965 209.1 19.4256 208.899 18.4751L208.536 16.7467L207.138 16.81C205.792 16.8709 205.692 16.9625 204.398 19.3175C203.347 21.229 202.905 21.7362 202.368 21.6445C201.99 21.5801 201.695 21.3125 201.712 21.0499C201.73 20.7873 201.766 18.9394 201.792 16.9435C201.831 13.9979 201.93 13.3146 202.319 13.3146C202.583 13.3146 202.807 13.1857 202.817 13.0281C202.827 12.8705 202.876 12.1237 202.924 11.3686C203.004 10.1396 204.017 5.74667 204.744 3.47839C205.029 2.58917 205.536 2.40596 206.237 2.9384C206.597 3.21183 207.488 6.28354 208.216 9.76211C208.54 11.3104 210.31 14.8235 211.212 15.7069C211.83 16.3124 211.848 16.4277 211.39 16.8529C210.953 17.2596 210.938 17.5122 211.286 18.6626C212.028 21.115 211.611 22.921 210.382 22.5811L210.382 22.5809ZM207.269 13.5279C207.269 13.0151 207.135 12.4969 206.972 12.3764C206.612 12.1102 206.19 13.5349 206.469 14.075C206.83 14.7754 207.269 14.4758 207.269 13.528V13.5279ZM244.064 22.0048C243.728 21.5101 243.282 16.5636 243.331 13.8875C243.347 13.0471 243.158 11.9027 242.911 11.3446C242.595 10.6305 242.513 9.57411 242.633 7.78083C242.785 5.51313 242.891 5.19248 243.591 4.87399C244.024 4.6771 244.899 4.00311 245.534 3.37622C247.106 1.82664 248.278 1.85999 249.103 3.478C249.451 4.16081 249.736 5.20879 249.737 5.80664C249.738 7.27985 248.806 11.0224 248.438 11.0224C248.275 11.0224 248.141 11.2495 248.141 11.5271C248.141 11.8047 247.869 12.7012 247.537 13.5192L246.932 15.0065L248.027 16.5377C249.184 18.1544 249.608 19.4308 249.303 20.3803C249 21.3268 248.543 21.0437 247.529 19.2812C246.375 17.2738 245.604 16.7773 245.549 18.0057C245.528 18.4719 245.536 19.0122 245.568 19.2065C245.599 19.4009 245.531 20.2174 245.418 21.0211C245.21 22.4943 244.664 22.8903 244.064 22.0047L244.064 22.0048ZM246.507 13.3595C246.691 12.3337 247.151 10.8655 247.53 10.0967C248.072 8.99887 248.187 8.28756 248.066 6.7823C247.981 5.72816 247.782 4.71055 247.624 4.52098C247.169 3.97634 245.848 4.96681 245.165 6.36479C244.59 7.54289 244.581 7.75782 245.024 9.61914C245.284 10.7153 245.43 12.1649 245.347 12.8406C245.006 15.6221 246.02 16.0759 246.507 13.3595L246.507 13.3595ZM214.619 20.3032C214.029 19.4071 213.763 17.4397 213.906 15.0334C214.133 11.1887 214.043 7.87176 213.705 7.62156C213.227 7.26804 212.827 3.56781 213.234 3.26664C213.985 2.71172 215.06 4.02175 215.681 6.24768C216.272 8.36913 216.293 8.89322 215.963 13.29C215.767 15.9026 215.679 18.1803 215.767 18.3514C215.978 18.7594 217.168 18.7549 217.168 18.3456C217.168 17.8031 220.428 17.0618 220.809 17.5176C221.381 18.2019 220.587 19.1742 218.722 20.0724C215.969 21.3985 215.361 21.4326 214.619 20.3029L214.619 20.3032ZM258.398 19.32C258.177 19.0562 258.04 17.3046 258.04 14.7614V10.6314L256.763 10.8757C255.277 11.1599 255.144 10.776 256.213 9.28961C256.964 8.24385 257.559 8.12046 259.705 8.56509C260.97 8.82725 261.739 9.58739 261.401 10.2417C261.288 10.461 260.933 10.6404 260.612 10.6404C260.089 10.6404 260.034 10.9825 260.072 13.9829C260.096 15.8212 260.009 17.7791 259.879 18.3336C259.607 19.4895 258.922 19.9463 258.398 19.32L258.398 19.32ZM526.831 10.0445C526.729 9.9222 519.031 9.78497 509.726 9.73951C496.163 9.67324 492.704 9.55567 492.293 9.1469C491.211 8.07298 491.799 7.9141 496.074 8.12467C498.436 8.24104 506.116 8.40921 513.14 8.49843C520.165 8.58766 526.085 8.78899 526.298 8.94577C526.51 9.10255 527.653 9.19318 528.837 9.14721C530.022 9.1013 531.078 9.22996 531.183 9.43338C531.296 9.65233 530.718 9.80917 529.767 9.81798C528.883 9.82664 527.903 9.93047 527.588 10.0499C527.274 10.1693 526.933 10.1668 526.831 10.0441L526.831 10.0445ZM534.407 8.73045C533.461 8.44239 533.464 8.43831 534.666 8.39366C535.403 8.36623 535.804 8.49876 535.685 8.73045C535.576 8.94055 535.46 9.09211 535.426 9.06724C535.393 9.04241 534.934 8.89084 534.407 8.73045Z" fill="black"/>
</g>
<defs>
<clipPath id="clip0">
<rect width="545" height="178" fill="white"/>
</clipPath>
</defs>
</svg>
